<svg width="40" height="40" viewBox="0 0 40 40" fill="none" xmlns="http://www.w3.org/2000/svg">
<path d="M26.0595 19.544C26.0603 19.9245 25.9277 20.2933 25.6849 20.5864L17.5412 30.3589C17.2647 30.6915 16.8674 30.9007 16.4368 30.9404C16.0061 30.9801 15.5773 30.8471 15.2446 30.5706C14.912 30.2942 14.7029 29.8969 14.6631 29.4662C14.6234 29.0355 14.7564 28.6067 15.0329 28.2741L22.3297 19.544L15.2935 10.8139C15.1582 10.6473 15.0572 10.4556 14.9962 10.2498C14.9352 10.044 14.9155 9.82823 14.9382 9.61482C14.961 9.40141 15.0256 9.19459 15.1285 9.00624C15.2314 8.8179 15.3705 8.65175 15.5378 8.51734C15.7053 8.36818 15.9018 8.25521 16.1149 8.18551C16.3281 8.11581 16.5533 8.09089 16.7766 8.1123C16.9998 8.1337 17.2162 8.20098 17.4123 8.30991C17.6083 8.41885 17.7797 8.5671 17.9158 8.74537L25.7827 18.5179C25.9871 18.8193 26.0846 19.1806 26.0595 19.544Z" fill="#3F72A4"/>
</svg>
