<svg width="22" height="23" viewBox="0 0 22 23" fill="none" xmlns="http://www.w3.org/2000/svg">
<path d="M2.06379 2.6582C1.51644 2.6582 0.991506 2.877 0.60447 3.26647C0.217435 3.65593 0 4.18416 0 4.73495V20.9232C0 21.474 0.217435 22.0022 0.60447 22.3916C0.991506 22.7811 1.51644 22.9999 2.06379 22.9999H19.9362C20.4836 22.9999 21.0085 22.7811 21.3955 22.3916C21.7826 22.0022 22 21.474 22 20.9232V4.74533C22 4.19454 21.7826 3.66632 21.3955 3.27685C21.0085 2.88739 20.4836 2.66859 19.9362 2.66859H19.2139V3.98732C19.2316 4.20885 19.2035 4.43167 19.1315 4.64175C19.0594 4.85182 18.9449 5.0446 18.7951 5.20794C18.6453 5.37127 18.4635 5.50163 18.2612 5.59078C18.0589 5.67994 17.8405 5.72597 17.6196 5.72597C17.3987 5.72597 17.1803 5.67994 16.978 5.59078C16.7757 5.50163 16.5939 5.37127 16.4441 5.20794C16.2944 5.0446 16.1798 4.85182 16.1077 4.64175C16.0357 4.43167 16.0076 4.20885 16.0253 3.98732V2.6582H5.98499V3.97693C6.00272 4.19846 5.97466 4.42129 5.90258 4.63136C5.8305 4.84144 5.71597 5.03422 5.56619 5.19755C5.41642 5.36089 5.23465 5.49124 5.03235 5.5804C4.83004 5.66956 4.61157 5.71558 4.39071 5.71558C4.16985 5.71558 3.95139 5.66956 3.74908 5.5804C3.54677 5.49124 3.365 5.36089 3.21523 5.19755C3.06546 5.03422 2.95092 4.84144 2.87885 4.63136C2.80677 4.42129 2.77871 4.19846 2.79644 3.97693V2.6582H2.06379ZM3.38462 8.51462H18.6257C18.7296 8.50904 18.8335 8.52429 18.9314 8.5595C19.0293 8.59471 19.1193 8.64918 19.1962 8.71972C19.273 8.79026 19.3351 8.87547 19.3789 8.97039C19.4227 9.06532 19.4473 9.16806 19.4512 9.27263V19.7394C19.4473 19.844 19.4227 19.9467 19.3789 20.0417C19.3351 20.1366 19.273 20.2218 19.1962 20.2923C19.1193 20.3629 19.0293 20.4173 18.9314 20.4526C18.8335 20.4878 18.7296 20.503 18.6257 20.4974H3.38462C3.28024 20.503 3.17579 20.4879 3.07726 20.4528C2.97872 20.4177 2.88803 20.3634 2.81039 20.293C2.73275 20.2225 2.66967 20.1374 2.62478 20.0424C2.57989 19.9474 2.55406 19.8445 2.54878 19.7394V9.26225C2.56207 9.05194 2.65734 8.85542 2.81386 8.71541C2.97038 8.57541 3.1755 8.50325 3.38462 8.51462Z" fill="#3F72A4"/>
<path d="M3.61157 0.768395V3.97696C3.61157 4.18076 3.69202 4.3762 3.83523 4.5203C3.97843 4.6644 4.17265 4.74536 4.37517 4.74536C4.57769 4.74536 4.77192 4.6644 4.91512 4.5203C5.05833 4.3762 5.13878 4.18076 5.13878 3.97696V0.768395C5.13878 0.564604 5.05833 0.369159 4.91512 0.225057C4.77192 0.0809553 4.57769 0 4.37517 0C4.17265 0 3.97843 0.0809553 3.83523 0.225057C3.69202 0.369159 3.61157 0.564604 3.61157 0.768395Z" fill="#3F72A4"/>
<path d="M16.8611 0.768577V3.97715C16.8486 4.08485 16.8589 4.19399 16.8913 4.2974C16.9237 4.40082 16.9775 4.49616 17.0491 4.57716C17.1208 4.65816 17.2086 4.72298 17.307 4.76737C17.4053 4.81177 17.5118 4.83471 17.6196 4.83471C17.7273 4.83471 17.8339 4.81177 17.9322 4.76737C18.0305 4.72298 18.1183 4.65816 18.19 4.57716C18.2616 4.49616 18.3154 4.40082 18.3478 4.2974C18.3802 4.19399 18.3905 4.08485 18.378 3.97715V0.768577C18.3563 0.5815 18.267 0.408967 18.1272 0.28375C17.9874 0.158533 17.8067 0.0893555 17.6196 0.0893555C17.4324 0.0893555 17.2517 0.158533 17.1119 0.28375C16.9721 0.408967 16.8828 0.5815 16.8611 0.768577Z" fill="#3F72A4"/>
<path d="M8.04862 9.823H4.01392V13.9765H8.04862V9.823Z" fill="#3F72A4"/>
<path d="M13.1155 9.823H9.08081V13.9765H13.1155V9.823Z" fill="#3F72A4"/>
<path d="M8.04862 14.9216H4.01392V19.0751H8.04862V14.9216Z" fill="#3F72A4"/>
<path d="M13.1155 14.9216H9.08081V19.0751H13.1155V14.9216Z" fill="#3F72A4"/>
<path d="M18.3882 9.823H14.3535V13.9765H18.3882V9.823Z" fill="#3F72A4"/>
<path d="M18.3882 14.9216H14.3535V19.0751H18.3882V14.9216Z" fill="#3F72A4"/>
</svg>
