<svg width="23" height="14" viewBox="0 0 23 14" fill="none" xmlns="http://www.w3.org/2000/svg">
<path d="M4.82235 0.970703C4.19982 0.973167 3.58866 1.13771 3.04904 1.44812C2.50941 1.75854 2.05993 2.20413 1.74483 2.74103C1.42973 3.27793 1.25988 3.88764 1.252 4.51013C1.24411 5.13261 1.39847 5.74642 1.69988 6.29113C2.00129 6.83584 2.43935 7.29267 2.97094 7.61665C3.50253 7.94063 4.10933 8.12058 4.7316 8.13881C5.35387 8.15703 5.97016 8.0129 6.5198 7.72058C7.06944 7.42827 7.53349 6.99787 7.86626 6.47173C7.46152 5.84529 7.21575 5.12957 7.15024 4.38664C7.08474 3.64372 7.20148 2.89603 7.49035 2.20843C7.15807 1.82565 6.74858 1.51748 6.28876 1.30416C5.82894 1.09084 5.3292 0.977203 4.82235 0.970703Z" fill="#3F72A4"/>
<path d="M7.27971 7.64498L7.12385 7.75501C6.94511 8.21776 6.6305 8.61557 6.22138 8.89612C5.81227 9.17667 5.32782 9.32683 4.83175 9.32683C4.33568 9.32683 3.85123 9.17667 3.44212 8.89612C3.03301 8.61557 2.71839 8.21776 2.53966 7.75501L2.25544 7.58081L2.20043 7.53497C-0.0274891 9.46949 1.59704e-05 12.8435 1.59704e-05 12.9901V13.0818H5.67524C5.7467 11.1191 6.46193 9.23435 7.71062 7.71833C7.62361 7.63933 7.53174 7.56584 7.43557 7.49829L7.34389 7.58081L7.27971 7.64498Z" fill="#3F72A4"/>
<path d="M14.6422 7.39762L14.5322 7.48931L14.4772 7.53515C13.8309 8.0386 13.0675 8.36983 12.2584 8.49783C12.1516 8.5068 12.0443 8.5068 11.9375 8.49783H11.6625C11.3354 8.49848 11.0093 8.46156 10.6906 8.38781C9.97142 8.19261 9.30239 7.84559 8.72858 7.37012H8.6644C6.10642 9.5797 6.14309 13.4396 6.14309 13.6046V13.7421H17.0535V13.6321C16.8609 9.16712 15.0823 7.69101 14.6422 7.39762ZM13.1202 10.4232L11.5799 9.63471L10.0488 10.4232V8.49783L11.5799 9.32298L13.1202 8.49783V10.4232Z" fill="#3F72A4"/>
<path d="M7.58228 3.95927C7.5847 5.04704 8.01852 6.08943 8.78855 6.85774C9.55858 7.62605 10.6019 8.05754 11.6897 8.05754C12.2318 8.05757 12.7685 7.95006 13.2687 7.74125C13.7689 7.53243 14.2228 7.22645 14.6039 6.84102C14.9851 6.45559 15.286 5.99838 15.4893 5.49585C15.6925 4.99332 15.794 4.45547 15.788 3.91343C15.7381 2.85884 15.2841 1.86394 14.5201 1.13524C13.7561 0.40654 12.7409 0 11.6851 0C10.6294 0 9.61412 0.40654 8.85015 1.13524C8.08618 1.86394 7.63214 2.85884 7.58228 3.91343V3.95927Z" fill="#3F72A4"/>
<path d="M17.4659 12.8894H22.05V12.7885C22.028 11.009 21.3068 9.3097 20.0422 8.05762L19.8405 8.23182L18.4194 10.9823L18.1626 9.35036L18.5661 8.69023C18.3023 8.75698 18.0313 8.79085 17.7592 8.79109H17.5484H17.1633H17.0166L17.42 9.43287L17.1541 10.9823C17.3112 11.6082 17.4155 12.2461 17.4659 12.8894Z" fill="#3F72A4"/>
<path d="M17.8508 8.35097C18.3633 8.35387 18.8691 8.23466 19.3264 8.00321C19.7837 7.77177 20.1793 7.43474 20.4805 7.02002C20.7816 6.60531 20.9796 6.12483 21.0582 5.61836C21.1367 5.1119 21.0935 4.59401 20.9322 4.10756C20.7708 3.62111 20.4959 3.18009 20.1302 2.821C19.7645 2.46192 19.3185 2.19509 18.8292 2.04262C18.3399 1.89014 17.8213 1.85639 17.3163 1.94417C16.8114 2.03195 16.3346 2.23873 15.9254 2.54739C16.1017 3.01953 16.1918 3.51951 16.1913 4.0235C16.1896 5.06072 15.8155 6.06285 15.137 6.84736C15.4259 7.30639 15.8263 7.68493 16.3007 7.9478C16.7752 8.21068 17.3084 8.34936 17.8508 8.35097Z" fill="#3F72A4"/>
</svg>
