<svg width="20" height="25" viewBox="0 0 20 25" fill="red !important" xmlns="http://www.w3.org/2000/svg">
<path d="M1.46699 0C1.07792 0 0.704786 0.154557 0.429672 0.429672C0.154557 0.704787 0 1.07792 0 1.46699V23.0385C0.00293298 23.4256 0.158784 23.7959 0.433582 24.0686C0.708379 24.3413 1.07984 24.4944 1.46699 24.4944H14.4921V21.627C14.495 21.0208 14.7372 20.4401 15.1659 20.0114C15.5946 19.5827 16.1752 19.3406 16.7815 19.3376H19.96V1.46699C19.96 1.07984 19.807 0.708379 19.5343 0.433582C19.2615 0.158784 18.8913 0.00293298 18.5041 0H1.46699Z" fill="#3F72A4"/>
<path d="M15.3591 21.6268V23.9495L19.36 20.1709H16.7817C16.4014 20.1796 16.0396 20.3368 15.7737 20.6089C15.5078 20.881 15.359 21.2464 15.3591 21.6268Z" fill="#3F72A4"/>
<path d="M3.96773 7.65714C4.63676 7.65714 5.17911 7.11478 5.17911 6.44576C5.17911 5.77673 4.63676 5.23438 3.96773 5.23438C3.2987 5.23438 2.75635 5.77673 2.75635 6.44576C2.75635 7.11478 3.2987 7.65714 3.96773 7.65714Z" fill="#B6D5F0"/>
<path d="M7.32369 7.65714C7.99271 7.65714 8.53507 7.11478 8.53507 6.44576C8.53507 5.77673 7.99271 5.23438 7.32369 5.23438C6.65466 5.23438 6.1123 5.77673 6.1123 6.44576C6.1123 7.11478 6.65466 7.65714 7.32369 7.65714Z" fill="#B6D5F0"/>
<path d="M10.6801 7.65714C11.3492 7.65714 11.8915 7.11478 11.8915 6.44576C11.8915 5.77673 11.3492 5.23438 10.6801 5.23438C10.0111 5.23438 9.46875 5.77673 9.46875 6.44576C9.46875 7.11478 10.0111 7.65714 10.6801 7.65714Z" fill="#B6D5F0"/>
<path d="M14.0256 7.65714C14.6946 7.65714 15.237 7.11478 15.237 6.44576C15.237 5.77673 14.6946 5.23438 14.0256 5.23438C13.3566 5.23438 12.8142 5.77673 12.8142 6.44576C12.8142 7.11478 13.3566 7.65714 14.0256 7.65714Z" fill="#B6D5F0"/>
<path d="M10.6804 7.46824C11.2451 7.46824 11.7029 7.01047 11.7029 6.44579C11.7029 5.88111 11.2451 5.42334 10.6804 5.42334C10.1157 5.42334 9.65796 5.88111 9.65796 6.44579C9.65796 7.01047 10.1157 7.46824 10.6804 7.46824Z" fill="#3F72A4"/>
<path d="M7.32396 7.46824C7.88865 7.46824 8.34641 7.01047 8.34641 6.44579C8.34641 5.88111 7.88865 5.42334 7.32396 5.42334C6.75928 5.42334 6.30151 5.88111 6.30151 6.44579C6.30151 7.01047 6.75928 7.46824 7.32396 7.46824Z" fill="#3F72A4"/>
<path d="M3.96752 7.46824C4.5322 7.46824 4.98997 7.01047 4.98997 6.44579C4.98997 5.88111 4.5322 5.42334 3.96752 5.42334C3.40284 5.42334 2.94507 5.88111 2.94507 6.44579C2.94507 7.01047 3.40284 7.46824 3.96752 7.46824Z" fill="#3F72A4"/>
<path d="M14.0251 7.46824C14.5898 7.46824 15.0476 7.01047 15.0476 6.44579C15.0476 5.88111 14.5898 5.42334 14.0251 5.42334C13.4605 5.42334 13.0027 5.88111 13.0027 6.44579C13.0027 7.01047 13.4605 7.46824 14.0251 7.46824Z" fill="#3F72A4"/>
<path d="M10.6804 7.23487C11.1162 7.23487 11.4695 6.88159 11.4695 6.4458C11.4695 6.01001 11.1162 5.65674 10.6804 5.65674C10.2446 5.65674 9.89136 6.01001 9.89136 6.4458C9.89136 6.88159 10.2446 7.23487 10.6804 7.23487Z" fill="#B6D5F0"/>
<path d="M17.7597 2.40088H2.2007C1.89381 2.40088 1.64502 2.64967 1.64502 2.95656C1.64502 3.26345 1.89381 3.51224 2.2007 3.51224H17.7597C18.0666 3.51224 18.3154 3.26345 18.3154 2.95656C18.3154 2.64967 18.0666 2.40088 17.7597 2.40088Z" fill="#B6D5F0"/>
<path d="M3.96773 15.4369C4.63676 15.4369 5.17911 14.8946 5.17911 14.2255C5.17911 13.5565 4.63676 13.0142 3.96773 13.0142C3.2987 13.0142 2.75635 13.5565 2.75635 14.2255C2.75635 14.8946 3.2987 15.4369 3.96773 15.4369Z" fill="#B6D5F0"/>
<path d="M7.32369 15.4369C7.99271 15.4369 8.53507 14.8946 8.53507 14.2255C8.53507 13.5565 7.99271 13.0142 7.32369 13.0142C6.65466 13.0142 6.1123 13.5565 6.1123 14.2255C6.1123 14.8946 6.65466 15.4369 7.32369 15.4369Z" fill="#B6D5F0"/>
<path d="M10.6801 15.4369C11.3492 15.4369 11.8915 14.8946 11.8915 14.2255C11.8915 13.5565 11.3492 13.0142 10.6801 13.0142C10.0111 13.0142 9.46875 13.5565 9.46875 14.2255C9.46875 14.8946 10.0111 15.4369 10.6801 15.4369Z" fill="#B6D5F0"/>
<path d="M14.0256 15.4369C14.6946 15.4369 15.237 14.8946 15.237 14.2255C15.237 13.5565 14.6946 13.0142 14.0256 13.0142C13.3566 13.0142 12.8142 13.5565 12.8142 14.2255C12.8142 14.8946 13.3566 15.4369 14.0256 15.4369Z" fill="#B6D5F0"/>
<path d="M10.6804 15.2475C11.2451 15.2475 11.7029 14.7898 11.7029 14.2251C11.7029 13.6604 11.2451 13.2026 10.6804 13.2026C10.1157 13.2026 9.65796 13.6604 9.65796 14.2251C9.65796 14.7898 10.1157 15.2475 10.6804 15.2475Z" fill="#3F72A4"/>
<path d="M7.32396 15.2475C7.88865 15.2475 8.34641 14.7898 8.34641 14.2251C8.34641 13.6604 7.88865 13.2026 7.32396 13.2026C6.75928 13.2026 6.30151 13.6604 6.30151 14.2251C6.30151 14.7898 6.75928 15.2475 7.32396 15.2475Z" fill="#3F72A4"/>
<path d="M3.96752 15.2475C4.5322 15.2475 4.98997 14.7898 4.98997 14.2251C4.98997 13.6604 4.5322 13.2026 3.96752 13.2026C3.40284 13.2026 2.94507 13.6604 2.94507 14.2251C2.94507 14.7898 3.40284 15.2475 3.96752 15.2475Z" fill="#3F72A4"/>
<path d="M14.0251 15.2475C14.5898 15.2475 15.0476 14.7898 15.0476 14.2251C15.0476 13.6604 14.5898 13.2026 14.0251 13.2026C13.4605 13.2026 13.0027 13.6604 13.0027 14.2251C13.0027 14.7898 13.4605 15.2475 14.0251 15.2475Z" fill="#3F72A4"/>
<path d="M7.34644 15.0142C7.78223 15.0142 8.1355 14.6609 8.1355 14.2251C8.1355 13.7893 7.78223 13.436 7.34644 13.436C6.91065 13.436 6.55737 13.7893 6.55737 14.2251C6.55737 14.6609 6.91065 15.0142 7.34644 15.0142Z" fill="#B6D5F0"/>
<path d="M17.7597 10.1802H2.2007C1.89381 10.1802 1.64502 10.429 1.64502 10.7359C1.64502 11.0427 1.89381 11.2915 2.2007 11.2915H17.7597C18.0666 11.2915 18.3154 11.0427 18.3154 10.7359C18.3154 10.429 18.0666 10.1802 17.7597 10.1802Z" fill="#B6D5F0"/>
</svg>
