<svg width="1000" height="101" viewBox="0 0 1000 101" fill="none" xmlns="http://www.w3.org/2000/svg">
<path d="M232.435 98.6926V100.492H202.446V98.6926H213.742L212.059 94.5327C203.848 77.0444 180.927 75.9976 172.245 76.2576C172.006 76.268 171.774 76.3471 171.579 76.4854C171.384 76.6237 171.232 76.8155 171.143 77.0376L162.536 96.8795C162.452 97.0747 162.418 97.2876 162.437 97.4991C162.456 97.7106 162.526 97.9142 162.643 98.0918C162.759 98.2693 162.918 98.4152 163.105 98.5164C163.291 98.6177 163.5 98.6712 163.713 98.6721H173.976V100.472H148.592V98.6721H155.625C155.875 98.6716 156.12 98.5982 156.329 98.4609C156.538 98.3236 156.702 98.1283 156.802 97.899L186.647 28.9517L190.116 20.9807H195.426L225.332 97.8511C225.424 98.0926 225.587 98.3005 225.8 98.4471C226.012 98.5938 226.265 98.6723 226.523 98.6721L232.435 98.6926ZM204.875 76.6886L189.822 39.3858C189.725 39.1531 189.561 38.9544 189.351 38.8147C189.141 38.6749 188.894 38.6004 188.642 38.6004C188.389 38.6004 188.143 38.6749 187.933 38.8147C187.723 38.9544 187.559 39.1531 187.461 39.3858L174.304 69.7234C174.219 69.9176 174.183 70.13 174.2 70.3415C174.218 70.5529 174.288 70.7566 174.404 70.934C174.52 71.1115 174.679 71.2571 174.866 71.3575C175.053 71.458 175.262 71.5101 175.474 71.5092C182.597 71.605 193.701 72.7887 203.055 78.2965C203.286 78.4419 203.558 78.5085 203.831 78.4863C204.103 78.4641 204.361 78.3543 204.566 78.1733C204.771 77.9923 204.912 77.7499 204.967 77.4823C205.023 77.2147 204.99 76.9363 204.875 76.6886V76.6886Z" fill="#376999"/>
<path d="M290.298 22.2163V38.9382H288.498C288.493 35.6864 287.197 32.5695 284.896 30.272C282.595 27.9745 279.476 26.6841 276.224 26.6841H264.941C264.602 26.6841 264.276 26.8189 264.036 27.0589C263.796 27.2988 263.662 27.6243 263.662 27.9636V97.2598C263.662 97.5998 263.796 97.9259 264.036 98.167C264.276 98.408 264.601 98.5443 264.941 98.5461H273.111V100.346H243.122V98.5256H251.291C251.631 98.5238 251.957 98.3875 252.196 98.1464C252.436 97.9054 252.571 97.5793 252.571 97.2393V27.9431C252.565 27.6073 252.428 27.2871 252.189 27.0516C251.949 26.8161 251.627 26.6841 251.291 26.6841H240.009C236.753 26.6841 233.631 27.9774 231.329 30.2793C229.027 32.5812 227.734 35.7033 227.734 38.9588H225.928V22.2163H290.298Z" fill="#376999"/>
<path d="M373.263 25.2804V97.2793C373.263 97.6192 373.398 97.9454 373.638 98.1864C373.877 98.4274 374.203 98.5638 374.543 98.5656H382.712V100.365H352.723V98.545H360.893C361.233 98.5432 361.558 98.4069 361.798 98.1659C362.038 97.9248 362.172 97.5987 362.172 97.2587V69.7195C362.172 69.3802 362.037 69.0547 361.797 68.8148C361.558 68.5748 361.232 68.44 360.893 68.44H318.205C317.866 68.44 317.54 68.5748 317.3 68.8148C317.06 69.0547 316.926 69.3802 316.926 69.7195V97.2793C316.926 97.6192 317.06 97.9454 317.3 98.1864C317.54 98.4274 317.865 98.5638 318.205 98.5656H326.368V100.365H296.386V98.545H304.548C304.889 98.545 305.217 98.4095 305.458 98.1683C305.699 97.9271 305.835 97.5999 305.835 97.2587V25.2804C305.833 24.9404 305.696 24.615 305.455 24.3752C305.214 24.1355 304.888 24.0009 304.548 24.0009H296.386V22.2014H326.368V24.0009H318.205C317.866 24.0009 317.54 24.1357 317.3 24.3757C317.06 24.6156 316.926 24.941 316.926 25.2804V62.3232C316.926 62.6632 317.06 62.9893 317.3 63.2304C317.54 63.4714 317.865 63.6077 318.205 63.6095H360.893C361.233 63.6077 361.558 63.4714 361.798 63.2304C362.038 62.9893 362.172 62.6632 362.172 62.3232V25.2804C362.172 24.941 362.037 24.6156 361.797 24.3757C361.558 24.1357 361.232 24.0009 360.893 24.0009H352.723V22.2014H382.712V24.0009H374.543C374.203 24.0009 373.878 24.1357 373.638 24.3757C373.398 24.6156 373.263 24.941 373.263 25.2804Z" fill="#376999"/>
<path d="M447.294 79.9715L449.805 80.7789L445.344 99.3277C445.279 99.6125 445.118 99.8665 444.89 100.048C444.661 100.23 444.377 100.328 444.085 100.327H389.649V98.5341H397.812C398.152 98.5323 398.477 98.3959 398.717 98.1549C398.957 97.9139 399.091 97.5877 399.091 97.2477V25.3238C399.091 25.1557 399.058 24.9894 398.994 24.8341C398.93 24.6789 398.835 24.5378 398.716 24.419C398.598 24.3002 398.457 24.206 398.301 24.1417C398.146 24.0774 397.98 24.0443 397.812 24.0443H389.649V22.1422H419.631V22.2653H444.085C444.377 22.267 444.66 22.3672 444.889 22.5497C445.117 22.7322 445.278 22.9863 445.344 23.2711L449.805 41.82L447.294 42.6274C442.066 26.8906 437.947 24.0785 411.455 24.0785C411.118 24.078 410.794 24.207 410.549 24.4388C410.305 24.6705 410.159 24.9873 410.141 25.3238V59.671C410.143 60.011 410.279 60.3364 410.52 60.5762C410.761 60.8159 411.088 60.9505 411.428 60.9505H421.636C423.143 60.9496 424.635 60.6519 426.026 60.0745C427.418 59.497 428.683 58.6511 429.747 57.5849C430.812 56.5188 431.657 55.2534 432.232 53.861C432.808 52.4685 433.104 50.9763 433.103 49.4695H434.91V74.2378H433.103C433.103 71.1929 431.894 68.2726 429.741 66.1195C427.587 63.9664 424.667 62.7568 421.622 62.7568H411.428C411.088 62.7568 410.761 62.8914 410.52 63.1311C410.279 63.3709 410.143 63.6963 410.141 64.0363V97.2409C410.15 97.584 410.292 97.9101 410.537 98.1502C410.783 98.3903 411.112 98.5256 411.455 98.5272C437.947 98.5341 442.073 95.6809 447.294 79.9715Z" fill="#376999"/>
<path d="M536.777 22.2288V24.0351H533.356C533.185 24.0324 533.016 24.0639 532.857 24.1278C532.698 24.1918 532.554 24.2868 532.433 24.4073C532.312 24.5279 532.216 24.6715 532.151 24.8296C532.087 24.9878 532.054 25.1574 532.056 25.3283V99.0859C532.056 99.4258 531.922 99.752 531.682 99.993C531.442 100.234 531.117 100.37 530.777 100.372H523.62C523.422 100.372 523.228 100.326 523.051 100.238C522.874 100.15 522.72 100.023 522.6 99.8659L471.798 33.6756C471.636 33.4616 471.41 33.3041 471.153 33.2254C470.897 33.1467 470.622 33.1508 470.367 33.2371C470.113 33.3234 469.892 33.4875 469.736 33.7062C469.581 33.9249 469.497 34.1871 469.499 34.4556V97.2727C469.499 97.6127 469.633 97.9388 469.873 98.1798C470.113 98.4209 470.438 98.5572 470.778 98.559H474.199V100.358H460.317V98.5385H463.738C464.078 98.5367 464.403 98.4004 464.643 98.1593C464.883 97.9183 465.017 97.5921 465.017 97.2522V25.3283C465.017 24.9889 464.883 24.6635 464.643 24.4236C464.403 24.1836 464.077 24.0488 463.738 24.0488H460.317V22.2015H476.314C476.511 22.2007 476.705 22.2453 476.882 22.3319C477.059 22.4186 477.213 22.5448 477.333 22.7009L525.317 85.2375C525.479 85.4515 525.704 85.609 525.961 85.6877C526.218 85.7664 526.493 85.7623 526.747 85.676C527.002 85.5897 527.222 85.4256 527.378 85.2069C527.534 84.9882 527.617 84.726 527.616 84.4575V25.3283C527.614 24.9883 527.477 24.6629 527.236 24.4231C526.995 24.1834 526.669 24.0488 526.329 24.0488H522.908V22.2288H536.777Z" fill="#376999"/>
<path d="M626.847 98.6926V100.492H596.859V98.6926H608.155L606.472 94.5327C598.261 77.0444 575.34 75.9976 566.664 76.2576C566.425 76.2663 566.193 76.3447 565.997 76.4832C565.802 76.6218 565.651 76.8145 565.563 77.0376L556.949 96.8795C556.865 97.0747 556.831 97.2876 556.85 97.4991C556.868 97.7106 556.939 97.9142 557.056 98.0918C557.172 98.2693 557.331 98.4152 557.518 98.5164C557.704 98.6177 557.913 98.6712 558.125 98.6721H568.389V100.472H543.004V98.6721H550.038C550.288 98.6716 550.533 98.5982 550.742 98.4609C550.951 98.3236 551.115 98.1283 551.215 97.899L581.06 28.9517L584.529 20.9807H589.839L619.745 97.8511C619.837 98.0937 620.002 98.3023 620.216 98.4491C620.43 98.5958 620.683 98.6737 620.943 98.6721L626.847 98.6926ZM599.288 76.6886L584.235 39.3858C584.138 39.1531 583.974 38.9544 583.764 38.8147C583.554 38.6749 583.307 38.6004 583.055 38.6004C582.802 38.6004 582.556 38.6749 582.346 38.8147C582.136 38.9544 581.972 39.1531 581.874 39.3858L568.717 69.7234C568.632 69.9176 568.596 70.13 568.613 70.3415C568.631 70.5529 568.701 70.7566 568.817 70.934C568.933 71.1115 569.092 71.2571 569.279 71.3575C569.466 71.458 569.675 71.5101 569.887 71.5092C577.01 71.605 588.114 72.7887 597.468 78.2965C597.699 78.4419 597.971 78.5085 598.244 78.4863C598.516 78.4641 598.774 78.3543 598.979 78.1733C599.184 77.9923 599.325 77.7499 599.38 77.4823C599.436 77.2147 599.403 76.9363 599.288 76.6886V76.6886Z" fill="#376999"/>
<path d="M736.939 22.2163V38.9384H735.132C735.127 35.6877 733.832 32.5719 731.532 30.2745C729.232 27.9772 726.115 26.686 722.864 26.6842H711.575C711.235 26.6842 710.909 26.8188 710.668 27.0585C710.427 27.2983 710.291 27.6237 710.289 27.9637V97.2605C710.294 97.5981 710.432 97.92 710.673 98.1569C710.913 98.3937 711.237 98.5264 711.575 98.5263H719.738V100.326H689.756V98.5263H697.918C698.258 98.5245 698.584 98.3882 698.823 98.1472C699.063 97.9061 699.198 97.58 699.198 97.24V27.9431C699.198 27.6038 699.063 27.2784 698.823 27.0384C698.583 26.7985 698.258 26.6637 697.918 26.6637H686.636C683.38 26.6637 680.258 27.9569 677.956 30.2588C675.654 32.5608 674.361 35.6829 674.361 38.9384H672.575V22.2163H736.939Z" fill="#376999"/>
<path d="M800.658 79.9715L803.175 80.7789L798.714 99.3277C798.649 99.6125 798.489 99.8665 798.26 100.048C798.031 100.23 797.748 100.328 797.455 100.327H743.047V98.5341H751.203C751.543 98.5323 751.868 98.3959 752.108 98.1549C752.348 97.9139 752.482 97.5877 752.482 97.2477V25.3238C752.482 24.9844 752.348 24.659 752.108 24.419C751.868 24.1791 751.542 24.0443 751.203 24.0443H743.047V22.1422H773.029V22.2653H797.483C797.774 22.2678 798.056 22.3674 798.284 22.5484C798.512 22.7294 798.673 22.9813 798.742 23.2643L803.203 41.8132L800.685 42.6205C795.464 26.8837 791.339 24.0716 764.853 24.0716C764.51 24.0715 764.181 24.2052 763.936 24.4442C763.691 24.6833 763.548 25.0087 763.539 25.3511V59.671C763.539 60.0104 763.674 60.3358 763.914 60.5757C764.154 60.8157 764.479 60.9505 764.819 60.9505H775.034C778.079 60.9505 780.999 59.7409 783.152 57.5878C785.305 55.4347 786.515 52.5144 786.515 49.4695H788.321V74.2378H786.515C786.515 71.1929 785.305 68.2726 783.152 66.1195C780.999 63.9664 778.079 62.7568 775.034 62.7568H764.819C764.479 62.7568 764.154 62.8916 763.914 63.1315C763.674 63.3715 763.539 63.6969 763.539 64.0363V97.2409C763.548 97.584 763.69 97.9101 763.935 98.1502C764.181 98.3903 764.51 98.5256 764.853 98.5272C791.311 98.5341 795.444 95.6809 800.658 79.9715Z" fill="#376999"/>
<path d="M892.984 98.6775V100.477H863.002V98.6775H874.291L872.615 94.5175C864.404 77.0291 841.484 75.9823 832.808 76.2423C832.568 76.2518 832.337 76.3306 832.141 76.469C831.946 76.6075 831.795 76.7997 831.706 77.0223L823.092 96.8643C823.009 97.0596 822.975 97.2724 822.993 97.4839C823.012 97.6955 823.083 97.8991 823.199 98.0766C823.316 98.2541 823.475 98.4 823.661 98.5013C823.848 98.6026 824.057 98.656 824.269 98.657H834.532V100.456H809.155V98.657H816.182C816.432 98.6564 816.676 98.583 816.885 98.4457C817.094 98.3084 817.259 98.1131 817.359 97.8838L847.251 28.9156L850.713 20.9446H856.03L885.882 97.8359C885.975 98.0774 886.14 98.285 886.353 98.4315C886.567 98.578 886.82 98.6566 887.079 98.657L892.984 98.6775ZM865.424 76.6734L850.371 39.3703C850.273 39.1381 850.108 38.9401 849.897 38.8009C849.687 38.6617 849.44 38.5875 849.188 38.5875C848.935 38.5875 848.689 38.6617 848.478 38.8009C848.268 38.9401 848.103 39.1381 848.004 39.3703L834.854 69.7081C834.768 69.9017 834.733 70.1135 834.75 70.3244C834.767 70.5353 834.836 70.7386 834.952 70.9158C835.067 71.0931 835.225 71.2388 835.411 71.3397C835.597 71.4407 835.805 71.4937 836.017 71.4939C843.139 71.5897 854.244 72.7734 863.604 78.2812C863.835 78.4266 864.108 78.4932 864.38 78.471C864.653 78.4488 864.91 78.339 865.115 78.158C865.32 77.977 865.461 77.7346 865.516 77.467C865.572 77.1994 865.54 76.921 865.424 76.6734V76.6734Z" fill="#376999"/>
<path d="M991.734 98.5386H1000V100.338H970.018V98.5386H978.044C978.223 98.5384 978.4 98.5009 978.564 98.4282C978.728 98.3556 978.875 98.2495 978.995 98.1168C979.115 97.9841 979.207 97.8277 979.263 97.6576C979.32 97.4875 979.34 97.3075 979.323 97.1291L973.288 36.7548C973.262 36.4773 973.146 36.2159 972.958 36.0104C972.77 35.8048 972.52 35.6664 972.246 35.616C971.971 35.5657 971.688 35.6062 971.439 35.7315C971.19 35.8568 970.989 36.0599 970.866 36.31L948.589 81.4334C948.499 81.6131 948.453 81.811 948.453 82.0116C948.453 82.2122 948.499 82.4101 948.589 82.5897L955.882 96.6775C955.983 96.873 956.032 97.091 956.024 97.3107C956.016 97.5304 955.952 97.7445 955.839 97.9325C955.725 98.1205 955.564 98.2762 955.373 98.3847C955.182 98.4932 954.966 98.5509 954.746 98.5523H944.757C944.513 98.5513 944.275 98.4814 944.069 98.3506C943.863 98.2199 943.698 98.0336 943.594 97.8133L914.556 35.1127C914.439 34.8526 914.237 34.6393 913.985 34.5067C913.732 34.3742 913.442 34.3299 913.161 34.3811C912.88 34.4322 912.625 34.5758 912.435 34.7889C912.245 35.0021 912.132 35.2726 912.114 35.5574L907.42 97.1359C907.409 97.3105 907.433 97.4855 907.492 97.6502C907.551 97.815 907.643 97.966 907.762 98.0941C907.881 98.2222 908.025 98.3246 908.185 98.3952C908.345 98.4657 908.518 98.5029 908.693 98.5044H912.045V100.304H898.142V98.5386H901.693C902.017 98.5377 902.329 98.4147 902.566 98.194C902.803 97.9733 902.949 97.6712 902.973 97.348L907.94 25.3901C907.95 25.2152 907.925 25.0401 907.865 24.8753C907.806 24.7105 907.713 24.5596 907.594 24.4316C907.474 24.3036 907.33 24.2013 907.169 24.1308C907.009 24.0604 906.836 24.0232 906.661 24.0217H903.335V22.2154H921.125L922.493 24.0148L944.648 74.5914C944.747 74.814 944.908 75.0039 945.111 75.1387C945.314 75.2735 945.552 75.3477 945.795 75.3527C946.039 75.3578 946.28 75.2933 946.488 75.167C946.697 75.0407 946.865 74.8577 946.974 74.6392L972.495 22.8859C972.603 22.6759 972.768 22.5005 972.972 22.3796C973.175 22.2586 973.408 22.197 973.644 22.2017H993.39V24.0491H985.344C985.169 24.0496 984.996 24.0861 984.835 24.1563C984.675 24.2265 984.53 24.3289 984.411 24.4572C984.292 24.5855 984.2 24.7369 984.141 24.9021C984.083 25.0673 984.059 25.2427 984.071 25.4175L990.455 97.3891C990.486 97.7073 990.634 98.0027 990.87 98.2177C991.107 98.4328 991.415 98.552 991.734 98.5523V98.5386Z" fill="#376999"/>
<path d="M112.018 28.8805L111.19 30.29H6.65657L5.82867 28.8805H112.018Z" fill="#376999"/>
<path d="M112.018 100.48H5.82867L7.06709 98.3654H110.78L112.018 100.48Z" fill="#376999"/>
<path d="M28.6953 32.9713L28.0247 34.3808H10.2217L9.55115 32.9713H28.6953Z" fill="#376999"/>
<path d="M27.6674 35.1102L26.6685 37.2312H11.568L10.5623 35.1102H27.6674Z" fill="#376999"/>
<path d="M11.9933 38.3909H15.3118V91.1707H11.9933V38.3909Z" fill="#376999"/>
<path d="M17.443 38.3909H20.7614V91.1707H17.443V38.3909Z" fill="#376999"/>
<path d="M22.9034 38.3909H26.2218V91.1707H22.9034V38.3909Z" fill="#376999"/>
<path d="M38.5415 38.3909H41.8599V91.1707H38.5415V38.3909Z" fill="#376999"/>
<path d="M43.9822 38.3909H47.3006V91.1707H43.9822V38.3909Z" fill="#376999"/>
<path d="M49.4401 38.3909H52.7585V91.1707H49.4401V38.3909Z" fill="#376999"/>
<path d="M65.0784 38.3909H68.4242V91.1707H65.0784V38.3909Z" fill="#376999"/>
<path d="M70.5259 38.3909H73.8443V91.1707H70.5259V38.3909Z" fill="#376999"/>
<path d="M75.9808 38.3909H79.2992V91.1707H75.9808V38.3909Z" fill="#376999"/>
<path d="M91.6148 38.3909H94.9264V91.1707H91.6148V38.3909Z" fill="#376999"/>
<path d="M97.0749 38.3909H100.393V91.1707H97.0749V38.3909Z" fill="#376999"/>
<path d="M102.509 38.3909H105.827V91.1707H102.509V38.3909Z" fill="#376999"/>
<path d="M58.9168 0L0 26.684H117.834L58.9168 0ZM58.9168 20.9298C58.0704 20.9312 57.2427 20.6813 56.5384 20.212C55.8342 19.7426 55.285 19.0748 54.9605 18.2932C54.636 17.5115 54.5507 16.6511 54.7155 15.821C54.8803 14.9908 55.2877 14.2282 55.8862 13.6298C56.4846 13.0313 57.2472 12.6239 58.0774 12.4591C58.9075 12.2943 59.7679 12.3796 60.5496 12.7041C61.3312 13.0286 61.999 13.5778 62.4684 14.282C62.9378 14.9863 63.1876 15.814 63.1862 16.6604C63.1862 17.7927 62.7364 18.8787 61.9357 19.6793C61.1351 20.48 60.0491 20.9298 58.9168 20.9298V20.9298Z" fill="#376999"/>
<path d="M28.6953 96.5851L28.0247 95.1756H10.2217L9.55115 96.5851H28.6953Z" fill="#376999"/>
<path d="M27.6674 94.444L26.6685 92.323H11.568L10.5623 94.444H27.6674Z" fill="#376999"/>
<path d="M55.2319 32.9713L54.5614 34.3808H36.7583L36.0878 32.9713H55.2319Z" fill="#376999"/>
<path d="M54.2092 35.1102L53.2034 37.2312H38.103L37.104 35.1102H54.2092Z" fill="#376999"/>
<path d="M38.5415 38.3909H41.8599V91.1707H38.5415V38.3909Z" fill="#376999"/>
<path d="M43.9822 38.3909H47.3006V91.1707H43.9822V38.3909Z" fill="#376999"/>
<path d="M49.4401 38.3909H52.7585V91.1707H49.4401V38.3909Z" fill="#376999"/>
<path d="M55.2319 96.5851L54.5614 95.1756H36.7583L36.0878 96.5851H55.2319Z" fill="#376999"/>
<path d="M54.2092 94.444L53.2034 92.323H38.103L37.104 94.444H54.2092Z" fill="#376999"/>
<path d="M81.759 32.9713L81.0885 34.3808H63.2787L62.6082 32.9713H81.759Z" fill="#376999"/>
<path d="M80.7347 35.1102L79.7358 37.2312H64.6354L63.6296 35.1102H80.7347Z" fill="#376999"/>
<path d="M65.0621 38.3909H68.3805V91.1707H65.0621V38.3909Z" fill="#376999"/>
<path d="M70.5259 38.3909H73.8443V91.1707H70.5259V38.3909Z" fill="#376999"/>
<path d="M75.9523 38.3909H79.2638V91.1707H75.9523V38.3909Z" fill="#376999"/>
<path d="M81.759 96.5851L81.0885 95.1756H63.2787L62.6082 96.5851H81.759Z" fill="#376999"/>
<path d="M80.7347 94.444L79.7358 92.323H64.6354L63.6296 94.444H80.7347Z" fill="#376999"/>
<path d="M108.308 32.9713L107.637 34.3808H89.8272L89.1567 32.9713H108.308Z" fill="#376999"/>
<path d="M107.291 35.1102L106.285 37.2312H91.1851L90.1793 35.1102H107.291Z" fill="#376999"/>
<path d="M91.6148 38.3909H94.9333V91.1707H91.6148V38.3909Z" fill="#376999"/>
<path d="M97.0749 38.3909H100.393V91.1707H97.0749V38.3909Z" fill="#376999"/>
<path d="M102.516 38.3909H105.834V91.1707H102.516V38.3909Z" fill="#376999"/>
<path d="M108.308 96.5851L107.637 95.1756H89.8272L89.1567 96.5851H108.308Z" fill="#376999"/>
<path d="M107.291 94.444L106.285 92.323H91.1851L90.1793 94.444H107.291Z" fill="#376999"/>
</svg>
