<svg width="19" height="18" viewBox="0 0 19 18" fill="none" xmlns="http://www.w3.org/2000/svg">
<path opacity="0.4" d="M8.92 17.84C13.8464 17.84 17.84 13.8463 17.84 8.92C17.84 3.99362 13.8464 0 8.92 0C3.99363 0 0 3.99362 0 8.92C0 13.8463 3.99363 17.84 8.92 17.84Z" fill="#3F72A4"/>
<path d="M17.5029 1.00061C16.1908 -0.318835 14.908 -0.348156 13.5592 1.00061L12.7309 1.8216C12.6576 1.8949 12.6356 1.99752 12.6649 2.09281C13.178 3.88872 14.6148 5.32545 16.4107 5.83857C16.4327 5.8459 16.4693 5.8459 16.4913 5.8459C16.5646 5.8459 16.6379 5.81658 16.6892 5.76527L17.5029 4.94428C18.1699 4.27723 18.4998 3.6395 18.4998 2.9871C18.4998 2.32738 18.1699 1.67499 17.5029 1.00061Z" fill="#3F72A4"/>
<path d="M15.1905 6.44151C14.9926 6.34622 14.802 6.25092 14.6261 6.14097C14.4795 6.05304 14.3328 5.95774 14.1936 5.85512C14.0763 5.78182 13.9443 5.67186 13.8124 5.56191C13.7977 5.55458 13.7538 5.51793 13.6951 5.45929C13.4679 5.27603 13.226 5.0268 12.9987 4.75558C12.9841 4.74092 12.9401 4.69694 12.9035 4.63097C12.8302 4.55033 12.7202 4.41106 12.6249 4.25712C12.5443 4.1545 12.449 4.0079 12.361 3.85396C12.2511 3.67071 12.1558 3.48745 12.0678 3.29686C11.9725 3.09162 11.8992 2.90103 11.8332 2.71777L7.88958 6.66142C7.63302 6.91797 7.38379 7.40177 7.33248 7.76095L7.01728 9.94537C6.95131 10.4072 7.07592 10.8397 7.3618 11.1255C7.6037 11.3674 7.93356 11.492 8.30007 11.492C8.38071 11.492 8.46134 11.4847 8.54197 11.4774L10.719 11.1695C11.0782 11.1182 11.562 10.8763 11.8186 10.6124L15.7622 6.66875C15.579 6.6101 15.3957 6.52947 15.1905 6.44151Z" fill="#3F72A4"/>
</svg>
