<svg width="25" height="31" viewBox="0 0 25 31" fill="none" xmlns="http://www.w3.org/2000/svg">
<path d="M1.83448 0C1.34794 0 0.881336 0.193274 0.537305 0.537305C0.193274 0.881337 0 1.34794 0 1.83448V28.8096C0.00366769 29.2938 0.19856 29.7568 0.542194 30.0978C0.885829 30.4389 1.35034 30.6302 1.83448 30.6302H18.1224V27.0446C18.1261 26.2865 18.4289 25.5604 18.965 25.0243C19.5011 24.4882 20.2271 24.1854 20.9853 24.1817H24.96V1.83448C24.96 1.35034 24.7686 0.885829 24.4276 0.542195C24.0866 0.19856 23.6235 0.00366769 23.1394 0H1.83448Z" fill="#3F72A4"/>
<path d="M19.2066 27.0452V29.9498L24.2098 25.2246H20.9855C20.5099 25.2355 20.0575 25.4321 19.725 25.7724C19.3926 26.1126 19.2065 26.5695 19.2066 27.0452Z" fill="#3F72A4"/>
<path d="M4.96173 9.57752C5.79835 9.57752 6.47657 8.8993 6.47657 8.06268C6.47657 7.22606 5.79835 6.54785 4.96173 6.54785C4.12511 6.54785 3.4469 7.22606 3.4469 8.06268C3.4469 8.8993 4.12511 9.57752 4.96173 9.57752Z" fill="#E8F3FF"/>
<path d="M9.15814 9.57752C9.99476 9.57752 10.673 8.8993 10.673 8.06268C10.673 7.22606 9.99476 6.54785 9.15814 6.54785C8.32153 6.54785 7.64331 7.22606 7.64331 8.06268C7.64331 8.8993 8.32153 9.57752 9.15814 9.57752Z" fill="#E8F3FF"/>
<path d="M13.3555 9.57752C14.1922 9.57752 14.8704 8.8993 14.8704 8.06268C14.8704 7.22606 14.1922 6.54785 13.3555 6.54785C12.5189 6.54785 11.8407 7.22606 11.8407 8.06268C11.8407 8.8993 12.5189 9.57752 13.3555 9.57752Z" fill="#E8F3FF"/>
<path d="M17.5391 9.57752C18.3757 9.57752 19.054 8.8993 19.054 8.06268C19.054 7.22606 18.3757 6.54785 17.5391 6.54785C16.7025 6.54785 16.0243 7.22606 16.0243 8.06268C16.0243 8.8993 16.7025 9.57752 17.5391 9.57752Z" fill="#E8F3FF"/>
<path d="M13.3558 9.3384C14.062 9.3384 14.6344 8.76596 14.6344 8.05982C14.6344 7.35369 14.062 6.78125 13.3558 6.78125C12.6497 6.78125 12.0773 7.35369 12.0773 8.05982C12.0773 8.76596 12.6497 9.3384 13.3558 9.3384Z" fill="#3F72A4"/>
<path d="M9.15858 9.3384C9.86472 9.3384 10.4372 8.76596 10.4372 8.05982C10.4372 7.35369 9.86472 6.78125 9.15858 6.78125C8.45244 6.78125 7.88 7.35369 7.88 8.05982C7.88 8.76596 8.45244 9.3384 9.15858 9.3384Z" fill="#3F72A4"/>
<path d="M4.96132 9.3384C5.66745 9.3384 6.23989 8.76596 6.23989 8.05982C6.23989 7.35369 5.66745 6.78125 4.96132 6.78125C4.25518 6.78125 3.68274 7.35369 3.68274 8.05982C3.68274 8.76596 4.25518 9.3384 4.96132 9.3384Z" fill="#3F72A4"/>
<path d="M17.5383 9.3384C18.2445 9.3384 18.8169 8.76596 18.8169 8.05982C18.8169 7.35369 18.2445 6.78125 17.5383 6.78125C16.8322 6.78125 16.2598 7.35369 16.2598 8.05982C16.2598 8.76596 16.8322 9.3384 17.5383 9.3384Z" fill="#3F72A4"/>
<path d="M13.356 9.0467C13.9009 9.0467 14.3427 8.60492 14.3427 8.05997C14.3427 7.51501 13.9009 7.07324 13.356 7.07324C12.811 7.07324 12.3693 7.51501 12.3693 8.05997C12.3693 8.60492 12.811 9.0467 13.356 9.0467Z" fill="#E8F3FF"/>
<path d="M22.2087 3.00195H2.75213C2.36836 3.00195 2.05725 3.31306 2.05725 3.69683C2.05725 4.0806 2.36836 4.39171 2.75213 4.39171H22.2087C22.5925 4.39171 22.9036 4.0806 22.9036 3.69683C22.9036 3.31306 22.5925 3.00195 22.2087 3.00195Z" fill="#E8F3FF"/>
<path d="M4.96173 19.306C5.79835 19.306 6.47657 18.6278 6.47657 17.7912C6.47657 16.9546 5.79835 16.2764 4.96173 16.2764C4.12511 16.2764 3.4469 16.9546 3.4469 17.7912C3.4469 18.6278 4.12511 19.306 4.96173 19.306Z" fill="#E8F3FF"/>
<path d="M9.15814 19.306C9.99476 19.306 10.673 18.6278 10.673 17.7912C10.673 16.9546 9.99476 16.2764 9.15814 16.2764C8.32153 16.2764 7.64331 16.9546 7.64331 17.7912C7.64331 18.6278 8.32153 19.306 9.15814 19.306Z" fill="#E8F3FF"/>
<path d="M13.3555 19.306C14.1922 19.306 14.8704 18.6278 14.8704 17.7912C14.8704 16.9546 14.1922 16.2764 13.3555 16.2764C12.5189 16.2764 11.8407 16.9546 11.8407 17.7912C11.8407 18.6278 12.5189 19.306 13.3555 19.306Z" fill="#E8F3FF"/>
<path d="M17.5391 19.306C18.3757 19.306 19.054 18.6278 19.054 17.7912C19.054 16.9546 18.3757 16.2764 17.5391 16.2764C16.7025 16.2764 16.0243 16.9546 16.0243 17.7912C16.0243 18.6278 16.7025 19.306 17.5391 19.306Z" fill="#E8F3FF"/>
<path d="M13.3558 19.065C14.062 19.065 14.6344 18.4925 14.6344 17.7864C14.6344 17.0803 14.062 16.5078 13.3558 16.5078C12.6497 16.5078 12.0773 17.0803 12.0773 17.7864C12.0773 18.4925 12.6497 19.065 13.3558 19.065Z" fill="#3F72A4"/>
<path d="M9.15858 19.065C9.86472 19.065 10.4372 18.4925 10.4372 17.7864C10.4372 17.0803 9.86472 16.5078 9.15858 16.5078C8.45244 16.5078 7.88 17.0803 7.88 17.7864C7.88 18.4925 8.45244 19.065 9.15858 19.065Z" fill="#3F72A4"/>
<path d="M4.96132 19.065C5.66745 19.065 6.23989 18.4925 6.23989 17.7864C6.23989 17.0803 5.66745 16.5078 4.96132 16.5078C4.25518 16.5078 3.68274 17.0803 3.68274 17.7864C3.68274 18.4925 4.25518 19.065 4.96132 19.065Z" fill="#3F72A4"/>
<path d="M17.5383 19.065C18.2445 19.065 18.8169 18.4925 18.8169 17.7864C18.8169 17.0803 18.2445 16.5078 17.5383 16.5078C16.8322 16.5078 16.2598 17.0803 16.2598 17.7864C16.2598 18.4925 16.8322 19.065 17.5383 19.065Z" fill="#3F72A4"/>
<path d="M9.1868 18.7733C9.73176 18.7733 10.1735 18.3315 10.1735 17.7865C10.1735 17.2416 9.73176 16.7998 9.1868 16.7998C8.64185 16.7998 8.20007 17.2416 8.20007 17.7865C8.20007 18.3315 8.64185 18.7733 9.1868 18.7733Z" fill="#E8F3FF"/>
<path d="M22.2087 12.7285H2.75213C2.36836 12.7285 2.05725 13.0396 2.05725 13.4234C2.05725 13.8072 2.36836 14.1183 2.75213 14.1183H22.2087C22.5925 14.1183 22.9036 13.8072 22.9036 13.4234C22.9036 13.0396 22.5925 12.7285 22.2087 12.7285Z" fill="#E8F3FF"/>
</svg>
