<svg width="631" height="333" viewBox="0 0 631 333" fill="none" xmlns="http://www.w3.org/2000/svg">
<rect x="1" y="1" width="629" height="331" rx="19" fill="#E8F3FF" stroke="#B6D5F0" stroke-width="2"/>
<path d="M599 3H33C23.6112 3 16 10.6112 16 20V267.624C16 277.013 23.6111 284.624 33 284.624H599C608.389 284.624 616 277.013 616 267.624V20C616 10.6112 608.389 3 599 3Z" fill="#E8F3FF"/>
<path d="M599 28H33C23.6112 28 16 35.6112 16 45V293C16 302.389 23.6111 310 33 310H599C608.389 310 616 302.389 616 293V45C616 35.6112 608.389 28 599 28Z" fill="#E8F3FF"/>
<path opacity="0.3" d="M582.135 241.894H49.8653C31.162 241.894 16 257.056 16 275.759C16 294.462 31.162 309.624 49.8653 309.624H582.135C600.838 309.624 616 294.462 616 275.759C616 257.056 600.838 241.894 582.135 241.894Z" fill="#B6D5F0"/>
<path d="M464.373 214.069C464.232 212.788 464.049 211.478 463.458 210.324C462.74 208.93 461.458 207.93 460.346 206.817C458.262 204.747 456.671 202.199 455.699 199.425C454.953 197.284 454.587 194.989 453.559 192.976C452.939 191.736 452.08 190.638 451.376 189.441C449.701 186.625 448.785 183.302 446.504 180.95C446.068 183.809 446.927 186.836 448.813 189.019C449.377 189.666 450.024 190.258 450.447 191.004C451.221 192.356 451.151 194.018 451.235 195.581C451.404 198.509 452.235 201.41 453.643 203.987C455.136 206.733 457.29 209.169 458.093 212.182C458.684 214.449 458.515 216.984 459.783 218.941C459.924 219.153 460.078 219.364 460.107 219.617C460.121 219.758 460.107 219.899 460.078 220.04C460.05 220.223 460.022 220.406 459.994 220.589C459.698 222.433 459.403 224.799 460.994 226.179C462.092 227.137 463.514 227.165 464.303 225.883C465.105 224.602 465.035 222.715 464.965 221.279C464.894 218.871 464.641 216.463 464.373 214.069Z" fill="#8FBDE2"/>
<path d="M467.232 212.577C466.612 210.436 465.655 208.395 465.176 206.212C464.711 204.1 464.711 201.917 464.697 199.749C464.697 197.383 464.697 195.003 464.697 192.638C464.697 191.159 464.697 189.681 464.444 188.23C463.923 185.104 462.289 182.204 462.022 179.035C461.909 177.669 462.036 176.29 461.895 174.924C461.81 174.149 461.613 173.347 461.247 172.657C460.853 171.91 459.783 171.953 459.431 172.713C458.642 174.431 458.135 176.275 458.459 178.106C458.656 179.204 459.121 180.232 459.487 181.288C461.078 186.006 460.233 191.216 461.458 196.045C461.824 197.496 462.388 198.932 462.458 200.425C462.613 204.015 459.938 207.296 460.177 210.887C460.374 213.83 462.5 216.266 463.387 219.068C463.88 220.645 463.993 222.321 464.528 223.884C464.936 225.095 465.908 226.574 467.401 226.207C468.823 225.855 468.386 224.701 468.33 223.602C468.091 219.857 468.288 216.238 467.232 212.577Z" fill="#6EA7CE"/>
<path d="M470.484 214.548C470.428 213.436 471.174 212.873 471.329 211.774C471.456 210.845 471.611 209.367 471.878 208.465C472.371 206.776 471.78 205.03 471.893 203.269C472.118 200.073 472.329 196.877 472.554 193.666C472.892 188.695 473.23 183.711 474.16 178.81C474.413 177.444 474.709 175.98 474.103 174.741C473.977 174.473 473.723 174.206 473.441 174.29C473.244 174.347 473.146 174.572 473.075 174.769C471.048 180.289 470.273 186.245 468.006 191.667C467.457 192.962 466.823 194.243 466.542 195.623C466.204 197.285 466.387 199.003 466.429 200.693C466.485 203.115 466.26 205.565 465.584 207.902C465.232 209.127 464.767 210.324 464.57 211.577C464.331 213.14 464.528 214.746 464.683 216.323C464.965 219.35 465.063 222.406 464.979 225.447C464.922 227.236 466.429 227.193 467.443 226.095C468.147 225.321 468.133 224.476 468.372 223.518C469.161 220.364 470.667 217.956 470.484 214.548Z" fill="#8FBDE2"/>
<path d="M461.036 219.392C459.698 217.252 457.037 216.027 456.178 213.647C455.967 213.042 455.882 212.394 455.615 211.803C455.023 210.507 453.686 209.761 452.362 209.17C452.179 209.085 451.968 209.226 451.968 209.423C451.968 209.747 452.108 210.043 452.376 210.226C453.39 210.916 454.164 211.958 454.502 213.126C454.911 214.52 454.728 216.055 455.234 217.421C455.657 218.562 456.53 219.505 456.952 220.646C457.333 221.702 457.29 222.842 457.459 223.941C457.642 225.039 458.121 226.208 459.135 226.672C462.81 228.362 461.895 220.787 461.036 219.392Z" fill="#6EA7CE"/>
<path d="M476.272 218.688C476.215 219.73 476.37 220.814 475.962 221.772C475.709 222.377 475.23 222.884 474.85 223.419C473.498 225.32 473.019 228.024 470.935 229.094C470.794 229.164 470.639 229.235 470.499 229.207C470.287 229.164 470.147 228.967 470.062 228.77C469.555 227.587 470.118 226.25 470.456 225.01C470.513 224.799 470.569 224.546 470.456 224.349C470.344 224.123 470.076 224.039 469.907 223.856C469.555 223.518 469.583 222.941 469.654 222.448C469.823 221.223 470.076 220.012 470.386 218.829C470.569 218.153 470.766 217.477 471.16 216.886C471.583 216.252 472.216 215.773 472.794 215.266C475.371 213.055 477.342 210.127 478.454 206.916C478.694 206.226 478.905 205.48 479.398 204.931C479.891 204.381 480.778 204.1 481.369 204.522C481.792 204.818 480.046 207.648 479.834 207.986C479.243 208.958 479.243 209.789 478.905 210.873C478.145 213.52 476.427 215.872 476.272 218.688Z" fill="#8FBDE2"/>
<path d="M474.23 219.885C474.61 218.899 475.005 217.885 475.131 216.843C475.272 215.675 475.089 214.478 475.286 213.309C475.54 211.816 476.413 210.493 476.849 209.042C477.159 207.986 477.243 206.888 477.426 205.804C477.962 202.72 479.412 199.692 479.004 196.594C478.919 195.919 478.609 195.13 477.933 195.017C477.328 194.919 476.779 195.468 476.61 196.059C476.455 196.651 476.568 197.284 476.61 197.904C476.737 199.622 476.244 201.368 475.244 202.776C474.286 204.128 472.906 205.142 472.047 206.55C470.991 208.282 470.851 210.394 470.315 212.351C469.245 216.238 466.57 219.631 466.077 223.63C465.88 225.222 466.26 227.165 467.725 227.798C471.977 229.657 473.258 222.377 474.23 219.885Z" fill="#6EA7CE"/>
<path d="M466.781 224.827H466.105H457.023C456.361 224.827 455.868 225.447 456.023 226.109L459.586 241.105C459.698 241.57 460.107 241.908 460.585 241.908H466.105H466.781H472.301C472.78 241.908 473.202 241.584 473.301 241.105L476.863 226.109C477.018 225.461 476.525 224.827 475.863 224.827H466.781Z" fill="#AACEF2"/>
<path d="M163.981 213.95C163.84 212.669 163.657 211.359 163.065 210.204C162.347 208.81 161.066 207.811 159.953 206.698C157.869 204.628 156.278 202.08 155.307 199.306C154.56 197.165 154.194 194.87 153.166 192.856C152.547 191.617 151.688 190.519 150.984 189.322C149.308 186.506 148.393 183.183 146.112 180.831C145.675 183.69 146.534 186.717 148.421 188.9C148.984 189.547 149.632 190.139 150.054 190.885C150.829 192.237 150.758 193.898 150.843 195.461C151.012 198.39 151.843 201.291 153.251 203.868C154.743 206.614 156.898 209.05 157.7 212.063C158.292 214.33 158.123 216.865 159.39 218.822C159.531 219.033 159.686 219.245 159.714 219.498C159.728 219.639 159.714 219.78 159.686 219.92C159.658 220.104 159.63 220.287 159.601 220.47C159.306 222.314 159.01 224.68 160.601 226.06C161.699 227.017 163.122 227.046 163.91 225.764C164.713 224.483 164.642 222.596 164.572 221.16C164.502 218.752 164.248 216.344 163.981 213.95Z" fill="#8FBDE2"/>
<path d="M163.479 212.458C162.859 210.317 161.902 208.276 161.423 206.093C160.958 203.981 160.958 201.798 160.944 199.63C160.944 197.264 160.944 194.884 160.944 192.519C160.944 191.04 160.944 189.562 160.691 188.111C160.17 184.985 158.536 182.085 158.269 178.916C158.156 177.55 158.283 176.17 158.142 174.805C158.057 174.03 157.86 173.227 157.494 172.537C157.1 171.791 156.03 171.833 155.678 172.594C154.889 174.312 154.382 176.156 154.706 177.987C154.903 179.085 155.368 180.113 155.734 181.169C157.325 185.886 156.48 191.096 157.705 195.926C158.072 197.377 158.635 198.813 158.705 200.306C158.86 203.896 156.185 207.177 156.424 210.768C156.621 213.711 158.747 216.147 159.635 218.949C160.127 220.526 160.24 222.202 160.775 223.765C161.184 224.976 162.155 226.454 163.648 226.088C165.07 225.736 164.633 224.582 164.577 223.483C164.338 219.738 164.535 216.119 163.479 212.458Z" fill="#6EA7CE"/>
<path d="M171.633 214.429C171.577 213.317 172.323 212.754 172.478 211.655C172.604 210.726 172.759 209.247 173.027 208.346C173.52 206.656 172.928 204.91 173.041 203.15C173.266 199.954 173.478 196.757 173.703 193.547C174.041 188.576 174.379 183.591 175.308 178.691C175.562 177.325 175.857 175.861 175.252 174.622C175.125 174.354 174.872 174.087 174.59 174.171C174.393 174.227 174.294 174.453 174.224 174.65C172.196 180.17 171.422 186.126 169.155 191.547C168.605 192.843 167.972 194.124 167.69 195.504C167.352 197.166 167.535 198.884 167.577 200.573C167.634 202.995 167.409 205.445 166.733 207.783C166.381 209.008 165.916 210.205 165.719 211.458C165.479 213.021 165.676 214.626 165.831 216.204C166.113 219.231 166.212 222.287 166.127 225.328C166.071 227.116 167.577 227.074 168.591 225.976C169.295 225.201 169.281 224.357 169.521 223.399C170.309 220.245 171.816 217.837 171.633 214.429Z" fill="#8FBDE2"/>
<path d="M163.676 219.273C162.338 217.133 159.677 215.908 158.818 213.528C158.606 212.923 158.522 212.275 158.254 211.684C157.663 210.388 156.325 209.642 155.002 209.05C154.819 208.966 154.607 209.107 154.607 209.304C154.607 209.628 154.748 209.923 155.016 210.106C156.03 210.796 156.804 211.838 157.142 213.007C157.55 214.401 157.367 215.936 157.874 217.302C158.297 218.443 159.17 219.386 159.592 220.527C159.972 221.583 159.93 222.723 160.099 223.822C160.282 224.92 160.761 226.089 161.775 226.553C165.45 228.243 164.535 220.667 163.676 219.273Z" fill="#6EA7CE"/>
<path d="M175.27 218.569C175.214 219.611 175.368 220.695 174.96 221.653C174.707 222.258 174.228 222.765 173.848 223.3C172.496 225.201 172.017 227.905 169.933 228.975C169.792 229.045 169.637 229.116 169.497 229.087C169.285 229.045 169.145 228.848 169.06 228.651C168.553 227.468 169.116 226.13 169.454 224.891C169.511 224.68 169.567 224.427 169.454 224.229C169.342 224.004 169.074 223.92 168.905 223.737C168.553 223.399 168.581 222.821 168.652 222.329C168.821 221.103 169.074 219.892 169.384 218.71C169.567 218.034 169.764 217.358 170.158 216.766C170.581 216.133 171.214 215.654 171.792 215.147C174.369 212.936 176.34 210.007 177.452 206.797C177.692 206.107 177.903 205.361 178.396 204.811C178.889 204.262 179.776 203.981 180.367 204.403C180.79 204.699 179.044 207.529 178.832 207.867C178.241 208.839 178.241 209.67 177.903 210.754C177.143 213.401 175.425 215.753 175.27 218.569Z" fill="#8FBDE2"/>
<path d="M173.808 219.766C174.188 218.78 174.583 217.766 174.709 216.724C174.85 215.555 174.667 214.358 174.864 213.19C175.118 211.697 175.991 210.373 176.427 208.923C176.737 207.867 176.822 206.769 177.005 205.684C177.54 202.601 178.99 199.573 178.582 196.475C178.497 195.799 178.187 195.011 177.512 194.898C176.906 194.8 176.357 195.349 176.188 195.94C176.033 196.532 176.146 197.165 176.188 197.785C176.315 199.503 175.822 201.249 174.822 202.657C173.864 204.009 172.485 205.023 171.626 206.431C170.569 208.163 170.429 210.275 169.894 212.232C168.823 216.119 166.148 219.512 165.655 223.511C165.458 225.102 165.838 227.046 167.303 227.679C171.555 229.538 172.837 222.258 173.808 219.766Z" fill="#6EA7CE"/>
<path d="M165.394 224.708H164.718H155.636C154.974 224.708 154.481 225.328 154.636 225.989L158.199 240.986C158.311 241.451 158.72 241.788 159.199 241.788H164.718H165.394H170.914C171.393 241.788 171.815 241.465 171.914 240.986L175.476 225.989C175.631 225.342 175.139 224.708 174.477 224.708H165.394Z" fill="#AACEF2"/>
<path d="M313.521 227.657H312.986C312.803 225.841 312.451 223.827 311.832 221.729C309.48 213.787 310.508 212.759 306.537 207.789C302.566 202.818 302.271 192.525 302.271 192.525C302.271 192.525 300.355 180.823 302.271 175.67C304.186 170.516 304.326 165.362 308.973 159.927C308.973 159.927 309.86 167.207 310.959 170.53C312.057 173.839 313.113 177.007 312.296 184.949C311.48 192.891 310.973 193.553 310.776 195.623C310.578 197.693 310.888 206.367 310.438 207.803C309.987 209.239 313.014 219.166 313.24 223.433C313.296 224.7 313.409 226.165 313.521 227.657Z" fill="#6EA7CE"/>
<path d="M310.79 224.362C310.156 223.25 309.128 222.18 307.481 221.645C303.172 220.265 300.412 220.617 298.018 216.421C295.624 212.239 294.962 206.226 294.174 205.057C294.174 205.057 295.906 204.564 298.004 207.521C300.102 210.478 301.566 212.689 302.777 214.407C304.003 216.125 305.411 215.449 306.805 216.702C307.973 217.758 309.241 220.363 309.762 221.701C309.931 222.138 310.156 222.546 310.424 222.926C310.677 223.264 310.959 223.687 311.142 223.996C311.184 224.067 311.226 224.165 311.268 224.306L310.79 224.362Z" fill="#8FBDE2"/>
<path d="M329.278 196.27C329.715 201.931 326.11 201.494 325.969 205.099C325.828 208.704 321.111 214.815 318.929 219.152C317.788 221.405 317.38 224.869 317.239 227.657H315.479C316.155 220.589 319.027 215.66 320.745 211.717C322.956 206.634 323.28 204.325 321.407 200.354C319.534 196.383 322.294 186.118 319.619 181.541C316.943 176.965 318.309 169.784 318.929 167.024C319.548 164.264 318.872 162.391 318.309 159.476C317.76 156.561 318.929 152.337 318.929 152.337C319.027 155.942 321.773 160.87 323.758 164.038C325.744 167.207 329.504 175.81 329.053 179.711C328.616 183.611 328.828 183.907 328.828 183.907C330.236 189.131 328.842 190.61 329.278 196.27Z" fill="#6EA7CE"/>
<path d="M318.76 223.053C318.534 223.729 317.816 225.461 317.154 227.658H316.084C316.577 224.855 317.422 221.603 318.844 219.744C321.717 215.984 327.462 214.379 328.124 211.647C328.785 208.93 328.053 200.763 332.249 196.2C332.249 196.2 331.658 201.284 332.249 202.635C332.841 203.987 337.84 210.324 334.897 215.618C331.954 220.913 325.321 220.251 323.266 221.434C321.182 222.617 319.126 221.955 318.76 223.053Z" fill="#8FBDE2"/>
<path d="M321.407 198.622C321.477 204.072 317.211 206.128 317.281 209.141C317.351 212.154 316.394 215.393 315.591 217.829C315.084 219.364 315.366 223.645 315.451 227.658H314.268C313.972 224.701 313.648 220.448 313.747 218.561C313.888 215.984 312.719 213.929 312.564 209.437C312.423 204.945 311.466 200.903 313.451 195.229C315.436 189.568 315.07 182.795 323.392 176.543C323.392 176.543 324.871 183.161 323.758 186.766C322.646 190.371 321.336 193.173 321.407 198.622Z" fill="#8FBDE2"/>
<path d="M314.93 222.377H315.718H326.321C327.096 222.377 327.673 223.109 327.49 223.87L323.336 241.387C323.209 241.936 322.716 242.316 322.167 242.316H315.718H314.93H308.48C307.917 242.316 307.438 241.936 307.312 241.387L303.158 223.87C302.975 223.109 303.552 222.377 304.326 222.377H314.93Z" fill="#AACEF2"/>
<path d="M236.934 286.08C236.934 286.066 236.934 279.462 236.906 272.379C232.752 272.9 230.076 272.787 228.542 272.59C230.034 280.081 231.414 286.39 231.428 286.404C231.428 286.714 231.428 286.981 231.386 287.164C231.175 288.263 229.344 289.586 228.978 290.727C228.612 291.867 228.485 292.585 231.583 293.233C234.681 293.881 236.709 293.529 236.807 293.149C236.892 292.768 238.201 290.037 237.413 288.277C237.187 287.798 237.047 286.995 236.934 286.08Z" fill="#F4F4F4"/>
<path d="M231.147 293.67C227.95 292.994 228.513 291.459 228.894 290.291C229.133 289.559 230.147 288.77 230.794 287.981C231.062 288.235 231.484 288.686 232.85 289.249C234.258 289.826 236.342 289.178 237.666 288.784C237.948 290.516 237.751 292.656 237.666 292.98C237.582 293.36 234.343 294.332 231.147 293.67Z" fill="#001333"/>
<path d="M240.13 286.08C240.13 286.066 240.13 279.462 240.159 272.379C244.312 272.9 246.988 272.787 248.523 272.59C247.03 280.081 245.65 286.39 245.636 286.404C245.636 286.714 245.636 286.981 245.678 287.164C245.89 288.263 247.72 289.586 248.086 290.727C248.452 291.867 248.579 292.585 245.481 293.233C242.383 293.881 240.356 293.529 240.257 293.149C240.173 292.768 238.863 290.037 239.652 288.277C239.877 287.798 240.032 286.995 240.13 286.08Z" fill="#F4F4F4"/>
<path d="M245.932 293.67C249.128 292.994 248.565 291.459 248.185 290.291C247.945 289.559 246.932 288.77 246.284 287.981C246.016 288.235 245.594 288.686 244.228 289.249C242.82 289.826 240.736 289.178 239.412 288.784C239.131 290.516 239.328 292.656 239.412 292.98C239.497 293.36 242.735 294.332 245.932 293.67Z" fill="#001333"/>
<path d="M236.906 272.393C236.878 265.761 236.849 258.72 236.779 256.312C236.385 243.132 229.569 243.653 229.569 243.653C229.569 243.653 226.077 243.71 225.106 248.539C224.557 251.257 226.626 262.916 228.556 272.59C230.076 272.801 232.752 272.914 236.906 272.393Z" fill="#F7A491"/>
<path d="M240.158 272.393C240.187 265.761 240.215 258.72 240.285 256.312C240.679 243.132 247.495 243.653 247.495 243.653C247.495 243.653 250.987 243.71 251.959 248.539C252.508 251.257 250.438 262.916 248.509 272.59C246.988 272.801 244.312 272.914 240.158 272.393Z" fill="#F7A491"/>
<path d="M253.705 293.896H254.887L253.015 232.178H251.832L253.705 293.896Z" fill="#6EA7CE"/>
<path d="M221.557 293.896H220.389L222.261 232.178H223.444L221.557 293.896Z" fill="#6EA7CE"/>
<path d="M256.479 202.283H255.535C255.535 202.283 254.127 202.748 252.649 202.987C251.17 203.227 247.072 204.001 242.651 204.156C241.144 204.212 239.595 204.226 238.187 204.226C238.004 204.226 237.835 204.226 237.638 204.226C237.455 204.226 237.272 204.226 237.089 204.226C235.695 204.226 234.146 204.212 232.625 204.156C228.19 204.001 224.092 203.213 222.627 202.987C221.163 202.762 219.741 202.283 219.741 202.283H218.797C217.6 202.283 216.671 203.508 216.812 204.902L221.163 245.47C221.276 246.583 222.064 247.428 223.008 247.512L236.061 248.512C236.666 248.554 237.23 248.287 237.61 247.822C238.004 248.287 238.553 248.568 239.159 248.512L252.212 247.512C253.17 247.442 253.944 246.583 254.057 245.47L258.408 204.902C258.605 203.508 257.676 202.283 256.479 202.283Z" fill="#6EA7CE"/>
<path d="M249.128 189.188C248.143 182.33 241.975 177.345 235.455 180.612C233.991 181.344 232.006 182.851 230.978 184.132C228.175 187.667 227.457 192.06 224.5 195.454C221.937 198.383 215.178 197.763 212.01 200.002C208.828 202.241 206.589 206.282 206.547 211.154C206.504 216.59 207.673 222.377 211.855 225.855C216.037 229.333 222.022 230.234 227.274 228.826C232.527 227.418 237.061 223.884 240.328 219.547C243.594 215.21 245.932 210.436 247.593 205.254C249.452 199.453 249.762 193.623 249.128 189.188Z" fill="#184655"/>
<path d="M232.203 204.212C232.203 204.212 229.457 203.818 225.176 207.944C220.895 212.07 215.122 217.097 217.629 221.11L228.133 220.856C228.133 220.856 234.484 213.379 234.582 212.999C234.653 212.605 232.203 204.212 232.203 204.212Z" fill="#D3D9F4"/>
<path d="M244.467 204.212C244.467 204.212 247.213 203.818 251.494 207.944C255.775 212.07 261.548 217.097 259.041 221.11L248.537 220.856C248.537 220.856 242.186 213.379 242.088 212.999C242.003 212.605 244.467 204.212 244.467 204.212Z" fill="#D3D9F4"/>
<path d="M238.863 240.133C246.692 239.739 253.057 237.908 253.057 237.908L250.311 214.998C249.142 205.296 246.03 204.296 245.171 204.212C245.101 204.212 245.017 204.212 244.946 204.212C243.256 204.17 241.032 204.043 238.877 203.902V203.874C238.821 203.874 238.75 203.888 238.694 203.888C238.638 203.888 238.567 203.874 238.511 203.874V203.902C236.357 204.043 234.146 204.156 232.442 204.212C232.372 204.212 232.287 204.212 232.217 204.212C231.358 204.296 228.232 205.296 227.077 214.998L224.331 237.908C224.331 237.908 230.682 239.739 238.525 240.133V240.147C238.581 240.147 238.652 240.147 238.708 240.133C238.764 240.133 238.835 240.133 238.891 240.147V240.133H238.863Z" fill="#355389"/>
<path d="M217.347 221.11C217.347 221.11 216.108 220.152 217.009 217.716C217.91 215.28 224.374 213.661 225.796 217.012L217.347 221.11Z" fill="#F4F4F4"/>
<path d="M259.309 221.11C259.309 221.11 260.548 220.152 259.647 217.716C258.746 215.28 252.282 213.661 250.86 217.012L259.309 221.11Z" fill="#F4F4F4"/>
<path d="M241.721 200.213C241.707 200.298 242.088 203.283 242.285 204.86C242.355 205.451 242.003 206.001 241.44 206.198C239.933 206.705 237.018 207.324 235.244 205.353C235.089 205.17 235.019 204.93 235.047 204.691L236.019 197.749L241.721 200.213Z" fill="#F7A491"/>
<path d="M241.44 201.72C241.595 201.664 241.736 201.579 241.862 201.481C241.778 200.776 241.722 200.255 241.722 200.213L236.019 197.749L235.54 201.157C237.314 202.776 240.018 202.199 241.44 201.72Z" fill="#F47458"/>
<path d="M232.512 191.976C232.681 193.187 232.174 194.257 231.344 194.384C230.513 194.511 229.724 193.624 229.541 192.413C229.372 191.202 229.879 190.132 230.71 190.005C231.527 189.892 232.343 190.765 232.512 191.976Z" fill="#F7A491"/>
<path d="M245.242 193.187C244.833 194.342 245.143 195.496 245.932 195.764C246.706 196.032 247.664 195.313 248.072 194.173C248.48 193.018 248.171 191.864 247.382 191.596C246.608 191.328 245.65 192.047 245.242 193.187Z" fill="#F7A491"/>
<path d="M246.453 192.849C245.96 198.045 242.243 201.931 238.159 201.551C234.075 201.157 231.175 196.637 231.668 191.441C232.16 186.245 235.878 182.358 239.961 182.739C244.045 183.119 246.946 187.653 246.453 192.849Z" fill="#F7A491"/>
<path d="M235.16 203.874C235.16 203.874 236.357 206.057 238.835 206.704C238.835 206.704 236.948 207.408 235.864 206.944C234.78 206.479 233.963 205.578 235.16 203.874Z" fill="#F4F4F4"/>
<path d="M242.158 203.874C242.158 203.874 240.975 206.057 238.525 206.704C238.525 206.704 240.398 207.408 241.454 206.944C242.524 206.479 243.341 205.578 242.158 203.874Z" fill="#F4F4F4"/>
<path d="M243.89 221.349C244.031 221.137 243.693 220.785 243.439 220.518C243.158 220.222 241.454 219.49 241.172 219.405C240.891 219.321 238.398 219.673 237.455 219.983C236.511 220.292 235.878 220.166 235.878 220.166C235.624 220.109 235.258 220.053 234.963 219.983L234.371 222.193C236.596 222.165 238.933 222.334 239.145 222.32C239.821 222.306 241.046 221.602 241.327 221.503C241.609 221.405 242.186 221.475 242.58 221.658C242.975 221.841 244.101 222.278 244.284 222.165C244.453 222.081 243.89 221.349 243.89 221.349Z" fill="#ED9485"/>
<path d="M235.99 220.18C235.99 220.18 223.458 215.618 220.642 216.463C217.826 217.308 216.699 219.955 217.544 221.645C218.389 223.334 235.005 222.194 235.005 222.194L235.99 220.18Z" fill="#ED9485"/>
<path d="M232.766 221.349C232.625 221.137 232.963 220.785 233.216 220.518C233.498 220.222 235.202 219.49 235.484 219.405C235.765 219.321 238.258 219.673 239.201 219.983C240.144 220.292 240.778 220.166 240.778 220.166C241.032 220.109 241.398 220.053 241.693 219.983L242.285 222.193C240.06 222.165 237.722 222.334 237.511 222.32C236.835 222.306 235.61 221.602 235.329 221.503C235.047 221.405 234.47 221.475 234.075 221.658C233.681 221.841 232.555 222.278 232.372 222.165C232.217 222.081 232.766 221.349 232.766 221.349Z" fill="#F7A491"/>
<path d="M240.665 220.18C240.665 220.18 253.198 215.618 256.014 216.463C258.83 217.308 259.886 220.082 259.041 221.771C258.197 223.461 241.637 222.208 241.637 222.208L240.665 220.18Z" fill="#F7A491"/>
<path d="M189.03 225.404H186.706V293.909H189.03V225.404Z" fill="#001333"/>
<path d="M291.794 225.404H289.471V293.909H291.794V225.404Z" fill="#001333"/>
<path d="M296.188 222.011H182.313V225.39H296.188V222.011Z" fill="#F8C48B"/>
<path d="M291.808 230.572H186.706V263.072H291.808V230.572Z" fill="#F8C48B"/>
<path d="M291.808 267.774H186.706V270.126H291.808V267.774Z" fill="#001333"/>
<path d="M231.808 190.44C231.808 190.44 240.356 185.54 240.525 182.302C240.694 179.063 234.836 182.907 234.836 182.907L231.527 186.948L231.808 190.44Z" fill="#184655"/>
<path d="M239.68 182.724C239.68 182.724 245.031 191.426 246.509 191.666C246.509 191.666 247.382 187.512 247.27 187.343C247.143 187.174 245.157 184.034 245.059 183.907C244.946 183.78 241.158 181.837 241.158 181.837L237.582 181.738L239.68 182.724Z" fill="#184655"/>
<path d="M236.92 274.21C236.92 273.605 236.92 272.999 236.92 272.394C232.766 272.915 230.09 272.802 228.556 272.605C228.668 273.168 228.781 273.731 228.893 274.28C229.95 274.534 232.583 274.942 236.92 274.21Z" fill="#6EA7CE"/>
<path d="M240.158 274.21C240.158 273.605 240.158 272.999 240.158 272.394C244.312 272.915 246.988 272.802 248.523 272.605C248.41 273.168 248.297 273.731 248.185 274.28C247.129 274.534 244.481 274.942 240.158 274.21Z" fill="#6EA7CE"/>
<path d="M236.793 196.312L240.891 196.51C240.891 196.51 240.722 198.129 238.905 198.087C236.709 198.059 236.793 196.312 236.793 196.312Z" fill="white"/>
<path d="M192.212 217.42H191.438C191.564 217.321 191.719 217.265 191.902 217.265H211.334C212.348 217.265 213.179 218.067 213.179 219.067V220.208C213.179 221.207 212.348 222.01 211.334 222.01H192.128L192.212 217.42Z" fill="#50BFA5"/>
<path d="M203.252 217.265C204.223 217.265 205.012 218.04 205.012 218.983V220.278C205.012 221.236 204.223 221.996 203.252 221.996H191.156V221.701H191.212L194.282 221.419L194.902 219.025C194.902 219.025 193.705 217.702 193.62 217.673C193.536 217.645 191.198 217.533 191.198 217.533H191.142V217.251H203.252V217.265Z" fill="#3C8F7C"/>
<path d="M191.93 219.63C191.93 218.236 191.198 217.561 191.198 217.561H202.998C203.885 217.561 204.618 218.265 204.618 219.152V220.151C204.618 221.025 203.899 221.743 202.998 221.743H191.198C191.198 221.715 191.93 221.391 191.93 219.63Z" fill="#F4F4F4"/>
<path d="M204.618 219.138V220.137C204.618 220.264 204.603 220.391 204.575 220.518C204.181 219.56 203.421 218.645 201.956 218.349C198.563 217.659 191.198 217.561 191.198 217.561H202.998C203.899 217.561 204.618 218.265 204.618 219.138Z" fill="#DAEEF7"/>
<path d="M192.677 213.618H191.902C192.029 213.548 192.184 213.491 192.367 213.491H211.799C212.813 213.491 213.644 214.139 213.644 214.927V215.843C213.644 216.631 212.813 217.279 211.799 217.279H192.578L192.677 213.618Z" fill="#F7CC7F"/>
<path d="M203.716 213.505C204.688 213.505 205.476 214.124 205.476 214.871V215.899C205.476 216.659 204.688 217.265 203.716 217.265H191.621V217.039H191.677L194.747 216.814L195.366 214.913C195.366 214.913 194.169 213.871 194.085 213.843C194 213.815 191.663 213.73 191.663 213.73H191.607V213.505H203.716Z" fill="#EAB054"/>
<path d="M192.395 215.378C192.395 214.266 191.663 213.73 191.663 213.73H203.463C204.35 213.73 205.082 214.294 205.082 214.984V215.772C205.082 216.462 204.364 217.025 203.463 217.025H191.663C191.663 217.04 192.395 216.772 192.395 215.378Z" fill="#F4F4F4"/>
<path d="M205.082 214.984V215.773C205.082 215.871 205.068 215.984 205.04 216.068C204.646 215.308 203.885 214.576 202.421 214.35C199.027 213.801 191.663 213.717 191.663 213.717H203.463C204.364 213.731 205.082 214.294 205.082 214.984Z" fill="#DAEEF7"/>
<path d="M194.958 219.279L194.212 220.476L193.367 219.279H194.958Z" fill="#466EB6"/>
<path d="M200.914 215.167L200.168 216.35L199.337 215.167H200.914Z" fill="#F47458"/>
<path d="M192.395 215.167H205.096C205.096 215.167 205.096 215.083 205.096 215.069C205.096 215.055 192.395 215.069 192.395 215.069V215.167Z" fill="#DAEEF7"/>
<path d="M191.916 219.279H204.618C204.618 219.279 204.618 219.194 204.618 219.18C204.618 219.166 191.902 219.18 191.902 219.18L191.916 219.279Z" fill="#DAEEF7"/>
<path d="M404.317 293.896H405.5L403.627 232.178H402.444L404.317 293.896Z" fill="#6EA7CE"/>
<path d="M372.17 293.896H370.987L372.874 232.178H374.043L372.17 293.896Z" fill="#6EA7CE"/>
<path d="M407.077 202.283H406.134C406.134 202.283 404.726 202.748 403.247 202.987C401.769 203.227 397.671 204.001 393.249 204.156C391.743 204.212 390.194 204.226 388.786 204.226C388.603 204.226 388.434 204.226 388.236 204.226C388.053 204.226 387.87 204.226 387.687 204.226C386.293 204.226 384.744 204.212 383.224 204.156C378.788 204.001 374.69 203.213 373.226 202.987C371.747 202.748 370.339 202.283 370.339 202.283H369.396C368.199 202.283 367.27 203.508 367.41 204.902L371.761 245.47C371.874 246.583 372.663 247.428 373.606 247.512L386.659 248.512C387.265 248.554 387.828 248.287 388.208 247.822C388.603 248.287 389.152 248.568 389.757 248.512L402.81 247.512C403.768 247.442 404.542 246.583 404.655 245.47L409.006 204.902C409.217 203.508 408.288 202.283 407.077 202.283Z" fill="#6EA7CE"/>
<path d="M358.553 184.315C359.018 183.907 360.539 186.385 361.158 186.301C361.764 186.216 360.398 182.696 360.834 182.372C361.637 181.78 362.58 186.146 362.961 185.892C363.355 185.639 362.609 181.105 363.51 181.259C364.411 181.414 363.791 186.047 364.326 185.963C364.862 185.878 364.51 181.597 365.608 181.231C366.199 181.034 365.27 188.624 365.875 189.215C366.481 189.807 368.565 187.23 369.199 187.638C369.832 188.047 364.622 192.06 364.58 192.539C364.538 193.017 363.144 203.311 363.594 206.592C364.735 206.549 371.085 207.014 372.156 206.958C371.635 209.112 372.17 211.154 371.775 213.322C368.143 213.336 358.694 212.154 357.948 211.45C355.681 209.281 360.046 195.594 360.665 192.961C361.299 190.328 360.356 189.342 360.243 187.779C360.158 186.202 358.089 184.738 358.553 184.315Z" fill="#F7A491"/>
<path d="M365.777 214.407C365.777 214.407 379.013 216.265 383.026 215.125C387.04 213.984 390.151 208.563 388.251 205.409C386.35 202.24 364.974 206.268 364.974 206.268L365.777 214.407Z" fill="#B75742"/>
<path d="M395.08 204.212C395.08 204.212 397.826 203.818 402.106 207.944C406.387 212.07 412.16 217.097 409.654 221.11L399.149 220.856C399.149 220.856 392.799 213.379 392.7 212.999C392.616 212.605 395.08 204.212 395.08 204.212Z" fill="#B75742"/>
<path d="M389.476 240.133C397.305 239.739 403.669 237.908 403.669 237.908L400.924 214.998C399.755 205.296 396.643 204.296 395.784 204.212C395.714 204.212 395.629 204.212 395.559 204.212C393.869 204.17 391.644 204.043 389.49 203.902V203.874C389.433 203.874 389.363 203.888 389.307 203.888C389.25 203.888 389.18 203.874 389.124 203.874V203.902C386.969 204.043 384.758 204.156 383.055 204.212C382.984 204.212 382.9 204.212 382.829 204.212C381.97 204.296 378.844 205.296 377.69 214.998L374.944 237.908C374.944 237.908 381.294 239.739 389.138 240.133V240.147C389.194 240.147 389.264 240.147 389.321 240.133C389.377 240.133 389.447 240.133 389.504 240.147V240.133H389.476Z" fill="#F47458"/>
<path d="M390.447 176.796C390.447 176.796 384.66 174.205 383.195 178.978C383.195 178.978 378.436 178.387 379.605 183.498C379.605 183.498 375.028 185.892 378.478 192.37C378.478 192.37 377.873 198.227 384.674 198.748C384.674 198.748 385.533 201.058 388.588 200.621C391.644 200.185 392.461 198.805 392.461 198.805C392.461 198.805 397.967 201.128 399.262 196.002C399.262 196.002 403.191 194.594 400.318 189.511C400.318 189.511 403.148 183.132 397.784 180.569C397.798 180.569 396.192 174.388 390.447 176.796Z" fill="#13375B"/>
<path d="M392.334 200.213C392.32 200.298 392.7 203.283 392.897 204.86C392.968 205.451 392.616 206.001 392.052 206.198C390.546 206.705 387.631 207.324 385.857 205.353C385.702 205.17 385.631 204.93 385.66 204.691L386.631 197.749L392.334 200.213Z" fill="#F7A491"/>
<path d="M392.052 201.72C392.207 201.664 392.348 201.579 392.475 201.481C392.39 200.776 392.334 200.255 392.334 200.213L386.631 197.749L386.152 201.157C387.927 202.776 390.616 202.199 392.052 201.72Z" fill="#F47458"/>
<path d="M382.871 192.426C383.167 193.609 382.745 194.736 381.942 194.933C381.14 195.13 380.252 194.327 379.971 193.145C379.675 191.962 380.097 190.835 380.9 190.638C381.703 190.441 382.59 191.244 382.871 192.426Z" fill="#F7A491"/>
<path d="M395.671 192.426C395.376 193.609 395.798 194.736 396.601 194.933C397.403 195.13 398.29 194.327 398.572 193.145C398.868 191.962 398.445 190.835 397.643 190.638C396.84 190.441 395.953 191.244 395.671 192.426Z" fill="#F7A491"/>
<path d="M396.84 191.976C396.84 197.2 393.517 201.424 389.419 201.424C385.322 201.424 381.998 197.2 381.998 191.976C381.998 186.752 385.322 182.527 389.419 182.527C393.517 182.527 396.84 186.752 396.84 191.976Z" fill="#F7A491"/>
<path d="M385.772 203.874C385.772 203.874 386.969 206.057 389.447 206.704C389.447 206.704 387.56 207.408 386.476 206.944C385.392 206.479 384.575 205.578 385.772 203.874Z" fill="#F4F4F4"/>
<path d="M392.77 203.874C392.77 203.874 391.588 206.057 389.138 206.704C389.138 206.704 391.01 207.408 392.066 206.944C393.137 206.479 393.953 205.578 392.77 203.874Z" fill="#F4F4F4"/>
<path d="M383.378 221.349C383.238 221.137 383.576 220.785 383.829 220.518C384.111 220.222 385.814 219.49 386.096 219.405C386.392 219.321 388.87 219.673 389.813 219.983C390.757 220.292 391.391 220.166 391.391 220.166C391.644 220.109 392.01 220.053 392.306 219.983L392.897 222.193C390.672 222.165 388.335 222.334 388.124 222.32C387.448 222.306 386.223 221.602 385.941 221.503C385.66 221.405 385.082 221.475 384.688 221.658C384.294 221.841 383.167 222.278 382.984 222.165C382.815 222.081 383.378 221.349 383.378 221.349Z" fill="#F7A491"/>
<path d="M391.278 220.18C391.278 220.18 403.81 215.618 406.626 216.463C409.443 217.308 410.499 220.082 409.654 221.771C408.809 223.461 392.25 222.208 392.25 222.208L391.278 220.18Z" fill="#F7A491"/>
<path d="M339.642 225.404H337.319V293.909H339.642V225.404Z" fill="#001333"/>
<path d="M442.407 225.404H440.083V293.909H442.407V225.404Z" fill="#001333"/>
<path d="M387.321 280.462C387.321 280.462 387.223 286.531 388.011 288.291C388.8 290.051 387.504 292.783 387.406 293.163C387.321 293.543 385.279 293.895 382.182 293.248C379.084 292.6 379.21 291.882 379.577 290.741C379.943 289.601 381.773 288.277 381.984 287.179C382.196 286.08 381.548 281.983 381.548 281.983L387.321 280.462Z" fill="#F7A491"/>
<path d="M381.759 293.67C378.563 292.994 379.126 291.459 379.506 290.291C379.746 289.559 380.759 288.77 381.407 287.981C381.675 288.235 382.097 288.686 383.463 289.249C384.871 289.826 386.955 289.178 388.279 288.784C388.56 290.516 388.363 292.656 388.279 292.98C388.194 293.36 384.942 294.332 381.759 293.67Z" fill="#001333"/>
<path d="M387.391 256.313C387.532 261.298 388.25 286.067 388.25 286.067L380.675 286.221C380.675 286.221 374.747 253.37 375.718 248.54C376.69 243.71 380.182 243.654 380.182 243.654C380.182 243.654 386.997 243.147 387.391 256.313Z" fill="#355389"/>
<path d="M390.011 280.462C390.011 280.462 390.109 286.531 389.321 288.291C388.532 290.051 389.828 292.783 389.926 293.163C390.011 293.543 392.052 293.895 395.15 293.248C398.248 292.6 398.121 291.882 397.755 290.741C397.389 289.601 395.559 288.277 395.347 287.179C395.136 286.08 395.784 281.983 395.784 281.983L390.011 280.462Z" fill="#F7A491"/>
<path d="M395.587 293.67C398.783 292.994 398.22 291.459 397.84 290.291C397.6 289.559 396.587 288.77 395.939 287.981C395.671 288.235 395.249 288.686 393.883 289.249C392.475 289.826 390.391 289.178 389.067 288.784C388.786 290.516 388.983 292.656 389.067 292.98C389.152 293.36 392.39 294.332 395.587 293.67Z" fill="#001333"/>
<path d="M389.94 256.313C389.799 261.298 389.081 286.067 389.081 286.067L396.657 286.221C396.657 286.221 402.585 253.37 401.613 248.54C400.642 243.71 397.15 243.654 397.15 243.654C397.15 243.654 390.334 243.147 389.94 256.313Z" fill="#355389"/>
<path d="M446.8 222.011H332.925V225.39H446.8V222.011Z" fill="#F8C48B"/>
<path d="M442.421 230.572H337.319V263.072H442.421V230.572Z" fill="#F8C48B"/>
<path d="M442.421 267.774H337.319V270.126H442.421V267.774Z" fill="#001333"/>
<path d="M387.307 196.439L391.405 196.665C391.405 196.665 391.222 198.27 389.419 198.228C387.208 198.186 387.307 196.439 387.307 196.439Z" fill="white"/>
<path d="M264.895 222.058H287.41V214.172H264.895V222.058Z" fill="#F4F4F4"/>
<path d="M264.895 215.744H287.41V215.617H264.895V215.744Z" fill="#D3E5F4"/>
<path d="M264.895 217.049H287.41V216.922H264.895V217.049Z" fill="#D3E5F4"/>
<path d="M264.895 218.354H287.41V218.228H264.895V218.354Z" fill="#D3E5F4"/>
<path d="M264.895 219.645H287.41V219.518H264.895V219.645Z" fill="#D3E5F4"/>
<path d="M276.319 217.053C276.319 217.053 265.73 217.969 264.392 219.109C264.392 219.109 264.463 217.758 264.899 216.927L268.222 217.053H276.319Z" fill="#D3E5F4"/>
<path d="M281.98 217.04L280.825 218.871L279.53 217.04H281.98Z" fill="#F47458"/>
<path d="M276.587 218.35L275.432 220.18L274.136 218.35H276.587Z" fill="#466EB6"/>
<path d="M264.895 220.937H287.41V220.81H264.895V220.937Z" fill="#D3E5F4"/>
<path d="M270.602 219.658L269.447 221.475L268.152 219.658H270.602Z" fill="#50BFA5"/>
<path d="M282.05 214.167V218.082V218.138V222.052H287.415V218.138V218.082V214.167H282.05Z" fill="#D3E5F4"/>
<path d="M436.521 217.42H437.295C437.169 217.321 437.014 217.265 436.831 217.265H417.399C416.385 217.265 415.554 218.067 415.554 219.067V220.208C415.554 221.207 416.385 222.01 417.399 222.01H436.605L436.521 217.42Z" fill="#50BFA5"/>
<path d="M425.495 217.265C424.524 217.265 423.735 218.04 423.735 218.983V220.278C423.735 221.236 424.524 221.996 425.495 221.996H437.591V221.701H437.535L434.465 221.419L433.845 219.025C433.845 219.025 435.042 217.702 435.127 217.673C435.211 217.645 437.549 217.533 437.549 217.533H437.605V217.251H425.495V217.265Z" fill="#3C8F7C"/>
<path d="M436.802 219.63C436.802 218.236 437.535 217.561 437.535 217.561H425.735C424.848 217.561 424.115 218.265 424.115 219.152V220.151C424.115 221.025 424.833 221.743 425.735 221.743H437.535C437.549 221.715 436.802 221.391 436.802 219.63Z" fill="#F4F4F4"/>
<path d="M424.129 219.138V220.137C424.129 220.264 424.143 220.391 424.172 220.518C424.566 219.56 425.326 218.645 426.791 218.349C430.184 217.659 437.549 217.561 437.549 217.561H425.749C424.848 217.561 424.129 218.265 424.129 219.138Z" fill="#DAEEF7"/>
<path d="M436.07 213.618H436.845C436.718 213.548 436.563 213.491 436.38 213.491H416.948C415.934 213.491 415.103 214.139 415.103 214.927V215.843C415.103 216.631 415.934 217.279 416.948 217.279H436.169L436.07 213.618Z" fill="#F47458"/>
<path d="M425.031 213.505C424.059 213.505 423.27 214.124 423.27 214.871V215.899C423.27 216.659 424.059 217.265 425.031 217.265H437.126V217.039H437.07L434 216.814L433.381 214.913C433.381 214.913 434.578 213.871 434.662 213.843C434.747 213.815 437.084 213.73 437.084 213.73H437.14V213.505H425.031Z" fill="#B75742"/>
<path d="M436.338 215.378C436.338 214.266 437.07 213.73 437.07 213.73H425.27C424.383 213.73 423.651 214.294 423.651 214.984V215.772C423.651 216.462 424.369 217.025 425.27 217.025H437.07C437.084 217.04 436.338 216.772 436.338 215.378Z" fill="#F4F4F4"/>
<path d="M423.665 214.984V215.773C423.665 215.871 423.679 215.984 423.707 216.068C424.101 215.308 424.862 214.576 426.326 214.35C429.72 213.801 437.084 213.717 437.084 213.717H425.284C424.383 213.731 423.665 214.294 423.665 214.984Z" fill="#DAEEF7"/>
<path d="M433.775 219.279L434.535 220.476L435.38 219.279H433.775Z" fill="#466EB6"/>
<path d="M427.819 215.167L428.565 216.35L429.41 215.167H427.819Z" fill="#F47458"/>
<path d="M436.352 215.167H423.651C423.651 215.167 423.651 215.083 423.651 215.069C423.651 215.055 436.352 215.069 436.352 215.069V215.167Z" fill="#DAEEF7"/>
<path d="M436.831 219.279H424.129C424.129 219.279 424.129 219.194 424.129 219.18C424.129 219.166 436.845 219.18 436.845 219.18L436.831 219.279Z" fill="#DAEEF7"/>
<path d="M103.388 293.896H104.571L102.684 232.178H101.501L103.388 293.896Z" fill="#6EA7CE"/>
<path d="M71.2404 293.896H70.0576L71.9304 232.178H73.1132L71.2404 293.896Z" fill="#6EA7CE"/>
<path d="M106.148 202.283H105.204C105.204 202.283 103.796 202.748 102.318 202.987C100.839 203.227 96.7415 204.001 92.32 204.156C90.8133 204.212 89.2644 204.226 87.8563 204.226C87.6732 204.226 87.5042 204.226 87.3071 204.226C87.124 204.226 86.941 204.226 86.7579 204.226C85.3639 204.226 83.815 204.212 82.2942 204.156C77.8586 204.001 73.761 203.213 72.2965 202.987C70.818 202.748 69.4099 202.283 69.4099 202.283H68.4664C67.2695 202.283 66.3402 203.508 66.481 204.902L70.8321 245.47C70.9447 246.583 71.7333 247.428 72.6767 247.512L85.73 248.512C86.3355 248.554 86.8987 248.287 87.2789 247.822C87.6732 248.287 88.2224 248.568 88.8279 248.512L101.881 247.512C102.839 247.442 103.613 246.583 103.726 245.47L108.077 204.902C108.274 203.508 107.345 202.283 106.148 202.283Z" fill="#6EA7CE"/>
<path d="M98.3467 205.55C98.3467 205.55 104.866 193.919 106.458 191.44C108.049 188.962 112.174 179.147 112.329 178.753C112.47 178.359 109.485 173.712 110.147 173.557C110.809 173.402 111.555 176.007 112.273 175.698C112.991 175.388 115.061 169.108 115.469 169.417C116.23 169.995 114.343 173.318 114.751 173.529C115.16 173.74 116.385 169.882 117.173 169.995C117.976 170.107 115.667 173.529 115.878 173.825C116.103 174.12 118.497 170.91 118.933 171.586C119.173 171.952 116.723 174.402 117.201 174.627C117.666 174.853 119.835 173.276 120.074 173.74C120.299 174.191 118.06 174.81 117.399 176.036C116.723 177.261 115.596 177.796 115.117 180.063C114.639 182.33 111.513 194.637 109.091 198.72C106.669 202.818 103.768 207.789 103.768 207.789L98.3467 205.55Z" fill="#F79C8D"/>
<path d="M92.5875 181.429C86.7016 178.331 79.9567 182.414 78.6753 184.076C77.3939 185.737 78.0275 192.074 79.1963 194.411C80.365 196.763 81.6323 201.691 84.2796 200.79C84.7724 200.621 88.4476 199.227 88.5603 198.129C89.0672 199.115 92.9254 199.072 93.4465 199.044C96.2486 198.917 95.8403 193.82 96.0656 191.201C96.2768 188.596 94.4462 182.4 92.5875 181.429Z" fill="#184655"/>
<path d="M81.8717 204.212C81.8717 204.212 79.1259 203.818 74.8452 207.944C70.5645 212.07 64.7912 217.097 67.2977 221.11L77.8023 220.856C77.8023 220.856 84.1529 213.379 84.2514 212.999C84.3359 212.605 81.8717 204.212 81.8717 204.212Z" fill="#F47458"/>
<path d="M111.217 195.623L105.289 191.976C105.289 191.976 97.009 204.198 94.8264 204.212C94.756 204.212 94.6715 204.212 94.6011 204.212C92.9114 204.17 90.6865 204.043 88.5321 203.902V203.874C88.4758 203.874 88.4054 203.888 88.349 203.888C88.2927 203.888 88.2223 203.874 88.166 203.874V203.902C86.0116 204.043 83.8008 204.156 82.097 204.212C82.0266 204.212 81.9421 204.212 81.8717 204.212C81.0127 204.297 77.8867 205.296 76.732 214.998L73.9862 237.908C73.9862 237.908 80.3368 239.739 88.1801 240.133V240.147C88.2364 240.147 88.3068 240.147 88.3631 240.133C88.4194 240.133 88.4899 240.133 88.5462 240.147V240.133C96.3753 239.739 102.74 237.908 102.74 237.908L100.501 219.364C100.205 216.857 100.797 214.337 102.205 212.238C106.246 206.24 111.217 195.623 111.217 195.623Z" fill="#F47458"/>
<path d="M91.3906 200.213C91.3765 200.298 91.7567 203.283 91.9538 204.86C92.0242 205.451 91.6722 206.001 91.109 206.198C89.6023 206.705 86.6875 207.324 84.9132 205.353C84.7583 205.17 84.6879 204.93 84.7161 204.691L85.6877 197.749L91.3906 200.213Z" fill="#F7A491"/>
<path d="M91.109 201.72C91.2639 201.664 91.4047 201.579 91.5314 201.481C91.447 200.776 91.3906 200.255 91.3906 200.213L85.6877 197.749L85.209 201.157C86.9973 202.776 89.6868 202.199 91.109 201.72Z" fill="#F47458"/>
<path d="M81.1113 193.679C81.6182 194.791 81.4211 195.974 80.6607 196.312C79.9144 196.65 78.8865 196.03 78.3796 194.918C77.8726 193.805 78.0698 192.623 78.8302 192.285C79.5906 191.947 80.6044 192.566 81.1113 193.679Z" fill="#F7A491"/>
<path d="M93.6717 191.3C93.6154 192.525 94.2209 193.538 95.0517 193.581C95.8825 193.623 96.6006 192.665 96.6569 191.454C96.7133 190.229 96.1078 189.216 95.277 189.173C94.4603 189.117 93.7421 190.074 93.6717 191.3Z" fill="#F7A491"/>
<path d="M94.7419 190.637C95.7135 195.763 93.2352 200.536 89.208 201.311C85.1808 202.071 81.1254 198.537 80.1538 193.411C79.1822 188.286 81.6605 183.512 85.6877 182.738C89.7149 181.977 93.7703 185.512 94.7419 190.637Z" fill="#F7A491"/>
<path d="M84.8287 203.874C84.8287 203.874 86.0256 206.057 88.5039 206.704C88.5039 206.704 86.617 207.408 85.5328 206.944C84.4626 206.479 83.6318 205.578 84.8287 203.874Z" fill="#F4F4F4"/>
<path d="M91.8271 203.874C91.8271 203.874 90.6443 206.057 88.1942 206.704C88.1942 206.704 90.067 207.408 91.123 206.944C92.2073 206.479 93.0099 205.578 91.8271 203.874Z" fill="#F4F4F4"/>
<path d="M93.5591 221.349C93.6999 221.137 93.362 220.785 93.1085 220.518C92.8269 220.222 91.1231 219.49 90.8414 219.405C90.5457 219.321 88.0674 219.673 87.124 219.983C86.1806 220.292 85.5469 220.166 85.5469 220.166C85.2934 220.109 84.9273 220.053 84.6316 219.983L84.0402 222.193C86.2651 222.165 88.6025 222.334 88.8137 222.32C89.4896 222.306 90.7147 221.602 90.9963 221.503C91.278 221.405 91.8553 221.475 92.2496 221.658C92.6438 221.841 93.7703 222.278 93.9534 222.165C94.1224 222.081 93.5591 221.349 93.5591 221.349Z" fill="#F7A491"/>
<path d="M85.6596 220.18C85.6596 220.18 73.1273 215.618 70.311 216.463C67.4948 217.308 66.3683 219.955 67.2132 221.645C68.0581 223.334 84.6739 222.194 84.6739 222.194L85.6596 220.18Z" fill="#F7A491"/>
<path d="M38.7128 225.404H36.3894V293.909H38.7128V225.404Z" fill="#001333"/>
<path d="M141.477 225.404H139.154V293.909H141.477V225.404Z" fill="#001333"/>
<path d="M86.3918 280.462C86.3918 280.462 86.2932 286.531 87.0818 288.291C87.8703 290.051 86.5748 292.783 86.4763 293.163C86.3918 293.543 84.35 293.895 81.2522 293.248C78.1543 292.6 78.281 291.882 78.6471 290.741C79.0132 289.601 80.8438 288.277 81.055 287.179C81.2662 286.08 80.6185 281.983 80.6185 281.983L86.3918 280.462Z" fill="#F7A491"/>
<path d="M80.8156 293.67C77.6192 292.994 78.1824 291.459 78.5626 290.291C78.802 289.559 79.8158 288.77 80.4636 287.981C80.7311 288.235 81.1535 288.686 82.5194 289.249C83.9275 289.826 86.0116 289.178 87.3352 288.784C87.6168 290.516 87.4197 292.656 87.3352 292.98C87.2507 293.36 84.012 294.332 80.8156 293.67Z" fill="#001333"/>
<path d="M86.4481 256.313C86.5889 261.298 87.307 286.067 87.307 286.067L79.7314 286.221C79.7314 286.221 73.8032 253.37 74.7748 248.54C75.7464 243.71 79.2385 243.654 79.2385 243.654C79.2385 243.654 86.0679 243.147 86.4481 256.313Z" fill="#355389"/>
<path d="M89.0813 280.462C89.0813 280.462 89.1799 286.531 88.3914 288.291C87.6028 290.051 88.8983 292.783 88.9968 293.163C89.0813 293.543 91.1231 293.895 94.221 293.248C97.3188 292.6 97.1921 291.882 96.826 290.741C96.4599 289.601 94.6293 288.277 94.4181 287.179C94.2069 286.08 94.8546 281.983 94.8546 281.983L89.0813 280.462Z" fill="#F7A491"/>
<path d="M94.6434 293.67C97.8398 292.994 97.2766 291.459 96.8964 290.291C96.657 289.559 95.6432 288.77 94.9954 287.981C94.7279 288.235 94.3054 288.686 92.9396 289.249C91.5314 289.826 89.4474 289.178 88.1238 288.784C87.8422 290.516 88.0393 292.656 88.1238 292.98C88.2083 293.36 91.447 294.332 94.6434 293.67Z" fill="#001333"/>
<path d="M89.0109 256.313C88.8701 261.298 88.152 286.067 88.152 286.067L95.7277 286.221C95.7277 286.221 101.656 253.37 100.684 248.54C99.7126 243.71 96.2205 243.654 96.2205 243.654C96.2205 243.654 89.4052 243.147 89.0109 256.313Z" fill="#355389"/>
<path d="M145.871 222.011H31.9961V225.39H145.871V222.011Z" fill="#F8C48B"/>
<path d="M141.491 230.572H36.3894V263.072H141.491V230.572Z" fill="#F8C48B"/>
<path d="M141.491 267.774H36.3894V270.126H141.491V267.774Z" fill="#001333"/>
<path d="M114.47 217.42H113.695C113.822 217.321 113.977 217.265 114.16 217.265H133.592C134.606 217.265 135.437 218.067 135.437 219.067V220.208C135.437 221.207 134.606 222.01 133.592 222.01H114.385L114.47 217.42Z" fill="#13375B"/>
<path d="M125.495 217.265C126.467 217.265 127.255 218.04 127.255 218.983V220.278C127.255 221.236 126.467 221.996 125.495 221.996H113.4V221.701H113.456L116.526 221.419L117.145 219.025C117.145 219.025 115.948 217.702 115.864 217.673C115.779 217.645 113.442 217.533 113.442 217.533H113.385V217.251H125.495V217.265Z" fill="#0E293F"/>
<path d="M114.188 219.63C114.188 218.236 113.456 217.561 113.456 217.561H125.256C126.143 217.561 126.875 218.265 126.875 219.152V220.151C126.875 221.025 126.157 221.743 125.256 221.743H113.442C113.442 221.715 114.188 221.391 114.188 219.63Z" fill="#F4F4F4"/>
<path d="M126.861 219.138V220.137C126.861 220.264 126.847 220.391 126.819 220.518C126.425 219.56 125.664 218.645 124.2 218.349C120.806 217.659 113.442 217.561 113.442 217.561H125.242C126.143 217.561 126.861 218.265 126.861 219.138Z" fill="#DAEEF7"/>
<path d="M136.239 213.618H137.014C136.887 213.548 136.732 213.491 136.549 213.491H117.117C116.103 213.491 115.272 214.139 115.272 214.927V215.843C115.272 216.631 116.103 217.279 117.117 217.279H136.338L136.239 213.618Z" fill="#50BFA5"/>
<path d="M125.2 213.506C124.228 213.506 123.439 214.125 123.439 214.872V215.9C123.439 216.66 124.228 217.266 125.2 217.266H137.295V217.04H137.239L134.169 216.815L133.55 214.914C133.55 214.914 134.747 213.872 134.831 213.844C134.916 213.816 137.253 213.731 137.253 213.731H137.309V213.506H125.2Z" fill="#3C8F7C"/>
<path d="M136.521 215.378C136.521 214.266 137.253 213.73 137.253 213.73H125.453C124.566 213.73 123.834 214.294 123.834 214.984V215.772C123.834 216.462 124.552 217.025 125.453 217.025H137.253C137.253 217.04 136.521 216.772 136.521 215.378Z" fill="#F4F4F4"/>
<path d="M123.834 214.984V215.773C123.834 215.871 123.848 215.984 123.876 216.068C124.27 215.308 125.031 214.576 126.495 214.35C129.889 213.801 137.253 213.717 137.253 213.717H125.453C124.552 213.731 123.834 214.294 123.834 214.984Z" fill="#DAEEF7"/>
<path d="M79.9567 192.384C79.9567 192.384 83.3643 191.567 84.8006 189.328C86.2228 187.089 89.2784 183.273 90.6021 183.231C91.9257 183.189 89.1939 181.428 88.2646 181.597C87.3352 181.766 80.9424 183.653 80.9424 183.653L79.8581 186.554L78.9569 190.074L79.9567 192.384Z" fill="#184655"/>
<path d="M105.289 191.989L111.189 195.678L111.865 194.158L106.26 190.849L105.289 191.989Z" fill="#F4F4F4"/>
<path d="M86.3214 196.974L90.7428 195.918C90.7428 195.918 91.0526 197.692 89.1235 198.213C86.7719 198.847 86.3214 196.974 86.3214 196.974Z" fill="white"/>
<path d="M134.789 215.35L134.043 216.532L133.198 215.35H134.789Z" fill="#F47458"/>
<path d="M123.848 215.35H136.521C136.521 215.35 136.521 215.265 136.521 215.251C136.521 215.237 123.834 215.251 123.834 215.251L123.848 215.35Z" fill="#DAEEF7"/>
<path d="M115.92 219.743L116.666 220.926L117.511 219.743H115.92Z" fill="#50BFA5"/>
<path d="M126.861 219.743H114.188C114.188 219.743 114.188 219.659 114.188 219.645C114.188 219.631 126.875 219.645 126.875 219.645L126.861 219.743Z" fill="#DAEEF7"/>
<path d="M116.511 209.858H115.892C115.99 209.788 116.117 209.731 116.258 209.731H131.607C132.409 209.731 133.057 210.365 133.057 211.154V212.055C133.057 212.843 132.409 213.477 131.607 213.477H116.427L116.511 209.858Z" fill="#F47458"/>
<path d="M125.228 209.746C126.002 209.746 126.622 210.352 126.622 211.112V212.14C126.622 212.886 126.002 213.506 125.228 213.506H115.667V213.28H115.709L118.145 213.055L118.638 211.168C118.638 211.168 117.694 210.126 117.624 210.098C117.568 210.07 115.709 209.985 115.709 209.985H115.667V209.76H125.228V209.746Z" fill="#B75742"/>
<path d="M116.286 211.619C116.286 210.52 115.709 209.985 115.709 209.985H125.031C125.735 209.985 126.312 210.549 126.312 211.239V212.027C126.312 212.717 125.735 213.28 125.031 213.28H115.709C115.709 213.266 116.286 212.999 116.286 211.619Z" fill="#F4F4F4"/>
<path d="M126.312 211.224V212.012C126.312 212.111 126.298 212.21 126.27 212.308C125.96 211.548 125.354 210.83 124.2 210.59C121.524 210.041 115.695 209.971 115.695 209.971H125.017C125.735 209.971 126.312 210.534 126.312 211.224Z" fill="#DAEEF7"/>
<path d="M122.876 211.533L123.538 212.702L124.129 211.533H122.876Z" fill="#13375B"/>
<path d="M126.312 211.534H116.286C116.286 211.534 116.286 211.449 116.286 211.435C116.286 211.421 126.312 211.435 126.312 211.435V211.534Z" fill="#DAEEF7"/>
<path d="M551.663 293.797H552.832L550.959 232.079H549.776L551.663 293.797Z" fill="#6EA7CE"/>
<path d="M519.515 293.797H518.333L520.205 232.079H521.388L519.515 293.797Z" fill="#6EA7CE"/>
<path d="M554.423 202.185H553.479C553.479 202.185 552.071 202.649 550.593 202.889C549.114 203.128 545.017 203.902 540.595 204.057C539.088 204.114 537.539 204.128 536.131 204.128C535.948 204.128 535.779 204.128 535.582 204.128C535.399 204.128 535.216 204.128 535.033 204.128C533.639 204.128 532.09 204.114 530.569 204.057C526.134 203.902 522.036 203.114 520.572 202.889C519.093 202.649 517.685 202.185 517.685 202.185H516.742C515.545 202.185 514.615 203.41 514.756 204.804L519.107 245.372C519.22 246.484 520.008 247.329 520.952 247.413L534.005 248.413C534.611 248.455 535.174 248.188 535.554 247.723C535.948 248.188 536.497 248.47 537.103 248.413L550.156 247.413C551.114 247.343 551.888 246.484 552.001 245.372L556.352 204.804C556.549 203.41 555.62 202.185 554.423 202.185Z" fill="#6EA7CE"/>
<path d="M532.231 181.232C532.231 181.232 528.232 180.499 526.443 184.724C524.641 188.948 525.908 188.357 525.035 190.469C524.176 192.581 521.008 192.694 521.515 195.651C522.022 198.608 523.472 198.847 523.472 198.847C523.472 198.847 522.613 201.354 524.387 203.494C526.162 205.634 529.949 207.099 532.78 206.282C532.78 206.282 537.511 207.93 541.665 206.085C545.819 204.24 544.312 204.494 546.087 204.198C547.861 203.902 552.254 200.664 550.874 197.242C550.874 197.242 553.212 193.271 549.903 190.92C546.593 188.554 545.566 185.766 543.284 182.217C540.975 178.669 534.047 179.978 532.231 181.232Z" fill="#0E2E35"/>
<path d="M530.611 204.114C530.611 204.114 527.866 203.719 523.585 207.845C519.304 211.971 513.531 216.998 516.037 221.011L526.542 220.758C526.542 220.758 532.893 213.281 532.991 212.9C533.076 212.506 530.611 204.114 530.611 204.114Z" fill="#D3D9F4"/>
<path d="M534.878 285.996C534.878 285.982 534.878 279.378 534.85 272.295C530.696 272.816 528.02 272.703 526.486 272.506C527.978 280.011 529.358 286.306 529.372 286.32C529.372 286.63 529.372 286.897 529.33 287.08C529.119 288.179 527.288 289.502 526.922 290.643C526.556 291.783 526.429 292.501 529.527 293.149C532.625 293.797 534.653 293.445 534.751 293.065C534.85 292.685 536.145 289.953 535.357 288.193C535.131 287.714 534.991 286.897 534.878 285.996Z" fill="#F4F4F4"/>
<path d="M529.091 293.572C525.894 292.896 526.458 291.361 526.838 290.192C527.077 289.46 528.091 288.671 528.739 287.883C529.006 288.136 529.429 288.601 530.795 289.15C532.203 289.727 534.287 289.08 535.61 288.685C535.892 290.417 535.695 292.558 535.61 292.882C535.526 293.262 532.287 294.248 529.091 293.572Z" fill="#001333"/>
<path d="M538.075 285.996C538.075 285.982 538.075 279.378 538.103 272.295C542.257 272.816 544.932 272.703 546.467 272.506C544.974 280.011 543.594 286.306 543.58 286.32C543.58 286.63 543.58 286.897 543.623 287.08C543.834 288.179 545.664 289.502 546.03 290.643C546.397 291.783 546.523 292.501 543.425 293.149C540.328 293.797 538.3 293.445 538.201 293.065C538.103 292.685 536.807 289.953 537.596 288.193C537.821 287.714 537.976 286.897 538.075 285.996Z" fill="#F4F4F4"/>
<path d="M543.876 293.572C547.072 292.896 546.509 291.361 546.129 290.192C545.889 289.46 544.876 288.671 544.228 287.883C543.96 288.136 543.538 288.601 542.172 289.15C540.764 289.727 538.68 289.08 537.356 288.685C537.075 290.417 537.272 292.558 537.356 292.882C537.441 293.262 540.679 294.248 543.876 293.572Z" fill="#001333"/>
<path d="M534.864 272.294C534.836 265.662 534.808 258.621 534.737 256.214C534.343 243.034 527.528 243.555 527.528 243.555C527.528 243.555 524.035 243.611 523.064 248.441C522.515 251.158 524.585 262.818 526.514 272.491C528.02 272.703 530.696 272.815 534.864 272.294Z" fill="#F7A491"/>
<path d="M538.103 272.294C538.131 265.662 538.159 258.621 538.229 256.214C538.624 243.034 545.439 243.555 545.439 243.555C545.439 243.555 548.931 243.611 549.903 248.441C550.452 251.158 548.382 262.818 546.453 272.491C544.946 272.703 542.257 272.815 538.103 272.294Z" fill="#F7A491"/>
<path d="M542.876 204.114C542.876 204.114 546.58 203.734 550.86 207.845C555.141 211.971 560.914 216.998 558.408 221.011L547.903 220.758C547.903 220.758 541.553 213.281 541.454 212.9C541.37 212.506 542.876 204.114 542.876 204.114Z" fill="#D3D9F4"/>
<path d="M536.807 240.034C544.636 239.64 551.001 237.81 551.001 237.81L548.255 214.9C547.086 205.198 543.974 204.198 543.115 204.113C543.045 204.113 542.961 204.113 542.89 204.113C541.2 204.071 538.976 203.944 536.821 203.804V203.775C536.765 203.775 536.694 203.789 536.638 203.789C536.582 203.789 536.511 203.775 536.455 203.775V203.804C534.301 203.944 532.09 204.057 530.386 204.113C530.316 204.113 530.231 204.113 530.161 204.113C529.302 204.198 526.176 205.198 525.021 214.9L522.275 237.81C522.275 237.81 528.626 239.64 536.469 240.034V240.049C536.525 240.049 536.596 240.049 536.652 240.034C536.709 240.034 536.779 240.034 536.835 240.049V240.034H536.807Z" fill="#355389"/>
<path d="M558.675 221.011C558.675 221.011 559.914 220.054 559.013 217.618C558.112 215.182 551.649 213.562 550.227 216.914L558.675 221.011Z" fill="#F4F4F4"/>
<path d="M515.77 221.011C515.77 221.011 514.531 220.054 515.432 217.618C516.333 215.182 522.796 213.562 524.219 216.914L515.77 221.011Z" fill="#F4F4F4"/>
<path d="M542.313 221.251C542.454 221.04 542.116 220.688 541.862 220.42C541.581 220.124 539.877 219.392 539.595 219.308C539.3 219.223 536.821 219.575 535.878 219.885C534.934 220.195 534.301 220.068 534.301 220.068C534.047 220.012 533.681 219.955 533.385 219.885L532.794 222.096C535.019 222.068 537.356 222.237 537.568 222.222C538.243 222.208 539.469 221.504 539.75 221.406C540.032 221.307 540.609 221.378 541.003 221.561C541.398 221.744 542.524 222.18 542.707 222.068C542.876 221.983 542.313 221.251 542.313 221.251Z" fill="#ED9485"/>
<path d="M534.413 220.082C534.413 220.082 521.881 215.505 519.065 216.364C516.249 217.223 515.122 219.856 515.967 221.546C516.812 223.236 533.428 222.095 533.428 222.095L534.413 220.082Z" fill="#ED9485"/>
<path d="M539.666 200.115C539.652 200.199 540.032 203.184 540.229 204.761C540.299 205.353 539.947 205.902 539.384 206.099C537.877 206.606 534.963 207.226 533.188 205.254C533.033 205.071 532.963 204.832 532.991 204.592L533.963 197.65L539.666 200.115Z" fill="#F7A491"/>
<path d="M539.384 201.635C539.539 201.579 539.68 201.494 539.806 201.396C539.722 200.692 539.666 200.171 539.666 200.128L533.963 197.664L533.484 201.072C535.272 202.677 537.962 202.1 539.384 201.635Z" fill="#F47458"/>
<path d="M530.147 192.791C530.527 193.96 530.189 195.101 529.4 195.354C528.612 195.608 527.668 194.875 527.302 193.707C526.922 192.538 527.26 191.397 528.049 191.144C528.823 190.89 529.767 191.623 530.147 192.791Z" fill="#F7A491"/>
<path d="M542.904 191.862C542.707 193.073 543.2 194.157 544.017 194.298C544.833 194.439 545.65 193.566 545.861 192.369C546.058 191.158 545.566 190.074 544.749 189.933C543.932 189.792 543.101 190.651 542.904 191.862Z" fill="#F7A491"/>
<path d="M544.031 191.313C544.411 196.523 541.398 200.973 537.314 201.283C533.216 201.578 529.598 197.608 529.217 192.397C528.837 187.187 531.851 182.738 535.934 182.428C540.018 182.118 543.651 186.117 544.031 191.313Z" fill="#F7A491"/>
<path d="M533.104 203.775C533.104 203.775 534.301 205.958 536.779 206.606C536.779 206.606 534.892 207.31 533.808 206.845C532.724 206.38 531.907 205.479 533.104 203.775Z" fill="#F4F4F4"/>
<path d="M540.102 203.775C540.102 203.775 538.919 205.958 536.469 206.606C536.469 206.606 538.342 207.31 539.398 206.845C540.454 206.38 541.285 205.479 540.102 203.775Z" fill="#F4F4F4"/>
<path d="M540.032 220.082C540.032 220.082 552.564 215.505 555.38 216.364C558.196 217.223 559.253 219.983 558.408 221.673C557.563 223.363 540.187 222.419 540.187 222.419L540.032 220.082Z" fill="#F7A491"/>
<path d="M486.974 225.306H484.651V293.811H486.974V225.306Z" fill="#001333"/>
<path d="M589.753 225.306H587.429V293.811H589.753V225.306Z" fill="#001333"/>
<path d="M589.753 230.474H484.651V262.973H589.753V230.474Z" fill="#F8C48B"/>
<path d="M589.753 267.676H484.651V270.027H589.753V267.676Z" fill="#001333"/>
<path d="M534.864 274.111C534.864 273.506 534.864 272.9 534.864 272.295C530.71 272.816 528.035 272.703 526.5 272.506C526.612 273.069 526.725 273.633 526.838 274.182C527.894 274.435 530.527 274.858 534.864 274.111Z" fill="#6EA7CE"/>
<path d="M538.103 274.111C538.103 273.506 538.103 272.9 538.103 272.295C542.257 272.816 544.932 272.703 546.467 272.506C546.354 273.069 546.242 273.633 546.129 274.182C545.073 274.435 542.44 274.858 538.103 274.111Z" fill="#6EA7CE"/>
<path d="M535.089 196.355L539.159 195.862C539.159 195.862 539.257 197.482 537.469 197.749C535.3 198.073 535.089 196.355 535.089 196.355Z" fill="white"/>
<path d="M562.294 217.321H561.52C561.646 217.222 561.801 217.166 561.984 217.166H581.416C582.43 217.166 583.261 217.969 583.261 218.968V220.109C583.261 221.109 582.43 221.911 581.416 221.911H562.21L562.294 217.321Z" fill="#50BFA5"/>
<path d="M573.334 217.166C574.305 217.166 575.094 217.941 575.094 218.884V220.18C575.094 221.137 574.305 221.898 573.334 221.898H561.238V221.602H561.294L564.364 221.32L564.984 218.927C564.984 218.927 563.787 217.603 563.702 217.575C563.618 217.547 561.28 217.434 561.28 217.434H561.224V217.152H573.334V217.166Z" fill="#3C8F7C"/>
<path d="M562.013 219.532C562.013 218.138 561.28 217.462 561.28 217.462H573.08C573.967 217.462 574.7 218.166 574.7 219.053V220.053C574.7 220.926 573.982 221.644 573.08 221.644H561.28C561.28 221.63 562.013 221.292 562.013 219.532Z" fill="#F4F4F4"/>
<path d="M574.7 219.039V220.039C574.7 220.166 574.686 220.292 574.657 220.419C574.263 219.461 573.503 218.546 572.038 218.25C568.645 217.56 561.28 217.462 561.28 217.462H573.08C573.982 217.462 574.7 218.166 574.7 219.039Z" fill="#DAEEF7"/>
<path d="M562.759 213.519H561.984C562.111 213.449 562.266 213.393 562.449 213.393H581.881C582.895 213.393 583.726 214.04 583.726 214.829V215.744C583.726 216.533 582.895 217.18 581.881 217.18H562.66L562.759 213.519Z" fill="#F7CC7F"/>
<path d="M573.798 213.406C574.77 213.406 575.559 214.026 575.559 214.772V215.8C575.559 216.56 574.77 217.166 573.798 217.166H561.703V216.941H561.759L564.829 216.715L565.448 214.814C565.448 214.814 564.251 213.772 564.167 213.744C564.082 213.716 561.745 213.632 561.745 213.632H561.689V213.406H573.798Z" fill="#EAB054"/>
<path d="M562.477 215.279C562.477 214.167 561.745 213.632 561.745 213.632H573.545C574.432 213.632 575.164 214.195 575.164 214.885V215.674C575.164 216.364 574.446 216.927 573.545 216.927H561.745C561.745 216.941 562.477 216.673 562.477 215.279Z" fill="#F4F4F4"/>
<path d="M575.164 214.885V215.674C575.164 215.773 575.15 215.885 575.122 215.97C574.728 215.209 573.967 214.477 572.503 214.252C569.109 213.703 561.745 213.618 561.745 213.618H573.545C574.446 213.632 575.164 214.195 575.164 214.885Z" fill="#DAEEF7"/>
<path d="M565.04 219.181L564.294 220.378L563.449 219.181H565.04Z" fill="#466EB6"/>
<path d="M570.996 215.068L570.25 216.251L569.419 215.068H570.996Z" fill="#F47458"/>
<path d="M562.477 215.069H575.178C575.178 215.069 575.178 214.984 575.178 214.97C575.178 214.956 562.477 214.97 562.477 214.97V215.069Z" fill="#DAEEF7"/>
<path d="M561.999 219.18H574.7C574.7 219.18 574.7 219.096 574.7 219.081C574.7 219.067 561.984 219.081 561.984 219.081L561.999 219.18Z" fill="#DAEEF7"/>
<path d="M538.215 220.49L536.864 222.039L536.99 219.983L537.652 219.532L538.215 220.49Z" fill="#F2E9DA"/>
<path d="M537.652 219.532L537.793 219.772L536.864 222.039L536.99 219.983L537.652 219.532Z" fill="#E0D5C3"/>
<path d="M536.991 219.983L536.963 220.518L537.343 220.124L540.315 212.872L539.878 212.957L536.991 219.983Z" fill="#E8BA70"/>
<path d="M537.342 220.124L537.413 220.701L537.877 220.349L540.849 213.097L540.313 212.872L537.342 220.124Z" fill="#F7CC7F"/>
<path d="M537.877 220.349L537.863 220.884L538.215 220.489L541.102 213.449L540.849 213.097L537.877 220.349Z" fill="#FAE0B2"/>
<path d="M540.351 212.86L540.129 213.399L540.669 213.621L540.89 213.081L540.351 212.86Z" fill="#466EB6"/>
<path d="M540.623 213.632L540.849 213.097L541.102 213.449L540.975 213.773L540.623 213.632Z" fill="#88B5E2"/>
<path d="M539.75 213.27L539.878 212.957L540.319 212.872L540.092 213.413L539.75 213.27Z" fill="#2C4B70"/>
<path d="M540.376 214.257L540.715 214.396L540.971 213.77L540.633 213.631L540.376 214.257Z" fill="#FEF8F8"/>
<path d="M539.47 213.914L539.808 214.053L540.065 213.427L539.726 213.288L539.47 213.914Z" fill="#EDDFCA"/>
<path d="M539.863 214.032L540.397 214.251L540.653 213.626L540.119 213.407L539.863 214.032Z" fill="#F2E9DA"/>
<path d="M537.328 221.518L536.864 222.039L536.906 221.335L537.061 221.532L537.328 221.518Z" fill="#DB3F2A"/>
<path d="M542.243 219.378C541.75 219.448 541.37 219.476 541.327 219.462C541.116 219.364 540.412 218.955 539.961 218.899C539.511 218.843 538.75 218.547 538.525 218.589C538.3 218.631 537.216 219.195 537.061 219.223C536.906 219.251 536.751 219.406 536.652 219.476C536.554 219.547 535.484 219.73 535.272 219.885C535.075 220.039 535.089 220.673 535.244 220.842C535.244 220.842 535.258 220.898 535.16 220.983C535.061 221.067 534.963 221.363 535.005 221.532C535.047 221.701 535.23 221.94 535.455 221.912C535.455 221.912 535.568 221.926 535.582 221.954C535.596 221.997 535.554 222.236 535.624 222.433C535.695 222.63 535.892 222.743 536.244 222.715C536.244 222.715 536.075 223.503 536.835 223.433L537.863 223.334C537.863 223.334 538.427 223.419 538.68 223.377C538.933 223.334 540.454 223.109 540.567 223.039C540.68 222.968 540.919 222.785 540.989 222.771C541.06 222.757 541.806 222.532 541.905 222.461C541.933 222.447 542.074 222.391 542.243 222.349V219.378Z" fill="#F7A491"/>
<path d="M594.146 221.912H480.271V225.292H594.146V221.912Z" fill="#F8C48B"/>
<path d="M506.983 217.899H507.645C507.532 217.815 507.405 217.772 507.251 217.772H490.762C489.903 217.772 489.199 218.462 489.199 219.307V220.279C489.199 221.124 489.903 221.814 490.762 221.814H507.068L506.983 217.899Z" fill="#F47458"/>
<path d="M497.619 217.772C496.788 217.772 496.127 218.434 496.127 219.237V220.335C496.127 221.138 496.788 221.8 497.619 221.8H507.884V221.56H507.842L505.237 221.321L504.716 219.293C504.716 219.293 505.73 218.167 505.8 218.139C505.871 218.11 507.856 218.026 507.856 218.026H507.898V217.787H497.619V217.772Z" fill="#B75742"/>
<path d="M507.223 219.772C507.223 218.589 507.842 218.012 507.842 218.012H497.83C497.07 218.012 496.465 218.617 496.465 219.349V220.194C496.465 220.941 497.084 221.532 497.83 221.532H507.842C507.842 221.546 507.223 221.264 507.223 219.772Z" fill="#F4F4F4"/>
<path d="M496.465 219.364V220.208C496.465 220.321 496.479 220.434 496.507 220.532C496.845 219.716 497.492 218.941 498.718 218.688C501.59 218.096 507.842 218.012 507.842 218.012H497.83C497.07 218.012 496.465 218.617 496.465 219.364Z" fill="#DAEEF7"/>
<path d="M500.154 219.688L499.436 220.941L498.802 219.688H500.154Z" fill="#13375B"/>
<path d="M496.465 219.688H507.223C507.223 219.688 507.223 219.603 507.223 219.589C507.223 219.575 496.465 219.589 496.465 219.589V219.688Z" fill="#DAEEF7"/>
<path d="M60.8873 55.1779V55.3613H57.7961V55.1779H58.9424L58.7705 54.75C57.9299 52.9579 55.5799 52.8395 54.6897 52.8777C54.6645 52.8771 54.6398 52.8846 54.6192 52.8991C54.5986 52.9135 54.5831 52.9341 54.575 52.9579L53.6924 54.9945C53.6843 55.0147 53.6813 55.0365 53.6835 55.058C53.6858 55.0796 53.6932 55.1003 53.7053 55.1184C53.7173 55.1364 53.7335 55.1513 53.7526 55.1617C53.7717 55.172 53.7929 55.1776 53.8146 55.1779H54.8654V55.3613H52.2824V55.1779H53.0046C53.03 55.1776 53.0548 55.1698 53.0758 55.1556C53.0969 55.1413 53.1133 55.1212 53.123 55.0977L56.1798 48.0212L56.5467 47.2188H57.0893L60.1461 55.1091C60.1563 55.1334 60.1732 55.1542 60.1949 55.1691C60.2166 55.184 60.2421 55.1924 60.2683 55.1932L60.8873 55.1779ZM58.0598 52.9197L56.5314 49.0987C56.5217 49.0747 56.505 49.0542 56.4836 49.0398C56.4621 49.0254 56.4369 49.0177 56.411 49.0177C56.3852 49.0177 56.3599 49.0254 56.3385 49.0398C56.317 49.0542 56.3004 49.0747 56.2907 49.0987L54.9266 52.1861C54.9176 52.2059 54.9138 52.2276 54.9154 52.2492C54.917 52.2709 54.924 52.2918 54.9358 52.31C54.9476 52.3283 54.9638 52.3433 54.9828 52.3537C55.0019 52.3641 55.0233 52.3695 55.045 52.3695C56.0323 52.3591 57.0062 52.5983 57.8764 53.0649C57.8984 53.0755 57.9229 53.0798 57.9472 53.0771C57.9714 53.0744 57.9945 53.065 58.0136 53.0498C58.0328 53.0347 58.0473 53.0144 58.0554 52.9914C58.0636 52.9684 58.0651 52.9435 58.0598 52.9197Z" fill="#1C364F"/>
<path d="M67.1009 47.3496V49.0652H66.9137C66.9142 48.8998 66.882 48.736 66.8191 48.583C66.7561 48.43 66.6636 48.291 66.5468 48.1739C66.43 48.0567 66.2913 47.9638 66.1385 47.9004C65.9857 47.837 65.822 47.8043 65.6565 47.8043H64.5102C64.4754 47.8053 64.4424 47.8198 64.4181 47.8448C64.3939 47.8698 64.3803 47.9032 64.3803 47.938V55.049C64.3803 55.0834 64.394 55.1165 64.4184 55.1408C64.4427 55.1652 64.4758 55.1789 64.5102 55.1789H65.347V55.3623H62.2597V55.1789H63.0965C63.1313 55.1789 63.1647 55.1653 63.1897 55.1411C63.2147 55.1168 63.2292 55.0838 63.2302 55.049V47.938C63.2302 47.9026 63.2161 47.8686 63.191 47.8435C63.1659 47.8184 63.1319 47.8043 63.0965 47.8043H61.9502C61.6157 47.8043 61.295 47.9372 61.0585 48.1736C60.8221 48.4101 60.6892 48.7308 60.6892 49.0652H60.4982V47.3496H67.1009Z" fill="#1C364F"/>
<path d="M75.8837 47.6668V55.0528C75.8837 55.0872 75.8974 55.1203 75.9218 55.1446C75.9461 55.169 75.9792 55.1827 76.0136 55.1827H76.8542V55.3661H73.7974V55.1827H74.6342C74.6687 55.1827 74.7017 55.169 74.7261 55.1446C74.7505 55.1203 74.7641 55.0872 74.7641 55.0528V52.2252C74.7642 52.1904 74.7506 52.157 74.7263 52.132C74.7021 52.107 74.669 52.0925 74.6342 52.0915H70.2362C70.2014 52.0925 70.1684 52.107 70.1441 52.132C70.1199 52.157 70.1063 52.1904 70.1063 52.2252V55.0528C70.1063 55.0872 70.12 55.1203 70.1444 55.1446C70.1687 55.169 70.2018 55.1827 70.2362 55.1827H71.073V55.3661H68.0162V55.1827H68.853C68.8879 55.1827 68.9213 55.1691 68.9463 55.1449C68.9713 55.1206 68.9858 55.0876 68.9868 55.0528V47.6668C68.9868 47.6313 68.9727 47.5973 68.9476 47.5722C68.9225 47.5471 68.8885 47.533 68.853 47.533H67.9971V47.3496H71.0539V47.533H70.2362C70.2014 47.534 70.1684 47.5485 70.1441 47.5735C70.1199 47.5985 70.1063 47.6319 70.1063 47.6668V51.4648C70.1063 51.4993 70.12 51.5323 70.1444 51.5567C70.1687 51.5811 70.2018 51.5948 70.2362 51.5948H74.6151C74.6496 51.5948 74.6826 51.5811 74.707 51.5567C74.7314 51.5323 74.745 51.4993 74.745 51.4648V47.6668C74.7451 47.6319 74.7315 47.5985 74.7072 47.5735C74.683 47.5485 74.6499 47.534 74.6151 47.533H73.7783V47.3496H76.8351V47.533H75.9945C75.9628 47.5377 75.9339 47.554 75.9135 47.5786C75.893 47.6033 75.8824 47.6347 75.8837 47.6668Z" fill="#1C364F"/>
<path d="M83.7482 53.2456L84.0042 53.3296L83.5457 55.2402C83.5396 55.2691 83.5237 55.2952 83.5008 55.314C83.4779 55.3327 83.4492 55.3431 83.4196 55.3433H77.8447V55.1561H78.6815C78.7163 55.1561 78.7498 55.1425 78.7748 55.1183C78.7997 55.094 78.8143 55.061 78.8153 55.0262V47.644C78.8153 47.6085 78.8012 47.5745 78.7761 47.5494C78.751 47.5243 78.717 47.5102 78.6815 47.5102H77.8447V47.3115H80.9015H83.4119C83.4418 47.311 83.4708 47.3211 83.4939 47.34C83.517 47.3589 83.5326 47.3854 83.538 47.4147L83.9966 49.3252L83.7405 49.4055C83.2018 47.7968 82.7815 47.4949 80.0647 47.4949C80.0289 47.4949 79.9945 47.5089 79.9688 47.5339C79.9431 47.5589 79.9282 47.5929 79.9272 47.6287V51.1478C79.9282 51.1826 79.9427 51.2157 79.9677 51.2399C79.9926 51.2642 80.0261 51.2778 80.0609 51.2778H81.1079C81.42 51.2778 81.7193 51.1538 81.94 50.9331C82.1607 50.7124 82.2847 50.413 82.2847 50.1009H82.472V52.6419H82.2847C82.2847 52.3297 82.1607 52.0304 81.94 51.8097C81.7193 51.589 81.42 51.465 81.1079 51.465H80.08C80.0452 51.465 80.0118 51.4785 79.9868 51.5028C79.9618 51.5271 79.9473 51.5601 79.9463 51.5949V55.0032C79.9468 55.0208 79.9507 55.0381 79.9579 55.0541C79.9651 55.0702 79.9754 55.0846 79.9881 55.0967C80.0009 55.1088 80.0159 55.1182 80.0324 55.1245C80.0488 55.1307 80.0663 55.1337 80.0838 55.1332C82.8006 55.1484 83.2247 54.8504 83.7482 53.2456Z" fill="#1C364F"/>
<path d="M93.246 47.3534V47.5368H92.8945C92.859 47.5368 92.825 47.5509 92.7999 47.576C92.7748 47.6011 92.7607 47.6351 92.7607 47.6706V55.2362C92.7608 55.271 92.7472 55.3045 92.7229 55.3294C92.6987 55.3544 92.6656 55.3689 92.6308 55.3699H91.8972C91.8769 55.3703 91.8569 55.3656 91.8388 55.3562C91.8208 55.3469 91.8054 55.3332 91.794 55.3164L86.5821 48.5265C86.5649 48.5055 86.5417 48.4903 86.5156 48.4829C86.4895 48.4754 86.4617 48.4761 86.436 48.4848C86.4103 48.4935 86.3878 48.5099 86.3716 48.5316C86.3554 48.5534 86.3462 48.5796 86.3452 48.6067V55.0528C86.3452 55.0872 86.3589 55.1203 86.3833 55.1446C86.4077 55.169 86.4407 55.1827 86.4752 55.1827H86.8267V55.3661H85.4053V55.1827H85.7568C85.7913 55.1827 85.8243 55.169 85.8487 55.1446C85.873 55.1203 85.8867 55.0872 85.8867 55.0528V47.6706C85.8867 47.6358 85.8732 47.6023 85.8489 47.5773C85.8247 47.5524 85.7916 47.5378 85.7568 47.5368H85.4053V47.3496H87.0445C87.0643 47.3495 87.084 47.3539 87.1018 47.3625C87.1197 47.3711 87.1354 47.3837 87.1477 47.3993L92.073 53.8148C92.0895 53.8364 92.1125 53.8523 92.1386 53.8602C92.1647 53.8681 92.1926 53.8675 92.2184 53.8587C92.2442 53.8498 92.2665 53.833 92.2823 53.8107C92.298 53.7885 92.3063 53.7618 92.306 53.7345V47.6706C92.306 47.6358 92.2925 47.6023 92.2682 47.5773C92.244 47.5524 92.2109 47.5378 92.1761 47.5368H91.8208V47.3534H93.246Z" fill="#1C364F"/>
<path d="M94.1473 55.1779V55.3613H97.2042V55.1779H96.0578L96.2298 54.75C97.0704 52.9579 99.4242 52.8395 100.314 52.8777C100.339 52.8779 100.363 52.8858 100.383 52.9002C100.402 52.9146 100.417 52.9347 100.425 52.9579L101.327 54.9945C101.336 55.0143 101.34 55.036 101.338 55.0577C101.337 55.0793 101.33 55.1002 101.318 55.1185C101.306 55.1367 101.29 55.1517 101.271 55.1621C101.252 55.1725 101.23 55.1779 101.209 55.1779H100.158V55.3613H102.76V55.1779H102.038C102.012 55.1771 101.988 55.1692 101.967 55.155C101.946 55.1408 101.929 55.1209 101.919 55.0977L98.8625 48.0212L98.488 47.2188H97.9454L94.8886 55.1091C94.8788 55.1337 94.862 55.1547 94.8402 55.1697C94.8184 55.1847 94.7927 55.1928 94.7663 55.1932L94.1473 55.1779ZM96.9749 52.9197L98.5033 49.0987C98.513 49.0747 98.5297 49.0542 98.5511 49.0398C98.5726 49.0254 98.5978 49.0177 98.6237 49.0177C98.6495 49.0177 98.6748 49.0254 98.6962 49.0398C98.7176 49.0542 98.7343 49.0747 98.744 49.0987L100.108 52.1861C100.117 52.2059 100.121 52.2276 100.119 52.2492C100.118 52.2709 100.111 52.2918 100.099 52.31C100.087 52.3283 100.071 52.3433 100.052 52.3537C100.033 52.3641 100.011 52.3695 99.9897 52.3695C99.0036 52.3591 98.0309 52.5983 97.1621 53.0649C97.14 53.0766 97.115 53.0817 97.0901 53.0796C97.0651 53.0775 97.0413 53.0682 97.0216 53.0528C97.0018 53.0375 96.9869 53.0168 96.9786 52.9932C96.9703 52.9695 96.969 52.944 96.9749 52.9197Z" fill="#1C364F"/>
<path d="M49.7531 46.5674L49.6537 46.7393H36.8075L36.7081 46.5674H49.7531Z" fill="#1C364F"/>
<path d="M49.7531 55.3692H36.7081L36.861 55.1094H49.6041L49.7531 55.3692Z" fill="#1C364F"/>
<path d="M39.5122 47.0889L39.432 47.2646H37.2425L37.1584 47.0889H39.5122Z" fill="#1C364F"/>
<path d="M39.387 47.3496L39.2647 47.6133H37.4115L37.2854 47.3496H39.387Z" fill="#1C364F"/>
<path d="M37.4808 47.7412H37.8896V54.2369H37.4808V47.7412Z" fill="#1C364F"/>
<path d="M38.1331 47.7412H38.5381V54.2369H38.1331V47.7412Z" fill="#1C364F"/>
<path d="M38.8499 47.7412H39.2587V54.2369H38.8499V47.7412Z" fill="#1C364F"/>
<path d="M40.7415 47.7412H41.1465V54.2369H40.7415V47.7412Z" fill="#1C364F"/>
<path d="M41.3928 47.7412H41.8017V54.2369H41.3928V47.7412Z" fill="#1C364F"/>
<path d="M42.1106 47.7412H42.5347V54.2369H42.1106V47.7412Z" fill="#1C364F"/>
<path d="M44.0012 47.7412H44.4139V54.2369H44.0012V47.7412Z" fill="#1C364F"/>
<path d="M44.6536 47.7412H45.0624V54.2369H44.6536V47.7412Z" fill="#1C364F"/>
<path d="M45.3704 47.7412H45.7754V54.2369H45.3704V47.7412Z" fill="#1C364F"/>
<path d="M47.2619 47.7412H47.6708V54.2369H47.2619V47.7412Z" fill="#1C364F"/>
<path d="M47.9142 47.7412H48.3193V54.2369H47.9142V47.7412Z" fill="#1C364F"/>
<path d="M48.631 47.7412H49.0131V54.2369H48.631V47.7412Z" fill="#1C364F"/>
<path d="M43.237 43L36 46.2823H50.474L43.237 43ZM43.237 45.5715C43.1054 45.5603 42.9828 45.5001 42.8935 45.4028C42.8041 45.3055 42.7546 45.1782 42.7546 45.0462C42.7546 44.9141 42.8041 44.7868 42.8935 44.6895C42.9828 44.5922 43.1054 44.532 43.237 44.5208C43.3098 44.5146 43.383 44.5235 43.4521 44.5471C43.5213 44.5707 43.5847 44.6084 43.6385 44.6578C43.6923 44.7072 43.7352 44.7672 43.7646 44.834C43.794 44.9009 43.8092 44.9731 43.8092 45.0462C43.8092 45.1192 43.794 45.1914 43.7646 45.2583C43.7352 45.3251 43.6923 45.3852 43.6385 45.4345C43.5847 45.4839 43.5213 45.5216 43.4521 45.5452C43.383 45.5688 43.3098 45.5778 43.237 45.5715Z" fill="#1C364F"/>
<path d="M39.5122 54.8935L39.432 54.7178H37.2425L37.1584 54.8935H39.5122Z" fill="#1C364F"/>
<path d="M39.387 54.587L39.2647 54.3271H37.4115L37.2854 54.587H39.387Z" fill="#1C364F"/>
<path d="M42.7777 47.0889L42.6975 47.2646H40.508L40.4278 47.0889H42.7777Z" fill="#1C364F"/>
<path d="M42.6467 47.3496L42.5244 47.6133H40.6674L40.5452 47.3496H42.6467Z" fill="#1C364F"/>
<path d="M40.7415 47.7412H41.1465V54.2369H40.7415V47.7412Z" fill="#1C364F"/>
<path d="M41.3928 47.7412H41.8017V54.2369H41.3928V47.7412Z" fill="#1C364F"/>
<path d="M42.1106 47.7412H42.5347V54.2369H42.1106V47.7412Z" fill="#1C364F"/>
<path d="M42.7777 54.8935L42.6975 54.7178H40.508L40.4278 54.8935H42.7777Z" fill="#1C364F"/>
<path d="M42.6467 54.587L42.5244 54.3271H40.6674L40.5452 54.587H42.6467Z" fill="#1C364F"/>
<path d="M46.0375 47.0889L45.9534 47.2646H43.764L43.6837 47.0889H46.0375Z" fill="#1C364F"/>
<path d="M45.9075 47.3496L45.7852 47.6133H43.9282L43.8059 47.3496H45.9075Z" fill="#1C364F"/>
<path d="M44.0012 47.7412H44.4139V54.2369H44.0012V47.7412Z" fill="#1C364F"/>
<path d="M44.6536 47.7412H45.0624V54.2369H44.6536V47.7412Z" fill="#1C364F"/>
<path d="M45.3704 47.7412H45.7792V54.2369H45.3704V47.7412Z" fill="#1C364F"/>
<path d="M46.0375 54.8935L45.9534 54.7178H43.764L43.6837 54.8935H46.0375Z" fill="#1C364F"/>
<path d="M45.9075 54.587L45.7852 54.3271H43.9282L43.8059 54.587H45.9075Z" fill="#1C364F"/>
<path d="M49.303 47.0889L49.2227 47.2646H47.0333L46.9531 47.0889H49.303Z" fill="#1C364F"/>
<path d="M49.1681 47.3496L49.0459 47.6133H47.1927L47.0666 47.3496H49.1681Z" fill="#1C364F"/>
<path d="M47.2619 47.7412H47.6708V54.2369H47.2619V47.7412Z" fill="#1C364F"/>
<path d="M47.9142 47.7412H48.3193V54.2369H47.9142V47.7412Z" fill="#1C364F"/>
<path d="M48.631 47.7412H49.0131V54.2369H48.631V47.7412Z" fill="#1C364F"/>
<path d="M49.303 54.8935L49.2227 54.7178H47.0333L46.9531 54.8935H49.303Z" fill="#1C364F"/>
<path d="M49.1681 54.587L49.0459 54.3271H47.1927L47.0666 54.587H49.1681Z" fill="#1C364F"/>
<g filter="url(#filter0_i_2668_12510)">
<path d="M161.661 67H40.3773C37.9598 67 36 68.9598 36 71.3773V109.11C36 111.528 37.9598 113.487 40.3773 113.487H161.661C164.078 113.487 166.038 111.528 166.038 109.11V71.3773C166.038 68.9598 164.078 67 161.661 67Z" fill="#E0EEFF"/>
</g>
<path d="M161.661 67H40.3773C37.9598 67 36 68.9598 36 71.3773V109.11C36 111.528 37.9598 113.487 40.3773 113.487H161.661C164.078 113.487 166.038 111.528 166.038 109.11V71.3773C166.038 68.9598 164.078 67 161.661 67Z" stroke="#1C364F" stroke-width="0.5" stroke-miterlimit="10"/>
<path opacity="0.4" d="M56.9977 85.9532C59.9832 85.9532 62.4035 83.5329 62.4035 80.5474C62.4035 77.5619 59.9832 75.1416 56.9977 75.1416C54.0122 75.1416 51.5919 77.5619 51.5919 80.5474C51.5919 83.5329 54.0122 85.9532 56.9977 85.9532Z" fill="#29D277"/>
<path d="M56.9877 84.0548C58.9032 84.0548 60.456 82.502 60.456 80.5865C60.456 78.671 58.9032 77.1182 56.9877 77.1182C55.0722 77.1182 53.5193 78.671 53.5193 80.5865C53.5193 82.502 55.0722 84.0548 56.9877 84.0548Z" fill="#29D277"/>
<path opacity="0.4" d="M47.3186 95.6407C50.3042 95.6407 52.7244 93.2204 52.7244 90.2349C52.7244 87.2494 50.3042 84.8291 47.3186 84.8291C44.3331 84.8291 41.9128 87.2494 41.9128 90.2349C41.9128 93.2204 44.3331 95.6407 47.3186 95.6407Z" fill="#9C1313"/>
<path d="M47.3495 93.6847C49.265 93.6847 50.8178 92.1319 50.8178 90.2164C50.8178 88.3009 49.265 86.748 47.3495 86.748C45.434 86.748 43.8812 88.3009 43.8812 90.2164C43.8812 92.1319 45.434 93.6847 47.3495 93.6847Z" fill="#9C1313"/>
<path opacity="0.4" d="M56.9977 105.329C59.9832 105.329 62.4035 102.909 62.4035 99.9234C62.4035 96.9378 59.9832 94.5176 56.9977 94.5176C54.0122 94.5176 51.5919 96.9378 51.5919 99.9234C51.5919 102.909 54.0122 105.329 56.9977 105.329Z" fill="#9C1313"/>
<path d="M56.9877 103.372C58.9032 103.372 60.456 101.819 60.456 99.9039C60.456 97.9884 58.9032 96.4355 56.9877 96.4355C55.0722 96.4355 53.5193 97.9884 53.5193 99.9039C53.5193 101.819 55.0722 103.372 56.9877 103.372Z" fill="#9C1313"/>
<path opacity="0.4" d="M66.6388 95.6407C69.6244 95.6407 72.0446 93.2204 72.0446 90.2349C72.0446 87.2494 69.6244 84.8291 66.6388 84.8291C63.6533 84.8291 61.233 87.2494 61.233 90.2349C61.233 93.2204 63.6533 95.6407 66.6388 95.6407Z" fill="#9C1313"/>
<path d="M66.6765 93.6847C68.592 93.6847 70.1448 92.1319 70.1448 90.2164C70.1448 88.3009 68.592 86.748 66.6765 86.748C64.761 86.748 63.2082 88.3009 63.2082 90.2164C63.2082 92.1319 64.761 93.6847 66.6765 93.6847Z" fill="#9C1313"/>
<path d="M81.047 76.7783H84.6349L93.0067 91.8834L101.379 76.7783H104.966V102.731H100.757V86.956L94.6093 97.947H91.44L85.2927 86.9441V102.731H81.047V76.7783Z" fill="#1C364F"/>
<path d="M122.096 76.419C123.927 76.4151 125.738 76.7891 127.417 77.5176C129.097 78.2461 130.608 79.3134 131.855 80.6527L128.865 83.6785C127.641 82.3106 126.03 81.3466 124.246 80.914C122.462 80.4814 120.589 80.6006 118.874 81.2559C117.159 81.9112 115.684 83.0717 114.643 84.5838C113.602 86.0959 113.045 87.8884 113.045 89.7242C113.045 91.5599 113.602 93.3524 114.643 94.8645C115.684 96.3767 117.159 97.5371 118.874 98.1924C120.589 98.8477 122.462 98.9669 124.246 98.5344C126.03 98.1018 127.641 97.1378 128.865 95.7698L131.855 98.7837C130.352 100.404 128.469 101.624 126.376 102.335C124.284 103.045 122.047 103.223 119.868 102.853C117.689 102.483 115.637 101.576 113.896 100.215C112.155 98.8532 110.781 97.0795 109.897 95.0539C109.013 93.0283 108.647 90.8144 108.833 88.6122C109.019 86.4099 109.75 84.2885 110.96 82.4394C112.171 80.5903 113.822 79.0717 115.767 78.0207C117.711 76.9696 119.886 76.4191 122.096 76.419Z" fill="#1C364F"/>
<path d="M146.782 76.42C150.31 76.4232 153.692 77.825 156.187 80.3181C158.682 82.8111 160.087 86.192 160.094 89.7193C160.101 92.8898 158.962 95.9561 156.888 98.3542L159.484 101.236L156.35 104.071L153.623 101.093C151.567 102.362 149.198 103.033 146.782 103.03C145.002 103.084 143.228 102.779 141.567 102.135C139.906 101.49 138.392 100.518 137.113 99.2777C135.835 98.0369 134.818 96.5521 134.124 94.9112C133.43 93.2704 133.072 91.5069 133.072 89.7252C133.072 87.9436 133.43 86.1801 134.124 84.5393C134.818 82.8984 135.835 81.4136 137.113 80.1728C138.392 78.932 139.906 77.9605 141.567 77.3159C143.228 76.6713 145.002 76.3666 146.782 76.42ZM137.717 89.7193C137.72 92.1226 138.676 94.4266 140.376 96.126C142.075 97.8254 144.379 98.7816 146.782 98.7847C148.14 98.7944 149.476 98.448 150.657 97.7801L148.11 94.9696L151.267 92.1351L154.006 95.149C155.209 93.5941 155.865 91.6853 155.872 89.7193C155.872 87.3149 154.917 85.0091 153.217 83.309C151.516 81.6089 149.211 80.6538 146.806 80.6538C144.402 80.6538 142.096 81.6089 140.396 83.309C138.696 85.0091 137.741 87.3149 137.741 89.7193H137.717Z" fill="#1C364F"/>
<path d="M186.006 99.664V81.832H191.508C197.619 81.832 200.848 86.1854 200.848 90.742C200.848 95.2987 197.619 99.664 191.508 99.664H186.006ZM191.508 99.1736C197.32 99.1736 200.322 95.0595 200.322 90.8018C200.322 86.5442 197.32 82.43 191.508 82.43H186.556V99.1497L191.508 99.1736Z" fill="#1C364F"/>
<path d="M205.072 81.5625C205.185 81.5686 205.292 81.6179 205.37 81.7003C205.448 81.7826 205.491 81.8917 205.491 82.005C205.488 82.1151 205.443 82.2198 205.365 82.2977C205.287 82.3755 205.182 82.4206 205.072 82.4236C204.958 82.4236 204.849 82.3782 204.768 82.2975C204.687 82.2168 204.642 82.1072 204.642 81.993C204.642 81.8789 204.687 81.7693 204.768 81.6886C204.849 81.6079 204.958 81.5625 205.072 81.5625ZM204.821 99.6456V87.2553H205.311V99.6456H204.821Z" fill="#1C364F"/>
<path d="M215.498 87.0189C216.826 87.0091 218.122 87.4239 219.198 88.2027C220.274 88.9815 221.073 90.0836 221.478 91.3483V87.2581H221.968V99.3972C221.968 103.093 219.469 105.377 215.355 105.377C213.345 105.398 211.397 104.683 209.877 103.368L210.236 103.021C211.686 104.228 213.516 104.884 215.402 104.875C219.146 104.875 221.478 102.794 221.478 99.457V95.5462C221.075 96.8131 220.277 97.9179 219.201 98.699C218.125 99.4801 216.828 99.8966 215.498 99.8876C214.629 99.925 213.761 99.7862 212.947 99.4794C212.133 99.1727 211.39 98.7043 210.761 98.1026C210.133 97.5009 209.633 96.7782 209.292 95.9781C208.95 95.1781 208.774 94.3172 208.774 93.4473C208.774 92.5774 208.95 91.7164 209.292 90.9164C209.633 90.1163 210.133 89.3937 210.761 88.7919C211.39 88.1902 212.133 87.7219 212.947 87.4151C213.761 87.1083 214.629 86.9695 215.498 87.007V87.0189ZM209.518 93.4532C209.518 94.636 209.869 95.7921 210.526 96.7755C211.183 97.7589 212.117 98.5253 213.21 98.9779C214.302 99.4305 215.505 99.5489 216.665 99.3182C217.825 99.0875 218.89 98.5179 219.726 97.6816C220.563 96.8453 221.132 95.7798 221.363 94.6199C221.594 93.4599 221.475 92.2575 221.023 91.1649C220.57 90.0722 219.804 89.1382 218.82 88.4812C217.837 87.8241 216.681 87.4734 215.498 87.4734C213.918 87.4829 212.407 88.1171 211.293 89.2375C210.179 90.3579 209.554 91.8735 209.554 93.4532H209.518Z" fill="#1C364F"/>
<path d="M226.956 81.5625C227.069 81.5686 227.176 81.6179 227.253 81.7003C227.331 81.7826 227.375 81.8917 227.374 82.005C227.371 82.1151 227.326 82.2198 227.249 82.2977C227.171 82.3755 227.066 82.4206 226.956 82.4236C226.842 82.4236 226.732 82.3782 226.651 82.2975C226.571 82.2168 226.525 82.1072 226.525 81.993C226.525 81.8789 226.571 81.7693 226.651 81.6886C226.732 81.6079 226.842 81.5625 226.956 81.5625ZM226.705 99.6456V87.2553H227.195V99.6456H226.705Z" fill="#1C364F"/>
<path d="M233.561 87.2826C233.594 87.2827 233.628 87.2759 233.658 87.2624C233.689 87.2489 233.716 87.2291 233.739 87.2043C233.762 87.1795 233.779 87.1502 233.789 87.1184C233.8 87.0865 233.803 87.0528 233.8 87.0195V83.9697H234.302V87.2826H239.301V87.7849H234.302V95.5707C234.302 98.4769 235.116 99.4336 237.496 99.4336C238.097 99.4312 238.696 99.3508 239.278 99.1944V99.6848C238.651 99.8581 238.002 99.9426 237.352 99.936C234.793 99.936 233.764 98.74 233.764 95.5946V87.7849H230.451V87.2826H233.561Z" fill="#1C364F"/>
<path d="M248.32 87.0188C249.647 87.0127 250.941 87.4289 252.016 88.2072C253.091 88.9855 253.891 90.0855 254.3 91.3482V87.258H254.718V99.6483H254.228V95.5461C253.821 96.811 253.023 97.9137 251.947 98.6942C250.872 99.4748 249.577 99.8927 248.248 99.8874C246.588 99.8159 245.02 99.1061 243.87 97.9061C242.721 96.7062 242.079 95.1087 242.079 93.4471C242.079 91.7855 242.721 90.1881 243.87 88.9882C245.02 87.7882 246.588 87.0784 248.248 87.0068L248.32 87.0188ZM242.34 93.4531C242.34 94.6358 242.691 95.792 243.348 96.7754C244.005 97.7587 244.939 98.5252 246.031 98.9778C247.124 99.4304 248.326 99.5488 249.486 99.3181C250.646 99.0873 251.712 98.5178 252.548 97.6815C253.384 96.8452 253.954 95.7797 254.185 94.6197C254.415 93.4598 254.297 92.2574 253.844 91.1647C253.392 90.0721 252.625 89.1381 251.642 88.4811C250.659 87.824 249.502 87.4733 248.32 87.4733C246.74 87.4827 245.228 88.1169 244.114 89.2374C243.001 90.3578 242.376 91.8734 242.376 93.4531H242.34Z" fill="#1C364F"/>
<path d="M260.017 99.6684H259.503V81.083H260.005L260.017 99.6684Z" fill="#1C364F"/>
<path d="M283.599 81.832V82.3224H273.063V90.0962H282.834V90.5985H273.063V99.1497H283.599V99.64H272.573V81.832H283.599Z" fill="#1C364F"/>
<path d="M285.872 99.6588L291.206 93.2963L286.147 87.3164H286.793L291.577 92.9494L296.301 87.3164H296.946L291.899 93.2963L297.222 99.6588H296.552L291.553 93.679L286.542 99.6588H285.872Z" fill="#1C364F"/>
<path d="M305.563 87.0189C306.891 87.0091 308.187 87.4239 309.263 88.2027C310.339 88.9815 311.137 90.0836 311.543 91.3483V87.2581H312.033V99.6484H311.543V95.5462C311.139 96.8131 310.342 97.9179 309.266 98.699C308.19 99.4801 306.892 99.8966 305.563 99.8876C304.694 99.925 303.826 99.7862 303.012 99.4795C302.198 99.1727 301.454 98.7043 300.826 98.1026C300.198 97.5009 299.698 96.7782 299.356 95.9782C299.015 95.1781 298.839 94.3172 298.839 93.4473C298.839 92.5774 299.015 91.7165 299.356 90.9164C299.698 90.1163 300.198 89.3937 300.826 88.7919C301.454 88.1902 302.198 87.7219 303.012 87.4151C303.826 87.1083 304.694 86.9695 305.563 87.007V87.0189ZM299.583 93.4533C299.583 94.636 299.934 95.7921 300.591 96.7755C301.248 97.7589 302.182 98.5253 303.274 98.9779C304.367 99.4305 305.569 99.549 306.729 99.3182C307.889 99.0875 308.955 98.518 309.791 97.6817C310.627 96.8454 311.197 95.7798 311.428 94.6199C311.658 93.4599 311.54 92.2575 311.087 91.1649C310.635 90.0722 309.868 89.1383 308.885 88.4812C307.902 87.8241 306.745 87.4734 305.563 87.4734C303.983 87.4829 302.471 88.1171 301.358 89.2375C300.244 90.3579 299.619 91.8735 299.619 93.4533H299.583Z" fill="#1C364F"/>
<path d="M316.748 87.2597H317.25V90.8476C317.489 89.7303 318.113 88.7328 319.015 88.0306C319.916 87.3284 321.036 86.9665 322.178 87.0086C323.343 86.925 324.495 87.2994 325.388 88.0521C326.282 88.8048 326.846 89.8765 326.962 91.039C327.201 89.8863 327.834 88.8531 328.754 88.1174C329.673 87.3817 330.819 86.9896 331.997 87.0086C332.642 86.9839 333.285 87.0948 333.884 87.3341C334.484 87.5734 335.027 87.9358 335.478 88.3979C335.928 88.86 336.277 89.4115 336.502 90.0168C336.726 90.6221 336.821 91.2678 336.78 91.9121V99.638H336.29V91.9599C336.328 91.3725 336.241 90.7838 336.036 90.2321C335.831 89.6803 335.513 89.1778 335.101 88.7571C334.689 88.3364 334.194 88.007 333.647 87.7903C333.1 87.5735 332.513 87.4743 331.925 87.4989C329.473 87.4989 327.021 89.257 327.021 92.9526V99.6859H326.459V91.9599C326.498 91.3731 326.414 90.7847 326.21 90.2329C326.007 89.6812 325.689 89.1785 325.278 88.7576C324.868 88.3367 324.373 88.0071 323.826 87.7902C323.28 87.5733 322.693 87.4741 322.106 87.4989C319.654 87.4989 317.202 89.2809 317.202 92.9526V99.6859H316.7L316.748 87.2597Z" fill="#1C364F"/>
<path d="M360.389 81.832V82.3224H349.853V90.0962H359.624V90.5985H349.853V99.664H349.362V81.832H360.389Z" fill="#1C364F"/>
<path d="M375.61 93.4509C375.612 94.7264 375.236 95.9739 374.529 97.0356C373.822 98.0972 372.816 98.9253 371.639 99.4151C370.461 99.9048 369.164 100.034 367.913 99.7868C366.662 99.5394 365.512 98.9264 364.609 98.0253C363.707 97.1243 363.092 95.9757 362.842 94.7249C362.592 93.4741 362.719 92.1774 363.207 90.9988C363.694 89.8202 364.52 88.8127 365.581 88.1038C366.641 87.395 367.888 87.0166 369.163 87.0166C370.871 87.0166 372.509 87.6941 373.717 88.9004C374.926 90.1068 375.607 91.7433 375.61 93.4509ZM369.163 99.371C370.351 99.3828 371.515 99.0407 372.508 98.3882C373.5 97.7357 374.276 96.8024 374.736 95.7073C375.196 94.6122 375.32 93.4049 375.091 92.2394C374.862 91.0739 374.291 90.0029 373.451 89.163C372.611 88.3231 371.54 87.7524 370.375 87.5236C369.209 87.2948 368.002 87.4182 366.907 87.8782C365.812 88.3382 364.879 89.1139 364.226 90.1064C363.574 91.0989 363.232 92.2632 363.243 93.4509C363.259 95.0162 363.888 96.513 364.995 97.6198C366.101 98.7267 367.598 99.3554 369.163 99.371Z" fill="#1C364F"/>
<path d="M379.357 99.6495V87.2592H379.859V90.8472C380.106 89.6845 380.771 88.6528 381.727 87.9475C382.684 87.2422 383.866 86.9122 385.05 87.0201V87.4865C381.821 87.4865 379.919 89.7708 379.919 92.9162V99.6495H379.357Z" fill="#1C364F"/>
<path d="M388.298 87.2588H388.789V90.8467C389.032 89.7295 389.66 88.7331 390.562 88.0315C391.465 87.3298 392.585 86.9675 393.728 87.0076C394.883 86.9402 396.02 87.3219 396.9 88.073C397.781 88.8241 398.337 89.8865 398.452 91.0381C398.689 89.8843 399.322 88.8498 400.242 88.1137C401.161 87.3776 402.31 86.9863 403.487 87.0076C404.132 86.9829 404.775 87.0938 405.375 87.3331C405.975 87.5724 406.517 87.9348 406.968 88.3969C407.419 88.859 407.768 89.4105 407.992 90.0159C408.217 90.6212 408.312 91.2668 408.271 91.9111V99.6371H407.793V91.959C407.832 91.3722 407.747 90.7838 407.544 90.232C407.34 89.6802 407.023 89.1775 406.612 88.7566C406.201 88.3358 405.706 88.0061 405.16 87.7893C404.613 87.5724 404.027 87.4732 403.439 87.498C400.988 87.498 398.536 89.2561 398.536 92.9516V99.685H398.034V91.959C398.073 91.3722 397.988 90.7838 397.784 90.232C397.581 89.6802 397.264 89.1775 396.853 88.7566C396.442 88.3358 395.947 88.0061 395.401 87.7893C394.854 87.5724 394.268 87.4732 393.68 87.498C391.229 87.498 388.765 89.28 388.765 92.9516V99.685H388.274L388.298 87.2588Z" fill="#1C364F"/>
<defs>
<filter id="filter0_i_2668_12510" x="35.75" y="66.75" width="130.538" height="46.9873" filterUnits="userSpaceOnUse" color-interpolation-filters="sRGB">
<feFlood flood-opacity="0" result="BackgroundImageFix"/>
<feBlend mode="normal" in="SourceGraphic" in2="BackgroundImageFix" result="shape"/>
<feColorMatrix in="SourceAlpha" type="matrix" values="0 0 0 0 0 0 0 0 0 0 0 0 0 0 0 0 0 0 127 0" result="hardAlpha"/>
<feOffset/>
<feGaussianBlur stdDeviation="5"/>
<feComposite in2="hardAlpha" operator="arithmetic" k2="-1" k3="1"/>
<feColorMatrix type="matrix" values="0 0 0 0 0.713726 0 0 0 0 0.835294 0 0 0 0 0.941176 0 0 0 0.5 0"/>
<feBlend mode="normal" in2="shape" result="effect1_innerShadow_2668_12510"/>
</filter>
</defs>
</svg>
