<svg width="33" height="33" viewBox="0 0 33 33" fill="none" xmlns="http://www.w3.org/2000/svg">
<path d="M25.5224 5.37231H6.71573C5.64691 5.37231 4.62186 5.7969 3.86609 6.55267C3.11032 7.30844 2.68573 8.33349 2.68573 9.40231V22.8356C2.68573 23.9045 3.11032 24.9295 3.86609 25.6853C4.62186 26.441 5.64691 26.8656 6.71573 26.8656H25.5224C26.5912 26.8656 27.6163 26.441 28.372 25.6853C29.1278 24.9295 29.5524 23.9045 29.5524 22.8356V9.40231C29.5524 8.33349 29.1278 7.30844 28.372 6.55267C27.6163 5.7969 26.5912 5.37231 25.5224 5.37231V5.37231ZM24.6224 8.05898L16.1191 14.4398L7.61576 8.05898H24.6224ZM25.5224 24.179H6.71573C6.35945 24.179 6.01777 24.0374 5.76585 23.7855C5.51392 23.5336 5.3724 23.1919 5.3724 22.8356V9.73814L15.3131 17.1936C15.5456 17.368 15.8284 17.4623 16.1191 17.4623C16.4097 17.4623 16.6925 17.368 16.9251 17.1936L26.8657 9.73814V22.8356C26.8657 23.1919 26.7242 23.5336 26.4723 23.7855C26.2203 24.0374 25.8787 24.179 25.5224 24.179Z" fill="#3F72A4"/>
</svg>
