<svg width="278" height="210" viewBox="0 0 278 210" fill="none" xmlns="http://www.w3.org/2000/svg">
<g filter="url(#filter0_d_240_688)">
<path d="M73.6452 168.545V169.267H61.6181V168.545H66.147L65.4729 166.884C62.1864 159.87 52.9876 159.452 49.5072 159.557C49.4119 159.561 49.3198 159.592 49.2417 159.647C49.1636 159.702 49.1028 159.777 49.0666 159.866L45.6127 167.831C45.5792 167.909 45.5657 167.994 45.5732 168.079C45.5807 168.164 45.609 168.245 45.6557 168.316C45.7024 168.387 45.7659 168.446 45.8407 168.486C45.9154 168.527 45.999 168.549 46.0841 168.549H50.1945V169.271H40V168.549H42.8196C42.9202 168.549 43.0186 168.519 43.1025 168.464C43.1863 168.408 43.2519 168.329 43.2909 168.236L55.2829 140.574L56.6706 137.367H58.8029L70.7948 168.205C70.8327 168.302 70.8987 168.385 70.9843 168.444C71.0699 168.503 71.1711 168.535 71.275 168.536L73.6452 168.545ZM62.5917 159.733L56.5605 144.755C56.5223 144.66 56.4568 144.58 56.3724 144.523C56.288 144.466 56.1886 144.436 56.0869 144.436C55.9852 144.436 55.8857 144.466 55.8014 144.523C55.717 144.58 55.6515 144.66 55.6133 144.755L50.3266 156.923C50.2938 157.001 50.2808 157.086 50.289 157.17C50.2971 157.254 50.3261 157.335 50.3732 157.406C50.4204 157.476 50.4843 157.534 50.5593 157.573C50.6342 157.613 50.7177 157.633 50.8024 157.632C53.6616 157.667 58.1156 158.143 61.8692 160.355C61.9616 160.406 62.0678 160.428 62.1731 160.417C62.2784 160.405 62.3775 160.361 62.4568 160.291C62.5362 160.221 62.5917 160.128 62.6159 160.025C62.6401 159.922 62.6316 159.814 62.5917 159.716V159.733Z" fill="#3F72A4"/>
<path d="M97.9855 137.874V144.579H97.2762C97.2762 143.931 97.1485 143.29 96.9004 142.693C96.6523 142.095 96.2886 141.552 95.8303 141.094C95.3719 140.637 94.8279 140.275 94.2293 140.029C93.6307 139.782 92.9894 139.656 92.342 139.658H87.8131C87.6776 139.658 87.5476 139.712 87.4518 139.807C87.3559 139.903 87.3021 140.033 87.3021 140.169V167.977C87.3021 168.112 87.3559 168.242 87.4518 168.338C87.5476 168.434 87.6776 168.488 87.8131 168.488H91.1085V169.21H79.0637V168.488H82.3371C82.473 168.488 82.6035 168.434 82.7 168.338C82.7965 168.243 82.8513 168.113 82.8525 167.977V140.169C82.8513 140.033 82.7965 139.903 82.7 139.807C82.6035 139.711 82.473 139.658 82.3371 139.658H77.8126C76.507 139.658 75.2549 140.176 74.3314 141.099C73.4078 142.022 72.8883 143.273 72.8872 144.579H72.1647V137.874H97.9855Z" fill="#3F72A4"/>
<path d="M132.383 139.087V167.97C132.383 168.105 132.437 168.235 132.533 168.331C132.629 168.427 132.759 168.481 132.894 168.481H136.172V169.203H124.149V168.481H127.423C127.49 168.481 127.557 168.468 127.62 168.443C127.682 168.418 127.739 168.38 127.787 168.332C127.835 168.285 127.873 168.228 127.899 168.166C127.925 168.104 127.938 168.037 127.938 167.97V156.912C127.938 156.844 127.925 156.777 127.899 156.715C127.873 156.653 127.835 156.596 127.787 156.549C127.739 156.501 127.682 156.464 127.62 156.438C127.557 156.413 127.49 156.4 127.423 156.401H110.298C110.231 156.4 110.164 156.413 110.101 156.438C110.039 156.464 109.982 156.501 109.934 156.549C109.886 156.596 109.848 156.653 109.822 156.715C109.796 156.777 109.783 156.844 109.783 156.912V167.97C109.783 168.037 109.796 168.104 109.822 168.166C109.848 168.228 109.886 168.285 109.934 168.332C109.982 168.38 110.039 168.418 110.101 168.443C110.164 168.468 110.231 168.481 110.298 168.481H113.576V169.203H101.549V168.481H104.827C104.962 168.481 105.092 168.427 105.188 168.331C105.284 168.235 105.338 168.105 105.338 167.97V139.087C105.338 138.951 105.284 138.821 105.188 138.725C105.092 138.63 104.962 138.576 104.827 138.576H101.549V137.849H113.576V138.576H110.303C110.235 138.575 110.168 138.588 110.106 138.613C110.043 138.639 109.986 138.676 109.938 138.724C109.891 138.771 109.852 138.828 109.827 138.89C109.801 138.953 109.787 139.019 109.787 139.087V153.947C109.787 154.083 109.842 154.215 109.938 154.311C110.035 154.408 110.166 154.462 110.303 154.462H127.423C127.559 154.462 127.69 154.408 127.787 154.311C127.884 154.215 127.938 154.083 127.938 153.947V139.087C127.938 139.019 127.925 138.953 127.899 138.89C127.873 138.828 127.835 138.771 127.787 138.724C127.739 138.676 127.682 138.639 127.62 138.613C127.557 138.588 127.49 138.575 127.423 138.576H124.149V137.849H136.176V138.576H132.899C132.831 138.575 132.764 138.587 132.701 138.612C132.638 138.637 132.581 138.675 132.533 138.723C132.485 138.77 132.447 138.827 132.421 138.89C132.396 138.952 132.383 139.019 132.383 139.087Z" fill="#3F72A4"/>
<path d="M163.192 161.033L164.201 161.355L162.412 168.796C162.385 168.91 162.32 169.011 162.228 169.084C162.136 169.156 162.023 169.196 161.906 169.197H140.067V168.474H143.341C143.477 168.474 143.609 168.42 143.705 168.323C143.802 168.227 143.856 168.096 143.856 167.959V139.125C143.856 139.057 143.843 138.99 143.817 138.928C143.791 138.866 143.753 138.809 143.705 138.762C143.657 138.714 143.6 138.677 143.538 138.651C143.475 138.626 143.408 138.613 143.341 138.614H140.067V137.838H152.094V137.891H161.906C162.022 137.891 162.135 137.931 162.227 138.002C162.319 138.074 162.384 138.175 162.412 138.288L164.201 145.733L163.192 146.059C161.095 139.759 159.443 138.618 148.817 138.618C148.68 138.618 148.548 138.671 148.449 138.766C148.35 138.862 148.293 138.992 148.288 139.129V152.896C148.292 153.032 148.349 153.161 148.447 153.255C148.545 153.349 148.676 153.401 148.812 153.399H152.91C154.126 153.397 155.292 152.915 156.153 152.056C157.014 151.197 157.5 150.033 157.505 148.817H158.231V158.729H157.505C157.505 157.508 157.019 156.337 156.156 155.474C155.293 154.611 154.122 154.125 152.901 154.125H148.812C148.676 154.125 148.545 154.18 148.448 154.276C148.351 154.373 148.297 154.504 148.297 154.641V167.959C148.3 168.097 148.358 168.228 148.456 168.324C148.555 168.421 148.688 168.474 148.826 168.474C159.443 168.474 161.095 167.32 163.192 161.033Z" fill="#3F72A4"/>
<path d="M200.215 137.874V138.596H198.836C198.699 138.596 198.568 138.65 198.471 138.747C198.375 138.844 198.32 138.975 198.32 139.112V168.704C198.32 168.839 198.266 168.969 198.171 169.065C198.075 169.161 197.945 169.215 197.809 169.215H194.937C194.858 169.214 194.781 169.196 194.71 169.161C194.64 169.126 194.579 169.075 194.531 169.012L174.151 142.464C174.085 142.38 173.995 142.319 173.893 142.288C173.791 142.258 173.681 142.26 173.58 142.294C173.479 142.329 173.391 142.394 173.329 142.48C173.266 142.566 173.232 142.67 173.231 142.777V167.977C173.231 168.112 173.284 168.242 173.38 168.338C173.476 168.434 173.606 168.488 173.742 168.488H175.116V169.21H169.548V168.488H170.927C171.062 168.488 171.193 168.434 171.289 168.338C171.386 168.243 171.441 168.113 171.442 167.977V139.129C171.441 138.993 171.386 138.862 171.29 138.766C171.193 138.67 171.063 138.615 170.927 138.614H169.548V137.874H175.962C176.041 137.873 176.12 137.891 176.191 137.927C176.262 137.962 176.324 138.013 176.372 138.076L195.62 163.157C195.684 163.243 195.774 163.307 195.877 163.339C195.979 163.371 196.09 163.37 196.192 163.336C196.294 163.302 196.382 163.236 196.445 163.149C196.508 163.061 196.541 162.956 196.54 162.849V139.129C196.54 139.061 196.527 138.994 196.501 138.932C196.475 138.869 196.437 138.813 196.389 138.765C196.342 138.717 196.285 138.679 196.222 138.653C196.16 138.627 196.093 138.614 196.025 138.614H194.637V137.891L200.215 137.874Z" fill="#3F72A4"/>
<path d="M203.81 168.545V169.267H215.838V168.545H211.309L211.983 166.875C215.269 159.861 224.472 159.443 227.953 159.549C228.048 159.552 228.141 159.583 228.219 159.637C228.297 159.692 228.358 159.768 228.393 159.857L231.847 167.822C231.882 167.9 231.896 167.986 231.889 168.071C231.882 168.156 231.854 168.238 231.807 168.31C231.76 168.381 231.696 168.44 231.621 168.48C231.546 168.52 231.461 168.541 231.376 168.54H227.279V169.263H237.46V168.54H234.636C234.536 168.539 234.438 168.509 234.354 168.454C234.27 168.398 234.205 168.32 234.165 168.227L222.177 140.565L220.789 137.367H218.657L206.661 168.205C206.623 168.302 206.557 168.385 206.471 168.444C206.386 168.503 206.285 168.535 206.181 168.536L203.81 168.545ZM214.868 159.734L220.9 144.755C220.938 144.66 221.003 144.58 221.088 144.523C221.172 144.466 221.271 144.436 221.373 144.436C221.475 144.436 221.574 144.466 221.659 144.523C221.743 144.58 221.808 144.66 221.847 144.755L227.133 156.923C227.167 157.001 227.18 157.086 227.173 157.171C227.165 157.256 227.137 157.337 227.09 157.408C227.044 157.479 226.98 157.538 226.905 157.578C226.831 157.619 226.747 157.64 226.662 157.641C223.807 157.676 219.353 158.152 215.6 160.364C215.507 160.424 215.396 160.452 215.286 160.444C215.175 160.436 215.07 160.392 214.987 160.318C214.904 160.245 214.848 160.146 214.826 160.037C214.805 159.928 214.82 159.816 214.868 159.716V159.734Z" fill="#3F72A4"/>
<path d="M182.38 63.7542L181.701 64.9128H95.7532L95.0703 63.7542H182.38Z" fill="#3F72A4"/>
<path d="M182.38 122.62H95.0703L96.088 120.88H181.362L182.38 122.62Z" fill="#3F72A4"/>
<path d="M113.873 67.1154L113.323 68.274H98.683L98.1323 67.1154H113.873Z" fill="#3F72A4"/>
<path d="M113.037 68.8875L112.214 70.6276H99.7987L98.9705 68.8875H113.037Z" fill="#3F72A4"/>
<path d="M100.151 71.5638H102.882V114.959H100.151V71.5638Z" fill="#3F72A4"/>
<path d="M104.634 71.5638H107.361V114.959H104.634V71.5638Z" fill="#3F72A4"/>
<path d="M109.117 71.5638H111.844V114.959H109.117V71.5638Z" fill="#3F72A4"/>
<path d="M121.97 71.5638H124.697V114.959H121.97V71.5638Z" fill="#3F72A4"/>
<path d="M126.45 71.5638H129.177V114.959H126.45V71.5638Z" fill="#3F72A4"/>
<path d="M130.935 71.5638H133.662V114.959H130.935V71.5638Z" fill="#3F72A4"/>
<path d="M143.796 71.5638H146.523V114.959H143.796V71.5638Z" fill="#3F72A4"/>
<path d="M148.274 71.5638H151.019V114.959H148.292L148.274 71.5638Z" fill="#3F72A4"/>
<path d="M152.78 71.5638H155.507V114.959H152.78V71.5638Z" fill="#3F72A4"/>
<path d="M165.614 71.5638H168.345V114.959H165.614V71.5638Z" fill="#3F72A4"/>
<path d="M170.099 71.5638H172.83V114.959H170.099V71.5638Z" fill="#3F72A4"/>
<path d="M174.578 71.5638H177.305V114.959H174.578V71.5638Z" fill="#3F72A4"/>
<path d="M138.729 40L90.2682 61.9573H187.172L138.729 40ZM138.729 57.2081C138.032 57.2081 137.351 57.0014 136.771 56.6141C136.191 56.2268 135.74 55.6764 135.473 55.0324C135.206 54.3884 135.136 53.6797 135.272 52.9961C135.408 52.3124 135.744 51.6844 136.237 51.1915C136.73 50.6986 137.358 50.3629 138.041 50.2269C138.725 50.0909 139.434 50.1607 140.078 50.4275C140.722 50.6942 141.272 51.146 141.659 51.7256C142.047 52.3052 142.253 52.9866 142.253 53.6836C142.253 54.6184 141.882 55.5148 141.221 56.1758C140.56 56.8368 139.664 57.2081 138.729 57.2081Z" fill="#3F72A4"/>
<path d="M113.873 119.417L113.323 118.254H98.683L98.1323 119.417H113.873Z" fill="#3F72A4"/>
<path d="M113.037 117.643L112.214 115.903H99.7987L98.9705 117.643H113.037Z" fill="#3F72A4"/>
<path d="M135.699 67.1154L135.148 68.274H120.509L119.958 67.1154H135.699Z" fill="#3F72A4"/>
<path d="M134.857 68.8875L134.033 70.6276H121.614L120.79 68.8875H134.857Z" fill="#3F72A4"/>
<path d="M121.966 71.5638H124.697V114.959H121.966V71.5638Z" fill="#3F72A4"/>
<path d="M126.456 71.5638H129.183V114.959H126.456V71.5638Z" fill="#3F72A4"/>
<path d="M130.935 71.5638H133.662V114.959H130.935V71.5638Z" fill="#3F72A4"/>
<path d="M135.699 119.413L135.148 118.254H120.509L119.958 119.413H135.699Z" fill="#3F72A4"/>
<path d="M134.857 117.643L134.033 115.903H121.614L120.79 117.643H134.857Z" fill="#3F72A4"/>
<path d="M157.514 67.1154L156.963 68.274H142.319L141.768 67.1154H157.514Z" fill="#3F72A4"/>
<path d="M156.67 68.8875L155.847 70.6276H143.432L142.608 68.8875H156.67Z" fill="#3F72A4"/>
<path d="M143.781 71.5638H146.508V114.959H143.781V71.5638Z" fill="#3F72A4"/>
<path d="M148.267 71.5638H151.016V114.959H148.289L148.267 71.5638Z" fill="#3F72A4"/>
<path d="M152.746 71.5638H155.473V114.959H152.746V71.5638Z" fill="#3F72A4"/>
<path d="M157.514 119.413L156.963 118.254H142.319L141.768 119.413H157.514Z" fill="#3F72A4"/>
<path d="M156.67 117.643L155.847 115.903H143.432L142.608 117.643H156.67Z" fill="#3F72A4"/>
<path d="M179.334 67.1154L178.784 68.274H164.144L163.593 67.1154H179.334Z" fill="#3F72A4"/>
<path d="M178.504 68.8875L177.68 70.6276H165.261L164.437 68.8875H178.504Z" fill="#3F72A4"/>
<path d="M165.614 71.5638H168.345V114.959H165.614V71.5638Z" fill="#3F72A4"/>
<path d="M170.099 71.5638H172.83V114.959H170.099V71.5638Z" fill="#3F72A4"/>
<path d="M174.582 71.5638H177.309V114.959H174.582V71.5638Z" fill="#3F72A4"/>
<path d="M179.334 119.413L178.784 118.254H164.144L163.593 119.413H179.334Z" fill="#3F72A4"/>
<path d="M178.504 117.643L177.68 115.903H165.261L164.437 117.643H178.504Z" fill="#3F72A4"/>
</g>
<defs>
<filter id="filter0_d_240_688" x="0" y="0" width="277.46" height="209.271" filterUnits="userSpaceOnUse" color-interpolation-filters="sRGB">
<feFlood flood-opacity="0" result="BackgroundImageFix"/>
<feColorMatrix in="SourceAlpha" type="matrix" values="0 0 0 0 0 0 0 0 0 0 0 0 0 0 0 0 0 0 127 0" result="hardAlpha"/>
<feOffset/>
<feGaussianBlur stdDeviation="20"/>
<feComposite in2="hardAlpha" operator="out"/>
<feColorMatrix type="matrix" values="0 0 0 0 0.909804 0 0 0 0 0.952941 0 0 0 0 1 0 0 0 1 0"/>
<feBlend mode="normal" in2="BackgroundImageFix" result="effect1_dropShadow_240_688"/>
<feBlend mode="normal" in="SourceGraphic" in2="effect1_dropShadow_240_688" result="shape"/>
</filter>
</defs>
</svg>
