<svg width="64" height="55" viewBox="0 0 64 55" fill="none" xmlns="http://www.w3.org/2000/svg">
<g clip-path="url(#clip0_658_1739)">
<path d="M60.3771 15.5713L59.9322 16.3247H3.58796L3.14307 15.5713H60.3771Z" fill="#E8F3FF"/>
<path d="M60.3771 54.1629H3.14307L3.81041 53.022H59.7097L60.3771 54.1629Z" fill="#E8F3FF"/>
<path d="M15.471 17.7744L15.105 18.535H5.51098L5.14502 17.7744H15.471Z" fill="#E8F3FF"/>
<path d="M14.9186 18.937L14.3804 20.078H6.23594L5.69775 18.937H14.9186Z" fill="#E8F3FF"/>
<path d="M6.45801 20.6948H8.24478V49.1396H6.45801V20.6948Z" fill="#E8F3FF"/>
<path d="M9.40723 20.6948H11.2012V49.1396H9.40723V20.6948Z" fill="#E8F3FF"/>
<path d="M12.3496 20.6948H14.1364V49.1396H12.3496V20.6948Z" fill="#E8F3FF"/>
<path d="M20.8096 20.6948H22.5963V49.1396H20.8096V20.6948Z" fill="#E8F3FF"/>
<path d="M23.7158 20.6948H25.5026V49.1396H23.7158V20.6948Z" fill="#E8F3FF"/>
<path d="M26.6509 20.6948H28.4448V49.1396H26.6509V20.6948Z" fill="#E8F3FF"/>
<path d="M35.0825 20.6948H36.8693V49.1396H35.0825V20.6948Z" fill="#E8F3FF"/>
<path d="M38.0317 20.6948H39.8185V49.1396H38.0317V20.6948Z" fill="#E8F3FF"/>
<path d="M40.9595 20.6948H42.7462V49.1396H40.9595V20.6948Z" fill="#E8F3FF"/>
<path d="M49.3838 20.6948H51.1706V49.1396H49.3838V20.6948Z" fill="#E8F3FF"/>
<path d="M52.3257 20.6948H54.1125V49.1396H52.3257V20.6948Z" fill="#E8F3FF"/>
<path d="M55.2534 20.6948H57.0474V49.1396H55.2534V20.6948Z" fill="#E8F3FF"/>
<path d="M31.76 0L0 14.3946H63.52L31.76 0ZM31.76 11.2803C31.3044 11.2803 30.8591 11.1452 30.4803 10.8921C30.1015 10.639 29.8063 10.2793 29.6319 9.8584C29.4576 9.4375 29.412 8.97436 29.5008 8.52754C29.5897 8.08072 29.8091 7.67028 30.1312 7.34814C30.4534 7.026 30.8638 6.80662 31.3106 6.71774C31.7574 6.62887 32.2206 6.67448 32.6415 6.84882C33.0624 7.02316 33.4221 7.3184 33.6752 7.6972C33.9283 8.07599 34.0634 8.52134 34.0634 8.97691C34.0634 9.58782 33.8207 10.1737 33.3888 10.6057C32.9568 11.0377 32.3709 11.2803 31.76 11.2803Z" fill="#E8F3FF"/>
<path d="M15.471 52.0604L15.105 51.2998H5.51098L5.14502 52.0604H15.471Z" fill="#E8F3FF"/>
<path d="M14.9186 50.8978L14.3804 49.7568H6.23594L5.69775 50.8978H14.9186Z" fill="#E8F3FF"/>
<path d="M29.7724 17.7744L29.4136 18.535H19.8124L19.4536 17.7744H29.7724Z" fill="#E8F3FF"/>
<path d="M29.2267 18.9297L28.6814 20.0778H20.544L20.0059 18.9297H29.2267Z" fill="#E8F3FF"/>
<path d="M20.8096 20.6948H22.5963V49.1396H20.8096V20.6948Z" fill="#E8F3FF"/>
<path d="M23.7158 20.6948H25.5026V49.1396H23.7158V20.6948Z" fill="#E8F3FF"/>
<path d="M26.6509 20.6948H28.4448V49.1396H26.6509V20.6948Z" fill="#E8F3FF"/>
<path d="M29.7724 52.0604L29.4136 51.2998H19.8124L19.4536 52.0604H29.7724Z" fill="#E8F3FF"/>
<path d="M29.2267 50.8978L28.6814 49.7568H20.544L20.0059 50.8978H29.2267Z" fill="#E8F3FF"/>
<path d="M44.0737 17.7744L43.7149 18.535H34.1137L33.7549 17.7744H44.0737Z" fill="#E8F3FF"/>
<path d="M43.5212 18.9297L42.983 20.0778H34.8457L34.3003 18.9297H43.5212Z" fill="#E8F3FF"/>
<path d="M35.0752 20.6948H36.862V49.1396H35.0752V20.6948Z" fill="#E8F3FF"/>
<path d="M38.0317 20.6948H39.8185V49.1396H38.0317V20.6948Z" fill="#E8F3FF"/>
<path d="M40.9521 20.6948H42.7389V49.1396H40.9521V20.6948Z" fill="#E8F3FF"/>
<path d="M44.0737 52.0604L43.7149 51.2998H34.1137L33.7549 52.0604H44.0737Z" fill="#E8F3FF"/>
<path d="M43.5212 50.8978L42.983 49.7568H34.8457L34.3003 50.8978H43.5212Z" fill="#E8F3FF"/>
<path d="M58.3823 17.7744L58.0235 18.535H48.4223L48.0635 17.7744H58.3823Z" fill="#E8F3FF"/>
<path d="M57.8366 18.9297L57.2912 20.0778H49.1539L48.6157 18.9297H57.8366Z" fill="#E8F3FF"/>
<path d="M49.3838 20.6948H51.1706V49.1396H49.3838V20.6948Z" fill="#E8F3FF"/>
<path d="M52.3257 20.6948H54.1125V49.1396H52.3257V20.6948Z" fill="#E8F3FF"/>
<path d="M55.2534 20.6948H57.0474V49.1396H55.2534V20.6948Z" fill="#E8F3FF"/>
<path d="M58.3823 52.0604L58.0235 51.2998H48.4223L48.0635 52.0604H58.3823Z" fill="#E8F3FF"/>
<path d="M57.8366 50.8978L57.2912 49.7568H49.1539L48.6157 50.8978H57.8366Z" fill="#E8F3FF"/>
</g>
<defs>
<clipPath id="clip0_658_1739">
<rect width="63.52" height="54.1629" fill="white"/>
</clipPath>
</defs>
</svg>
