<svg width="50" height="42" viewBox="0 0 50 42" fill="none" xmlns="http://www.w3.org/2000/svg">
<path d="M46.6299 12.02L46.2799 12.61H2.76992L2.41992 12.02H46.6299Z" fill="#3F72A4"/>
<path d="M46.6299 41.8199H2.41992L2.93992 40.9399H46.1099L46.6299 41.8199Z" fill="#3F72A4"/>
<path d="M11.94 13.72L11.66 14.31H4.24997L3.96997 13.72H11.94Z" fill="#3F72A4"/>
<path d="M11.5199 14.6201L11.0999 15.5001H4.8199L4.3999 14.6201H11.5199Z" fill="#3F72A4"/>
<path d="M5 16H6.37V38H5V16Z" fill="#3F72A4"/>
<path d="M7.26001 16H8.64001V38H7.26001V16Z" fill="#3F72A4"/>
<path d="M9.53003 16H10.91V38H9.53003V16Z" fill="#3F72A4"/>
<path d="M16 16H17.38V38H16V16Z" fill="#3F72A4"/>
<path d="M18.3101 16H19.6901V38H18.3101V16Z" fill="#3F72A4"/>
<path d="M20.5801 16H22.0001V38H20.5801V16Z" fill="#3F72A4"/>
<path d="M27.0901 16H28.4701V38H27.0901V16Z" fill="#3F72A4"/>
<path d="M29.3601 16H30.7401V38H29.3601V16Z" fill="#3F72A4"/>
<path d="M31.6299 16H32.9999V38H31.6299V16Z" fill="#3F72A4"/>
<path d="M38.1299 16H39.5199V38H38.1299V16Z" fill="#3F72A4"/>
<path d="M40.4099 16H41.7899V38H40.4099V16Z" fill="#3F72A4"/>
<path d="M42.6699 16H44.0499V38H42.6699V16Z" fill="#3F72A4"/>
<path d="M24.52 0L0 11.11H49.05L24.52 0ZM24.52 8.71C24.1679 8.71 23.8238 8.60561 23.5311 8.41002C23.2384 8.21443 23.0102 7.93643 22.8755 7.61118C22.7408 7.28592 22.7055 6.92803 22.7742 6.58274C22.8429 6.23745 23.0124 5.92029 23.2614 5.67135C23.5103 5.42241 23.8275 5.25288 24.1727 5.1842C24.518 5.11552 24.8759 5.15077 25.2012 5.28549C25.5264 5.42022 25.8044 5.64837 26 5.94108C26.1956 6.2338 26.3 6.57795 26.3 6.93C26.3 7.16375 26.254 7.39522 26.1645 7.61118C26.0751 7.82714 25.9439 8.02336 25.7787 8.18865C25.6134 8.35394 25.4171 8.48505 25.2012 8.57451C24.9852 8.66396 24.7538 8.71 24.52 8.71Z" fill="#3F72A4"/>
<path d="M11.94 40.2001L11.66 39.6101H4.24997L3.96997 40.2001H11.94Z" fill="#3F72A4"/>
<path d="M11.5199 39.3099L11.0999 38.4199H4.8199L4.3999 39.3099H11.5199Z" fill="#3F72A4"/>
<path d="M22.99 13.72L22.71 14.31H15.3L15.02 13.72H22.99Z" fill="#3F72A4"/>
<path d="M22.5699 14.6201L22.1499 15.5001H15.8599L15.4399 14.6201H22.5699Z" fill="#3F72A4"/>
<path d="M16 16H17.38V38H16V16Z" fill="#3F72A4"/>
<path d="M18.3101 16H19.6901V38H18.3101V16Z" fill="#3F72A4"/>
<path d="M20.5801 16H22.0001V38H20.5801V16Z" fill="#3F72A4"/>
<path d="M22.99 40.2001L22.71 39.6101H15.3L15.02 40.2001H22.99Z" fill="#3F72A4"/>
<path d="M22.5699 39.2999L22.1499 38.4199H15.8599L15.4399 39.2999H22.5699Z" fill="#3F72A4"/>
<path d="M34.0301 13.72L33.7501 14.31H26.3401L26.0601 13.72H34.0301Z" fill="#3F72A4"/>
<path d="M33.61 14.6201L33.19 15.5001H26.91L26.49 14.6201H33.61Z" fill="#3F72A4"/>
<path d="M27.0801 16H28.4601V38H27.0801V16Z" fill="#3F72A4"/>
<path d="M29.3501 16H30.7401V38H29.3501V16Z" fill="#3F72A4"/>
<path d="M31.6201 16H33.0001V38H31.6201V16Z" fill="#3F72A4"/>
<path d="M34.0301 40.2001L33.7501 39.6101H26.3401L26.0601 40.2001H34.0301Z" fill="#3F72A4"/>
<path d="M33.61 39.2999L33.19 38.4199H26.91L26.49 39.2999H33.61Z" fill="#3F72A4"/>
<path d="M45.0801 13.72L44.8101 14.31H37.3901L37.1101 13.72H45.0801Z" fill="#3F72A4"/>
<path d="M44.66 14.6201L44.24 15.5001H37.96L37.54 14.6201H44.66Z" fill="#3F72A4"/>
<path d="M38.1299 16H39.5199V38H38.1299V16Z" fill="#3F72A4"/>
<path d="M40.4099 16H41.7899V38H40.4099V16Z" fill="#3F72A4"/>
<path d="M42.6699 16H44.0599V38H42.6699V16Z" fill="#3F72A4"/>
<path d="M45.0801 40.2001L44.8101 39.6101H37.3901L37.1101 40.2001H45.0801Z" fill="#3F72A4"/>
<path d="M44.66 39.2999L44.24 38.4199H37.96L37.54 39.2999H44.66Z" fill="#3F72A4"/>
</svg>
