<svg width="198" height="130" viewBox="0 0 198 130" fill="none" xmlns="http://www.w3.org/2000/svg">
<path d="M33.6452 128.545V129.267H21.6181V128.545H26.147L25.4729 126.884C22.1864 119.87 12.9876 119.452 9.50719 119.557C9.41193 119.561 9.31978 119.592 9.24169 119.647C9.16359 119.702 9.10283 119.777 9.06663 119.866L5.61268 127.831C5.57924 127.909 5.56567 127.994 5.57318 128.079C5.58069 128.164 5.60904 128.245 5.65571 128.316C5.70238 128.387 5.76592 128.446 5.84066 128.486C5.9154 128.527 5.99903 128.549 6.08407 128.549H10.1945V129.271H0V128.549H2.81956C2.9202 128.549 3.01862 128.519 3.10248 128.464C3.18634 128.408 3.25191 128.329 3.29095 128.236L15.2829 100.574L16.6706 97.3666H18.8029L30.7948 128.205C30.8327 128.302 30.8987 128.385 30.9843 128.444C31.0699 128.503 31.1711 128.535 31.275 128.536L33.6452 128.545ZM22.5917 119.733L16.5605 104.755C16.5223 104.66 16.4568 104.58 16.3724 104.523C16.288 104.466 16.1886 104.436 16.0869 104.436C15.9852 104.436 15.8857 104.466 15.8014 104.523C15.717 104.58 15.6515 104.66 15.6133 104.755L10.3266 116.923C10.2938 117.001 10.2808 117.086 10.289 117.17C10.2971 117.254 10.3261 117.335 10.3732 117.406C10.4204 117.476 10.4843 117.534 10.5593 117.573C10.6342 117.613 10.7177 117.633 10.8024 117.632C13.6616 117.667 18.1156 118.143 21.8692 120.355C21.9616 120.406 22.0678 120.428 22.1731 120.417C22.2784 120.405 22.3775 120.361 22.4568 120.291C22.5362 120.221 22.5917 120.128 22.6159 120.025C22.6401 119.922 22.6316 119.814 22.5917 119.716V119.733Z" fill="#1C364F"/>
<path d="M57.9854 97.8735V104.579H57.2761C57.2761 103.931 57.1484 103.29 56.9003 102.693C56.6522 102.095 56.2885 101.552 55.8301 101.094C55.3718 100.637 54.8277 100.275 54.2292 100.029C53.6306 99.782 52.9893 99.656 52.3419 99.6578H47.813C47.6775 99.6578 47.5475 99.7116 47.4517 99.8075C47.3558 99.9033 47.302 100.033 47.302 100.169V127.977C47.302 128.112 47.3558 128.242 47.4517 128.338C47.5475 128.434 47.6775 128.488 47.813 128.488H51.1084V129.21H39.0636V128.488H42.3369C42.4729 128.488 42.6033 128.434 42.6999 128.338C42.7964 128.243 42.8512 128.113 42.8524 127.977V100.169C42.8512 100.033 42.7964 99.9029 42.6999 99.8072C42.6033 99.7115 42.4729 99.6578 42.3369 99.6578H37.8125C36.5069 99.6578 35.2548 100.176 34.3312 101.099C33.4077 102.022 32.8882 103.273 32.8871 104.579H32.1646V97.8735H57.9854Z" fill="#1C364F"/>
<path d="M92.3833 99.0868V127.97C92.3833 128.105 92.4371 128.235 92.5329 128.331C92.6288 128.427 92.7588 128.481 92.8943 128.481H96.172V129.203H84.1493V128.481H87.4226C87.4901 128.481 87.557 128.468 87.6195 128.443C87.6821 128.418 87.7389 128.38 87.7868 128.332C87.8348 128.285 87.8728 128.228 87.8988 128.166C87.9247 128.104 87.9381 128.037 87.9381 127.97V116.912C87.9381 116.844 87.9247 116.777 87.8988 116.715C87.8728 116.653 87.8348 116.596 87.7868 116.549C87.7389 116.501 87.6821 116.464 87.6195 116.438C87.557 116.413 87.4901 116.4 87.4226 116.401H70.2982C70.2308 116.4 70.1638 116.413 70.1013 116.438C70.0388 116.464 69.982 116.501 69.934 116.549C69.8861 116.596 69.8481 116.653 69.8221 116.715C69.7962 116.777 69.7828 116.844 69.7828 116.912V127.97C69.7828 128.037 69.7962 128.104 69.8221 128.166C69.8481 128.228 69.8861 128.285 69.934 128.332C69.982 128.38 70.0388 128.418 70.1013 128.443C70.1638 128.468 70.2308 128.481 70.2982 128.481H73.576V129.203H61.5488V128.481H64.8266C64.9621 128.481 65.0921 128.427 65.1879 128.331C65.2838 128.235 65.3376 128.105 65.3376 127.97V99.0868C65.3376 98.9513 65.2838 98.8213 65.1879 98.7255C65.0921 98.6296 64.9621 98.5758 64.8266 98.5758H61.5488V97.8489H73.576V98.5758H70.3027C70.2352 98.5752 70.1682 98.588 70.1057 98.6134C70.0432 98.6388 69.9864 98.6764 69.9384 98.7239C69.8905 98.7714 69.8525 98.828 69.8265 98.8902C69.8006 98.9525 69.7872 99.0193 69.7872 99.0868V113.947C69.7872 114.083 69.8415 114.215 69.9382 114.311C70.0348 114.408 70.166 114.462 70.3027 114.462H87.4226C87.5593 114.462 87.6904 114.408 87.7871 114.311C87.8838 114.215 87.9381 114.083 87.9381 113.947V99.0868C87.9381 99.0193 87.9247 98.9525 87.8988 98.8902C87.8728 98.828 87.8348 98.7714 87.7868 98.7239C87.7389 98.6764 87.6821 98.6388 87.6195 98.6134C87.557 98.588 87.4901 98.5752 87.4226 98.5758H84.1493V97.8489H96.1764V98.5758H92.8987C92.8311 98.5746 92.7639 98.587 92.7011 98.6122C92.6383 98.6374 92.5812 98.6749 92.5332 98.7226C92.4851 98.7702 92.4471 98.827 92.4214 98.8895C92.3956 98.9521 92.3827 99.0192 92.3833 99.0868Z" fill="#1C364F"/>
<path d="M123.192 121.033L124.201 121.355L122.412 128.796C122.385 128.91 122.32 129.011 122.228 129.084C122.136 129.156 122.023 129.196 121.906 129.197H100.067V128.474H103.341C103.477 128.474 103.609 128.42 103.705 128.323C103.802 128.227 103.856 128.096 103.856 127.959V99.1246C103.856 99.0571 103.843 98.9903 103.817 98.928C103.791 98.8657 103.753 98.8091 103.705 98.7616C103.657 98.7141 103.6 98.6766 103.538 98.6511C103.475 98.6257 103.408 98.6129 103.341 98.6135H100.067V97.8381H112.094V97.891H121.906C122.022 97.8914 122.135 97.9306 122.227 98.0024C122.319 98.0742 122.384 98.1745 122.412 98.2875L124.201 105.733L123.192 106.059C121.095 99.759 119.443 98.6179 108.817 98.6179C108.68 98.6178 108.548 98.6711 108.449 98.7665C108.35 98.8618 108.293 98.9918 108.288 99.129V112.896C108.292 113.032 108.349 113.161 108.447 113.255C108.545 113.349 108.676 113.401 108.812 113.399H112.91C114.126 113.397 115.292 112.915 116.153 112.056C117.014 111.197 117.5 110.033 117.505 108.817H118.231V118.729H117.505C117.505 117.508 117.019 116.337 116.156 115.474C115.293 114.611 114.122 114.125 112.901 114.125H108.812C108.676 114.125 108.545 114.18 108.448 114.276C108.351 114.373 108.297 114.504 108.297 114.641V127.959C108.3 128.097 108.358 128.228 108.456 128.324C108.555 128.421 108.688 128.474 108.826 128.474C119.443 128.474 121.095 127.32 123.192 121.033Z" fill="#1C364F"/>
<path d="M160.214 97.8735V98.5961H158.835C158.699 98.5961 158.568 98.6504 158.471 98.747C158.374 98.8437 158.32 98.9748 158.32 99.1115V128.704C158.32 128.839 158.266 128.969 158.17 129.065C158.074 129.161 157.944 129.215 157.809 129.215H154.937C154.858 129.214 154.78 129.196 154.71 129.161C154.64 129.126 154.579 129.075 154.531 129.012L134.151 102.464C134.085 102.38 133.995 102.319 133.893 102.288C133.79 102.258 133.681 102.26 133.58 102.294C133.479 102.329 133.391 102.394 133.328 102.48C133.266 102.566 133.232 102.67 133.23 102.777V127.977C133.23 128.112 133.284 128.242 133.38 128.338C133.476 128.434 133.606 128.488 133.741 128.488H135.116V129.21H129.547V128.488H130.926C131.062 128.488 131.193 128.434 131.289 128.338C131.386 128.243 131.441 128.113 131.442 127.977V99.1291C131.441 98.9928 131.386 98.8623 131.29 98.7659C131.193 98.6695 131.063 98.6148 130.926 98.6137H129.547V97.8735H135.962C136.041 97.8732 136.12 97.8913 136.191 97.9265C136.262 97.9617 136.324 98.0129 136.372 98.0762L155.619 123.157C155.684 123.243 155.774 123.307 155.876 123.339C155.979 123.371 156.089 123.37 156.191 123.336C156.293 123.302 156.382 123.236 156.445 123.149C156.507 123.061 156.541 122.956 156.54 122.849V99.1291C156.54 99.0614 156.527 98.9944 156.501 98.9319C156.475 98.8693 156.437 98.8125 156.389 98.7646C156.341 98.7168 156.284 98.6788 156.222 98.6529C156.159 98.627 156.092 98.6137 156.025 98.6137H154.637V97.8912L160.214 97.8735Z" fill="#1C364F"/>
<path d="M163.811 128.545V129.267H175.838V128.545H171.309L171.983 126.875C175.269 119.861 184.473 119.443 187.953 119.549C188.048 119.552 188.141 119.583 188.219 119.637C188.297 119.692 188.358 119.768 188.393 119.857L191.847 127.822C191.882 127.9 191.897 127.986 191.89 128.071C191.883 128.156 191.854 128.238 191.807 128.31C191.761 128.381 191.696 128.44 191.621 128.48C191.546 128.52 191.461 128.541 191.376 128.54H187.279V129.263H197.46V128.54H194.636C194.536 128.539 194.438 128.509 194.354 128.454C194.27 128.398 194.205 128.32 194.165 128.227L182.177 100.565L180.79 97.3666H178.657L166.661 128.205C166.623 128.302 166.557 128.385 166.471 128.444C166.386 128.503 166.285 128.535 166.181 128.536L163.811 128.545ZM174.868 119.734L180.9 104.755C180.938 104.66 181.003 104.58 181.088 104.523C181.172 104.466 181.272 104.436 181.373 104.436C181.475 104.436 181.574 104.466 181.659 104.523C181.743 104.58 181.809 104.66 181.847 104.755L187.133 116.923C187.167 117.001 187.18 117.086 187.173 117.171C187.165 117.256 187.137 117.337 187.09 117.408C187.044 117.479 186.98 117.538 186.905 117.578C186.831 117.619 186.747 117.64 186.662 117.641C183.807 117.676 179.353 118.152 175.6 120.364C175.507 120.424 175.397 120.452 175.286 120.444C175.175 120.436 175.071 120.392 174.987 120.318C174.904 120.245 174.848 120.146 174.826 120.037C174.805 119.928 174.82 119.816 174.868 119.716V119.734Z" fill="#1C364F"/>
<path d="M142.38 23.7542L141.701 24.9128H55.7532L55.0703 23.7542H142.38Z" fill="#1C364F"/>
<path d="M142.38 82.6198H55.0703L56.088 80.8796H141.362L142.38 82.6198Z" fill="#1C364F"/>
<path d="M73.8733 27.1154L73.3226 28.274H58.683L58.1323 27.1154H73.8733Z" fill="#1C364F"/>
<path d="M73.0371 28.8875L72.2133 30.6276H59.7985L58.9702 28.8875H73.0371Z" fill="#1C364F"/>
<path d="M60.1509 31.5638H62.8823V74.9586H60.1509V31.5638Z" fill="#1C364F"/>
<path d="M64.6338 31.5638H67.3608V74.9586H64.6338V31.5638Z" fill="#1C364F"/>
<path d="M69.1172 31.5638H71.8442V74.9586H69.1172V31.5638Z" fill="#1C364F"/>
<path d="M81.9702 31.5638H84.6972V74.9586H81.9702V31.5638Z" fill="#1C364F"/>
<path d="M86.4497 31.5638H89.1767V74.9586H86.4497V31.5638Z" fill="#1C364F"/>
<path d="M90.9355 31.5638H93.6626V74.9586H90.9355V31.5638Z" fill="#1C364F"/>
<path d="M103.796 31.5638H106.523V74.9586H103.796V31.5638Z" fill="#1C364F"/>
<path d="M108.274 31.5638H111.019V74.9586H108.292L108.274 31.5638Z" fill="#1C364F"/>
<path d="M112.78 31.5638H115.507V74.9586H112.78V31.5638Z" fill="#1C364F"/>
<path d="M125.614 31.5638H128.345V74.9586H125.614V31.5638Z" fill="#1C364F"/>
<path d="M130.099 31.5638H132.831V74.9586H130.099V31.5638Z" fill="#1C364F"/>
<path d="M134.578 31.5638H137.305V74.9586H134.578V31.5638Z" fill="#1C364F"/>
<path d="M98.7289 0L50.2681 21.9573H147.172L98.7289 0ZM98.7289 17.2081C98.0319 17.2081 97.3504 17.0014 96.7709 16.6141C96.1913 16.2268 95.7395 15.6764 95.4728 15.0324C95.206 14.3884 95.1362 13.6797 95.2722 12.9961C95.4082 12.3124 95.7439 11.6844 96.2368 11.1915C96.7297 10.6986 97.3577 10.3629 98.0413 10.2269C98.725 10.0909 99.4337 10.1607 100.078 10.4275C100.722 10.6942 101.272 11.146 101.659 11.7256C102.047 12.3052 102.253 12.9866 102.253 13.6836C102.253 14.6184 101.882 15.5148 101.221 16.1758C100.56 16.8368 99.6637 17.2081 98.7289 17.2081Z" fill="#1C364F"/>
<path d="M73.8733 79.417L73.3226 78.2539H58.683L58.1323 79.417H73.8733Z" fill="#1C364F"/>
<path d="M73.0371 77.6429L72.2133 75.9027H59.7985L58.9702 77.6429H73.0371Z" fill="#1C364F"/>
<path d="M95.699 27.1154L95.1483 28.274H80.5087L79.958 27.1154H95.699Z" fill="#1C364F"/>
<path d="M94.8569 28.8875L94.0331 30.6276H81.6139L80.79 28.8875H94.8569Z" fill="#1C364F"/>
<path d="M81.9658 31.5638H84.6973V74.9586H81.9658V31.5638Z" fill="#1C364F"/>
<path d="M86.4565 31.5638H89.1836V74.9586H86.4565V31.5638Z" fill="#1C364F"/>
<path d="M90.9355 31.5638H93.6626V74.9586H90.9355V31.5638Z" fill="#1C364F"/>
<path d="M95.699 79.4126L95.1483 78.2539H80.5087L79.958 79.4126H95.699Z" fill="#1C364F"/>
<path d="M94.8569 77.6429L94.0331 75.9027H81.6139L80.79 77.6429H94.8569Z" fill="#1C364F"/>
<path d="M117.514 27.1154L116.963 28.274H102.319L101.768 27.1154H117.514Z" fill="#1C364F"/>
<path d="M116.67 28.8875L115.847 30.6276H103.432L102.608 28.8875H116.67Z" fill="#1C364F"/>
<path d="M103.781 31.5638H106.508V74.9586H103.781V31.5638Z" fill="#1C364F"/>
<path d="M108.267 31.5638H111.016V74.9586H108.289L108.267 31.5638Z" fill="#1C364F"/>
<path d="M112.747 31.5638H115.474V74.9586H112.747V31.5638Z" fill="#1C364F"/>
<path d="M117.514 79.4126L116.963 78.2539H102.319L101.768 79.4126H117.514Z" fill="#1C364F"/>
<path d="M116.67 77.6429L115.847 75.9027H103.432L102.608 77.6429H116.67Z" fill="#1C364F"/>
<path d="M139.334 27.1154L138.784 28.274H124.144L123.593 27.1154H139.334Z" fill="#1C364F"/>
<path d="M138.504 28.8875L137.681 30.6276H125.261L124.438 28.8875H138.504Z" fill="#1C364F"/>
<path d="M125.614 31.5638H128.345V74.9586H125.614V31.5638Z" fill="#1C364F"/>
<path d="M130.099 31.5638H132.831V74.9586H130.099V31.5638Z" fill="#1C364F"/>
<path d="M134.583 31.5638H137.31V74.9586H134.583V31.5638Z" fill="#1C364F"/>
<path d="M139.334 79.4126L138.784 78.2539H124.144L123.593 79.4126H139.334Z" fill="#1C364F"/>
<path d="M138.504 77.6429L137.681 75.9027H125.261L124.438 77.6429H138.504Z" fill="#1C364F"/>
</svg>
