<svg width="351" height="230" viewBox="0 0 351 230" fill="none" xmlns="http://www.w3.org/2000/svg">
<path d="M59.7146 228.138V229.42H38.3684V228.138H46.4064L45.2101 225.19C39.3771 212.742 23.0508 211.999 16.8736 212.187C16.7046 212.194 16.541 212.249 16.4024 212.346C16.2638 212.443 16.156 212.578 16.0917 212.734L9.96155 226.871C9.9022 227.01 9.87812 227.161 9.89145 227.312C9.90477 227.462 9.9551 227.607 10.0379 227.733C10.1208 227.859 10.2335 227.963 10.3662 228.035C10.4988 228.107 10.6473 228.145 10.7982 228.146H18.0934V229.428H0V228.146H5.00423C5.18286 228.146 5.35754 228.093 5.50638 227.995C5.65522 227.896 5.77158 227.755 5.84088 227.591L27.1245 178.494L29.5875 172.802H33.372L54.6556 227.536C54.7228 227.708 54.8399 227.855 54.9918 227.96C55.1437 228.064 55.3235 228.121 55.5079 228.122L59.7146 228.138ZM40.0964 212.5L29.3921 185.915C29.3242 185.747 29.208 185.604 29.0582 185.503C28.9085 185.402 28.732 185.349 28.5515 185.349C28.3709 185.349 28.1945 185.402 28.0448 185.503C27.895 185.604 27.7788 185.747 27.7109 185.915L18.328 207.511C18.2697 207.65 18.2467 207.801 18.2612 207.95C18.2756 208.1 18.327 208.243 18.4107 208.368C18.4945 208.493 18.6079 208.595 18.7409 208.665C18.8739 208.735 19.0222 208.771 19.1725 208.77C24.2471 208.833 32.1522 209.677 38.8141 213.602C38.9782 213.694 39.1666 213.732 39.3535 213.712C39.5403 213.692 39.7163 213.614 39.8571 213.49C39.9979 213.365 40.0965 213.2 40.1394 213.017C40.1823 212.834 40.1672 212.643 40.0964 212.468V212.5Z" fill="#1C364F"/>
<path d="M102.907 173.701V185.602H101.649C101.649 184.453 101.422 183.316 100.981 182.254C100.541 181.193 99.8956 180.229 99.0821 179.418C98.2686 178.607 97.303 177.964 96.2406 177.526C95.1783 177.089 94.04 176.865 92.8911 176.868H84.8531C84.6125 176.868 84.3818 176.964 84.2117 177.134C84.0416 177.304 83.946 177.535 83.946 177.775V227.129C83.946 227.37 84.0416 227.601 84.2117 227.771C84.3818 227.941 84.6125 228.036 84.8531 228.036H90.7018V229.319H69.3243V228.036H75.1339C75.3752 228.037 75.6067 227.941 75.7781 227.771C75.9494 227.601 76.0467 227.371 76.0487 227.129V177.775C76.0467 177.534 75.9494 177.303 75.7781 177.133C75.6067 176.963 75.3752 176.868 75.1339 176.868H67.1037C64.7866 176.868 62.5643 177.788 60.9251 179.426C59.2859 181.064 58.364 183.285 58.3619 185.602H57.0796V173.701H102.907Z" fill="#1C364F"/>
<path d="M163.959 175.867V227.129C163.959 227.37 164.054 227.601 164.225 227.771C164.395 227.941 164.625 228.036 164.866 228.036H170.683V229.319H149.345V228.036H155.155C155.274 228.037 155.393 228.015 155.504 227.97C155.615 227.925 155.716 227.858 155.801 227.774C155.886 227.689 155.954 227.589 156 227.478C156.046 227.368 156.069 227.249 156.069 227.129V207.503C156.069 207.384 156.046 207.265 156 207.155C155.954 207.044 155.886 206.944 155.801 206.859C155.716 206.775 155.615 206.708 155.504 206.663C155.393 206.618 155.274 206.595 155.155 206.596H124.762C124.642 206.595 124.523 206.618 124.412 206.663C124.301 206.708 124.2 206.775 124.115 206.859C124.03 206.944 123.963 207.044 123.917 207.155C123.871 207.265 123.847 207.384 123.847 207.503V227.129C123.847 227.249 123.871 227.368 123.917 227.478C123.963 227.589 124.03 227.689 124.115 227.774C124.2 227.858 124.301 227.925 124.412 227.97C124.523 228.015 124.642 228.037 124.762 228.036H130.579V229.319H109.233V228.036H115.05C115.291 228.036 115.522 227.941 115.692 227.771C115.862 227.601 115.957 227.37 115.957 227.129V175.867C115.957 175.627 115.862 175.396 115.692 175.226C115.522 175.056 115.291 174.96 115.05 174.96H109.233V173.67H130.579V174.96H124.769C124.65 174.959 124.531 174.982 124.42 175.027C124.309 175.072 124.208 175.139 124.123 175.223C124.038 175.308 123.971 175.408 123.924 175.518C123.878 175.629 123.855 175.748 123.855 175.867V202.241C123.855 202.484 123.951 202.717 124.123 202.888C124.294 203.06 124.527 203.156 124.769 203.156H155.155C155.397 203.156 155.63 203.06 155.801 202.888C155.973 202.717 156.069 202.484 156.069 202.241V175.867C156.069 175.748 156.046 175.629 156 175.518C155.954 175.408 155.886 175.308 155.801 175.223C155.716 175.139 155.615 175.072 155.504 175.027C155.393 174.982 155.274 174.959 155.155 174.96H149.345V173.67H170.691V174.96H164.874C164.754 174.958 164.634 174.98 164.523 175.025C164.412 175.07 164.31 175.136 164.225 175.221C164.14 175.305 164.072 175.406 164.027 175.517C163.981 175.628 163.958 175.747 163.959 175.867Z" fill="#1C364F"/>
<path d="M218.654 214.815L220.444 215.386L217.27 228.592C217.221 228.794 217.106 228.974 216.943 229.103C216.78 229.232 216.578 229.302 216.37 229.304H177.611V228.021H183.421C183.663 228.021 183.896 227.925 184.068 227.753C184.239 227.582 184.336 227.349 184.336 227.106V175.93C184.336 175.811 184.312 175.692 184.266 175.581C184.22 175.471 184.152 175.37 184.067 175.286C183.982 175.202 183.881 175.135 183.77 175.09C183.659 175.045 183.54 175.022 183.421 175.023H177.611V173.647H198.957V173.741H216.37C216.577 173.742 216.778 173.811 216.941 173.939C217.103 174.066 217.219 174.244 217.27 174.445L220.444 187.659L218.654 188.238C214.932 177.056 212 175.031 193.14 175.031C192.896 175.031 192.662 175.125 192.487 175.295C192.312 175.464 192.21 175.695 192.202 175.938V200.373C192.208 200.614 192.309 200.843 192.483 201.01C192.658 201.177 192.891 201.268 193.132 201.264H200.404C202.562 201.262 204.632 200.406 206.16 198.882C207.688 197.358 208.551 195.291 208.559 193.132H209.849V210.725H208.559C208.559 208.558 207.698 206.48 206.166 204.948C204.634 203.415 202.555 202.554 200.388 202.554H193.132C192.889 202.554 192.657 202.651 192.485 202.822C192.314 202.994 192.217 203.227 192.217 203.469V227.106C192.223 227.351 192.325 227.584 192.5 227.755C192.675 227.926 192.911 228.021 193.155 228.021C212 228.021 214.932 225.973 218.654 214.815Z" fill="#1C364F"/>
<path d="M284.349 173.701V174.984H281.902C281.659 174.984 281.427 175.08 281.255 175.252C281.084 175.423 280.987 175.656 280.987 175.899V228.42C280.987 228.66 280.892 228.891 280.722 229.061C280.551 229.231 280.321 229.327 280.08 229.327H274.982C274.843 229.326 274.705 229.293 274.58 229.231C274.456 229.168 274.347 229.078 274.263 228.967L238.092 181.849C237.975 181.7 237.814 181.591 237.633 181.537C237.451 181.483 237.257 181.487 237.078 181.548C236.899 181.609 236.743 181.724 236.631 181.877C236.52 182.031 236.459 182.215 236.457 182.404V227.129C236.457 227.37 236.553 227.601 236.723 227.771C236.893 227.941 237.124 228.036 237.364 228.036H239.804V229.319H229.921V228.036H232.368C232.609 228.036 232.841 227.941 233.012 227.771C233.184 227.601 233.281 227.371 233.283 227.129V175.93C233.281 175.688 233.184 175.456 233.013 175.285C232.842 175.114 232.61 175.017 232.368 175.015H229.921V173.701H241.305C241.446 173.701 241.585 173.733 241.711 173.795C241.838 173.858 241.947 173.949 242.032 174.061L276.194 218.575C276.308 218.728 276.468 218.842 276.65 218.899C276.832 218.956 277.028 218.954 277.209 218.893C277.39 218.833 277.548 218.716 277.659 218.561C277.77 218.406 277.829 218.219 277.828 218.028V175.93C277.828 175.81 277.805 175.691 277.759 175.58C277.713 175.469 277.645 175.368 277.56 175.283C277.475 175.198 277.375 175.131 277.264 175.085C277.153 175.039 277.034 175.015 276.913 175.015H274.45V173.733L284.349 173.701Z" fill="#1C364F"/>
<path d="M290.738 228.138V229.42H312.084V228.138H304.046L305.242 225.175C311.075 212.727 327.409 211.984 333.586 212.171C333.756 212.177 333.92 212.232 334.058 212.329C334.197 212.426 334.305 212.562 334.368 212.719L340.498 226.856C340.56 226.994 340.586 227.146 340.573 227.297C340.561 227.449 340.511 227.594 340.427 227.721C340.344 227.848 340.23 227.952 340.097 228.023C339.963 228.095 339.813 228.131 339.662 228.13H332.39V229.412H350.46V228.13H345.448C345.27 228.128 345.096 228.075 344.947 227.976C344.799 227.878 344.682 227.738 344.611 227.575L323.335 178.479L320.872 172.802H317.088L295.797 227.536C295.729 227.708 295.612 227.855 295.46 227.96C295.308 228.064 295.129 228.121 294.944 228.122L290.738 228.138ZM310.364 212.5L321.068 185.915C321.136 185.747 321.252 185.604 321.402 185.503C321.551 185.402 321.728 185.349 321.908 185.349C322.089 185.349 322.265 185.402 322.415 185.503C322.565 185.604 322.681 185.747 322.749 185.915L332.132 207.511C332.191 207.65 332.215 207.801 332.202 207.952C332.189 208.102 332.138 208.247 332.056 208.373C331.973 208.499 331.86 208.603 331.727 208.675C331.595 208.747 331.446 208.785 331.295 208.786C326.229 208.848 318.323 209.693 311.661 213.618C311.497 213.725 311.301 213.776 311.105 213.761C310.908 213.747 310.722 213.668 310.575 213.537C310.427 213.407 310.327 213.232 310.289 213.039C310.251 212.846 310.277 212.645 310.364 212.468V212.5Z" fill="#1C364F"/>
<path d="M252.706 42.1528L251.502 44.2093H98.9585L97.7466 42.1528H252.706Z" fill="#1C364F"/>
<path d="M252.706 146.632H97.7466L99.5528 143.543H250.9L252.706 146.632Z" fill="#1C364F"/>
<path d="M131.118 48.1267L130.141 50.1831H104.158L103.181 48.1267H131.118Z" fill="#1C364F"/>
<path d="M129.633 51.2622L128.171 54.3508H106.136L104.667 51.2622H129.633Z" fill="#1C364F"/>
<path d="M106.754 56.024H111.602V133.042H106.754V56.024Z" fill="#1C364F"/>
<path d="M114.722 56.024H119.562V133.042H114.722V56.024Z" fill="#1C364F"/>
<path d="M122.674 56.024H127.514V133.042H122.674V56.024Z" fill="#1C364F"/>
<path d="M145.49 56.024H150.33V133.042H145.49V56.024Z" fill="#1C364F"/>
<path d="M153.442 56.024H158.282V133.042H153.442V56.024Z" fill="#1C364F"/>
<path d="M161.402 56.024H166.242V133.042H161.402V56.024Z" fill="#1C364F"/>
<path d="M184.218 56.024H189.058V133.042H184.218V56.024Z" fill="#1C364F"/>
<path d="M192.17 56.024H197.041V133.042H192.201L192.17 56.024Z" fill="#1C364F"/>
<path d="M200.169 56.024H205.009V133.042H200.169V56.024Z" fill="#1C364F"/>
<path d="M222.938 56.024H227.786V133.042H222.938V56.024Z" fill="#1C364F"/>
<path d="M230.898 56.024H235.746V133.042H230.898V56.024Z" fill="#1C364F"/>
<path d="M238.85 56.024H243.69V133.042H238.85V56.024Z" fill="#1C364F"/>
<path d="M175.226 0L89.2158 38.9705H261.205L175.226 0ZM175.226 30.5415C173.989 30.5415 172.779 30.1746 171.751 29.4873C170.722 28.8 169.92 27.823 169.447 26.68C168.973 25.537 168.849 24.2793 169.091 23.0659C169.332 21.8524 169.928 20.7379 170.803 19.863C171.678 18.9882 172.792 18.3925 174.006 18.1511C175.219 17.9097 176.477 18.0336 177.62 18.5071C178.763 18.9805 179.74 19.7823 180.427 20.8109C181.114 21.8396 181.481 23.049 181.481 24.2862C181.481 25.9452 180.822 27.5363 179.649 28.7094C178.476 29.8825 176.885 30.5415 175.226 30.5415Z" fill="#1C364F"/>
<path d="M131.118 140.947L130.141 138.883H104.158L103.181 140.947H131.118Z" fill="#1C364F"/>
<path d="M129.633 137.804L128.171 134.716H106.136L104.667 137.804H129.633Z" fill="#1C364F"/>
<path d="M169.847 48.1267L168.869 50.1831H142.886L141.909 48.1267H169.847Z" fill="#1C364F"/>
<path d="M168.361 51.2622L166.898 54.3508H144.856L143.394 51.2622H168.361Z" fill="#1C364F"/>
<path d="M145.482 56.024H150.33V133.042H145.482V56.024Z" fill="#1C364F"/>
<path d="M153.45 56.024H158.29V133.042H153.45V56.024Z" fill="#1C364F"/>
<path d="M161.402 56.024H166.242V133.042H161.402V56.024Z" fill="#1C364F"/>
<path d="M169.847 140.939L168.869 138.883H142.886L141.909 140.939H169.847Z" fill="#1C364F"/>
<path d="M168.361 137.804L166.898 134.716H144.856L143.394 137.804H168.361Z" fill="#1C364F"/>
<path d="M208.567 48.1267L207.589 50.1831H181.599L180.621 48.1267H208.567Z" fill="#1C364F"/>
<path d="M207.074 51.2622L205.611 54.3508H183.577L182.115 51.2622H207.074Z" fill="#1C364F"/>
<path d="M184.202 56.024H189.042V133.042H184.202V56.024Z" fill="#1C364F"/>
<path d="M192.163 56.024H197.042V133.042H192.202L192.163 56.024Z" fill="#1C364F"/>
<path d="M200.115 56.024H204.955V133.042H200.115V56.024Z" fill="#1C364F"/>
<path d="M208.567 140.939L207.589 138.883H181.599L180.621 140.939H208.567Z" fill="#1C364F"/>
<path d="M207.074 137.804L205.611 134.716H183.577L182.115 137.804H207.074Z" fill="#1C364F"/>
<path d="M247.303 48.1267L246.325 50.1831H220.343L219.365 48.1267H247.303Z" fill="#1C364F"/>
<path d="M245.817 51.2622L244.355 54.3508H222.313L220.851 51.2622H245.817Z" fill="#1C364F"/>
<path d="M222.938 56.024H227.786V133.042H222.938V56.024Z" fill="#1C364F"/>
<path d="M230.898 56.024H235.746V133.042H230.898V56.024Z" fill="#1C364F"/>
<path d="M238.858 56.024H243.698V133.042H238.858V56.024Z" fill="#1C364F"/>
<path d="M247.303 140.939L246.325 138.883H220.343L219.365 140.939H247.303Z" fill="#1C364F"/>
<path d="M245.817 137.804L244.355 134.716H222.313L220.851 137.804H245.817Z" fill="#1C364F"/>
</svg>
