<svg width="431" height="310" viewBox="0 0 431 310" fill="none" xmlns="http://www.w3.org/2000/svg">
<g filter="url(#filter0_d_233_725)">
<path d="M99.7146 268.138V269.42H78.3684V268.138H86.4064L85.2101 265.19C79.3771 252.742 63.0508 251.999 56.8736 252.187C56.7046 252.194 56.541 252.249 56.4024 252.346C56.2638 252.443 56.156 252.578 56.0917 252.734L49.9616 266.871C49.9022 267.01 49.8781 267.161 49.8914 267.312C49.9048 267.462 49.9551 267.607 50.0379 267.733C50.1208 267.859 50.2335 267.963 50.3662 268.035C50.4988 268.107 50.6473 268.145 50.7982 268.146H58.0934V269.428H40V268.146H45.0042C45.1829 268.146 45.3575 268.093 45.5064 267.995C45.6552 267.896 45.7716 267.755 45.8409 267.591L67.1245 218.494L69.5875 212.802H73.372L94.6556 267.536C94.7228 267.708 94.8399 267.855 94.9918 267.96C95.1437 268.064 95.3235 268.121 95.5079 268.122L99.7146 268.138ZM80.0964 252.5L69.3921 225.915C69.3242 225.747 69.208 225.604 69.0582 225.503C68.9085 225.402 68.732 225.349 68.5515 225.349C68.3709 225.349 68.1945 225.402 68.0448 225.503C67.895 225.604 67.7788 225.747 67.7109 225.915L58.328 247.511C58.2697 247.65 58.2467 247.801 58.2612 247.95C58.2756 248.1 58.327 248.243 58.4107 248.368C58.4945 248.493 58.6079 248.595 58.7409 248.665C58.8739 248.735 59.0222 248.771 59.1725 248.77C64.2471 248.833 72.1522 249.677 78.8141 253.602C78.9782 253.694 79.1666 253.732 79.3535 253.712C79.5403 253.692 79.7163 253.614 79.8571 253.49C79.9979 253.365 80.0965 253.2 80.1394 253.017C80.1823 252.834 80.1672 252.643 80.0964 252.468V252.5Z" fill="#3F72A4"/>
<path d="M142.907 213.701V225.602H141.648C141.648 224.453 141.422 223.316 140.981 222.254C140.541 221.193 139.896 220.229 139.082 219.418C138.268 218.607 137.303 217.964 136.241 217.526C135.178 217.089 134.04 216.865 132.891 216.868H124.853C124.612 216.868 124.382 216.964 124.212 217.134C124.041 217.304 123.946 217.535 123.946 217.775V267.129C123.946 267.37 124.041 267.601 124.212 267.771C124.382 267.941 124.612 268.036 124.853 268.036H130.702V269.319H109.324V268.036H115.134C115.375 268.037 115.607 267.941 115.778 267.771C115.949 267.601 116.047 267.371 116.049 267.129V217.775C116.047 217.534 115.949 217.303 115.778 217.133C115.607 216.963 115.375 216.868 115.134 216.868H107.104C104.786 216.868 102.564 217.788 100.925 219.426C99.2858 221.064 98.3639 223.285 98.3618 225.602H97.0795V213.701H142.907Z" fill="#3F72A4"/>
<path d="M203.959 215.867V267.129C203.959 267.37 204.054 267.601 204.225 267.771C204.395 267.941 204.625 268.036 204.866 268.036H210.683V269.319H189.345V268.036H195.155C195.274 268.037 195.393 268.015 195.504 267.97C195.615 267.925 195.716 267.858 195.801 267.774C195.886 267.689 195.954 267.589 196 267.478C196.046 267.368 196.069 267.249 196.069 267.129V247.503C196.069 247.384 196.046 247.265 196 247.155C195.954 247.044 195.886 246.944 195.801 246.859C195.716 246.775 195.615 246.708 195.504 246.663C195.393 246.618 195.274 246.595 195.155 246.596H164.762C164.642 246.595 164.523 246.618 164.412 246.663C164.301 246.708 164.2 246.775 164.115 246.859C164.03 246.944 163.963 247.044 163.917 247.155C163.871 247.265 163.847 247.384 163.847 247.503V267.129C163.847 267.249 163.871 267.368 163.917 267.478C163.963 267.589 164.03 267.689 164.115 267.774C164.2 267.858 164.301 267.925 164.412 267.97C164.523 268.015 164.642 268.037 164.762 268.036H170.579V269.319H149.233V268.036H155.05C155.291 268.036 155.522 267.941 155.692 267.771C155.862 267.601 155.957 267.37 155.957 267.129V215.867C155.957 215.627 155.862 215.396 155.692 215.226C155.522 215.056 155.291 214.96 155.05 214.96H149.233V213.67H170.579V214.96H164.769C164.65 214.959 164.531 214.982 164.42 215.027C164.309 215.072 164.208 215.139 164.123 215.223C164.038 215.308 163.97 215.408 163.924 215.518C163.878 215.629 163.855 215.748 163.855 215.867V242.241C163.855 242.484 163.951 242.717 164.123 242.888C164.294 243.06 164.527 243.156 164.769 243.156H195.155C195.397 243.156 195.63 243.06 195.801 242.888C195.973 242.717 196.069 242.484 196.069 242.241V215.867C196.069 215.748 196.046 215.629 196 215.518C195.954 215.408 195.886 215.308 195.801 215.223C195.716 215.139 195.615 215.072 195.504 215.027C195.393 214.982 195.274 214.959 195.155 214.96H189.345V213.67H210.691V214.96H204.874C204.754 214.958 204.634 214.98 204.523 215.025C204.412 215.07 204.31 215.136 204.225 215.221C204.14 215.305 204.072 215.406 204.027 215.517C203.981 215.628 203.958 215.747 203.959 215.867Z" fill="#3F72A4"/>
<path d="M258.654 254.815L260.444 255.386L257.27 268.592C257.221 268.794 257.106 268.974 256.943 269.103C256.78 269.232 256.578 269.302 256.37 269.304H217.611V268.021H223.421C223.663 268.021 223.896 267.925 224.068 267.753C224.239 267.582 224.336 267.349 224.336 267.106V215.93C224.336 215.811 224.312 215.692 224.266 215.581C224.22 215.471 224.152 215.37 224.067 215.286C223.982 215.202 223.881 215.135 223.77 215.09C223.659 215.045 223.54 215.022 223.421 215.023H217.611V213.647H238.957V213.741H256.37C256.577 213.742 256.778 213.811 256.941 213.939C257.103 214.066 257.219 214.244 257.27 214.445L260.444 227.659L258.654 228.238C254.932 217.056 252 215.031 233.14 215.031C232.896 215.031 232.662 215.125 232.487 215.295C232.312 215.464 232.21 215.695 232.202 215.938V240.373C232.208 240.614 232.309 240.843 232.483 241.01C232.658 241.177 232.891 241.268 233.132 241.264H240.404C242.562 241.262 244.632 240.406 246.16 238.882C247.688 237.358 248.551 235.291 248.559 233.132H249.849V250.725H248.559C248.559 248.558 247.698 246.48 246.166 244.948C244.634 243.415 242.555 242.554 240.388 242.554H233.132C232.889 242.554 232.657 242.651 232.485 242.822C232.314 242.994 232.217 243.227 232.217 243.469V267.106C232.223 267.351 232.325 267.584 232.5 267.755C232.675 267.926 232.911 268.021 233.156 268.021C252 268.021 254.932 265.973 258.654 254.815Z" fill="#3F72A4"/>
<path d="M324.349 213.701V214.984H321.902C321.659 214.984 321.427 215.08 321.255 215.252C321.083 215.423 320.987 215.656 320.987 215.899V268.42C320.987 268.66 320.892 268.891 320.721 269.061C320.551 269.231 320.321 269.327 320.08 269.327H314.982C314.843 269.326 314.705 269.293 314.58 269.231C314.456 269.168 314.347 269.078 314.263 268.967L278.092 221.849C277.975 221.7 277.814 221.591 277.633 221.537C277.451 221.483 277.257 221.487 277.078 221.548C276.899 221.609 276.743 221.724 276.631 221.877C276.52 222.031 276.459 222.215 276.457 222.404V267.129C276.457 267.37 276.553 267.601 276.723 267.771C276.893 267.941 277.124 268.036 277.364 268.036H279.804V269.319H269.921V268.036H272.368C272.609 268.036 272.841 267.941 273.012 267.771C273.183 267.601 273.281 267.371 273.283 267.129V215.93C273.281 215.688 273.184 215.456 273.013 215.285C272.841 215.114 272.61 215.017 272.368 215.015H269.921V213.701H281.305C281.446 213.701 281.585 213.733 281.711 213.795C281.837 213.858 281.947 213.949 282.032 214.061L316.194 258.575C316.308 258.728 316.468 258.842 316.65 258.899C316.832 258.956 317.028 258.954 317.209 258.893C317.39 258.833 317.548 258.716 317.659 258.561C317.77 258.406 317.829 258.219 317.828 258.028V215.93C317.828 215.81 317.805 215.691 317.759 215.58C317.713 215.469 317.645 215.368 317.56 215.283C317.475 215.198 317.374 215.131 317.263 215.085C317.152 215.039 317.033 215.015 316.913 215.015H314.45V213.733L324.349 213.701Z" fill="#3F72A4"/>
<path d="M330.738 268.138V269.42H352.084V268.138H344.046L345.242 265.175C351.075 252.727 367.409 251.984 373.586 252.171C373.756 252.177 373.92 252.232 374.058 252.329C374.197 252.426 374.305 252.562 374.368 252.719L380.498 266.856C380.56 266.994 380.586 267.146 380.573 267.297C380.561 267.449 380.511 267.594 380.427 267.721C380.344 267.848 380.231 267.952 380.097 268.023C379.963 268.095 379.813 268.131 379.662 268.13H372.39V269.412H390.46V268.13H385.448C385.27 268.128 385.096 268.075 384.947 267.976C384.799 267.878 384.682 267.738 384.611 267.575L363.335 218.479L360.872 212.802H357.088L335.797 267.536C335.729 267.708 335.612 267.855 335.46 267.96C335.308 268.064 335.129 268.121 334.944 268.122L330.738 268.138ZM350.364 252.5L361.068 225.915C361.136 225.747 361.252 225.604 361.402 225.503C361.552 225.402 361.728 225.349 361.909 225.349C362.089 225.349 362.265 225.402 362.415 225.503C362.565 225.604 362.681 225.747 362.749 225.915L372.132 247.511C372.191 247.65 372.215 247.801 372.202 247.952C372.189 248.102 372.138 248.247 372.056 248.373C371.973 248.499 371.86 248.603 371.727 248.675C371.595 248.747 371.446 248.785 371.295 248.786C366.229 248.848 358.323 249.693 351.662 253.618C351.497 253.725 351.301 253.776 351.105 253.761C350.908 253.747 350.722 253.668 350.575 253.537C350.427 253.407 350.327 253.232 350.289 253.039C350.251 252.846 350.277 252.645 350.364 252.468V252.5Z" fill="#3F72A4"/>
<path d="M292.706 82.1528L291.502 84.2093H138.959L137.747 82.1528H292.706Z" fill="#3F72A4"/>
<path d="M292.706 186.632H137.747L139.553 183.543H290.9L292.706 186.632Z" fill="#3F72A4"/>
<path d="M171.118 88.1267L170.141 90.1831H144.158L143.181 88.1267H171.118Z" fill="#3F72A4"/>
<path d="M169.633 91.2622L168.171 94.3508H146.137L144.667 91.2622H169.633Z" fill="#3F72A4"/>
<path d="M146.754 96.024H151.602V173.042H146.754V96.024Z" fill="#3F72A4"/>
<path d="M154.722 96.024H159.562V173.042H154.722V96.024Z" fill="#3F72A4"/>
<path d="M162.674 96.024H167.514V173.042H162.674V96.024Z" fill="#3F72A4"/>
<path d="M185.49 96.024H190.33V173.042H185.49V96.024Z" fill="#3F72A4"/>
<path d="M193.442 96.024H198.282V173.042H193.442V96.024Z" fill="#3F72A4"/>
<path d="M201.402 96.024H206.242V173.042H201.402V96.024Z" fill="#3F72A4"/>
<path d="M224.218 96.024H229.058V173.042H224.218V96.024Z" fill="#3F72A4"/>
<path d="M232.17 96.024H237.041V173.042H232.201L232.17 96.024Z" fill="#3F72A4"/>
<path d="M240.169 96.024H245.009V173.042H240.169V96.024Z" fill="#3F72A4"/>
<path d="M262.939 96.024H267.786V173.042H262.939V96.024Z" fill="#3F72A4"/>
<path d="M270.898 96.024H275.746V173.042H270.898V96.024Z" fill="#3F72A4"/>
<path d="M278.85 96.024H283.69V173.042H278.85V96.024Z" fill="#3F72A4"/>
<path d="M215.226 40L129.216 78.9705H301.205L215.226 40ZM215.226 70.5415C213.989 70.5415 212.779 70.1746 211.751 69.4873C210.722 68.8 209.92 67.823 209.447 66.68C208.973 65.537 208.85 64.2793 209.091 63.0659C209.332 61.8524 209.928 60.7379 210.803 59.863C211.678 58.9882 212.792 58.3925 214.006 58.1511C215.219 57.9097 216.477 58.0336 217.62 58.5071C218.763 58.9805 219.74 59.7823 220.427 60.8109C221.114 61.8396 221.481 63.049 221.481 64.2862C221.481 65.9452 220.822 67.5363 219.649 68.7094C218.476 69.8825 216.885 70.5415 215.226 70.5415Z" fill="#3F72A4"/>
<path d="M171.118 180.947L170.141 178.883H144.158L143.181 180.947H171.118Z" fill="#3F72A4"/>
<path d="M169.633 177.804L168.171 174.716H146.137L144.667 177.804H169.633Z" fill="#3F72A4"/>
<path d="M209.846 88.1267L208.869 90.1831H182.886L181.909 88.1267H209.846Z" fill="#3F72A4"/>
<path d="M208.361 91.2622L206.899 94.3508H184.856L183.394 91.2622H208.361Z" fill="#3F72A4"/>
<path d="M185.482 96.024H190.33V173.042H185.482V96.024Z" fill="#3F72A4"/>
<path d="M193.45 96.024H198.29V173.042H193.45V96.024Z" fill="#3F72A4"/>
<path d="M201.402 96.024H206.242V173.042H201.402V96.024Z" fill="#3F72A4"/>
<path d="M209.846 180.939L208.869 178.883H182.886L181.909 180.939H209.846Z" fill="#3F72A4"/>
<path d="M208.361 177.804L206.899 174.716H184.856L183.394 177.804H208.361Z" fill="#3F72A4"/>
<path d="M248.567 88.1267L247.59 90.1831H221.599L220.621 88.1267H248.567Z" fill="#3F72A4"/>
<path d="M247.074 91.2622L245.611 94.3508H223.577L222.115 91.2622H247.074Z" fill="#3F72A4"/>
<path d="M224.202 96.024H229.042V173.042H224.202V96.024Z" fill="#3F72A4"/>
<path d="M232.163 96.024H237.042V173.042H232.202L232.163 96.024Z" fill="#3F72A4"/>
<path d="M240.115 96.024H244.955V173.042H240.115V96.024Z" fill="#3F72A4"/>
<path d="M248.567 180.939L247.59 178.883H221.599L220.621 180.939H248.567Z" fill="#3F72A4"/>
<path d="M247.074 177.804L245.611 174.716H223.577L222.115 177.804H247.074Z" fill="#3F72A4"/>
<path d="M287.303 88.1267L286.325 90.1831H260.342L259.365 88.1267H287.303Z" fill="#3F72A4"/>
<path d="M285.817 91.2622L284.355 94.3508H262.313L260.851 91.2622H285.817Z" fill="#3F72A4"/>
<path d="M262.939 96.024H267.786V173.042H262.939V96.024Z" fill="#3F72A4"/>
<path d="M270.898 96.024H275.746V173.042H270.898V96.024Z" fill="#3F72A4"/>
<path d="M278.858 96.024H283.698V173.042H278.858V96.024Z" fill="#3F72A4"/>
<path d="M287.303 180.939L286.325 178.883H260.342L259.365 180.939H287.303Z" fill="#3F72A4"/>
<path d="M285.817 177.804L284.355 174.716H262.313L260.851 177.804H285.817Z" fill="#3F72A4"/>
</g>
<defs>
<filter id="filter0_d_233_725" x="0" y="0" width="430.46" height="309.428" filterUnits="userSpaceOnUse" color-interpolation-filters="sRGB">
<feFlood flood-opacity="0" result="BackgroundImageFix"/>
<feColorMatrix in="SourceAlpha" type="matrix" values="0 0 0 0 0 0 0 0 0 0 0 0 0 0 0 0 0 0 127 0" result="hardAlpha"/>
<feOffset/>
<feGaussianBlur stdDeviation="20"/>
<feComposite in2="hardAlpha" operator="out"/>
<feColorMatrix type="matrix" values="0 0 0 0 0.909804 0 0 0 0 0.952941 0 0 0 0 1 0 0 0 1 0"/>
<feBlend mode="normal" in2="BackgroundImageFix" result="effect1_dropShadow_233_725"/>
<feBlend mode="normal" in="SourceGraphic" in2="effect1_dropShadow_233_725" result="shape"/>
</filter>
</defs>
</svg>
