<svg width="20" height="22" viewBox="0 0 20 22" fill="none" xmlns="http://www.w3.org/2000/svg">
<path d="M16.9087 3.98C16.1176 4.57874 15.169 4.92672 14.1827 4.98C15.3747 4.4984 16.3347 3.56588 16.8593 2.38C16.9185 2.26 16.5531 2.09 16.4346 2.04C16.4061 2.02664 16.3753 2.01915 16.3439 2.01796C16.3125 2.01677 16.2812 2.02191 16.2518 2.03307C16.2224 2.04424 16.1955 2.06121 16.1726 2.083C16.1497 2.10479 16.1313 2.13096 16.1185 2.16C15.779 3.08726 15.1382 3.87009 14.3013 4.38C14.9954 3.02464 15.3738 1.52635 15.4074 0H4.67163C4.67941 1.92908 5.29917 3.80459 6.43953 5.35H13.6494C13.9989 5.45375 14.3617 5.50431 14.7259 5.5C15.6224 5.47999 16.4978 5.22132 17.2642 4.75C17.3729 4.69 17.2642 4.19 17.2642 4.07C17.2492 4.03792 17.2274 4.00961 17.2003 3.9871C17.1732 3.9646 17.1415 3.94846 17.1075 3.93985C17.0735 3.93125 17.038 3.93038 17.0036 3.93732C16.9692 3.94427 16.9368 3.95884 16.9087 3.98Z" fill="#3F72A4"/>
<path d="M13.7284 5.89014H6.35062C4.48186 6.63252 2.87689 7.92693 1.74433 9.6051C0.611762 11.2833 0.00398594 13.2676 0 15.3001C0 20.8901 4.47407 21.3701 9.99506 21.3701C15.516 21.3701 20 20.8901 20 15.3001C20.0023 13.2769 19.4061 11.2992 18.2884 9.62208C17.1706 7.94493 15.5824 6.64512 13.7284 5.89014ZM12.7407 15.0701C12.6857 15.5998 12.4508 16.0938 12.0762 16.4676C11.7015 16.8415 11.2103 17.0721 10.6864 17.1201V18.4101H9.49135V17.2201C8.7264 17.1771 7.97762 16.9799 7.28889 16.6401L7.75308 15.1801C8.13375 15.3801 8.53893 15.5281 8.95802 15.6201C9.6 15.7601 10.7259 15.7201 10.8642 15.1101C11.0025 14.5001 10.6074 14.2801 9.8074 14.0501C9.0074 13.8201 7.62469 13.1601 7.49629 12.0501C7.3679 10.9401 7.89136 9.94014 9.4716 9.60014V8.37014H10.7062V9.52014C11.3042 9.55697 11.8919 9.69558 12.4444 9.93014L12.1481 11.2701C11.5103 11.0558 10.8447 10.9378 10.1728 10.9201C9.35308 10.9801 9.3037 11.8201 9.88642 12.2001C10.5243 12.5531 11.1841 12.8638 11.8617 13.1301C12.1859 13.3261 12.4453 13.615 12.6071 13.9604C12.7688 14.3058 12.8257 14.692 12.7704 15.0701H12.7407Z" fill="#3F72A4"/>
</svg>
