<svg width="25" height="25" viewBox="0 0 25 25" fill="none" xmlns="http://www.w3.org/2000/svg">
<circle cx="12.5" cy="12.5" r="12" fill="#3F72A4" stroke="#E0EEFF"/>
<path d="M13.3 16.214H10.738V15.731C10.752 15.017 10.913 14.387 11.221 13.841C11.529 13.295 12.054 12.721 12.796 12.119C13.398 11.629 13.79 11.244 13.972 10.964C14.154 10.67 14.245 10.285 14.245 9.809C14.245 9.137 14.035 8.577 13.615 8.129C13.209 7.667 12.698 7.436 12.082 7.436C11.424 7.436 10.878 7.695 10.444 8.213C10.024 8.717 9.814 9.368 9.814 10.166V10.439H7C7.028 8.871 7.35 7.674 7.966 6.848C8.876 5.616 10.227 5 12.019 5C13.657 5 14.952 5.497 15.904 6.491C16.73 7.359 17.143 8.458 17.143 9.788C17.143 10.642 16.968 11.349 16.618 11.909C16.282 12.455 15.631 13.071 14.665 13.757C14.021 14.205 13.629 14.555 13.489 14.807C13.363 15.045 13.3 15.514 13.3 16.214ZM12.061 17.663C12.453 17.663 12.775 17.796 13.027 18.062C13.293 18.314 13.426 18.629 13.426 19.007C13.426 19.385 13.293 19.707 13.027 19.973C12.761 20.239 12.439 20.372 12.061 20.372C11.697 20.372 11.382 20.239 11.116 19.973C10.85 19.707 10.717 19.385 10.717 19.007C10.717 18.629 10.85 18.314 11.116 18.062C11.382 17.796 11.697 17.663 12.061 17.663Z" fill="#E8F3FF"/>
</svg>
