<svg width="228" height="43" viewBox="0 0 228 43" fill="none" xmlns="http://www.w3.org/2000/svg">
<path d="M84.8336 41.4849V42.1105H74.2897V41.4849H78.1997L77.6132 40.0252C74.7458 33.9126 66.7304 33.5086 63.6936 33.6389C63.6078 33.6371 63.5237 33.6627 63.4534 33.7119C63.3831 33.7611 63.3303 33.8314 63.3026 33.9126L60.2919 40.8593C60.2644 40.928 60.2541 41.0024 60.2617 41.076C60.2694 41.1496 60.2949 41.2203 60.3359 41.2819C60.377 41.3434 60.4324 41.3941 60.4974 41.4295C60.5624 41.4649 60.635 41.4839 60.709 41.4849H64.2932V42.1105H55.4827V41.4849H57.946C58.0327 41.4839 58.1172 41.4574 58.189 41.4087C58.2609 41.3601 58.3168 41.2914 58.35 41.2112L68.7766 17.0737L70.0278 14.3367H71.8785L82.3051 41.2503C82.34 41.333 82.3978 41.4039 82.4717 41.4548C82.5456 41.5056 82.6325 41.5341 82.7222 41.5371L84.8336 41.4849ZM75.189 33.7823L69.9757 20.749C69.9425 20.6674 69.8857 20.5974 69.8126 20.5482C69.7394 20.499 69.6533 20.4727 69.5651 20.4727C69.477 20.4727 69.3908 20.499 69.3177 20.5482C69.2445 20.5974 69.1877 20.6674 69.1546 20.749L64.5017 31.2799C64.4712 31.3474 64.4581 31.4215 64.4636 31.4954C64.4691 31.5692 64.4931 31.6405 64.5333 31.7028C64.5735 31.765 64.6286 31.8162 64.6937 31.8516C64.7587 31.887 64.8316 31.9055 64.9057 31.9055C68.2733 31.8701 71.5953 32.6861 74.5634 34.2775C74.6383 34.3138 74.722 34.3283 74.8048 34.3192C74.8876 34.3101 74.9662 34.2778 75.0315 34.2261C75.0968 34.1744 75.1462 34.1054 75.1741 34.0269C75.2019 33.9484 75.2071 33.8636 75.189 33.7823Z" fill="#3F72A4"/>
<path d="M106.065 14.7275V20.5795H105.426C105.428 20.0153 105.318 19.4563 105.103 18.9345C104.889 18.4128 104.573 17.9386 104.175 17.539C103.776 17.1395 103.303 16.8224 102.782 16.6061C102.261 16.3898 101.702 16.2785 101.138 16.2785H97.2281C97.1094 16.2819 96.9967 16.3314 96.914 16.4166C96.8312 16.5018 96.785 16.6159 96.785 16.7347V40.9896C96.785 41.1071 96.8317 41.2198 96.9148 41.3029C96.9979 41.386 97.1106 41.4327 97.2281 41.4327H100.082V42.0583H89.5516V41.4327H92.4058C92.5246 41.4327 92.6387 41.3865 92.7239 41.3037C92.8091 41.221 92.8586 41.1083 92.862 40.9896V16.7347C92.862 16.6137 92.8139 16.4977 92.7284 16.4121C92.6428 16.3266 92.5268 16.2785 92.4058 16.2785H88.4959C87.3552 16.2785 86.2612 16.7316 85.4546 17.5382C84.648 18.3448 84.1949 19.4388 84.1949 20.5795H83.5432V14.7275H106.065Z" fill="#3F72A4"/>
<path d="M136.067 15.7964V40.9897C136.067 41.1072 136.114 41.2199 136.197 41.303C136.28 41.3861 136.393 41.4328 136.51 41.4328H139.378V42.0584H128.951V41.4328H131.805C131.923 41.4328 132.035 41.3861 132.119 41.303C132.202 41.2199 132.248 41.1072 132.248 40.9897V31.345C132.248 31.2263 132.202 31.1122 132.119 31.027C132.037 30.9418 131.924 30.8923 131.805 30.8889H116.804C116.685 30.8923 116.573 30.9418 116.49 31.027C116.407 31.1122 116.361 31.2263 116.361 31.345V40.9897C116.361 41.1072 116.408 41.2199 116.491 41.303C116.574 41.3861 116.686 41.4328 116.804 41.4328H119.658V42.0584H109.232V41.4328H112.086C112.205 41.4328 112.319 41.3866 112.404 41.3038C112.489 41.2211 112.539 41.1084 112.542 40.9897V15.7964C112.542 15.6754 112.494 15.5594 112.409 15.4738C112.323 15.3883 112.207 15.3402 112.086 15.3402H109.167V14.7146H119.593V15.3402H116.804C116.685 15.3436 116.573 15.3931 116.49 15.4783C116.407 15.5635 116.361 15.6776 116.361 15.7964V28.7514C116.361 28.8689 116.408 28.9817 116.491 29.0648C116.574 29.1479 116.686 29.1946 116.804 29.1946H131.74C131.858 29.1946 131.97 29.1479 132.053 29.0648C132.137 28.9817 132.183 28.8689 132.183 28.7514V15.7964C132.183 15.6776 132.137 15.5635 132.054 15.4783C131.972 15.3931 131.859 15.3436 131.74 15.3402H128.886V14.7146H139.312V15.3402H136.445C136.337 15.3562 136.238 15.4116 136.169 15.4958C136.099 15.58 136.063 15.6871 136.067 15.7964Z" fill="#3F72A4"/>
<path d="M162.916 34.9292L163.789 35.2159L162.225 41.7325C162.204 41.8315 162.15 41.9203 162.072 41.9843C161.994 42.0483 161.896 42.0836 161.795 42.0844H142.779V41.4458H145.634C145.752 41.4459 145.866 41.3996 145.952 41.3168C146.037 41.2341 146.086 41.1214 146.09 41.0027V15.8224C146.09 15.7014 146.042 15.5854 145.956 15.4999C145.871 15.4143 145.755 15.3663 145.634 15.3663H142.779V14.6885H153.206H161.769C161.87 14.6868 161.969 14.7213 162.048 14.7857C162.127 14.8501 162.18 14.9404 162.199 15.0404L163.763 21.5571L162.89 21.8308C161.052 16.3438 159.618 15.3141 150.352 15.3141C150.229 15.3141 150.112 15.3617 150.024 15.4469C149.937 15.5321 149.886 15.6481 149.882 15.7703V27.7739C149.886 27.8926 149.935 28.0053 150.021 28.0881C150.106 28.1708 150.22 28.2171 150.339 28.2171H153.91C154.974 28.2171 155.995 27.7941 156.748 27.0413C157.501 26.2885 157.924 25.2675 157.924 24.2028H158.563V32.8699H157.924C157.924 31.8053 157.501 30.7842 156.748 30.0314C155.995 29.2786 154.974 28.8557 153.91 28.8557H150.404C150.285 28.8556 150.171 28.9019 150.086 28.9847C150.001 29.0674 149.951 29.1801 149.948 29.2988V40.9245C149.949 40.9844 149.963 41.0434 149.987 41.0981C150.012 41.1528 150.047 41.2021 150.09 41.2433C150.134 41.2844 150.185 41.3166 150.241 41.3379C150.297 41.3593 150.357 41.3693 150.417 41.3676C159.683 41.4197 161.13 40.4031 162.916 34.9292Z" fill="#3F72A4"/>
<path d="M195.238 14.7276V15.3532H194.039C193.918 15.3532 193.802 15.4013 193.717 15.4868C193.631 15.5724 193.583 15.6884 193.583 15.8094V41.6152C193.583 41.734 193.537 41.8481 193.454 41.9333C193.371 42.0185 193.259 42.068 193.14 42.0714H190.637C190.568 42.0726 190.5 42.0565 190.438 42.0247C190.377 41.9928 190.324 41.9462 190.286 41.8889L172.508 18.7289C172.449 18.6574 172.37 18.6055 172.281 18.5801C172.192 18.5547 172.097 18.557 172.01 18.5867C171.922 18.6164 171.845 18.6721 171.79 18.7464C171.735 18.8207 171.703 18.91 171.7 19.0026V40.9897C171.7 41.1072 171.747 41.2199 171.83 41.303C171.913 41.3861 172.026 41.4328 172.143 41.4328H173.342V42.0584H168.494V41.4328H169.693C169.81 41.4328 169.923 41.3861 170.006 41.303C170.089 41.2199 170.136 41.1072 170.136 40.9897V15.8094C170.136 15.6906 170.09 15.5766 170.007 15.4914C169.924 15.4062 169.812 15.3566 169.693 15.3532H168.494V14.7146H174.085C174.153 14.7141 174.22 14.7291 174.281 14.7585C174.342 14.7878 174.395 14.8308 174.437 14.884L191.237 36.7669C191.293 36.8407 191.372 36.895 191.461 36.9218C191.55 36.9487 191.645 36.9469 191.733 36.9166C191.821 36.8863 191.897 36.8291 191.951 36.7531C192.005 36.6771 192.033 36.5862 192.032 36.4932V15.8094C192.032 15.6906 191.986 15.5766 191.903 15.4914C191.82 15.4062 191.708 15.3566 191.589 15.3532H190.377V14.7276H195.238Z" fill="#3F72A4"/>
<path d="M198.379 41.4849V42.1105H208.806V41.4849H204.896L205.482 40.0252C208.349 33.9126 216.378 33.5086 219.415 33.6389C219.498 33.6398 219.579 33.6667 219.647 33.7157C219.715 33.7647 219.766 33.8335 219.793 33.9126L222.868 40.8593C222.899 40.9268 222.912 41.0009 222.906 41.0748C222.901 41.1487 222.877 41.22 222.837 41.2822C222.797 41.3444 222.742 41.3956 222.676 41.431C222.611 41.4664 222.538 41.485 222.464 41.4849H218.88V42.1105H227.756V41.4849H225.293C225.206 41.4823 225.122 41.4551 225.051 41.4067C224.979 41.3582 224.923 41.2904 224.889 41.2112L214.462 17.0737L213.185 14.3367H211.334L200.907 41.2503C200.874 41.334 200.816 41.4058 200.742 41.4569C200.668 41.5079 200.58 41.5358 200.49 41.5371L198.379 41.4849ZM208.024 33.7823L213.237 20.749C213.27 20.6674 213.327 20.5974 213.4 20.5482C213.473 20.499 213.559 20.4727 213.647 20.4727C213.736 20.4727 213.822 20.499 213.895 20.5482C213.968 20.5974 214.025 20.6674 214.058 20.749L218.711 31.2799C218.741 31.3474 218.754 31.4215 218.749 31.4954C218.743 31.5692 218.719 31.6405 218.679 31.7028C218.639 31.765 218.584 31.8162 218.519 31.8516C218.454 31.887 218.381 31.9055 218.307 31.9055C214.943 31.8701 211.626 32.6861 208.662 34.2775C208.587 34.3176 208.501 34.335 208.416 34.3277C208.331 34.3204 208.25 34.2887 208.183 34.2364C208.115 34.184 208.064 34.1134 208.036 34.0328C208.008 33.9523 208.004 33.8653 208.024 33.7823Z" fill="#3F72A4"/>
<path d="M46.9329 12.1079L46.594 12.6944H2.77612L2.43726 12.1079H46.9329Z" fill="#3F72A4"/>
<path d="M46.9329 42.1104H2.43726L2.95859 41.2241H46.4246L46.9329 42.1104Z" fill="#3F72A4"/>
<path d="M12.0168 13.8152L11.7431 14.4147H4.27501L3.98828 13.8152H12.0168Z" fill="#3F72A4"/>
<path d="M11.5865 14.7146L11.1694 15.6139H4.84831L4.41821 14.7146H11.5865Z" fill="#3F72A4"/>
<path d="M5.01782 16.083H6.41238V38.2395H5.01782V16.083Z" fill="#3F72A4"/>
<path d="M7.31177 16.083H8.6933V38.2395H7.31177V16.083Z" fill="#3F72A4"/>
<path d="M9.59253 16.083H10.9871V38.2395H9.59253V16.083Z" fill="#3F72A4"/>
<path d="M16.1482 16.083H17.5297V38.2395H16.1482V16.083Z" fill="#3F72A4"/>
<path d="M18.429 16.083H19.8235V38.2395H18.429V16.083Z" fill="#3F72A4"/>
<path d="M20.71 16.083H22.1567V38.2395H20.71V16.083Z" fill="#3F72A4"/>
<path d="M27.2656 16.083H28.6732V38.2395H27.2656V16.083Z" fill="#3F72A4"/>
<path d="M29.5464 16.083H30.9409V38.2395H29.5464V16.083Z" fill="#3F72A4"/>
<path d="M31.8403 16.083H33.2219V38.2395H31.8403V16.083Z" fill="#3F72A4"/>
<path d="M38.3828 16.083H39.7774V38.2395H38.3828V16.083Z" fill="#3F72A4"/>
<path d="M40.6768 16.083H42.0583V38.2395H40.6768V16.083Z" fill="#3F72A4"/>
<path d="M43.0098 16.083H44.3131V38.2395H43.0098V16.083Z" fill="#3F72A4"/>
<path d="M24.685 0L0 11.1956H49.37L24.685 0ZM24.685 8.77139C24.2361 8.73308 23.8179 8.52768 23.5132 8.19583C23.2085 7.86398 23.0394 7.42985 23.0394 6.97932C23.0394 6.52878 23.2085 6.09465 23.5132 5.7628C23.8179 5.43096 24.2361 5.22556 24.685 5.18724C24.9332 5.16606 25.1831 5.19666 25.4188 5.2771C25.6546 5.35754 25.871 5.48607 26.0545 5.65454C26.238 5.82302 26.3844 6.02777 26.4846 6.25581C26.5848 6.48386 26.6366 6.73023 26.6366 6.97932C26.6366 7.22841 26.5848 7.47478 26.4846 7.70282C26.3844 7.93087 26.238 8.13562 26.0545 8.30409C25.871 8.47257 25.6546 8.6011 25.4188 8.68154C25.1831 8.76198 24.9332 8.79258 24.685 8.77139Z" fill="#3F72A4"/>
<path d="M12.0168 40.4814L11.7431 39.8818H4.27501L3.98828 40.4814H12.0168Z" fill="#3F72A4"/>
<path d="M11.5865 39.5689L11.1694 38.6826H4.84831L4.41821 39.5689H11.5865Z" fill="#3F72A4"/>
<path d="M23.1341 13.8152L22.8604 14.4147H15.3924L15.1187 13.8152H23.1341Z" fill="#3F72A4"/>
<path d="M22.7169 14.7146L22.2998 15.6139H15.9656L15.5486 14.7146H22.7169Z" fill="#3F72A4"/>
<path d="M16.1482 16.083H17.5297V38.2395H16.1482V16.083Z" fill="#3F72A4"/>
<path d="M18.429 16.083H19.8235V38.2395H18.429V16.083Z" fill="#3F72A4"/>
<path d="M20.71 16.083H22.1567V38.2395H20.71V16.083Z" fill="#3F72A4"/>
<path d="M23.1341 40.4814L22.8604 39.8818H15.3924L15.1187 40.4814H23.1341Z" fill="#3F72A4"/>
<path d="M22.7169 39.5689L22.2998 38.6826H15.9656L15.5486 39.5689H22.7169Z" fill="#3F72A4"/>
<path d="M34.2643 13.8152L33.9776 14.4147H26.5095L26.2358 13.8152H34.2643Z" fill="#3F72A4"/>
<path d="M33.8343 14.7146L33.4172 15.6139H27.0831L26.666 14.7146H33.8343Z" fill="#3F72A4"/>
<path d="M27.2656 16.083H28.6732V38.2395H27.2656V16.083Z" fill="#3F72A4"/>
<path d="M29.5464 16.083H30.9409V38.2395H29.5464V16.083Z" fill="#3F72A4"/>
<path d="M31.8271 16.083H33.2217V38.2395H31.8271V16.083Z" fill="#3F72A4"/>
<path d="M34.2643 40.4814L33.9776 39.8818H26.5095L26.2358 40.4814H34.2643Z" fill="#3F72A4"/>
<path d="M33.8343 39.5689L33.4172 38.6826H27.0831L26.666 39.5689H33.8343Z" fill="#3F72A4"/>
<path d="M45.3817 13.8152L45.108 14.4147H37.6399L37.3662 13.8152H45.3817Z" fill="#3F72A4"/>
<path d="M44.9517 14.7146L44.5347 15.6139H38.2135L37.7834 14.7146H44.9517Z" fill="#3F72A4"/>
<path d="M38.3828 16.083H39.7774V38.2395H38.3828V16.083Z" fill="#3F72A4"/>
<path d="M40.6768 16.083H42.0583V38.2395H40.6768V16.083Z" fill="#3F72A4"/>
<path d="M43.0098 16.083H44.3131V38.2395H43.0098V16.083Z" fill="#3F72A4"/>
<path d="M45.3817 40.4814L45.108 39.8818H37.6399L37.3662 40.4814H45.3817Z" fill="#3F72A4"/>
<path d="M44.9517 39.5689L44.5347 38.6826H38.2135L37.7834 39.5689H44.9517Z" fill="#3F72A4"/>
</svg>
