<svg width="192" height="36" viewBox="0 0 192 36" fill="none" xmlns="http://www.w3.org/2000/svg">
<path d="M71.4253 34.9272V35.4539H62.5477V34.9272H65.8398L65.3459 33.6981C62.9318 28.5516 56.183 28.2114 53.6262 28.3211C53.554 28.3196 53.4831 28.3411 53.4239 28.3825C53.3648 28.424 53.3203 28.4832 53.297 28.5516L50.7621 34.4004C50.739 34.4583 50.7302 34.5209 50.7367 34.5829C50.7431 34.6449 50.7646 34.7043 50.7991 34.7562C50.8337 34.808 50.8804 34.8507 50.9351 34.8805C50.9898 34.9103 51.051 34.9263 51.1133 34.9272H54.131V35.4539H46.7129V34.9272H48.7869C48.8599 34.9263 48.9311 34.904 48.9916 34.863C49.052 34.822 49.0991 34.7642 49.1271 34.6967L57.9059 14.3738L58.9594 12.0693H60.5176L69.2964 34.7297C69.3258 34.7992 69.3744 34.859 69.4367 34.9018C69.4989 34.9446 69.5721 34.9686 69.6476 34.9711L71.4253 34.9272ZM63.3049 28.4418L58.9155 17.4683C58.8875 17.3995 58.8397 17.3407 58.7781 17.2992C58.7166 17.2578 58.644 17.2356 58.5698 17.2356C58.4956 17.2356 58.423 17.2578 58.3615 17.2992C58.2999 17.3407 58.2521 17.3995 58.2241 17.4683L54.3066 26.3349C54.2809 26.3917 54.2699 26.4541 54.2745 26.5163C54.2792 26.5785 54.2993 26.6386 54.3332 26.691C54.367 26.7434 54.4134 26.7864 54.4682 26.8162C54.523 26.8461 54.5844 26.8617 54.6468 26.8616C57.4822 26.8319 60.2792 27.5189 62.7781 28.8588C62.8413 28.8894 62.9117 28.9015 62.9814 28.8939C63.0512 28.8862 63.1173 28.8591 63.1723 28.8155C63.2273 28.772 63.2689 28.7138 63.2923 28.6477C63.3158 28.5816 63.3201 28.5103 63.3049 28.4418V28.4418Z" fill="#E0EEFF"/>
<path d="M89.305 12.407V17.3341H88.7673C88.7688 16.8591 88.6765 16.3884 88.4957 15.9491C88.3149 15.5098 88.0492 15.1105 87.7138 14.7741C87.3784 14.4377 86.9799 14.1708 86.5412 13.9887C86.1024 13.8066 85.6321 13.7128 85.157 13.7128H81.865C81.765 13.7157 81.6701 13.7574 81.6005 13.8291C81.5308 13.9009 81.4918 13.9969 81.4919 14.0969V34.5186C81.4919 34.6176 81.5312 34.7125 81.6012 34.7825C81.6711 34.8524 81.766 34.8917 81.865 34.8917H84.2682V35.4185H75.4016V34.8917H77.8048C77.9048 34.8918 78.0008 34.8528 78.0726 34.7832C78.1443 34.7135 78.186 34.6186 78.1888 34.5186V14.0969C78.1888 13.995 78.1484 13.8974 78.0764 13.8253C78.0043 13.7533 77.9066 13.7128 77.8048 13.7128H74.5127C73.5523 13.7128 72.6312 14.0944 71.9521 14.7735C71.273 15.4526 70.8914 16.3737 70.8914 17.3341H70.3428V12.407H89.305Z" fill="#E0EEFF"/>
<path d="M114.565 13.3046V34.5164C114.565 34.6154 114.604 34.7103 114.674 34.7803C114.744 34.8502 114.839 34.8895 114.938 34.8895H117.352V35.4163H108.573V34.8895H110.976C111.075 34.8895 111.17 34.8502 111.24 34.7803C111.31 34.7103 111.349 34.6154 111.349 34.5164V26.396C111.349 26.296 111.31 26.2 111.241 26.1282C111.171 26.0565 111.076 26.0148 110.976 26.0119H98.3458C98.2458 26.0148 98.1509 26.0565 98.0812 26.1282C98.0116 26.2 97.9726 26.296 97.9727 26.396V34.5164C97.9727 34.6154 98.012 34.7103 98.0819 34.7803C98.1519 34.8502 98.2468 34.8895 98.3458 34.8895H100.749V35.4163H91.9701V34.8895H94.3733C94.4733 34.8896 94.5694 34.8506 94.6411 34.7809C94.7128 34.7113 94.7546 34.6164 94.7574 34.5164V13.3046C94.7574 13.2027 94.717 13.105 94.6449 13.033C94.5729 12.961 94.4752 12.9205 94.3733 12.9205H91.9153V12.3938H100.694V12.9205H98.3458C98.2458 12.9234 98.1509 12.9651 98.0812 13.0368C98.0116 13.1085 97.9726 13.2046 97.9727 13.3046V24.2123C97.9727 24.3112 98.012 24.4061 98.0819 24.4761C98.1519 24.5461 98.2468 24.5854 98.3458 24.5854H110.921C111.02 24.5854 111.115 24.5461 111.185 24.4761C111.255 24.4061 111.295 24.3112 111.295 24.2123V13.3046C111.295 13.2046 111.256 13.1085 111.186 13.0368C111.116 12.9651 111.021 12.9234 110.921 12.9205H108.518V12.3938H117.297V12.9205H114.883C114.792 12.934 114.709 12.9807 114.65 13.0516C114.591 13.1225 114.561 13.2126 114.565 13.3046V13.3046Z" fill="#E0EEFF"/>
<path d="M137.168 29.4101L137.903 29.6515L136.586 35.1383C136.569 35.2215 136.523 35.2963 136.457 35.3502C136.391 35.4041 136.309 35.4339 136.224 35.4346H120.214V34.8969H122.617C122.717 34.8969 122.813 34.8579 122.885 34.7883C122.956 34.7186 122.998 34.6237 123.001 34.5238V13.3229C123.001 13.221 122.96 13.1234 122.888 13.0513C122.816 12.9793 122.719 12.9388 122.617 12.9388H120.214V12.3682H128.992H136.202C136.288 12.3668 136.371 12.3958 136.437 12.45C136.504 12.5043 136.549 12.5803 136.564 12.6645L137.881 18.1513L137.146 18.3817C135.598 13.7619 134.391 12.8949 126.589 12.8949C126.486 12.8949 126.387 12.935 126.314 13.0067C126.24 13.0785 126.197 13.1762 126.194 13.279V23.3856C126.197 23.4856 126.239 23.5805 126.31 23.6501C126.382 23.7198 126.478 23.7588 126.578 23.7587H129.585C130.481 23.7587 131.341 23.4026 131.975 22.7688C132.609 22.135 132.965 21.2753 132.965 20.3789H133.503V27.6763H132.965C132.965 26.7799 132.609 25.9202 131.975 25.2864C131.341 24.6525 130.481 24.2964 129.585 24.2964H126.633C126.533 24.2964 126.437 24.3353 126.365 24.405C126.294 24.4747 126.252 24.5696 126.249 24.6695V34.4579C126.25 34.5084 126.262 34.558 126.282 34.6041C126.303 34.6501 126.333 34.6917 126.369 34.7263C126.406 34.761 126.449 34.7881 126.496 34.806C126.543 34.824 126.594 34.8325 126.644 34.831C134.446 34.8749 135.664 34.019 137.168 29.4101Z" fill="#E0EEFF"/>
<path d="M164.386 12.4048V12.9315H163.376C163.274 12.9315 163.176 12.972 163.104 13.044C163.032 13.116 162.992 13.2137 162.992 13.3156V35.0432C162.992 35.1431 162.953 35.2392 162.883 35.3109C162.814 35.3826 162.719 35.4244 162.619 35.4272H160.512C160.454 35.4282 160.396 35.4147 160.344 35.3879C160.293 35.361 160.248 35.3218 160.216 35.2736L145.248 15.7737C145.198 15.7135 145.132 15.6698 145.057 15.6484C144.982 15.627 144.902 15.629 144.828 15.654C144.754 15.679 144.69 15.7259 144.643 15.7884C144.597 15.851 144.57 15.9262 144.567 16.0041V34.5164C144.567 34.6154 144.607 34.7103 144.677 34.7802C144.747 34.8502 144.842 34.8895 144.941 34.8895H145.95V35.4163H141.868V34.8895H142.877C142.976 34.8895 143.071 34.8502 143.141 34.7802C143.211 34.7103 143.251 34.6154 143.251 34.5164V13.3156C143.251 13.2156 143.212 13.1195 143.142 13.0478C143.072 12.9761 142.977 12.9344 142.877 12.9315H141.868V12.3938H146.576C146.633 12.3934 146.689 12.406 146.74 12.4307C146.792 12.4555 146.837 12.4916 146.872 12.5365L161.017 30.961C161.064 31.0232 161.13 31.0688 161.205 31.0915C161.28 31.1141 161.36 31.1125 161.434 31.0871C161.509 31.0616 161.573 31.0134 161.618 30.9494C161.663 30.8854 161.687 30.8089 161.686 30.7306V13.3156C161.686 13.2156 161.647 13.1195 161.578 13.0478C161.508 12.9761 161.413 12.9344 161.313 12.9315H160.292V12.4048H164.386Z" fill="#E0EEFF"/>
<path d="M167.025 34.9272V35.4539H175.804V34.9272H172.512L173.006 33.6981C175.42 28.5516 182.18 28.2114 184.737 28.3211C184.807 28.3219 184.875 28.3445 184.932 28.3857C184.989 28.427 185.032 28.485 185.055 28.5516L187.645 34.4004C187.67 34.4573 187.681 34.5197 187.677 34.5819C187.672 34.6441 187.652 34.7041 187.618 34.7565C187.584 34.8089 187.538 34.852 187.483 34.8818C187.428 34.9116 187.367 34.9272 187.304 34.9272H184.287V35.4539H191.76V34.9272H189.686C189.613 34.9249 189.542 34.9021 189.482 34.8613C189.422 34.8205 189.375 34.7634 189.346 34.6967L180.567 14.3738L179.491 12.0693H177.933L169.154 34.7297C169.126 34.8001 169.078 34.8606 169.015 34.9035C168.953 34.9465 168.879 34.97 168.803 34.9711L167.025 34.9272ZM175.146 28.4418L179.535 17.4683C179.563 17.3995 179.611 17.3407 179.673 17.2992C179.734 17.2578 179.807 17.2356 179.881 17.2356C179.955 17.2356 180.028 17.2578 180.089 17.2992C180.151 17.3407 180.199 17.3995 180.227 17.4683L184.144 26.3349C184.17 26.3917 184.181 26.4541 184.176 26.5163C184.172 26.5785 184.151 26.6386 184.118 26.691C184.084 26.7434 184.037 26.7864 183.982 26.8162C183.928 26.8461 183.866 26.8617 183.804 26.8616C180.972 26.8318 178.179 27.5189 175.684 28.8588C175.62 28.8925 175.548 28.9072 175.477 28.901C175.405 28.8949 175.337 28.8682 175.28 28.8241C175.223 28.7801 175.18 28.7206 175.156 28.6528C175.133 28.5849 175.129 28.5117 175.146 28.4418V28.4418Z" fill="#E0EEFF"/>
<path d="M39.5142 10.1924L39.2289 10.6862H2.33585L2.05054 10.1924H39.5142Z" fill="#E0EEFF"/>
<path d="M39.5142 35.4501H2.05054L2.48948 34.7039H39.0862L39.5142 35.4501Z" fill="#E0EEFF"/>
<path d="M10.1154 11.6355L9.88496 12.1403H3.59713L3.35571 11.6355H10.1154Z" fill="#E0EEFF"/>
<path d="M9.75735 12.3938L9.4062 13.151H4.08405L3.72192 12.3938H9.75735Z" fill="#E0EEFF"/>
<path d="M4.22681 13.5349H5.40098V32.1898H4.22681V13.5349Z" fill="#E0EEFF"/>
<path d="M6.15649 13.5349H7.31969V32.1898H6.15649V13.5349Z" fill="#E0EEFF"/>
<path d="M8.07593 13.5349H9.2501V32.1898H8.07593V13.5349Z" fill="#E0EEFF"/>
<path d="M13.5996 13.5349H14.7628V32.1898H13.5996V13.5349Z" fill="#E0EEFF"/>
<path d="M15.5195 13.5349H16.6937V32.1898H15.5195V13.5349Z" fill="#E0EEFF"/>
<path d="M17.4395 13.5349H18.6575V32.1898H17.4395V13.5349Z" fill="#E0EEFF"/>
<path d="M22.9595 13.5349H24.1446V32.1898H22.9595V13.5349Z" fill="#E0EEFF"/>
<path d="M24.8796 13.5349H26.0538V32.1898H24.8796V13.5349Z" fill="#E0EEFF"/>
<path d="M26.8069 13.5349H27.9701V32.1898H26.8069V13.5349Z" fill="#E0EEFF"/>
<path d="M32.3191 13.5349H33.4933V32.1898H32.3191V13.5349Z" fill="#E0EEFF"/>
<path d="M34.2466 13.5349H35.4098V32.1898H34.2466V13.5349Z" fill="#E0EEFF"/>
<path d="M36.2124 13.5349H37.3098V32.1898H36.2124V13.5349Z" fill="#E0EEFF"/>
<path d="M20.7839 0L0 9.42627H41.5678L20.7839 0ZM20.7839 7.38519C20.4059 7.35293 20.0538 7.17999 19.7973 6.90059C19.5407 6.62118 19.3983 6.25566 19.3983 5.87633C19.3983 5.49699 19.5407 5.13147 19.7973 4.85207C20.0538 4.57266 20.4059 4.39973 20.7839 4.36747C20.9929 4.34963 21.2032 4.37539 21.4017 4.44312C21.6002 4.51085 21.7825 4.61907 21.9369 4.76092C22.0914 4.90277 22.2147 5.07516 22.2991 5.26716C22.3835 5.45917 22.427 5.6666 22.427 5.87633C22.427 6.08605 22.3835 6.29349 22.2991 6.48549C22.2147 6.6775 22.0914 6.84989 21.9369 6.99174C21.7825 7.13359 21.6002 7.24181 21.4017 7.30953C21.2032 7.37726 20.9929 7.40302 20.7839 7.38519V7.38519Z" fill="#E0EEFF"/>
<path d="M10.1154 34.0797L9.88496 33.575H3.59713L3.35571 34.0797H10.1154Z" fill="#E0EEFF"/>
<path d="M9.75735 33.3126L9.4062 32.5664H4.08405L3.72192 33.3126H9.75735Z" fill="#E0EEFF"/>
<path d="M19.477 11.6355L19.2465 12.1403H12.9587L12.7283 11.6355H19.477Z" fill="#E0EEFF"/>
<path d="M19.1241 12.3938L18.7729 13.151H13.4398L13.0886 12.3938H19.1241Z" fill="#E0EEFF"/>
<path d="M13.5996 13.5349H14.7628V32.1898H13.5996V13.5349Z" fill="#E0EEFF"/>
<path d="M15.5195 13.5349H16.6937V32.1898H15.5195V13.5349Z" fill="#E0EEFF"/>
<path d="M17.4395 13.5349H18.6575V32.1898H17.4395V13.5349Z" fill="#E0EEFF"/>
<path d="M19.477 34.0797L19.2465 33.575H12.9587L12.7283 34.0797H19.477Z" fill="#E0EEFF"/>
<path d="M19.1241 33.3126L18.7729 32.5664H13.4398L13.0886 33.3126H19.1241Z" fill="#E0EEFF"/>
<path d="M28.8476 11.6355L28.6062 12.1403H22.3183L22.0879 11.6355H28.8476Z" fill="#E0EEFF"/>
<path d="M28.4851 12.3938L28.134 13.151H22.8009L22.4497 12.3938H28.4851Z" fill="#E0EEFF"/>
<path d="M22.9595 13.5349H24.1446V32.1898H22.9595V13.5349Z" fill="#E0EEFF"/>
<path d="M24.8796 13.5349H26.0538V32.1898H24.8796V13.5349Z" fill="#E0EEFF"/>
<path d="M26.8 13.5349H27.9742V32.1898H26.8V13.5349Z" fill="#E0EEFF"/>
<path d="M28.8476 34.0797L28.6062 33.575H22.3183L22.0879 34.0797H28.8476Z" fill="#E0EEFF"/>
<path d="M28.4851 33.3126L28.134 32.5664H22.8009L22.4497 33.3126H28.4851Z" fill="#E0EEFF"/>
<path d="M38.2094 11.6355L37.979 12.1403H31.6911L31.4607 11.6355H38.2094Z" fill="#E0EEFF"/>
<path d="M37.8474 12.3938L37.4963 13.151H32.1741L31.812 12.3938H37.8474Z" fill="#E0EEFF"/>
<path d="M32.3191 13.5349H33.4933V32.1898H32.3191V13.5349Z" fill="#E0EEFF"/>
<path d="M34.2466 13.5349H35.4098V32.1898H34.2466V13.5349Z" fill="#E0EEFF"/>
<path d="M36.2124 13.5349H37.3098V32.1898H36.2124V13.5349Z" fill="#E0EEFF"/>
<path d="M38.2094 34.0797L37.979 33.575H31.6911L31.4607 34.0797H38.2094Z" fill="#E0EEFF"/>
<path d="M37.8474 33.3126L37.4963 32.5664H32.1741L31.812 33.3126H37.8474Z" fill="#E0EEFF"/>
</svg>
