<svg width="22" height="22" viewBox="0 0 22 22" fill="none" xmlns="http://www.w3.org/2000/svg">
<path d="M4.42896 11.0043C4.42703 12.301 4.81039 13.5692 5.53052 14.6483C6.25064 15.7273 7.27514 16.5686 8.47431 17.0658C9.67347 17.5629 10.9934 17.6935 12.2669 17.441C13.5404 17.1885 14.7103 16.5642 15.6283 15.6473C16.5464 14.7303 17.1714 13.5619 17.4243 12.29C17.6771 11.018 17.5463 9.69974 17.0486 8.50205C16.5508 7.30436 15.7084 6.28112 14.6281 5.56188C13.5477 4.84264 12.278 4.45974 10.9796 4.46168C9.24307 4.46426 7.57839 5.1544 6.35046 6.38082C5.12254 7.60723 4.43155 9.26987 4.42896 11.0043ZM15.5523 10.6131C15.6302 11.5148 15.4387 12.4192 15.002 13.2122C14.5653 14.0052 13.9031 14.6511 13.0989 15.0682C12.2948 15.4853 11.3849 15.655 10.4842 15.5558C9.58358 15.4565 8.7326 15.0928 8.03885 14.5106C7.34511 13.9284 6.83975 13.1539 6.58665 12.2849C6.33356 11.4159 6.34408 10.4915 6.6169 9.62845C6.88972 8.76543 7.41258 8.00257 8.1194 7.43629C8.82622 6.87 9.68526 6.52572 10.5879 6.44695C11.1879 6.3946 11.7922 6.46087 12.3665 6.64196C12.9408 6.82305 13.4737 7.11541 13.9347 7.50233C14.3958 7.88925 14.7759 8.36315 15.0535 8.89691C15.3311 9.43068 15.5006 10.0139 15.5523 10.6131Z" fill="#3F72A4"/>
<path d="M19.9783 14.6327L21.0652 14.5838C21.1958 14.5714 21.32 14.5214 21.4225 14.4398C21.5251 14.3581 21.6017 14.2485 21.6429 14.1241L21.9954 12.4127C22.011 12.2817 21.9866 12.1491 21.9254 12.0322C21.8643 11.9153 21.7692 11.8195 21.6527 11.7574L20.6736 11.288C20.5555 11.2186 20.4557 11.122 20.3825 11.0064C20.3093 10.8907 20.2647 10.7593 20.2525 10.623C20.2525 10.623 20.2525 10.4958 20.2525 10.2025V10.1047C20.2525 9.98731 20.3994 9.79171 20.6148 9.6548L21.5352 9.0778C21.6415 8.99975 21.723 8.89272 21.7699 8.76955C21.8168 8.64638 21.8271 8.51231 21.7996 8.38344L21.2611 6.7209C21.2059 6.60195 21.1173 6.50161 21.006 6.43214C20.8947 6.36267 20.7656 6.32708 20.6344 6.32971L19.5475 6.40795C19.42 6.41711 19.2922 6.39416 19.1759 6.34119C19.0595 6.28822 18.9584 6.20693 18.8817 6.10478C18.7642 5.91896 18.5292 5.26372 18.6467 5.03879L19.1558 4.06083C19.2115 3.94141 19.231 3.80833 19.2119 3.67799C19.1927 3.54765 19.1358 3.42576 19.0481 3.32735L17.6773 2.18313C17.5684 2.11121 17.4407 2.07286 17.3101 2.07286C17.1795 2.07286 17.0518 2.11121 16.9429 2.18313L16.0421 2.78947C15.9354 2.86188 15.8121 2.90613 15.6837 2.91811C15.5553 2.93008 15.4259 2.90937 15.3077 2.85793C15.1217 2.76013 14.5929 2.31026 14.5831 2.05599L14.5342 0.970448C14.523 0.839642 14.4734 0.715051 14.3915 0.612371C14.3096 0.509692 14.1991 0.433519 14.0739 0.393448L12.3898 0.00226086C12.2581 -0.00845474 12.1261 0.0190761 12.0097 0.0815386C11.8933 0.144001 11.7975 0.238733 11.7337 0.35433L11.2637 1.3323C11.1942 1.45021 11.0975 1.54987 10.9817 1.62301C10.8659 1.69614 10.7344 1.74065 10.5979 1.75282H10.1768H10.0789C9.96143 1.75282 9.7656 1.60613 9.62851 1.39097L9.0508 0.471686C8.97388 0.363747 8.86725 0.280421 8.74385 0.231815C8.62044 0.183209 8.48557 0.171411 8.35559 0.197854L6.691 0.745516C6.57031 0.798468 6.4684 0.886502 6.39853 0.998145C6.32867 1.10979 6.2941 1.23986 6.29933 1.37142L6.37766 2.45696C6.38595 2.58422 6.36257 2.71155 6.3096 2.82758C6.25664 2.94362 6.17574 3.04476 6.07412 3.12198C5.88808 3.23933 5.23203 3.47404 5.00683 3.35669L4.02765 2.84815C3.90809 2.79253 3.77485 2.77307 3.64435 2.79219C3.51385 2.81131 3.39181 2.86816 3.29328 2.95572L2.14765 4.29554C2.07564 4.40433 2.03725 4.53186 2.03725 4.66227C2.03725 4.79269 2.07564 4.92022 2.14765 5.02901L2.76452 5.92874C2.83294 6.03533 2.87408 6.15707 2.88432 6.28327C2.89456 6.40946 2.8736 6.53624 2.82327 6.65244C2.72536 6.84803 2.27494 7.37613 2.02035 7.38591H0.933473C0.801718 7.39901 0.676721 7.45049 0.574012 7.53394C0.471302 7.6174 0.39541 7.72916 0.355763 7.85534L0.00326126 9.56678C-0.00964013 9.69746 0.0159126 9.82905 0.0767867 9.94544C0.137661 10.0618 0.231211 10.1579 0.345971 10.222L1.32514 10.6914C1.443 10.7587 1.54284 10.8534 1.61615 10.9675C1.68946 11.0816 1.73407 11.2117 1.74619 11.3467C1.74619 11.3467 1.74619 11.4738 1.74619 11.777V11.8748C1.74619 11.9824 1.59931 12.1877 1.38389 12.3246L0.463472 12.9016C0.35621 12.9769 0.273179 13.0817 0.224499 13.2032C0.175818 13.3248 0.16359 13.4579 0.189304 13.5862L0.737639 15.2488C0.791315 15.3695 0.879312 15.4719 0.990714 15.5432C1.10212 15.6145 1.23202 15.6515 1.36431 15.6497L2.45119 15.5715C2.5786 15.5632 2.70609 15.5866 2.82227 15.6395C2.93845 15.6924 3.03971 15.7732 3.11703 15.8747C3.23453 16.0605 3.46953 16.7157 3.35203 16.9309L2.84286 17.9088C2.78567 18.0356 2.76909 18.1769 2.79538 18.3135C2.82167 18.45 2.88955 18.5751 2.98973 18.6717L4.30182 19.8452C4.40977 19.9197 4.53784 19.9595 4.66901 19.9595C4.80019 19.9595 4.92826 19.9197 5.0362 19.8452L5.93704 19.2389C6.04388 19.1713 6.1652 19.1298 6.29112 19.1179C6.41703 19.106 6.54398 19.124 6.66162 19.1704C6.85746 19.278 7.38621 19.7279 7.396 19.9821V21.0677C7.41033 21.1989 7.46231 21.3231 7.54569 21.4255C7.62908 21.5279 7.74031 21.604 7.866 21.6447L9.57955 21.9967C9.71039 22.0096 9.84215 21.9841 9.95868 21.9233C10.0752 21.8625 10.1714 21.7691 10.2356 21.6545L10.7056 20.6765C10.7716 20.5577 10.8661 20.4571 10.9806 20.3837C11.0951 20.3103 11.226 20.2664 11.3616 20.256H11.7925H11.8904C11.9981 20.256 12.2037 20.4027 12.3408 20.6178L12.9185 21.5371C12.9942 21.6434 13.0996 21.7251 13.2215 21.7721C13.3434 21.819 13.4764 21.8291 13.6039 21.8012L15.2685 21.2633C15.3994 21.2156 15.5126 21.1292 15.5931 21.0156C15.6735 20.9021 15.7174 20.7667 15.719 20.6276L15.6406 19.542C15.6314 19.4147 15.6544 19.2871 15.7075 19.1709C15.7605 19.0547 15.8419 18.9536 15.9442 18.877C16.1302 18.7597 16.7863 18.525 17.0017 18.6423L17.9808 19.1509C18.0986 19.2069 18.2305 19.2267 18.3596 19.2075C18.4886 19.1883 18.6091 19.1312 18.7054 19.0433L19.8217 17.6937C19.8933 17.583 19.9315 17.4539 19.9315 17.3221C19.9315 17.1902 19.8933 17.0612 19.8217 16.9504L19.2048 16.0605C19.137 15.952 19.0955 15.8292 19.0836 15.7018C19.0717 15.5745 19.0897 15.4462 19.1363 15.327C19.2733 15.1705 19.7238 14.6424 19.9783 14.6327ZM10.9798 18.4761C9.50019 18.4761 8.05384 18.0379 6.82362 17.2169C5.5934 16.3959 4.63456 15.2289 4.06835 13.8637C3.50214 12.4984 3.35399 10.9961 3.64264 9.54674C3.9313 8.09738 4.64378 6.76606 5.69 5.72112C6.73621 4.67619 8.06918 3.96458 9.52032 3.67629C10.9715 3.38799 12.4756 3.53596 13.8426 4.10147C15.2095 4.66698 16.3779 5.62465 17.1999 6.85335C18.0219 8.08206 18.4606 9.52664 18.4606 11.0044C18.4606 12.986 17.6725 14.8865 16.2695 16.2877C14.8666 17.6889 12.9638 18.4761 10.9798 18.4761Z" fill="#3F72A4"/>
</svg>
