<svg width="245" height="46" viewBox="0 0 245 46" fill="none" xmlns="http://www.w3.org/2000/svg">
<g clip-path="url(#clip0_328_1171)">
<path d="M91.1559 44.5727V45.2505H79.8876V44.5727H84.1315L83.4999 43.0323C80.4191 36.4623 71.7926 36.1003 68.5268 36.1619C68.4378 36.1661 68.3519 36.196 68.2795 36.2479C68.207 36.2999 68.1512 36.3716 68.1186 36.4546L64.8683 43.9026C64.8363 43.9765 64.8232 44.0573 64.8303 44.1375C64.8373 44.2177 64.8642 44.295 64.9085 44.3622C64.9528 44.4295 65.0132 44.4846 65.0842 44.5227C65.1551 44.5608 65.2344 44.5806 65.315 44.5804H69.1661V45.2582H59.623V44.5804H62.2649C62.3587 44.5802 62.4504 44.5523 62.5285 44.5002C62.6066 44.4482 62.6676 44.3743 62.7039 44.2877L73.9415 18.3466L75.2432 15.3505H77.2457L88.491 44.2646C88.5254 44.3552 88.5865 44.4333 88.6663 44.4883C88.7461 44.5433 88.8408 44.5728 88.9377 44.5727H91.1559ZM80.7965 36.3005L75.143 22.2748C75.1074 22.1865 75.0462 22.1108 74.9673 22.0576C74.8884 22.0043 74.7954 21.9758 74.7001 21.9758C74.6049 21.9758 74.5119 22.0043 74.433 22.0576C74.3541 22.1108 74.2929 22.1865 74.2573 22.2748L69.3201 33.6664C69.288 33.7392 69.2747 33.8189 69.2812 33.8983C69.2878 33.9776 69.3141 34.054 69.3577 34.1206C69.4013 34.1872 69.4609 34.2418 69.531 34.2795C69.6011 34.3172 69.6796 34.3368 69.7592 34.3365C72.4318 34.375 76.6064 34.8217 80.1264 36.8859C80.2113 36.9351 80.3095 36.9565 80.4072 36.9471C80.5049 36.9376 80.5972 36.8978 80.6711 36.8333C80.745 36.7687 80.7969 36.6826 80.8194 36.587C80.8418 36.4915 80.8338 36.3913 80.7965 36.3005Z" fill="#1C364F"/>
<path d="M113.993 15.8203V22.1053H113.315C113.315 20.8797 112.828 19.7042 111.961 18.8375C111.095 17.9709 109.919 17.484 108.694 17.484H104.45C104.321 17.484 104.198 17.5351 104.107 17.6261C104.016 17.7171 103.964 17.8405 103.964 17.9692V44.0335C103.964 44.1622 104.016 44.2856 104.107 44.3766C104.198 44.4676 104.321 44.5187 104.45 44.5187H107.531V45.1965H96.2313V44.5187H99.3122C99.4409 44.5187 99.5644 44.4676 99.6554 44.3766C99.7464 44.2856 99.7975 44.1622 99.7975 44.0335V17.9769C99.7975 17.8482 99.7464 17.7248 99.6554 17.6338C99.5644 17.5428 99.4409 17.4917 99.3122 17.4917H95.076C93.8503 17.4917 92.6749 17.9786 91.8082 18.8452C90.9415 19.7119 90.4547 20.8874 90.4547 22.113H89.7769V15.8203H113.993Z" fill="#1C364F"/>
<path d="M146.211 16.9449V44.0336C146.211 44.161 146.261 44.2832 146.351 44.374C146.44 44.4648 146.561 44.5168 146.689 44.5188H149.77V45.1966H138.486V44.5188H141.567C141.694 44.5168 141.816 44.4648 141.905 44.374C141.994 44.2832 142.044 44.161 142.044 44.0336V33.6741C142.044 33.5475 141.994 33.426 141.904 33.3365C141.815 33.2469 141.693 33.1966 141.567 33.1966H125.546C125.419 33.1966 125.298 33.2469 125.208 33.3365C125.119 33.426 125.069 33.5475 125.069 33.6741V44.0336C125.069 44.161 125.119 44.2832 125.208 44.374C125.297 44.4648 125.419 44.5168 125.546 44.5188H128.627V45.1966H117.305V44.5188H120.386C120.513 44.5168 120.634 44.4648 120.724 44.374C120.813 44.2832 120.863 44.161 120.863 44.0336V16.9449C120.863 16.8175 120.813 16.6953 120.724 16.6045C120.634 16.5137 120.513 16.4617 120.386 16.4597H117.305V15.7819H128.581V16.4597H125.5C125.373 16.4617 125.251 16.5137 125.162 16.6045C125.072 16.6953 125.022 16.8175 125.022 16.9449V30.8936C125.022 31.021 125.072 31.1433 125.162 31.234C125.251 31.3248 125.373 31.3768 125.5 31.3789H141.551C141.679 31.3768 141.8 31.3248 141.89 31.234C141.979 31.1433 142.029 31.021 142.029 30.8936V16.9449C142.029 16.8175 141.979 16.6953 141.89 16.6045C141.8 16.5137 141.679 16.4617 141.551 16.4597H138.47V15.7819H149.747V16.4597H146.666C146.542 16.4675 146.427 16.5221 146.342 16.6122C146.258 16.7024 146.211 16.8214 146.211 16.9449Z" fill="#1C364F"/>
<path d="M175.095 37.5328L176.035 37.8332L174.363 44.8114C174.337 44.9187 174.276 45.0142 174.19 45.0826C174.103 45.1511 173.996 45.1885 173.886 45.1888H153.421V44.511H156.502C156.63 44.511 156.754 44.4599 156.845 44.3689C156.936 44.2779 156.987 44.1545 156.987 44.0258V16.9988C156.987 16.8701 156.936 16.7467 156.845 16.6557C156.754 16.5647 156.63 16.5136 156.502 16.5136H153.421V15.7896H164.697V15.8358H173.886C173.996 15.8361 174.103 15.8735 174.19 15.942C174.276 16.0104 174.337 16.1059 174.363 16.2132L176.035 23.1837L175.095 23.4917C173.131 17.5842 171.575 16.5136 161.624 16.5136C161.559 16.5125 161.495 16.5243 161.435 16.5481C161.374 16.572 161.319 16.6074 161.273 16.6525C161.226 16.6975 161.189 16.7513 161.164 16.8107C161.138 16.8702 161.124 16.9341 161.123 16.9988V29.9C161.125 30.0273 161.177 30.1488 161.268 30.2381C161.359 30.3275 161.481 30.3775 161.608 30.3775H165.459C166.603 30.3775 167.701 29.9231 168.509 29.1142C169.318 28.3053 169.773 27.2082 169.773 26.0643H170.451V35.3762H169.773C169.773 34.2323 169.318 33.1352 168.509 32.3263C167.701 31.5174 166.603 31.063 165.459 31.063H161.608C161.481 31.063 161.359 31.1131 161.268 31.2024C161.177 31.2917 161.125 31.4132 161.123 31.5405V44.0258C161.124 44.0905 161.138 44.1544 161.164 44.2139C161.189 44.2733 161.226 44.3271 161.273 44.3721C161.319 44.4172 161.374 44.4526 161.435 44.4765C161.495 44.5003 161.559 44.5121 161.624 44.511C171.575 44.511 173.131 43.4404 175.095 37.5328Z" fill="#1C364F"/>
<path d="M209.785 15.8203V16.4981H208.491C208.364 16.5002 208.242 16.5522 208.153 16.643C208.064 16.7337 208.014 16.856 208.014 16.9834V44.7114C208.014 44.838 207.963 44.9595 207.874 45.0491C207.784 45.1386 207.663 45.1889 207.536 45.1889H204.879C204.806 45.1889 204.734 45.1723 204.669 45.1403C204.603 45.1082 204.546 45.0616 204.502 45.0041L185.354 20.1259C185.294 20.0439 185.209 19.9833 185.112 19.9527C185.015 19.9221 184.911 19.9232 184.815 19.9559C184.719 19.9885 184.636 20.051 184.577 20.1342C184.519 20.2174 184.489 20.317 184.491 20.4186V44.0336C184.491 44.1623 184.542 44.2857 184.633 44.3767C184.724 44.4677 184.848 44.5188 184.976 44.5188H186.263V45.1966H181.041V44.5188H182.334C182.463 44.5188 182.587 44.4677 182.678 44.3767C182.769 44.2857 182.82 44.1623 182.82 44.0336V16.9834C182.82 16.8547 182.769 16.7313 182.678 16.6403C182.587 16.5493 182.463 16.4981 182.334 16.4981H181.041V15.8049H187.056C187.131 15.8046 187.205 15.8219 187.271 15.8553C187.338 15.8888 187.396 15.9375 187.441 15.9975L205.48 39.5047C205.54 39.5866 205.624 39.6473 205.721 39.6779C205.818 39.7085 205.922 39.7073 206.018 39.6747C206.115 39.6421 206.198 39.5796 206.256 39.4964C206.314 39.4132 206.345 39.3136 206.342 39.212V16.9834C206.342 16.856 206.292 16.7337 206.203 16.643C206.114 16.5522 205.992 16.5002 205.865 16.4981H204.563V15.8203H209.785Z" fill="#1C364F"/>
<path d="M213.167 44.5726V45.2504H224.435V44.5726H220.191L220.823 43.0322C223.904 36.4622 232.53 36.1002 235.788 36.1618C235.879 36.1655 235.966 36.1951 236.039 36.247C236.113 36.2989 236.17 36.3709 236.204 36.4545L239.439 43.9179C239.471 43.9913 239.484 44.0713 239.477 44.1509C239.471 44.2305 239.445 44.3073 239.401 44.3743C239.358 44.4414 239.298 44.4967 239.228 44.5353C239.159 44.5739 239.08 44.5947 239 44.5957H235.149V45.2735H244.7V44.5957H242.058C241.963 44.595 241.871 44.567 241.792 44.5151C241.712 44.4632 241.65 44.3896 241.611 44.303L230.374 18.3466L229.072 15.3505H227.077L215.832 44.2645C215.798 44.3551 215.736 44.4332 215.657 44.4882C215.577 44.5432 215.482 44.5727 215.385 44.5726H213.167ZM223.526 36.3004L229.18 22.2747C229.216 22.1864 229.277 22.1108 229.356 22.0575C229.435 22.0043 229.528 21.9758 229.623 21.9758C229.718 21.9758 229.811 22.0043 229.89 22.0575C229.969 22.1108 230.03 22.1864 230.066 22.2747L235.01 33.6817C235.043 33.7545 235.056 33.8343 235.049 33.9136C235.043 33.9929 235.017 34.0694 234.973 34.136C234.929 34.2025 234.87 34.2572 234.8 34.2949C234.73 34.3326 234.651 34.3521 234.571 34.3518C231.899 34.3903 227.724 34.837 224.204 36.9012C224.118 36.9572 224.016 36.9834 223.913 36.9757C223.811 36.968 223.714 36.927 223.637 36.8588C223.56 36.7906 223.507 36.6991 223.487 36.5982C223.468 36.4974 223.481 36.3928 223.526 36.3004Z" fill="#1C364F"/>
<path d="M50.4342 13.009L50.0644 13.6406H2.99606L2.61865 13.009H50.4342Z" fill="#1C364F"/>
<path d="M50.4342 45.2505H2.61865L3.18092 44.2954H49.8796L50.4342 45.2505Z" fill="#1C364F"/>
<path d="M12.9166 14.8499L12.6163 15.4891H4.59824L4.29785 14.8499H12.9166Z" fill="#1C364F"/>
<path d="M12.462 15.8203L12.0076 16.7754H5.2065L4.75977 15.8203H12.462Z" fill="#1C364F"/>
<path d="M5.3916 17.2915H6.93205V41.0529H5.3916V17.2915Z" fill="#1C364F"/>
<path d="M7.85645 17.2915H9.35068V41.0529H7.85645V17.2915Z" fill="#1C364F"/>
<path d="M10.3135 17.2915H11.8077V41.0529H10.3135V17.2915Z" fill="#1C364F"/>
<path d="M17.353 17.2915H18.8473V41.0529H17.353V17.2915Z" fill="#1C364F"/>
<path d="M19.8101 17.2915H21.3043V41.0529H19.8101V17.2915Z" fill="#1C364F"/>
<path d="M22.2671 17.2915H23.7613V41.0529H22.2671V17.2915Z" fill="#1C364F"/>
<path d="M29.2686 17.2915H30.809V41.0529H29.2686V17.2915Z" fill="#1C364F"/>
<path d="M31.7563 17.2915H33.2506V41.0529H31.7563V17.2915Z" fill="#1C364F"/>
<path d="M34.2134 17.2915H35.7076V41.0529H34.2134V17.2915Z" fill="#1C364F"/>
<path d="M41.2529 17.2915H42.7472V41.0529H41.2529V17.2915Z" fill="#1C364F"/>
<path d="M43.7104 17.2915H45.2047V41.0529H43.7104V17.2915Z" fill="#1C364F"/>
<path d="M46.1597 17.2915H47.6539V41.0529H46.1597V17.2915Z" fill="#1C364F"/>
<path d="M26.5265 0L0 12.0231H53.0607L26.5265 0ZM26.5265 9.4275C26.1456 9.4275 25.7734 9.31457 25.4567 9.10298C25.14 8.8914 24.8932 8.59067 24.7475 8.23882C24.6018 7.88697 24.5636 7.49981 24.6379 7.12629C24.7122 6.75277 24.8956 6.40967 25.1649 6.14038C25.4342 5.87108 25.7773 5.68769 26.1508 5.61339C26.5244 5.5391 26.9115 5.57723 27.2634 5.72297C27.6152 5.86871 27.9159 6.11551 28.1275 6.43217C28.3391 6.74882 28.452 7.12111 28.452 7.50195C28.452 7.75481 28.4022 8.0052 28.3055 8.23882C28.2087 8.47244 28.0669 8.68471 27.8881 8.86352C27.7093 9.04232 27.497 9.18416 27.2634 9.28092C27.0297 9.37769 26.7794 9.4275 26.5265 9.4275Z" fill="#1C364F"/>
<path d="M12.9166 43.4944L12.6163 42.8551H4.59824L4.29785 43.4944H12.9166Z" fill="#1C364F"/>
<path d="M12.462 42.5239L12.0076 41.5688H5.2065L4.75977 42.5239H12.462Z" fill="#1C364F"/>
<path d="M24.8706 14.8499L24.5702 15.4891H16.5522L16.2441 14.8499H24.8706Z" fill="#1C364F"/>
<path d="M24.4083 15.8203L23.9616 16.7677H17.1605L16.7061 15.8203H24.4083Z" fill="#1C364F"/>
<path d="M17.353 17.2915H18.8473V41.0529H17.353V17.2915Z" fill="#1C364F"/>
<path d="M19.8101 17.2915H21.3043V41.0529H19.8101V17.2915Z" fill="#1C364F"/>
<path d="M22.2593 17.2915H23.7535V41.0529H22.2593V17.2915Z" fill="#1C364F"/>
<path d="M24.8706 43.4944L24.5702 42.8551H16.5522L16.2441 43.4944H24.8706Z" fill="#1C364F"/>
<path d="M24.4083 42.5239L23.9616 41.5688H17.1605L16.7061 42.5239H24.4083Z" fill="#1C364F"/>
<path d="M36.8164 14.8499L36.516 15.4891H28.498L28.1899 14.8499H36.8164Z" fill="#1C364F"/>
<path d="M36.3546 15.8203L35.9079 16.7677H29.1068L28.6523 15.8203H36.3546Z" fill="#1C364F"/>
<path d="M29.2686 17.2915H30.809V41.0529H29.2686V17.2915Z" fill="#1C364F"/>
<path d="M31.7563 17.2915H33.2506V41.0529H31.7563V17.2915Z" fill="#1C364F"/>
<path d="M34.2056 17.2915H35.6998V41.0529H34.2056V17.2915Z" fill="#1C364F"/>
<path d="M36.8164 43.4944L36.516 42.8551H28.498L28.1899 43.4944H36.8164Z" fill="#1C364F"/>
<path d="M36.3546 42.5239L35.9079 41.5688H29.1068L28.6523 42.5239H36.3546Z" fill="#1C364F"/>
<path d="M48.7706 14.8499L48.4703 15.4891H40.4522L40.1519 14.8499H48.7706Z" fill="#1C364F"/>
<path d="M48.3082 15.8203L47.8615 16.7677H41.0604L40.606 15.8203H48.3082Z" fill="#1C364F"/>
<path d="M41.2529 17.2915H42.7472V41.0529H41.2529V17.2915Z" fill="#1C364F"/>
<path d="M43.7104 17.2915H45.2047V41.0529H43.7104V17.2915Z" fill="#1C364F"/>
<path d="M46.1675 17.2915H47.654V41.0529H46.1675V17.2915Z" fill="#1C364F"/>
<path d="M48.7706 43.4944L48.4703 42.8551H40.4522L40.1519 43.4944H48.7706Z" fill="#1C364F"/>
<path d="M48.3082 42.5239L47.8615 41.5688H41.0604L40.606 42.5239H48.3082Z" fill="#1C364F"/>
</g>
<defs>
<clipPath id="clip0_328_1171">
<rect width="244.7" height="45.2505" fill="white"/>
</clipPath>
</defs>
</svg>
