<svg width="210" height="39" viewBox="0 0 210 39" fill="none" xmlns="http://www.w3.org/2000/svg">
<g clip-path="url(#clip0_347_896)">
<path d="M78.1173 38.1971V38.778H68.4607V38.1971H72.0976L71.5564 36.877C68.9162 31.2468 61.5236 30.9366 58.7249 30.9894C58.6487 30.993 58.575 31.0186 58.513 31.0631C58.4509 31.1076 58.403 31.1691 58.3751 31.2402L55.5897 37.6229C55.5623 37.6862 55.5511 37.7554 55.5571 37.8242C55.5632 37.8929 55.5862 37.9591 55.6242 38.0167C55.6622 38.0744 55.7139 38.1216 55.7747 38.1543C55.8355 38.1869 55.9035 38.2039 55.9725 38.2037H59.2728V38.7846H51.0947V38.2037H53.3587C53.4391 38.2035 53.5177 38.1796 53.5846 38.135C53.6515 38.0904 53.7038 38.0271 53.7349 37.9529L63.3651 15.7223L64.4806 13.1547H66.1968L75.8335 37.9331C75.863 38.0108 75.9154 38.0776 75.9838 38.1248C76.0522 38.1719 76.1333 38.1972 76.2164 38.1971H78.1173ZM69.2396 31.1082L64.3948 19.0886C64.3643 19.0129 64.3119 18.9481 64.2442 18.9025C64.1766 18.8568 64.0969 18.8324 64.0153 18.8324C63.9337 18.8324 63.854 18.8568 63.7863 18.9025C63.7187 18.9481 63.6663 19.0129 63.6357 19.0886L59.4048 28.8508C59.3773 28.9132 59.3658 28.9815 59.3714 29.0495C59.3771 29.1175 59.3996 29.183 59.437 29.2401C59.4744 29.2971 59.5254 29.3439 59.5855 29.3762C59.6456 29.4086 59.7128 29.4253 59.781 29.425C62.0714 29.458 65.6489 29.8409 68.6654 31.6098C68.7381 31.652 68.8223 31.6703 68.906 31.6622C68.9897 31.6542 69.0688 31.62 69.1322 31.5647C69.1955 31.5094 69.24 31.4356 69.2592 31.3537C69.2785 31.2718 69.2716 31.1859 69.2396 31.1082Z" fill="#1C364F"/>
<path d="M97.6883 13.5574V18.9434H97.1074C97.1074 17.893 96.6902 16.8857 95.9475 16.143C95.2047 15.4003 94.1974 14.9831 93.1471 14.9831H89.5101C89.3999 14.9831 89.2941 15.0269 89.2161 15.1049C89.1381 15.1829 89.0943 15.2886 89.0943 15.3989V37.7349C89.0943 37.8452 89.1381 37.951 89.2161 38.0289C89.2941 38.1069 89.3999 38.1507 89.5101 38.1507H92.1504V38.7316H82.4673V38.1507H85.1076C85.2178 38.1507 85.3236 38.1069 85.4016 38.0289C85.4796 37.951 85.5234 37.8452 85.5234 37.7349V15.4055C85.5234 15.2952 85.4796 15.1895 85.4016 15.1115C85.3236 15.0335 85.2178 14.9897 85.1076 14.9897H81.4772C80.4269 14.9897 79.4196 15.4069 78.6768 16.1496C77.9341 16.8923 77.5169 17.8996 77.5169 18.95H76.936V13.5574H97.6883Z" fill="#1C364F"/>
<path d="M125.298 14.5211V37.735C125.298 37.8442 125.341 37.949 125.418 38.0268C125.494 38.1045 125.598 38.1491 125.707 38.1509H128.348V38.7317H118.678V38.1509H121.318C121.427 38.1491 121.531 38.1045 121.608 38.0268C121.684 37.949 121.727 37.8442 121.727 37.735V28.8574C121.727 28.7488 121.684 28.6448 121.607 28.568C121.531 28.4913 121.427 28.4482 121.318 28.4482H107.589C107.48 28.4482 107.376 28.4913 107.3 28.568C107.223 28.6448 107.18 28.7488 107.18 28.8574V37.735C107.18 37.8442 107.223 37.949 107.299 38.0268C107.376 38.1045 107.48 38.1491 107.589 38.1509H110.229V38.7317H100.526V38.1509H103.167C103.276 38.1491 103.38 38.1045 103.456 38.0268C103.533 37.949 103.576 37.8442 103.576 37.735V14.5211C103.576 14.412 103.533 14.3072 103.456 14.2294C103.38 14.1516 103.276 14.1071 103.167 14.1053H100.526V13.5245H110.19V14.1053H107.549C107.44 14.1071 107.336 14.1516 107.26 14.2294C107.183 14.3072 107.14 14.412 107.14 14.5211V26.4746C107.14 26.5838 107.183 26.6885 107.26 26.7663C107.336 26.8441 107.44 26.8887 107.549 26.8904H121.305C121.414 26.8887 121.518 26.8441 121.595 26.7663C121.671 26.6885 121.714 26.5838 121.714 26.4746V14.5211C121.714 14.412 121.671 14.3072 121.595 14.2294C121.518 14.1516 121.414 14.1071 121.305 14.1053H118.665V13.5245H128.328V14.1053H125.688C125.582 14.112 125.483 14.1588 125.411 14.2361C125.338 14.3133 125.298 14.4153 125.298 14.5211Z" fill="#1C364F"/>
<path d="M150.051 32.1641L150.856 32.4215L149.424 38.4015C149.402 38.4934 149.349 38.5753 149.275 38.6339C149.201 38.6926 149.109 38.7246 149.015 38.7249H131.477V38.1441H134.117C134.228 38.1441 134.333 38.1003 134.411 38.0223C134.489 37.9443 134.533 37.8385 134.533 37.7283V14.5672C134.533 14.4569 134.489 14.3512 134.411 14.2732C134.333 14.1952 134.228 14.1514 134.117 14.1514H131.477V13.5309H141.14V13.5705H149.015C149.109 13.5709 149.201 13.6029 149.275 13.6616C149.349 13.7202 149.402 13.802 149.424 13.894L150.856 19.8674L150.051 20.1314C148.368 15.0689 147.034 14.1514 138.507 14.1514C138.451 14.1505 138.396 14.1606 138.344 14.181C138.293 14.2014 138.246 14.2318 138.206 14.2704C138.166 14.309 138.134 14.3551 138.112 14.4061C138.09 14.457 138.078 14.5117 138.078 14.5672V25.623C138.079 25.7321 138.124 25.8362 138.202 25.9128C138.279 25.9893 138.384 26.0322 138.493 26.0322H141.794C142.774 26.0322 143.714 25.6428 144.407 24.9496C145.101 24.2564 145.49 23.3163 145.49 22.336H146.071V30.3159H145.49C145.49 29.3356 145.101 28.3955 144.407 27.7023C143.714 27.0091 142.774 26.6197 141.794 26.6197H138.493C138.384 26.6197 138.279 26.6626 138.202 26.7391C138.124 26.8157 138.079 26.9198 138.078 27.0289V37.7283C138.078 37.7837 138.09 37.8385 138.112 37.8894C138.134 37.9403 138.166 37.9864 138.206 38.025C138.246 38.0637 138.293 38.0941 138.344 38.1145C138.396 38.1349 138.451 38.145 138.507 38.1441C147.034 38.1441 148.368 37.2266 150.051 32.1641Z" fill="#1C364F"/>
<path d="M179.779 13.5573V14.1382H178.67C178.561 14.1399 178.457 14.1845 178.381 14.2623C178.304 14.3401 178.261 14.4449 178.261 14.554V38.3159C178.261 38.4244 178.218 38.5285 178.141 38.6053C178.065 38.682 177.96 38.7251 177.852 38.7251H175.575C175.512 38.7251 175.451 38.7109 175.395 38.6834C175.339 38.6559 175.29 38.616 175.251 38.5667L158.842 17.247C158.791 17.1768 158.718 17.1248 158.635 17.0986C158.552 17.0724 158.463 17.0734 158.381 17.1013C158.298 17.1293 158.227 17.1828 158.177 17.2541C158.127 17.3254 158.101 17.4108 158.103 17.4978V37.735C158.103 37.8453 158.147 37.9511 158.225 38.0291C158.303 38.1071 158.409 38.1509 158.519 38.1509H159.621V38.7317H155.146V38.1509H156.255C156.365 38.1509 156.471 38.1071 156.549 38.0291C156.627 37.9511 156.671 37.8453 156.671 37.735V14.554C156.671 14.4437 156.627 14.338 156.549 14.26C156.471 14.182 156.365 14.1382 156.255 14.1382H155.146V13.5441H160.301C160.365 13.5439 160.428 13.5587 160.486 13.5873C160.543 13.616 160.593 13.6577 160.631 13.7091L176.09 33.8539C176.141 33.9242 176.213 33.9761 176.296 34.0023C176.38 34.0285 176.469 34.0276 176.551 33.9996C176.634 33.9717 176.705 33.9181 176.755 33.8468C176.805 33.7755 176.831 33.6901 176.829 33.6031V14.554C176.829 14.4449 176.786 14.3401 176.709 14.2623C176.633 14.1845 176.529 14.1399 176.42 14.1382H175.304V13.5573H179.779Z" fill="#1C364F"/>
<path d="M182.677 38.1969V38.7777H192.334V38.1969H188.697L189.238 36.8768C191.878 31.2466 199.271 30.9364 202.063 30.9892C202.14 30.9924 202.215 31.0177 202.278 31.0622C202.341 31.1067 202.39 31.1684 202.419 31.24L205.192 37.6358C205.219 37.6987 205.23 37.7672 205.224 37.8355C205.219 37.9037 205.196 37.9695 205.159 38.0269C205.122 38.0844 205.071 38.1318 205.011 38.1649C204.951 38.198 204.884 38.2158 204.815 38.2167H201.515V38.7975H209.7V38.2167H207.436C207.355 38.2161 207.275 38.1921 207.208 38.1476C207.14 38.1031 207.086 38.04 207.053 37.9658L197.423 15.7223L196.307 13.1547H194.598L184.961 37.9328C184.932 38.0105 184.879 38.0774 184.811 38.1245C184.742 38.1717 184.661 38.1969 184.578 38.1969H182.677ZM191.555 31.108L196.4 19.0885C196.43 19.0129 196.483 18.948 196.55 18.9024C196.618 18.8568 196.698 18.8324 196.779 18.8324C196.861 18.8324 196.941 18.8568 197.008 18.9024C197.076 18.948 197.128 19.0129 197.159 19.0885L201.396 28.8638C201.424 28.9262 201.435 28.9946 201.43 29.0625C201.424 29.1305 201.402 29.196 201.364 29.2531C201.327 29.3102 201.276 29.357 201.216 29.3893C201.156 29.4216 201.088 29.4383 201.02 29.4381C198.73 29.4711 195.152 29.8539 192.136 31.6228C192.062 31.6708 191.974 31.6932 191.886 31.6866C191.799 31.6801 191.715 31.6449 191.649 31.5864C191.584 31.528 191.539 31.4496 191.522 31.3631C191.504 31.2767 191.516 31.1871 191.555 31.108Z" fill="#1C364F"/>
<path d="M43.2205 11.1483L42.9037 11.6895H2.56757L2.24414 11.1483H43.2205Z" fill="#1C364F"/>
<path d="M43.2205 38.7779H2.24414L2.72598 37.9594H42.7453L43.2205 38.7779Z" fill="#1C364F"/>
<path d="M11.0691 12.7258L10.8117 13.2736H3.94053L3.68311 12.7258H11.0691Z" fill="#1C364F"/>
<path d="M10.6797 13.5574L10.2902 14.3758H4.46194L4.0791 13.5574H10.6797Z" fill="#1C364F"/>
<path d="M4.62061 14.8181H5.94072V35.1806H4.62061V14.8181Z" fill="#1C364F"/>
<path d="M6.73242 14.8181H8.01293V35.1806H6.73242V14.8181Z" fill="#1C364F"/>
<path d="M8.83838 14.8181H10.1189V35.1806H8.83838V14.8181Z" fill="#1C364F"/>
<path d="M14.8711 14.8181H16.1516V35.1806H14.8711V14.8181Z" fill="#1C364F"/>
<path d="M16.9766 14.8181H18.2571V35.1806H16.9766V14.8181Z" fill="#1C364F"/>
<path d="M19.082 14.8181H20.3625V35.1806H19.082V14.8181Z" fill="#1C364F"/>
<path d="M25.082 14.8181H26.4021V35.1806H25.082V14.8181Z" fill="#1C364F"/>
<path d="M27.2144 14.8181H28.4949V35.1806H27.2144V14.8181Z" fill="#1C364F"/>
<path d="M29.3198 14.8181H30.6003V35.1806H29.3198V14.8181Z" fill="#1C364F"/>
<path d="M35.3525 14.8181H36.633V35.1806H35.3525V14.8181Z" fill="#1C364F"/>
<path d="M37.4585 14.8181H38.739V35.1806H37.4585V14.8181Z" fill="#1C364F"/>
<path d="M39.5571 14.8181H40.8376V35.1806H39.5571V14.8181Z" fill="#1C364F"/>
<path d="M22.7324 0L0 10.3033H45.4713L22.7324 0ZM22.7324 8.07896C22.406 8.07896 22.087 7.98218 21.8156 7.80087C21.5442 7.61955 21.3327 7.36184 21.2078 7.06032C21.0829 6.7588 21.0503 6.42702 21.1139 6.10693C21.1776 5.78683 21.3348 5.49281 21.5655 5.26204C21.7963 5.03127 22.0903 4.87411 22.4104 4.81044C22.7305 4.74677 23.0623 4.77945 23.3638 4.90434C23.6654 5.02923 23.9231 5.24073 24.1044 5.51209C24.2857 5.78345 24.3825 6.10248 24.3825 6.42885C24.3825 6.64554 24.3398 6.86012 24.2569 7.06032C24.174 7.26052 24.0524 7.44243 23.8992 7.59565C23.746 7.74888 23.564 7.87043 23.3638 7.95335C23.1636 8.03628 22.9491 8.07896 22.7324 8.07896Z" fill="#1C364F"/>
<path d="M11.0691 37.2729L10.8117 36.7251H3.94053L3.68311 37.2729H11.0691Z" fill="#1C364F"/>
<path d="M10.6797 36.4413L10.2902 35.6228H4.46194L4.0791 36.4413H10.6797Z" fill="#1C364F"/>
<path d="M21.313 12.7258L21.0556 13.2736H14.1844L13.9204 12.7258H21.313Z" fill="#1C364F"/>
<path d="M20.917 13.5574L20.5342 14.3692H14.7058L14.3164 13.5574H20.917Z" fill="#1C364F"/>
<path d="M14.8711 14.8181H16.1516V35.1806H14.8711V14.8181Z" fill="#1C364F"/>
<path d="M16.9766 14.8181H18.2571V35.1806H16.9766V14.8181Z" fill="#1C364F"/>
<path d="M19.0757 14.8181H20.3562V35.1806H19.0757V14.8181Z" fill="#1C364F"/>
<path d="M21.313 37.2729L21.0556 36.7251H14.1844L13.9204 37.2729H21.313Z" fill="#1C364F"/>
<path d="M20.917 36.4413L20.5342 35.6228H14.7058L14.3164 36.4413H20.917Z" fill="#1C364F"/>
<path d="M31.5508 12.7258L31.2934 13.2736H24.4222L24.1582 12.7258H31.5508Z" fill="#1C364F"/>
<path d="M31.1548 13.5574L30.7719 14.3692H24.9436L24.5542 13.5574H31.1548Z" fill="#1C364F"/>
<path d="M25.082 14.8181H26.4021V35.1806H25.082V14.8181Z" fill="#1C364F"/>
<path d="M27.2144 14.8181H28.4949V35.1806H27.2144V14.8181Z" fill="#1C364F"/>
<path d="M29.313 14.8181H30.5935V35.1806H29.313V14.8181Z" fill="#1C364F"/>
<path d="M31.5508 37.2729L31.2934 36.7251H24.4222L24.1582 37.2729H31.5508Z" fill="#1C364F"/>
<path d="M31.1548 36.4413L30.7719 35.6228H24.9436L24.5542 36.4413H31.1548Z" fill="#1C364F"/>
<path d="M41.7947 12.7258L41.5373 13.2736H34.6661L34.4087 12.7258H41.7947Z" fill="#1C364F"/>
<path d="M41.3989 13.5574L41.0161 14.3692H35.1878L34.7983 13.5574H41.3989Z" fill="#1C364F"/>
<path d="M35.3525 14.8181H36.633V35.1806H35.3525V14.8181Z" fill="#1C364F"/>
<path d="M37.4585 14.8181H38.739V35.1806H37.4585V14.8181Z" fill="#1C364F"/>
<path d="M39.564 14.8181H40.8379V35.1806H39.564V14.8181Z" fill="#1C364F"/>
<path d="M41.7947 37.2729L41.5373 36.7251H34.6661L34.4087 37.2729H41.7947Z" fill="#1C364F"/>
<path d="M41.3989 36.4413L41.0161 35.6228H35.1878L34.7983 36.4413H41.3989Z" fill="#1C364F"/>
</g>
<defs>
<clipPath id="clip0_347_896">
<rect width="209.7" height="38.7779" fill="white"/>
</clipPath>
</defs>
</svg>
