<svg width="165" height="31" viewBox="0 0 165 31" fill="none" xmlns="http://www.w3.org/2000/svg">
<g clip-path="url(#clip0_333_1014)">
<path d="M61.3542 30.0003V30.4565H53.7698V30.0003H56.6262L56.2011 28.9635C54.1275 24.5414 48.3213 24.2978 46.1232 24.3393C46.0633 24.3421 46.0055 24.3622 45.9567 24.3972C45.908 24.4321 45.8704 24.4804 45.8485 24.5363L43.6608 29.5493C43.6392 29.5991 43.6305 29.6534 43.6352 29.7074C43.6399 29.7614 43.658 29.8134 43.6878 29.8586C43.7177 29.9039 43.7583 29.941 43.8061 29.9667C43.8538 29.9923 43.9072 30.0056 43.9614 30.0055H46.5535V30.4617H40.1304V30.0055H41.9085C41.9717 30.0053 42.0334 29.9866 42.0859 29.9515C42.1385 29.9165 42.1796 29.8667 42.204 29.8085L49.7677 12.3484L50.6438 10.3318H51.9916L59.5605 29.7929C59.5836 29.8539 59.6248 29.9065 59.6785 29.9435C59.7322 29.9805 59.7959 30.0003 59.8611 30.0003H61.3542ZM54.3815 24.4326L50.5764 14.9923C50.5524 14.9329 50.5112 14.882 50.4581 14.8461C50.405 14.8103 50.3424 14.7911 50.2783 14.7911C50.2142 14.7911 50.1516 14.8103 50.0985 14.8461C50.0454 14.882 50.0042 14.9329 49.9802 14.9923L46.6572 22.6596C46.6356 22.7086 46.6266 22.7623 46.631 22.8157C46.6354 22.8691 46.6531 22.9205 46.6825 22.9654C46.7118 23.0102 46.7519 23.0469 46.7991 23.0723C46.8463 23.0977 46.8991 23.1109 46.9527 23.1106C48.7516 23.1365 51.5614 23.4372 53.9305 24.8266C53.9877 24.8597 54.0538 24.8741 54.1195 24.8678C54.1853 24.8614 54.2474 24.8346 54.2972 24.7911C54.3469 24.7477 54.3818 24.6897 54.3969 24.6254C54.4121 24.5611 54.4067 24.4937 54.3815 24.4326Z" fill="#1C364F"/>
<path d="M76.7253 10.6481V14.8783H76.269C76.269 14.0533 75.9413 13.2622 75.358 12.6789C74.7747 12.0955 73.9835 11.7678 73.1586 11.7678H70.3021C70.2155 11.7678 70.1324 11.8022 70.0711 11.8635C70.0099 11.9247 69.9755 12.0078 69.9755 12.0944V29.6373C69.9755 29.7239 70.0099 29.807 70.0711 29.8682C70.1324 29.9295 70.2155 29.9639 70.3021 29.9639H72.3757V30.4201H64.7706V29.9639H66.8443C66.9309 29.9639 67.014 29.9295 67.0752 29.8682C67.1365 29.807 67.1709 29.7239 67.1709 29.6373V12.0996C67.1709 12.013 67.1365 11.9299 67.0752 11.8687C67.014 11.8074 66.9309 11.773 66.8443 11.773H63.993C63.168 11.773 62.3768 12.1007 61.7935 12.684C61.2102 13.2674 60.8825 14.0585 60.8825 14.8834H60.4263V10.6481H76.7253Z" fill="#1C364F"/>
<path d="M98.4102 11.405V29.6373C98.4102 29.723 98.4438 29.8053 98.504 29.8664C98.5641 29.9275 98.6459 29.9625 98.7316 29.9639H100.805V30.4201H93.2105V29.9639H95.2841C95.3698 29.9625 95.4516 29.9275 95.5117 29.8664C95.5719 29.8053 95.6056 29.723 95.6055 29.6373V22.6648C95.6055 22.5795 95.5717 22.4978 95.5114 22.4375C95.4511 22.3772 95.3694 22.3433 95.2841 22.3433H84.5011C84.4159 22.3433 84.3341 22.3772 84.2739 22.4375C84.2136 22.4978 84.1797 22.5795 84.1797 22.6648V29.6373C84.1797 29.723 84.2134 29.8053 84.2735 29.8664C84.3337 29.9275 84.4154 29.9625 84.5011 29.9639H86.5748V30.4201H78.9541V29.9639H81.0278C81.1135 29.9625 81.1952 29.9275 81.2554 29.8664C81.3155 29.8053 81.3492 29.723 81.3492 29.6373V11.405C81.3492 11.3193 81.3155 11.237 81.2554 11.1759C81.1952 11.1148 81.1135 11.0798 81.0278 11.0784H78.9541V10.6222H86.5437V11.0784H84.47C84.3843 11.0798 84.3026 11.1148 84.2424 11.1759C84.1823 11.237 84.1486 11.3193 84.1486 11.405V20.7933C84.1486 20.879 84.1823 20.9613 84.2424 21.0224C84.3026 21.0835 84.3843 21.1185 84.47 21.1199H95.2738C95.3595 21.1185 95.4412 21.0835 95.5014 21.0224C95.5615 20.9613 95.5952 20.879 95.5952 20.7933V11.405C95.5952 11.3193 95.5615 11.237 95.5014 11.1759C95.4412 11.1148 95.3595 11.0798 95.2738 11.0784H93.2001V10.6222H100.79V11.0784H98.716C98.633 11.0837 98.5552 11.1204 98.4984 11.1811C98.4415 11.2418 98.41 11.3218 98.4102 11.405Z" fill="#1C364F"/>
<path d="M117.851 25.2619L118.484 25.4641L117.359 30.1608C117.341 30.233 117.3 30.2973 117.242 30.3434C117.184 30.3894 117.112 30.4146 117.037 30.4148H103.263V29.9586H105.337C105.423 29.9586 105.507 29.9242 105.568 29.863C105.629 29.8017 105.663 29.7187 105.663 29.632V11.4412C105.663 11.3546 105.629 11.2715 105.568 11.2103C105.507 11.149 105.423 11.1146 105.337 11.1146H103.263V10.6273H110.853V10.6584H117.037C117.112 10.6587 117.184 10.6838 117.242 10.7299C117.3 10.776 117.341 10.8402 117.359 10.9124L118.484 15.604L117.851 15.8114C116.529 11.8352 115.482 11.1146 108.784 11.1146C108.741 11.1139 108.697 11.1218 108.657 11.1379C108.616 11.1539 108.579 11.1778 108.548 11.2081C108.517 11.2384 108.492 11.2746 108.475 11.3146C108.457 11.3546 108.448 11.3976 108.447 11.4412V20.1245C108.449 20.2102 108.484 20.292 108.545 20.3521C108.606 20.4122 108.688 20.4459 108.774 20.4459H111.366C112.136 20.4459 112.874 20.14 113.419 19.5956C113.963 19.0512 114.269 18.3128 114.269 17.5428H114.725V23.8104H114.269C114.269 23.0404 113.963 22.302 113.419 21.7576C112.874 21.2131 112.136 20.9073 111.366 20.9073H108.774C108.688 20.9073 108.606 20.941 108.545 21.0011C108.484 21.0612 108.449 21.143 108.447 21.2287V29.632C108.448 29.6756 108.457 29.7186 108.475 29.7586C108.492 29.7986 108.517 29.8348 108.548 29.8651C108.579 29.8955 108.616 29.9193 108.657 29.9354C108.697 29.9514 108.741 29.9593 108.784 29.9586C115.482 29.9586 116.529 29.2381 117.851 25.2619Z" fill="#1C364F"/>
<path d="M141.2 10.6481V11.1043H140.329C140.243 11.1056 140.161 11.1406 140.101 11.2017C140.041 11.2628 140.007 11.3451 140.007 11.4309V30.0936C140.007 30.1788 139.973 30.2606 139.913 30.3209C139.853 30.3811 139.771 30.415 139.686 30.415H137.897C137.848 30.415 137.8 30.4038 137.756 30.3822C137.712 30.3607 137.673 30.3293 137.643 30.2906L124.756 13.546C124.715 13.4908 124.658 13.45 124.593 13.4294C124.528 13.4088 124.458 13.4096 124.393 13.4315C124.328 13.4535 124.272 13.4956 124.233 13.5516C124.194 13.6076 124.174 13.6746 124.175 13.743V29.6374C124.175 29.724 124.209 29.8071 124.271 29.8683C124.332 29.9296 124.415 29.964 124.502 29.964H125.367V30.4202H121.853V29.964H122.723C122.81 29.964 122.893 29.9296 122.954 29.8683C123.016 29.8071 123.05 29.724 123.05 29.6374V11.4309C123.05 11.3442 123.016 11.2612 122.954 11.1999C122.893 11.1387 122.81 11.1043 122.723 11.1043H121.853V10.6377H125.901C125.952 10.6375 126.001 10.6491 126.046 10.6716C126.091 10.6941 126.13 10.7269 126.161 10.7673L138.302 26.5891C138.342 26.6443 138.399 26.6851 138.464 26.7057C138.529 26.7263 138.6 26.7255 138.664 26.7036C138.729 26.6816 138.785 26.6396 138.824 26.5836C138.864 26.5275 138.884 26.4605 138.882 26.3921V11.4309C138.882 11.3451 138.849 11.2628 138.789 11.2017C138.728 11.1406 138.647 11.1056 138.561 11.1043H137.685V10.6481H141.2Z" fill="#1C364F"/>
<path d="M143.476 30V30.4562H151.06V30H148.204L148.629 28.9632C150.703 24.5412 156.509 24.2976 158.702 24.3391C158.762 24.3416 158.821 24.3615 158.871 24.3964C158.92 24.4313 158.959 24.4798 158.982 24.5361L161.159 29.5594C161.18 29.6088 161.189 29.6626 161.185 29.7162C161.18 29.7698 161.163 29.8214 161.133 29.8666C161.104 29.9117 161.064 29.9489 161.017 29.9749C160.97 30.0009 160.917 30.0149 160.864 30.0156H158.272V30.4718H164.7V30.0156H162.922C162.858 30.0151 162.796 29.9963 162.742 29.9613C162.689 29.9264 162.647 29.8769 162.621 29.8186L155.057 12.3484L154.181 10.3318H152.839L145.27 29.7927C145.247 29.8537 145.205 29.9062 145.152 29.9432C145.098 29.9803 145.034 30.0001 144.969 30H143.476ZM150.449 24.4324L154.254 14.9922C154.278 14.9328 154.319 14.8819 154.372 14.8461C154.425 14.8102 154.488 14.791 154.552 14.791C154.616 14.791 154.679 14.8102 154.732 14.8461C154.785 14.8819 154.826 14.9328 154.85 14.9922L158.178 22.6698C158.2 22.7188 158.209 22.7725 158.204 22.8259C158.2 22.8793 158.182 22.9307 158.153 22.9756C158.124 23.0204 158.083 23.0571 158.036 23.0825C157.989 23.1079 157.936 23.121 157.883 23.1208C156.084 23.1467 153.274 23.4474 150.905 24.8367C150.847 24.8744 150.778 24.892 150.709 24.8869C150.64 24.8817 150.575 24.8541 150.523 24.8082C150.471 24.7623 150.436 24.7007 150.422 24.6328C150.409 24.5649 150.418 24.4945 150.449 24.4324Z" fill="#1C364F"/>
<path d="M33.9459 8.75598L33.697 9.18108H2.01672L1.7627 8.75598H33.9459Z" fill="#1C364F"/>
<path d="M33.9459 30.4564H1.7627L2.14114 29.8136H33.5726L33.9459 30.4564Z" fill="#1C364F"/>
<path d="M8.69361 9.99487L8.49143 10.4252H3.09476L2.89258 9.99487H8.69361Z" fill="#1C364F"/>
<path d="M8.38775 10.6481L8.08189 11.2909H3.50429L3.20361 10.6481H8.38775Z" fill="#1C364F"/>
<path d="M3.62891 11.6382H4.66574V27.6311H3.62891V11.6382Z" fill="#1C364F"/>
<path d="M5.2876 11.6382H6.29332V27.6311H5.2876V11.6382Z" fill="#1C364F"/>
<path d="M6.94141 11.6382H7.94713V27.6311H6.94141V11.6382Z" fill="#1C364F"/>
<path d="M11.6797 11.6382H12.6854V27.6311H11.6797V11.6382Z" fill="#1C364F"/>
<path d="M13.3335 11.6382H14.3392V27.6311H13.3335V11.6382Z" fill="#1C364F"/>
<path d="M14.9873 11.6382H15.993V27.6311H14.9873V11.6382Z" fill="#1C364F"/>
<path d="M19.6997 11.6382H20.7365V27.6311H19.6997V11.6382Z" fill="#1C364F"/>
<path d="M21.374 11.6382H22.3797V27.6311H21.374V11.6382Z" fill="#1C364F"/>
<path d="M23.0278 11.6382H24.0336V27.6311H23.0278V11.6382Z" fill="#1C364F"/>
<path d="M27.7661 11.6382H28.7718V27.6311H27.7661V11.6382Z" fill="#1C364F"/>
<path d="M29.4199 11.6382H30.4256V27.6311H29.4199V11.6382Z" fill="#1C364F"/>
<path d="M31.0684 11.6382H32.0741V27.6311H31.0684V11.6382Z" fill="#1C364F"/>
<path d="M17.8542 0L0 8.09232H35.7136L17.8542 0ZM17.8542 6.34529C17.5979 6.34529 17.3473 6.26928 17.1342 6.12687C16.921 5.98446 16.7549 5.78205 16.6568 5.54524C16.5587 5.30842 16.5331 5.04784 16.5831 4.79643C16.6331 4.54503 16.7565 4.3141 16.9378 4.13285C17.119 3.9516 17.3499 3.82817 17.6013 3.77816C17.8528 3.72815 18.1133 3.75382 18.3502 3.85191C18.587 3.95 18.7894 4.11612 18.9318 4.32925C19.0742 4.54237 19.1502 4.79295 19.1502 5.04927C19.1502 5.21947 19.1167 5.388 19.0516 5.54524C18.9864 5.70248 18.891 5.84535 18.7706 5.96569C18.6503 6.08604 18.5074 6.1815 18.3502 6.24663C18.1929 6.31177 18.0244 6.34529 17.8542 6.34529Z" fill="#1C364F"/>
<path d="M8.69361 29.2744L8.49143 28.8441H3.09476L2.89258 29.2744H8.69361Z" fill="#1C364F"/>
<path d="M8.38775 28.6212L8.08189 27.9784H3.50429L3.20361 28.6212H8.38775Z" fill="#1C364F"/>
<path d="M16.7393 9.99487L16.5371 10.4252H11.1405L10.9331 9.99487H16.7393Z" fill="#1C364F"/>
<path d="M16.4288 10.6481L16.1281 11.2857H11.5505L11.2446 10.6481H16.4288Z" fill="#1C364F"/>
<path d="M11.6797 11.6382H12.6854V27.6311H11.6797V11.6382Z" fill="#1C364F"/>
<path d="M13.3335 11.6382H14.3392V27.6311H13.3335V11.6382Z" fill="#1C364F"/>
<path d="M14.9819 11.6382H15.9877V27.6311H14.9819V11.6382Z" fill="#1C364F"/>
<path d="M16.7393 29.2744L16.5371 28.8441H11.1405L10.9331 29.2744H16.7393Z" fill="#1C364F"/>
<path d="M16.4288 28.6212L16.1281 27.9784H11.5505L11.2446 28.6212H16.4288Z" fill="#1C364F"/>
<path d="M24.7803 9.99487L24.5782 10.4252H19.1815L18.9741 9.99487H24.7803Z" fill="#1C364F"/>
<path d="M24.4693 10.6481L24.1686 11.2857H19.591L19.2852 10.6481H24.4693Z" fill="#1C364F"/>
<path d="M19.6997 11.6382H20.7365V27.6311H19.6997V11.6382Z" fill="#1C364F"/>
<path d="M21.374 11.6382H22.3797V27.6311H21.374V11.6382Z" fill="#1C364F"/>
<path d="M23.0229 11.6382H24.0287V27.6311H23.0229V11.6382Z" fill="#1C364F"/>
<path d="M24.7803 29.2744L24.5782 28.8441H19.1815L18.9741 29.2744H24.7803Z" fill="#1C364F"/>
<path d="M24.4693 28.6212L24.1686 27.9784H19.591L19.2852 28.6212H24.4693Z" fill="#1C364F"/>
<path d="M32.8259 9.99487L32.6238 10.4252H27.2271L27.0249 9.99487H32.8259Z" fill="#1C364F"/>
<path d="M32.5147 10.6481L32.214 11.2857H27.6364L27.3306 10.6481H32.5147Z" fill="#1C364F"/>
<path d="M27.7661 11.6382H28.7718V27.6311H27.7661V11.6382Z" fill="#1C364F"/>
<path d="M29.4199 11.6382H30.4256V27.6311H29.4199V11.6382Z" fill="#1C364F"/>
<path d="M31.0737 11.6382H32.0743V27.6311H31.0737V11.6382Z" fill="#1C364F"/>
<path d="M32.8259 29.2744L32.6238 28.8441H27.2271L27.0249 29.2744H32.8259Z" fill="#1C364F"/>
<path d="M32.5147 28.6212L32.214 27.9784H27.6364L27.3306 28.6212H32.5147Z" fill="#1C364F"/>
</g>
<defs>
<clipPath id="clip0_333_1014">
<rect width="164.7" height="30.4565" fill="white"/>
</clipPath>
</defs>
</svg>
