<svg width="39" height="39" viewBox="0 0 39 39" fill="none" xmlns="http://www.w3.org/2000/svg">
<path d="M19.16 38.32C29.7418 38.32 38.32 29.7418 38.32 19.16C38.32 8.57822 29.7418 0 19.16 0C8.57822 0 0 8.57822 0 19.16C0 29.7418 8.57822 38.32 19.16 38.32Z" fill="#8CC3F2"/>
<path d="M10 27.85V30.54H28.3V27.85C28.2935 27.1146 28.1421 26.3876 27.8547 25.7107C27.5672 25.0338 27.1492 24.4201 26.6245 23.9047C26.0999 23.3894 25.4788 22.9824 24.7969 22.707C24.1149 22.4317 23.3854 22.2934 22.65 22.3H22.34C23.0726 21.9046 23.7194 21.3679 24.2429 20.7207C24.7665 20.0736 25.1564 19.3289 25.39 18.53H25.48C25.6852 18.5353 25.8894 18.4998 26.0808 18.4255C26.2722 18.3513 26.4469 18.2397 26.5949 18.0974C26.7428 17.955 26.861 17.7847 26.9425 17.5963C27.0241 17.4079 27.0674 17.2052 27.07 17V16.51C27.0675 16.1528 26.9418 15.8074 26.714 15.5323C26.4862 15.2571 26.1704 15.0691 25.82 15C25.8352 14.7802 25.8352 14.5597 25.82 14.34V14.3C25.8296 14.1334 25.8296 13.9665 25.82 13.8V13.8C25.6835 12.3382 25.0157 10.9772 23.9431 9.97466C22.8706 8.97213 21.4677 8.39765 20 8.35997H19.93C19.9074 8.33466 19.8796 8.31444 19.8486 8.30065C19.8176 8.28686 19.784 8.27981 19.75 8.27997C19.7017 8.28371 19.6547 8.29715 19.6118 8.31949C19.5688 8.34183 19.5308 8.3726 19.5 8.40997V8.40997C19.15 8.04997 18.89 7.83997 18.66 7.83997C18.1096 7.95992 17.5826 8.16937 17.1 8.45997L16.86 8.65997C15.6174 9.02707 14.5271 9.78653 13.752 10.8248C12.9769 11.863 12.5587 13.1243 12.56 14.42V14.54C12.56 14.73 12.56 14.91 12.56 15.08C12.202 15.1344 11.875 15.3139 11.637 15.5867C11.3989 15.8596 11.2654 16.2079 11.26 16.57V17C11.2639 17.2035 11.3079 17.4043 11.3894 17.5909C11.4709 17.7775 11.5884 17.9461 11.7351 18.0873C11.8818 18.2284 12.0549 18.3393 12.2445 18.4135C12.4341 18.4878 12.6364 18.5239 12.84 18.52H12.94C13.1721 19.3223 13.5624 20.0701 14.0879 20.7193C14.6134 21.3685 15.2636 21.9059 16 22.3H15.69C14.9516 22.2894 14.2184 22.4247 13.5324 22.6982C12.8464 22.9716 12.2212 23.3778 11.6925 23.8934C11.1639 24.4091 10.7423 25.024 10.4518 25.703C10.1614 26.3819 10.0078 27.1115 10 27.85V27.85ZM25.65 15.92C25.7868 15.9511 25.9094 16.0271 25.9981 16.1358C26.0869 16.2444 26.1368 16.3797 26.14 16.52V17C26.1364 17.1533 26.0779 17.3002 25.9751 17.4139C25.8723 17.5277 25.7321 17.6008 25.58 17.62C25.6119 17.3746 25.6286 17.1274 25.63 16.88C25.6249 16.6423 25.6049 16.4051 25.57 16.17C25.6021 16.0885 25.6288 16.005 25.65 15.92V15.92ZM12.19 17V16.51C12.1936 16.3593 12.251 16.2149 12.3519 16.103C12.4528 15.9911 12.5905 15.9191 12.74 15.9V16.25C12.74 16.46 12.74 16.67 12.74 16.88C12.7414 17.1274 12.7581 17.3746 12.79 17.62C12.6299 17.6124 12.4787 17.544 12.3672 17.4288C12.2557 17.3136 12.1924 17.1602 12.19 17ZM19.19 25.45C18.3944 25.45 17.6313 25.1339 17.0687 24.5713C16.5061 24.0087 16.19 23.2456 16.19 22.45V22.38L16.56 22.56C17.392 22.9132 18.2861 23.0968 19.19 23.1C20.0946 23.1038 20.9901 22.9199 21.82 22.56L22.19 22.38C22.19 22.38 22.19 22.38 22.19 22.45C22.1913 22.8473 22.1137 23.241 21.9617 23.6081C21.8097 23.9752 21.5862 24.3084 21.3043 24.5884C21.0224 24.8685 20.6877 25.0897 20.3196 25.2393C19.9515 25.3889 19.5573 25.4639 19.16 25.46L19.19 25.45ZM13.89 18.39C13.7951 18.0838 13.7315 17.7689 13.7 17.45C13.6844 17.2603 13.6844 17.0696 13.7 16.88C13.703 16.6152 13.7264 16.3511 13.77 16.09C13.77 15.97 13.82 15.85 13.84 15.73C14.6585 15.1964 15.3734 14.5187 15.95 13.73C15.95 13.73 22.09 15.17 24.32 15.34H24.51C24.5897 15.5957 24.6532 15.8562 24.7 16.12C24.7436 16.3811 24.767 16.6452 24.77 16.91C24.7806 17.0998 24.7806 17.2901 24.77 17.48C24.7385 17.7989 24.6749 18.1138 24.58 18.42C24.2049 19.5295 23.4913 20.4935 22.5396 21.1763C21.588 21.8591 20.4462 22.2264 19.275 22.2264C18.1038 22.2264 16.962 21.8591 16.0103 21.1763C15.0587 20.4935 14.3451 19.5295 13.97 18.42L13.89 18.39Z" fill="#1C364F"/>
<path d="M18.34 16.0001C18.3199 15.9744 18.294 15.9539 18.2645 15.94C18.235 15.9261 18.2026 15.9193 18.17 15.9201H14.26C14.2249 15.9188 14.19 15.9264 14.1585 15.9421C14.1271 15.9578 14.1001 15.9812 14.08 16.0101C14.055 16.0709 14.055 16.1392 14.08 16.2001L14.6 18.0301C14.6115 18.0767 14.6385 18.1181 14.6767 18.1472C14.715 18.1763 14.762 18.1914 14.81 18.1901H17.81C17.8594 18.191 17.9076 18.1744 17.946 18.1433C17.9844 18.1122 18.0106 18.0686 18.02 18.0201L18.23 17.0001C18.3057 16.9072 18.4063 16.8378 18.52 16.8001C18.7283 16.7246 18.9485 16.6873 19.17 16.6901C19.3884 16.6865 19.6054 16.7238 19.81 16.8001C19.9181 16.8384 20.0145 16.9038 20.09 16.9901L20.3 18.0501C20.3115 18.0994 20.3397 18.1432 20.3798 18.1742C20.4199 18.2052 20.4694 18.2214 20.52 18.2201H23.52C23.5681 18.2214 23.6151 18.2063 23.6533 18.1772C23.6915 18.1481 23.7186 18.1067 23.73 18.0601L24.24 16.2301C24.255 16.2006 24.2627 16.1681 24.2627 16.1351C24.2627 16.102 24.255 16.0695 24.24 16.0401C24.2188 16.0124 24.1916 15.9899 24.1604 15.9743C24.1292 15.9587 24.0949 15.9504 24.06 15.9501H20.15C20.0957 15.9485 20.0426 15.9662 20 16.0001C19.9851 16.0295 19.9773 16.062 19.9773 16.0951C19.9773 16.1281 19.9851 16.1606 20 16.1901V16.3501C19.745 16.2518 19.4733 16.2042 19.2 16.2101C18.9236 16.2044 18.6486 16.252 18.39 16.3501V16.1901C18.397 16.1567 18.3961 16.1221 18.3874 16.0892C18.3787 16.0562 18.3625 16.0257 18.34 16.0001V16.0001ZM17.82 16.7801C17.8181 16.8034 17.8181 16.8268 17.82 16.8501V16.8501L17.64 17.7401H14.94L14.55 16.3501H17.91L17.82 16.7801ZM23.82 16.3601L23.43 17.7501H20.7L20.52 16.8601C20.5252 16.837 20.5252 16.8131 20.52 16.7901L20.44 16.3701L23.82 16.3601Z" fill="#1C364F"/>
<path d="M20.9999 19.67C20.9432 20.1087 20.7287 20.5117 20.3966 20.8038C20.0644 21.0958 19.6372 21.2569 19.1949 21.2569C18.7526 21.2569 18.3254 21.0958 17.9932 20.8038C17.661 20.5117 17.4466 20.1087 17.3899 19.67H20.9999Z" fill="#1C364F"/>
</svg>
