<svg width="22" height="27" viewBox="0 0 22 27" fill="none" xmlns="http://www.w3.org/2000/svg">
<path d="M0 23.8004V27H22V23.8004C21.9921 22.9257 21.8102 22.0611 21.4646 21.2559C21.119 20.4508 20.6165 19.7209 19.9857 19.1079C19.355 18.4949 18.6084 18.0108 17.7886 17.6833C16.9688 17.3558 16.0918 17.1913 15.2077 17.1991H14.835C15.7156 16.7289 16.4932 16.0904 17.1226 15.3207C17.752 14.551 18.2208 13.6653 18.5016 12.715H18.6098C18.8565 12.7213 19.1021 12.6791 19.3321 12.5907C19.5622 12.5024 19.7723 12.3697 19.9501 12.2004C20.1279 12.0311 20.27 11.8286 20.3681 11.6045C20.4661 11.3804 20.5182 11.1393 20.5213 10.8952V10.3123C20.5183 9.88749 20.3672 9.4767 20.0934 9.14944C19.8195 8.82217 19.4399 8.59852 19.0186 8.5163C19.0369 8.25494 19.0369 7.99264 19.0186 7.73128V7.6837C19.0301 7.48563 19.0301 7.28706 19.0186 7.08899C18.8544 5.3503 18.0517 3.7315 16.7622 2.53907C15.4728 1.34663 13.7863 0.66332 12.0219 0.618502H11.9377C11.9105 0.588398 11.8771 0.564352 11.8398 0.547949C11.8025 0.531546 11.7621 0.52316 11.7213 0.523347C11.6633 0.527801 11.6068 0.54379 11.5551 0.570359C11.5035 0.596927 11.4578 0.633528 11.4208 0.677973C11 0.249779 10.6874 0 10.4109 0C9.74924 0.142679 9.11568 0.391803 8.53552 0.737445L8.247 0.97533C6.7532 1.41197 5.4424 2.3153 4.5106 3.55023C3.5788 4.78516 3.07607 6.28534 3.0776 7.82643V7.96916C3.0776 8.19515 3.0776 8.40925 3.0776 8.61145C2.64727 8.67614 2.25408 8.88972 1.96792 9.21422C1.68177 9.53872 1.52119 9.9531 1.51475 10.3837V10.8952C1.51945 11.1373 1.5723 11.3761 1.67031 11.598C1.76831 11.8199 1.90954 12.0205 2.08593 12.1884C2.26232 12.3563 2.47041 12.4882 2.69832 12.5765C2.92623 12.6648 3.16949 12.7078 3.41421 12.7031H3.53443C3.81344 13.6574 4.28265 14.5468 4.91444 15.319C5.54622 16.0912 6.32779 16.7304 7.21312 17.1991H6.84044C5.95275 17.1865 5.07128 17.3475 4.2466 17.6727C3.42192 17.998 2.67026 18.4811 2.03474 19.0944C1.39921 19.7077 0.892323 20.4392 0.543154 21.2467C0.193985 22.0543 0.00940402 22.9221 0 23.8004ZM18.8142 9.61057C18.9787 9.64762 19.126 9.73795 19.2327 9.86724C19.3394 9.99652 19.3995 10.1574 19.4033 10.3242V10.8952C19.399 11.0775 19.3286 11.2522 19.2051 11.3876C19.0815 11.5229 18.9129 11.6099 18.7301 11.6326C18.7684 11.3407 18.7885 11.0468 18.7902 10.7524C18.784 10.4697 18.7599 10.1877 18.718 9.90793C18.7566 9.811 18.7888 9.71167 18.8142 9.61057ZM2.63279 10.8952V10.3123C2.63708 10.1331 2.70614 9.96142 2.82746 9.8283C2.94877 9.69518 3.11429 9.60949 3.29399 9.58678V10.0031C3.29399 10.2529 3.29399 10.5026 3.29399 10.7524C3.29566 11.0468 3.31574 11.3407 3.3541 11.6326C3.16161 11.6235 2.97984 11.5422 2.84583 11.4052C2.71181 11.2682 2.63563 11.0858 2.63279 10.8952ZM11.0481 20.9458C10.0916 20.9458 9.17423 20.5699 8.49787 19.9007C7.82151 19.2315 7.44153 18.3239 7.44153 17.3775V17.2943L7.88634 17.5084C8.88654 17.9285 9.96147 18.1469 11.0481 18.1507C12.1356 18.1552 13.2122 17.9365 14.2098 17.5084L14.6546 17.2943C14.6546 17.2943 14.6546 17.2943 14.6546 17.3775C14.6563 17.8501 14.563 18.3184 14.3802 18.755C14.1974 19.1917 13.9288 19.588 13.5899 19.9211C13.251 20.2542 12.8486 20.5173 12.4061 20.6953C11.9635 20.8732 11.4897 20.9624 11.012 20.9577L11.0481 20.9458ZM4.6765 12.5485C4.56244 12.1843 4.48591 11.8098 4.44809 11.4304C4.42935 11.2048 4.42935 10.978 4.44809 10.7524C4.45173 10.4375 4.47987 10.1234 4.53224 9.81277C4.53224 9.67004 4.59235 9.52731 4.61639 9.38458C5.60035 8.74989 6.45979 7.94389 7.15301 7.00573C7.15301 7.00573 14.5344 8.7185 17.2153 8.9207H17.4437C17.5396 9.22488 17.6158 9.53475 17.6721 9.84846C17.7245 10.1591 17.7526 10.4732 17.7563 10.7881C17.7691 11.0139 17.7691 11.2403 17.7563 11.4661C17.7185 11.8454 17.6419 12.22 17.5279 12.5841C17.0769 13.9039 16.219 15.0505 15.075 15.8626C13.931 16.6748 12.5583 17.1116 11.1503 17.1116C9.74221 17.1116 8.36959 16.6748 7.22556 15.8626C6.08152 15.0505 5.22366 13.9039 4.77268 12.5841L4.6765 12.5485Z" fill="#3F72A4"/>
<path d="M10.0262 9.7064C10.0019 9.67593 9.97083 9.65147 9.93535 9.63495C9.89988 9.61843 9.861 9.61032 9.82181 9.61125H5.12126C5.07902 9.60974 5.03707 9.61875 4.99926 9.63745C4.96145 9.65616 4.929 9.68395 4.90487 9.71829C4.87481 9.79069 4.87481 9.87189 4.90487 9.94429L5.53001 12.1209C5.54373 12.1764 5.57629 12.2256 5.62223 12.2603C5.66817 12.2949 5.72473 12.3129 5.78247 12.3112H9.38902C9.44842 12.3123 9.50631 12.2926 9.55248 12.2556C9.59866 12.2187 9.63018 12.1668 9.64148 12.109L9.89394 10.8958C9.98492 10.7853 10.1059 10.7028 10.2426 10.6579C10.493 10.5681 10.7577 10.5238 11.024 10.5271C11.2865 10.5228 11.5474 10.5672 11.7934 10.6579C11.9233 10.7035 12.0392 10.7813 12.13 10.8839L12.3825 12.1447C12.3963 12.2034 12.4301 12.2556 12.4783 12.2924C12.5265 12.3292 12.5861 12.3485 12.6469 12.3469H16.2535C16.3112 12.3486 16.3678 12.3306 16.4137 12.2959C16.4597 12.2613 16.4922 12.2121 16.506 12.1566L17.1191 9.97997C17.137 9.94495 17.1464 9.90624 17.1464 9.86697C17.1464 9.82771 17.137 9.789 17.1191 9.75398C17.0936 9.72108 17.0608 9.69434 17.0233 9.67579C16.9859 9.65725 16.9446 9.64738 16.9027 9.64693H12.2021C12.1368 9.64505 12.0729 9.66612 12.0218 9.7064C12.0039 9.74142 11.9945 9.78013 11.9945 9.8194C11.9945 9.85866 12.0039 9.89737 12.0218 9.93239V10.1227C11.7152 10.0058 11.3885 9.94924 11.0601 9.95618C10.7277 9.9495 10.3971 10.006 10.0863 10.1227V9.93239C10.0947 9.89269 10.0936 9.85161 10.0832 9.81239C10.0727 9.77317 10.0532 9.73688 10.0262 9.7064ZM9.40104 10.6342C9.39876 10.6619 9.39876 10.6897 9.40104 10.7174L9.18465 11.776H5.93875L5.4699 10.1227H9.50924L9.40104 10.6342ZM16.6142 10.1346L16.1453 11.7879H12.8633L12.6469 10.7293C12.6532 10.7019 12.6532 10.6735 12.6469 10.646L12.5508 10.1465L16.6142 10.1346Z" fill="#3F72A4"/>
<path d="M13.2239 14.071C13.1558 14.5928 12.898 15.0722 12.4986 15.4195C12.0993 15.7669 11.5857 15.9584 11.054 15.9584C10.5222 15.9584 10.0087 15.7669 9.60935 15.4195C9.21 15.0722 8.95216 14.5928 8.88403 14.071H13.2239Z" fill="#3F72A4"/>
</svg>
