<svg width="175" height="33" viewBox="0 0 175 33" fill="none" xmlns="http://www.w3.org/2000/svg">
<path d="M65.0901 31.83V32.31H57.0001V31.83H60.0001L59.5501 30.71C57.3501 26.02 51.2001 25.71 48.8701 25.81C48.8042 25.8086 48.7397 25.8282 48.6857 25.866C48.6318 25.9037 48.5913 25.9577 48.5701 26.02L46.2601 31.35C46.239 31.4027 46.231 31.4598 46.2369 31.5163C46.2428 31.5727 46.2623 31.6269 46.2938 31.6742C46.3253 31.7214 46.3678 31.7603 46.4177 31.7874C46.4676 31.8146 46.5233 31.8292 46.5801 31.83H49.3301V32.31H42.5701V31.83H44.4601C44.5266 31.8292 44.5915 31.8088 44.6466 31.7715C44.7017 31.7342 44.7446 31.6815 44.7701 31.62L52.7701 13.1L53.7301 11H55.1501L63.1501 31.65C63.1768 31.7134 63.2211 31.7679 63.2779 31.8068C63.3346 31.8458 63.4013 31.8678 63.4701 31.87L65.0901 31.83ZM57.6901 25.92L53.6901 15.92C53.6646 15.8573 53.621 15.8037 53.5649 15.7659C53.5088 15.7281 53.4427 15.708 53.3751 15.708C53.3074 15.708 53.2413 15.7281 53.1852 15.7659C53.1291 15.8037 53.0855 15.8573 53.0601 15.92L49.4901 24C49.4667 24.0518 49.4566 24.1086 49.4608 24.1653C49.4651 24.222 49.4835 24.2767 49.5143 24.3245C49.5451 24.3722 49.5874 24.4115 49.6374 24.4386C49.6873 24.4658 49.7432 24.48 49.8001 24.48C52.3839 24.4529 54.9328 25.0789 57.2101 26.3C57.2676 26.3278 57.3318 26.3389 57.3953 26.3319C57.4589 26.325 57.5191 26.3002 57.5693 26.2605C57.6194 26.2209 57.6573 26.1679 57.6786 26.1077C57.7 26.0474 57.704 25.9824 57.6901 25.92Z" fill="#E8F3FF"/>
<path d="M81.3801 11.3V15.79H80.8901C80.8914 15.3572 80.8073 14.9283 80.6425 14.5279C80.4778 14.1276 80.2357 13.7638 79.93 13.4572C79.6244 13.1506 79.2613 12.9074 78.8614 12.7414C78.4616 12.5755 78.033 12.49 77.6001 12.49H74.6001C74.509 12.4927 74.4225 12.5307 74.3591 12.596C74.2956 12.6614 74.2601 12.7489 74.2601 12.84V31.4501C74.2601 31.5402 74.2959 31.6267 74.3597 31.6905C74.4234 31.7542 74.5099 31.7901 74.6001 31.7901H76.7901V32.2701H68.7101V31.7901H70.9001C70.9912 31.7901 71.0788 31.7546 71.1441 31.6911C71.2095 31.6276 71.2475 31.5411 71.2501 31.4501V12.84C71.2501 12.7472 71.2132 12.6582 71.1476 12.5926C71.0819 12.5269 70.9929 12.49 70.9001 12.49H67.9001C67.0249 12.49 66.1855 12.8377 65.5667 13.4566C64.9478 14.0755 64.6001 14.9148 64.6001 15.79H64.1001V11.3H81.3801Z" fill="#E8F3FF"/>
<path d="M104.4 12.12V31.45C104.4 31.5402 104.436 31.6267 104.5 31.6905C104.563 31.7542 104.65 31.79 104.74 31.79H106.94V32.27H98.94V31.79H101.13C101.22 31.79 101.307 31.7542 101.37 31.6905C101.434 31.6267 101.47 31.5402 101.47 31.45V24.05C101.47 23.9589 101.435 23.8714 101.371 23.806C101.308 23.7407 101.221 23.7026 101.13 23.7H89.62C89.5289 23.7026 89.4425 23.7407 89.379 23.806C89.3155 23.8714 89.28 23.9589 89.28 24.05V31.45C89.28 31.5402 89.3158 31.6267 89.3796 31.6905C89.4434 31.7542 89.5298 31.79 89.62 31.79H91.81V32.27H83.81V31.79H86C86.0911 31.7901 86.1787 31.7546 86.244 31.6911C86.3094 31.6276 86.3474 31.5411 86.35 31.45V12.12C86.35 12.0272 86.3131 11.9382 86.2475 11.8726C86.1819 11.8069 86.0928 11.77 86 11.77H83.76V11.29H91.76V11.77H89.62C89.5289 11.7726 89.4425 11.8107 89.379 11.876C89.3155 11.9414 89.28 12.0289 89.28 12.12V22.06C89.28 22.1502 89.3158 22.2367 89.3796 22.3005C89.4434 22.3642 89.5298 22.4 89.62 22.4H101.08C101.17 22.4 101.257 22.3642 101.32 22.3005C101.384 22.2367 101.42 22.1502 101.42 22.06V12.12C101.42 12.0289 101.385 11.9414 101.321 11.876C101.258 11.8107 101.171 11.7726 101.08 11.77H98.89V11.29H106.89V11.77H104.69C104.607 11.7823 104.531 11.8248 104.478 11.8895C104.424 11.9541 104.397 12.0362 104.4 12.12Z" fill="#E8F3FF"/>
<path d="M125 26.7999L125.67 27.0199L124.47 32.0199C124.454 32.0958 124.413 32.164 124.353 32.2131C124.293 32.2622 124.218 32.2893 124.14 32.2899H109.55V31.7999H111.74C111.831 31.8 111.919 31.7645 111.984 31.701C112.049 31.6375 112.087 31.551 112.09 31.4599V12.1399C112.09 12.0471 112.053 11.9581 111.988 11.8925C111.922 11.8268 111.833 11.7899 111.74 11.7899H109.55V11.2699H117.55H124.12C124.198 11.2686 124.274 11.2951 124.335 11.3445C124.395 11.3939 124.436 11.4632 124.45 11.5399L125.65 16.5399L124.98 16.7499C123.57 12.5399 122.47 11.7499 115.36 11.7499C115.266 11.7499 115.176 11.7865 115.109 11.8518C115.042 11.9172 115.003 12.0062 115 12.0999V21.3099C115.003 21.401 115.041 21.4875 115.106 21.551C115.171 21.6145 115.259 21.65 115.35 21.6499H118.09C118.907 21.6499 119.69 21.3254 120.268 20.7478C120.846 20.1702 121.17 19.3868 121.17 18.5699H121.66V25.2199H121.17C121.17 24.4031 120.846 23.6197 120.268 23.0421C119.69 22.4644 118.907 22.1399 118.09 22.1399H115.4C115.309 22.1399 115.221 22.1754 115.156 22.2389C115.091 22.3024 115.053 22.3889 115.05 22.4799V31.3999C115.051 31.4459 115.062 31.4912 115.08 31.5331C115.099 31.5751 115.126 31.613 115.16 31.6445C115.193 31.6761 115.232 31.7008 115.275 31.7172C115.318 31.7335 115.364 31.7413 115.41 31.7399C122.52 31.7799 123.63 30.9999 125 26.7999Z" fill="#E8F3FF"/>
<path d="M149.8 11.3V11.78H148.88C148.787 11.78 148.698 11.8169 148.633 11.8826C148.567 11.9482 148.53 12.0372 148.53 12.13V31.93C148.53 32.0212 148.495 32.1087 148.431 32.1741C148.368 32.2394 148.281 32.2774 148.19 32.28H146.27C146.217 32.2809 146.164 32.2686 146.117 32.2442C146.07 32.2197 146.03 32.184 146 32.14L132.36 14.37C132.315 14.3152 132.254 14.2754 132.186 14.2559C132.117 14.2364 132.045 14.2382 131.978 14.261C131.91 14.2838 131.851 14.3265 131.809 14.3835C131.767 14.4405 131.743 14.509 131.74 14.58V31.4501C131.74 31.5402 131.776 31.6267 131.84 31.6905C131.903 31.7542 131.99 31.7901 132.08 31.7901H133V32.2701H129.28V31.7901H130.2C130.29 31.7901 130.377 31.7542 130.44 31.6905C130.504 31.6267 130.54 31.5402 130.54 31.4501V12.13C130.54 12.0389 130.505 11.9514 130.441 11.886C130.378 11.8207 130.291 11.7827 130.2 11.78H129.28V11.29H133.57C133.622 11.2897 133.673 11.3012 133.72 11.3237C133.767 11.3462 133.808 11.3792 133.84 11.42L146.73 28.21C146.773 28.2667 146.834 28.3083 146.902 28.3289C146.97 28.3496 147.043 28.3481 147.111 28.3249C147.178 28.3017 147.237 28.2578 147.278 28.1995C147.319 28.1412 147.341 28.0714 147.34 28V12.13C147.34 12.0389 147.305 11.9514 147.241 11.886C147.178 11.8207 147.091 11.7827 147 11.78H146.07V11.3H149.8Z" fill="#E8F3FF"/>
<path d="M152.21 31.83V32.31H160.21V31.83H157.21L157.66 30.71C159.86 26.02 166.02 25.71 168.35 25.81C168.414 25.8107 168.476 25.8313 168.528 25.8689C168.58 25.9065 168.619 25.9593 168.64 26.02L171 31.35C171.023 31.4018 171.033 31.4586 171.029 31.5153C171.025 31.572 171.007 31.6267 170.976 31.6745C170.945 31.7222 170.903 31.7615 170.853 31.7886C170.803 31.8158 170.747 31.83 170.69 31.83H167.94V32.31H174.75V31.83H172.86C172.794 31.8279 172.729 31.8071 172.675 31.7699C172.62 31.7328 172.576 31.6808 172.55 31.62L164.55 13.1L163.57 11H162.15L154.15 31.65C154.124 31.7142 154.08 31.7693 154.023 31.8085C153.966 31.8476 153.899 31.869 153.83 31.87L152.21 31.83ZM159.61 25.92L163.61 15.92C163.635 15.8573 163.679 15.8037 163.735 15.7659C163.791 15.7281 163.857 15.708 163.925 15.708C163.993 15.708 164.059 15.7281 164.115 15.7659C164.171 15.8037 164.215 15.8573 164.24 15.92L167.81 24C167.833 24.0518 167.843 24.1086 167.839 24.1653C167.835 24.222 167.817 24.2767 167.786 24.3245C167.755 24.3722 167.713 24.4115 167.663 24.4386C167.613 24.4658 167.557 24.48 167.5 24.48C164.919 24.4528 162.374 25.0789 160.1 26.3C160.042 26.3307 159.977 26.3441 159.911 26.3385C159.846 26.3329 159.784 26.3085 159.732 26.2684C159.68 26.2283 159.641 26.174 159.62 26.1122C159.598 26.0504 159.595 25.9837 159.61 25.92Z" fill="#E8F3FF"/>
<path d="M36.0101 9.29004L35.7501 9.74004H2.13012L1.87012 9.29004H36.0101Z" fill="#E8F3FF"/>
<path d="M36.0101 32.31H1.87012L2.27012 31.63H35.6201L36.0101 32.31Z" fill="#E8F3FF"/>
<path d="M9.22006 10.6L9.01006 11.06H3.28006L3.06006 10.6H9.22006Z" fill="#E8F3FF"/>
<path d="M8.88989 11.29L8.56989 11.98H3.71989L3.38989 11.29H8.88989Z" fill="#E8F3FF"/>
<path d="M3.8501 12.34H4.9201V29.34H3.8501V12.34Z" fill="#E8F3FF"/>
<path d="M5.61011 12.34H6.67011V29.34H5.61011V12.34Z" fill="#E8F3FF"/>
<path d="M7.36011 12.34H8.43011V29.34H7.36011V12.34Z" fill="#E8F3FF"/>
<path d="M12.3899 12.34H13.4499V29.34H12.3899V12.34Z" fill="#E8F3FF"/>
<path d="M14.1399 12.34H15.2099V29.34H14.1399V12.34Z" fill="#E8F3FF"/>
<path d="M15.8899 12.34H16.9999V29.34H15.8899V12.34Z" fill="#E8F3FF"/>
<path d="M20.9199 12.34H21.9999V29.34H20.9199V12.34Z" fill="#E8F3FF"/>
<path d="M22.6699 12.34H23.7399V29.34H22.6699V12.34Z" fill="#E8F3FF"/>
<path d="M24.4299 12.34H25.4899V29.34H24.4299V12.34Z" fill="#E8F3FF"/>
<path d="M29.45 12.34H30.52V29.34H29.45V12.34Z" fill="#E8F3FF"/>
<path d="M31.21 12.34H32.27V29.34H31.21V12.34Z" fill="#E8F3FF"/>
<path d="M33 12.34H34V29.34H33V12.34Z" fill="#E8F3FF"/>
<path d="M18.94 0L0 8.59H37.88L18.94 0ZM18.94 6.73C18.5956 6.7006 18.2747 6.54301 18.0409 6.28839C17.8071 6.03377 17.6774 5.70068 17.6774 5.355C17.6774 5.00932 17.8071 4.67623 18.0409 4.42161C18.2747 4.16699 18.5956 4.0094 18.94 3.98C19.1304 3.96375 19.3221 3.98722 19.503 4.04894C19.6839 4.11066 19.85 4.20928 19.9908 4.33854C20.1315 4.46781 20.2439 4.62491 20.3208 4.79988C20.3977 4.97485 20.4374 5.16388 20.4374 5.355C20.4374 5.54612 20.3977 5.73515 20.3208 5.91012C20.2439 6.08509 20.1315 6.24219 19.9908 6.37146C19.85 6.50072 19.6839 6.59934 19.503 6.66106C19.3221 6.72278 19.1304 6.74625 18.94 6.73Z" fill="#E8F3FF"/>
<path d="M9.22006 31.06L9.01006 30.6H3.28006L3.06006 31.06H9.22006Z" fill="#E8F3FF"/>
<path d="M8.88989 30.3601L8.56989 29.6801H3.71989L3.38989 30.3601H8.88989Z" fill="#E8F3FF"/>
<path d="M17.7501 10.6L17.5401 11.06H11.8101L11.6001 10.6H17.7501Z" fill="#E8F3FF"/>
<path d="M17.4299 11.29L17.1099 11.98H12.2499L11.9299 11.29H17.4299Z" fill="#E8F3FF"/>
<path d="M12.3899 12.34H13.4499V29.34H12.3899V12.34Z" fill="#E8F3FF"/>
<path d="M14.1399 12.34H15.2099V29.34H14.1399V12.34Z" fill="#E8F3FF"/>
<path d="M15.8899 12.34H16.9999V29.34H15.8899V12.34Z" fill="#E8F3FF"/>
<path d="M17.7501 31.06L17.5401 30.6H11.8101L11.6001 31.06H17.7501Z" fill="#E8F3FF"/>
<path d="M17.4299 30.3601L17.1099 29.6801H12.2499L11.9299 30.3601H17.4299Z" fill="#E8F3FF"/>
<path d="M26.2899 10.6L26.0699 11.06H20.3399L20.1299 10.6H26.2899Z" fill="#E8F3FF"/>
<path d="M25.96 11.29L25.64 11.98H20.78L20.46 11.29H25.96Z" fill="#E8F3FF"/>
<path d="M20.9199 12.34H21.9999V29.34H20.9199V12.34Z" fill="#E8F3FF"/>
<path d="M22.6699 12.34H23.7399V29.34H22.6699V12.34Z" fill="#E8F3FF"/>
<path d="M24.4199 12.34H25.4899V29.34H24.4199V12.34Z" fill="#E8F3FF"/>
<path d="M26.2899 31.06L26.0699 30.6H20.3399L20.1299 31.06H26.2899Z" fill="#E8F3FF"/>
<path d="M25.96 30.3601L25.64 29.6801H20.78L20.46 30.3601H25.96Z" fill="#E8F3FF"/>
<path d="M34.8199 10.6L34.6099 11.06H28.8799L28.6699 10.6H34.8199Z" fill="#E8F3FF"/>
<path d="M34.49 11.29L34.17 11.98H29.32L28.99 11.29H34.49Z" fill="#E8F3FF"/>
<path d="M29.45 12.34H30.52V29.34H29.45V12.34Z" fill="#E8F3FF"/>
<path d="M31.21 12.34H32.27V29.34H31.21V12.34Z" fill="#E8F3FF"/>
<path d="M33 12.34H34V29.34H33V12.34Z" fill="#E8F3FF"/>
<path d="M34.8199 31.06L34.6099 30.6H28.8799L28.6699 31.06H34.8199Z" fill="#E8F3FF"/>
<path d="M34.49 30.3601L34.17 29.6801H29.32L28.99 30.3601H34.49Z" fill="#E8F3FF"/>
</svg>
