<svg width="22" height="23" viewBox="0 0 22 23" fill="none" xmlns="http://www.w3.org/2000/svg">
<path d="M18.9697 2.92525C18.9697 2.14324 18.3335 1.50706 17.5515 1.50706H16.7128V2.6551C16.7128 2.85064 16.5529 3.01051 16.3573 3.01051C16.1618 3.01051 16.0019 2.85064 16.0019 2.6551V0.355413C16.0019 0.15987 15.8421 0 15.6465 0C15.451 0 15.2911 0.15987 15.2911 0.355413V1.50345H14.2498V2.6515C14.2498 2.84704 14.0899 3.00691 13.8943 3.00691C13.6988 3.00691 13.5389 2.84704 13.5389 2.6515L13.5388 1.50345V0.355413C13.5388 0.15987 13.3789 0 13.1834 0C12.9878 0 12.8279 0.15987 12.8279 0.355413V1.50345H11.7866V2.6515C11.7866 2.84704 11.6267 3.00691 11.4312 3.00691C11.2356 3.00691 11.0758 2.84704 11.0758 2.6515V0.355413C11.0758 0.15987 10.9159 0 10.7204 0C10.5248 0 10.365 0.15987 10.365 0.355413V1.50345H9.32361V2.6515C9.32361 2.84704 9.16374 3.00691 8.9682 3.00691C8.77265 3.00691 8.61278 2.84704 8.61278 2.6515L8.61262 1.50345V0.355413C8.61262 0.15987 8.45275 0 8.25721 0C8.06166 0 7.9018 0.15987 7.9018 0.355413V1.50345H6.86045V2.6515C6.86045 2.84704 6.70058 3.00691 6.50504 3.00691C6.30949 3.00691 6.14963 2.84704 6.14963 2.6515L6.14946 1.50345V0.355413C6.14946 0.15987 5.98959 0 5.79405 0C5.59851 0 5.43864 0.15987 5.43864 0.355413V1.50345H4.39729V2.6515C4.39729 2.84704 4.23742 3.00691 4.04188 3.00691C3.84634 3.00691 3.68647 2.84704 3.68647 2.6515L3.6863 1.50345V0.355413C3.6863 0.15987 3.52644 0 3.33089 0C3.13535 0 2.97548 0.15987 2.97548 0.355413V1.50345H1.41868C0.636673 1.50345 0.000488281 2.13968 0.000488281 2.92165V4.33984H18.9733V2.92521L18.9697 2.92525Z" fill="#3F72A4"/>
<path d="M10.1067 8.52803L15.1004 10.0636L20.0979 8.52803L15.1004 6.99268L10.1067 8.52803Z" fill="#3F72A4"/>
<path d="M21.4142 21.2434H10.0154C9.35437 21.2434 8.83188 20.6391 8.97409 19.9531C9.07718 19.4555 9.53927 19.1107 10.0475 19.1107H21.4178C21.7341 19.1107 21.99 18.8548 21.99 18.5385C21.99 18.2222 21.7341 17.9663 21.4178 17.9663H10.0903C8.91373 17.9663 7.88302 18.8514 7.80477 20.0278C7.71952 21.3144 8.74303 22.3915 10.012 22.3915H21.4107C21.727 22.3915 21.9829 22.1355 21.9829 21.8192C21.9865 21.5029 21.7306 21.2434 21.4143 21.2434L21.4142 21.2434Z" fill="#3F72A4"/>
<path d="M10.4533 12.8335C10.137 12.8335 9.8811 13.0894 9.8811 13.4057C9.8811 13.722 10.137 13.9779 10.4533 13.9779H19.7764C20.4374 13.9779 20.9599 14.5822 20.8177 15.2682C20.7146 15.7658 20.2525 16.1105 19.7443 16.1105H10.4535C10.1372 16.1105 9.88127 16.3665 9.88127 16.6828C9.88127 16.9991 10.1372 17.255 10.4535 17.255H19.6982C20.8747 17.255 21.9054 16.3699 21.9837 15.1935C22.069 13.9069 21.0454 12.8298 19.7765 12.8298L10.4534 12.83L10.4533 12.8335Z" fill="#3F72A4"/>
<path d="M19.7413 9.37844V10.0893C19.5636 10.2066 19.4426 10.4056 19.4426 10.6366C19.4426 10.9956 19.7341 11.2906 20.0967 11.2906C20.4557 11.2906 20.7507 10.9992 20.7507 10.6366C20.7507 10.4092 20.6334 10.2066 20.4521 10.0893V9.16162L19.7413 9.37844Z" fill="#3F72A4"/>
<path d="M10.0454 19.8245C9.8641 19.8245 9.70063 19.9418 9.66872 20.0982C9.64025 20.2404 9.69 20.3435 9.73974 20.4039C9.80732 20.4857 9.90681 20.5355 10.0135 20.5355H20.7545C20.719 20.3008 20.719 20.0627 20.7545 19.8281H10.0453L10.0454 19.8245Z" fill="#3F72A4"/>
<path d="M15.0988 10.8097L11.7151 9.76831V12.1248H18.4862V9.76831L15.0988 10.8097Z" fill="#3F72A4"/>
<path d="M9.35847 17.3472C9.22691 17.1304 9.15229 16.8745 9.17013 16.5973C9.21627 15.9077 9.8384 15.3995 10.5279 15.3995H19.7442C19.9255 15.3995 20.089 15.2822 20.1209 15.1257C20.1493 14.9835 20.0996 14.8804 20.0499 14.8201C19.9823 14.7382 19.8828 14.6885 19.7761 14.6885L10.4886 14.6887C9.8773 14.6887 9.31932 14.2729 9.19479 13.6756C9.02412 12.851 9.65687 12.1224 10.453 12.1224H11.0075V9.54547L8.79323 8.86312C8.45909 8.76003 8.45909 8.2873 8.79323 8.18421L15.1023 6.24352L18.9728 7.43429V5.04932H0V18.1329C0 18.9149 0.636226 19.5511 1.41819 19.5511H7.16174C7.40358 18.4704 8.26725 17.6174 9.35837 17.3473L9.35847 17.3472ZM6.2059 11.0599H8.69036V13.5444H6.2059V11.0599ZM4.60998 17.4255H2.12895V14.9411H4.61341V17.4255H4.60998ZM4.60998 13.5443H2.12895V11.0599H4.61341V13.5443H4.60998ZM4.60998 9.66296H2.12895V7.1785H4.61341V9.66296H4.60998ZM6.2059 17.4256V14.9412H8.69036V17.4256H6.2059Z" fill="#3F72A4"/>
</svg>
