<svg width="39" height="39" viewBox="0 0 39 39" fill="none" xmlns="http://www.w3.org/2000/svg">
<path d="M28.1838 33.7047C27.9271 33.7058 27.674 33.6452 27.4455 33.5282L19.26 29.2428L11.0745 33.5282C10.8087 33.6679 10.509 33.7303 10.2095 33.7083C9.91005 33.6862 9.62275 33.5805 9.38032 33.4033C9.13789 33.2261 8.95004 32.9844 8.83813 32.7057C8.72622 32.427 8.69474 32.1225 8.74726 31.8269L10.3523 22.7907L3.73966 16.3707C3.53335 16.1648 3.387 15.9067 3.31631 15.6239C3.24562 15.3411 3.25326 15.0445 3.33841 14.7657C3.43144 14.4805 3.60256 14.227 3.83235 14.0341C4.06215 13.8412 4.34141 13.7165 4.63846 13.6743L13.787 12.3422L17.8155 4.10852C17.9469 3.83716 18.1521 3.60831 18.4076 3.44818C18.6631 3.28805 18.9585 3.20312 19.26 3.20312C19.5615 3.20312 19.8569 3.28805 20.1124 3.44818C20.3679 3.60831 20.5731 3.83716 20.7045 4.10852L24.7812 12.3261L33.9297 13.6583C34.2268 13.7005 34.506 13.8251 34.7358 14.018C34.9656 14.211 35.1367 14.4644 35.2298 14.7497C35.3149 15.0284 35.3226 15.3251 35.2519 15.6079C35.1812 15.8906 35.0348 16.1488 34.8285 16.3547L28.2159 22.7747L29.8209 31.8108C29.8782 32.1117 29.8482 32.4227 29.7345 32.7071C29.6207 32.9915 29.4279 33.2374 29.1789 33.4158C28.8883 33.6195 28.5383 33.7211 28.1838 33.7047Z" fill="#FFCC00"/>
</svg>
