<svg width="40" height="40" viewBox="0 0 40 40" fill="none" xmlns="http://www.w3.org/2000/svg">
<path d="M19.5446 26.0586C19.1641 26.0593 18.7953 25.9268 18.5022 25.684L8.72975 17.5402C8.39713 17.2637 8.18796 16.8665 8.14825 16.4358C8.10854 16.0051 8.24155 15.5763 8.51801 15.2437C8.79447 14.911 9.19174 14.7019 9.62243 14.6622C10.0531 14.6225 10.4819 14.7555 10.8145 15.0319L19.5446 22.3287L28.2747 15.2925C28.4413 15.1572 28.633 15.0562 28.8388 14.9952C29.0446 14.9343 29.2604 14.9146 29.4738 14.9373C29.6872 14.96 29.894 15.0246 30.0824 15.1275C30.2707 15.2304 30.4369 15.3695 30.5713 15.5368C30.7204 15.7043 30.8334 15.9008 30.9031 16.1139C30.9728 16.3271 30.9977 16.5524 30.9763 16.7756C30.9549 16.9988 30.8876 17.2153 30.7787 17.4113C30.6698 17.6073 30.5215 17.7787 30.3433 17.9148L20.5708 25.7817C20.2693 25.9861 19.908 26.0836 19.5446 26.0586Z" fill="#3F72A4"/>
</svg>
