<svg width="39" height="39" viewBox="0 0 39 39" fill="none" xmlns="http://www.w3.org/2000/svg">
<path d="M28.1838 33.7057C27.9271 33.7067 27.6739 33.6462 27.4455 33.5291L19.26 29.2438L11.0745 33.5291C10.8087 33.6689 10.509 33.7313 10.2095 33.7092C9.91003 33.6872 9.62274 33.5815 9.38031 33.4043C9.13787 33.227 8.95002 32.9854 8.83811 32.7067C8.7262 32.428 8.69472 32.1235 8.74725 31.8278L10.3522 22.7917L3.73965 16.3717C3.53334 16.1658 3.38698 15.9076 3.31629 15.6249C3.2456 15.3421 3.25324 15.0454 3.3384 14.7667C3.43142 14.4814 3.60254 14.228 3.83234 14.0351C4.06213 13.8422 4.3414 13.7175 4.63845 13.6753L13.7869 12.3431L17.8155 4.1095C17.9469 3.83814 18.1521 3.60929 18.4076 3.44916C18.6631 3.28903 18.9585 3.2041 19.26 3.2041C19.5615 3.2041 19.8569 3.28903 20.1124 3.44916C20.3679 3.60929 20.5731 3.83814 20.7045 4.1095L24.7812 12.3271L33.9297 13.6592C34.2267 13.7015 34.506 13.8261 34.7358 14.019C34.9656 14.2119 35.1367 14.4654 35.2297 14.7506C35.3149 15.0294 35.3225 15.3261 35.2519 15.6088C35.1812 15.8916 35.0348 16.1498 34.8285 16.3556L28.2159 22.7756L29.8209 31.8118C29.8782 32.1127 29.8482 32.4237 29.7344 32.7081C29.6207 32.9925 29.4279 33.2384 29.1789 33.4168C28.8883 33.6205 28.5383 33.7221 28.1838 33.7057ZM19.26 25.8412C19.5173 25.8347 19.7718 25.8956 19.9983 26.0177L26.0491 29.2277L24.8935 22.4707C24.8487 22.2127 24.8677 21.9476 24.9488 21.6987C25.0299 21.4497 25.1708 21.2243 25.359 21.0422L30.174 16.3396L23.433 15.3445C23.1858 15.2947 22.9538 15.1874 22.7558 15.0313C22.5578 14.8751 22.3994 14.6745 22.2934 14.4457L19.26 8.42695L16.2265 14.4457C16.1104 14.6763 15.9404 14.8756 15.7308 15.0264C15.5212 15.1773 15.2784 15.2754 15.0228 15.3124L8.2818 16.3075L13.0968 21.0101C13.285 21.1922 13.4258 21.4176 13.507 21.6665C13.5881 21.9155 13.6071 22.1806 13.5622 22.4386L12.4066 29.1154L18.4575 25.9054C18.7139 25.8101 18.9917 25.7879 19.26 25.8412Z" fill="#3F72A4"/>
</svg>
