<svg width="40" height="40" viewBox="0 0 40 40" fill="none" xmlns="http://www.w3.org/2000/svg">
<path d="M19.5449 26.0595C19.1643 26.0603 18.7955 25.9277 18.5025 25.6849L8.72999 17.5412C8.39737 17.2647 8.1882 16.8674 8.14849 16.4368C8.10879 16.0061 8.24179 15.5773 8.51825 15.2446C8.79472 14.912 9.19199 14.7029 9.62267 14.6631C10.0534 14.6234 10.4822 14.7564 10.8148 15.0329L19.5449 22.3297L28.275 15.2935C28.4416 15.1582 28.6333 15.0572 28.8391 14.9962C29.0448 14.9352 29.2606 14.9155 29.474 14.9382C29.6875 14.961 29.8943 15.0256 30.0826 15.1285C30.271 15.2314 30.4371 15.3705 30.5715 15.5378C30.7207 15.7053 30.8337 15.9018 30.9034 16.1149C30.9731 16.3281 30.998 16.5533 30.9766 16.7766C30.9552 16.9998 30.8879 17.2162 30.779 17.4123C30.67 17.6083 30.5218 17.7797 30.3435 17.9158L20.571 25.7827C20.2695 25.9871 19.9083 26.0846 19.5449 26.0595Z" fill="#3F72A4"/>
</svg>
