<svg width="15" height="15" viewBox="0 0 15 15" fill="none" xmlns="http://www.w3.org/2000/svg">
<path d="M14.3646 3.06073L11.8095 0.505645C11.476 0.192411 11.039 0.0126817 10.5817 0.000646004C10.1243 -0.0113897 9.67851 0.145108 9.32902 0.44037L0.93643 8.83297C0.63501 9.13693 0.447332 9.53534 0.404899 9.96131L0.0039193 13.8499C-0.00864259 13.9865 0.00908012 14.1241 0.0558239 14.2531C0.102568 14.382 0.177182 14.4991 0.274347 14.5959C0.361481 14.6823 0.464818 14.7507 0.578433 14.7971C0.692048 14.8435 0.813705 14.867 0.93643 14.8663H1.02036L4.90892 14.512C5.33489 14.4695 5.7333 14.2818 6.03726 13.9804L14.4299 5.58783C14.7556 5.2437 14.9316 4.78448 14.9194 4.31079C14.9072 3.8371 14.7077 3.38758 14.3646 3.06073ZM4.74107 12.6469L1.94354 12.908L2.19532 10.1105L7.464 4.9071L9.98178 7.42488L4.74107 12.6469ZM11.194 6.17531L8.69492 3.67618L10.5133 1.81116L13.0591 4.35691L11.194 6.17531Z" fill="#3F72A4"/>
</svg>
