<svg width="18" height="18" viewBox="0 0 18 18" fill="none" xmlns="http://www.w3.org/2000/svg">
<path d="M8.75 0C3.92875 0 0 3.92875 0 8.75C0 13.5712 3.92875 17.5 8.75 17.5C13.5712 17.5 17.5 13.5712 17.5 8.75C17.5 3.92875 13.5712 0 8.75 0ZM12.9325 6.7375L7.97125 11.6987C7.84875 11.8212 7.6825 11.8913 7.5075 11.8913C7.3325 11.8913 7.16625 11.8212 7.04375 11.6987L4.5675 9.2225C4.31375 8.96875 4.31375 8.54875 4.5675 8.295C4.82125 8.04125 5.24125 8.04125 5.495 8.295L7.5075 10.3075L12.005 5.81C12.2587 5.55625 12.6788 5.55625 12.9325 5.81C13.1863 6.06375 13.1863 6.475 12.9325 6.7375Z" fill="#29D277"/>
</svg>
