<svg width="40" height="40" viewBox="0 0 40 40" fill="none" xmlns="http://www.w3.org/2000/svg">
<path fill-rule="evenodd" clip-rule="evenodd" d="M32.3077 14.5335C32.996 14.5902 33.5093 15.1918 33.4543 15.8802C33.4443 15.9935 32.541 27.1785 32.021 31.8702C31.6977 34.7818 29.7743 36.5535 26.871 36.6068C24.6493 36.6452 22.506 36.6668 20.411 36.6668C18.1527 36.6668 15.951 36.6418 13.7727 36.5968C10.986 36.5418 9.05767 34.7352 8.74267 31.8818C8.21767 27.1485 7.31933 15.9918 7.311 15.8802C7.25433 15.1918 7.76767 14.5885 8.456 14.5335C9.13433 14.5152 9.74767 14.9918 9.80267 15.6785C9.80799 15.7508 10.1752 20.3069 10.5754 24.8147L10.6558 25.7142C10.8574 27.9549 11.0617 30.1079 11.2277 31.6068C11.406 33.2285 12.281 34.0652 13.8243 34.0968C17.991 34.1852 22.2427 34.1902 26.826 34.1068C28.466 34.0752 29.3527 33.2552 29.536 31.5952C30.0527 26.9385 30.9527 15.7918 30.9627 15.6785C31.0177 14.9918 31.626 14.5118 32.3077 14.5335ZM23.909 3.33398C25.439 3.33398 26.784 4.36565 27.179 5.84398L27.6023 7.94565C27.7391 8.63461 28.3437 9.13775 29.0438 9.1488L34.5133 9.14898C35.2033 9.14898 35.7633 9.70898 35.7633 10.399C35.7633 11.089 35.2033 11.649 34.5133 11.649L29.0926 11.6487C29.0842 11.6489 29.0758 11.649 29.0673 11.649L29.0267 11.6473L11.736 11.6488C11.7226 11.6489 11.7091 11.649 11.6957 11.649L11.67 11.6473L6.25 11.649C5.56 11.649 5 11.089 5 10.399C5 9.70898 5.56 9.14898 6.25 9.14898L11.7183 9.14732L11.8867 9.13666C12.5138 9.05529 13.0351 8.57898 13.1623 7.94565L13.5673 5.91898C13.979 4.36565 15.324 3.33398 16.854 3.33398H23.909ZM23.909 5.83398H16.854C16.454 5.83398 16.1023 6.10232 16.0007 6.48732L15.6123 8.43732C15.563 8.68431 15.4911 8.92234 15.3991 9.14943H25.3644C25.2723 8.92234 25.2002 8.68431 25.1507 8.43732L24.7457 6.41065C24.6607 6.10232 24.309 5.83398 23.909 5.83398Z" fill="#3F72A4"/>
</svg>
