<svg width="20" height="20" viewBox="0 0 20 20" fill="none" xmlns="http://www.w3.org/2000/svg">
<g id="material-symbols:phone-enabled-sharp">
<path id="Vector" d="M3.375 17.5C3.23611 17.5 3.09028 17.4964 2.9375 17.4892C2.78472 17.4819 2.63889 17.4717 2.5 17.4583V12.5833L6.66667 11.75L9.08333 14.1667C10.1389 13.5278 11.1078 12.7708 11.99 11.8958C12.8722 11.0208 13.6047 10.0833 14.1875 9.08333L11.8125 6.6875L12.5833 2.5H17.4583C17.4861 2.63889 17.5 2.78472 17.5 2.9375V3.375C17.5 5.16667 17.1008 6.91333 16.3025 8.615C15.5042 10.3167 14.4486 11.8269 13.1358 13.1458C11.8231 14.4653 10.3161 15.5208 8.615 16.3125C6.91389 17.1042 5.16722 17.5 3.375 17.5Z" fill="#3F72A4"/>
</g>
</svg>
